<svg width="37" height="37" viewBox="0 0 37 37" fill="none" xmlns="http://www.w3.org/2000/svg">
<path d="M23.6103 7.45001C25.0603 8.08001 26.3203 8.93001 27.4103 10.01C28.5003 11.09 29.3403 12.34 29.9703 13.79C30.5903 15.24 30.9003 16.79 30.9003 18.44C30.9003 20.09 30.5903 21.65 29.9703 23.1C29.3503 24.56 28.5003 25.82 27.4103 26.9C26.3203 27.98 25.0603 28.82 23.6103 29.44C22.1603 30.06 20.6103 30.37 18.9603 30.37C17.3103 30.37 15.7603 30.06 14.3103 29.44C12.8603 28.82 11.6003 27.97 10.5203 26.9C9.44026 25.83 8.58027 24.56 7.96027 23.1C7.34027 21.64 7.03027 20.09 7.03027 18.44C7.03027 16.79 7.34027 15.24 7.96027 13.79C8.58027 12.34 9.43026 11.08 10.5203 10.01C11.6003 8.94001 12.8703 8.08001 14.3103 7.45001C15.7603 6.82001 17.3103 6.5 18.9603 6.5C20.6103 6.5 22.1603 6.82001 23.6103 7.45001ZM24.0803 23.55L20.2403 13.32H17.6803L13.8503 23.55H16.4603L17.2603 20.99H20.6703L21.5203 23.55H24.0803ZM19.3903 15.88L20.6703 19.72H17.2603L18.5403 15.88H19.3903Z" fill="black"/>
</svg>
