<svg width="35" height="35" viewBox="0 0 35 35" fill="none" xmlns="http://www.w3.org/2000/svg">
<path d="M22.1445 6.51495C23.5945 7.14495 24.8545 7.99495 25.9445 9.07494C27.0345 10.1549 27.8745 11.4049 28.5045 12.8549C29.1245 14.3049 29.4345 15.8549 29.4345 17.5049C29.4345 19.1549 29.1245 20.7149 28.5045 22.1649C27.8845 23.6249 27.0345 24.8849 25.9445 25.9649C24.8545 27.0449 23.5945 27.8849 22.1445 28.5049C20.6945 29.1249 19.1445 29.4349 17.4945 29.4349C15.8445 29.4349 14.2945 29.1249 12.8445 28.5049C11.3945 27.8849 10.1345 27.0349 9.05448 25.9649C7.97444 24.8949 7.11445 23.6249 6.49445 22.1649C5.87445 20.7049 5.56445 19.1549 5.56445 17.5049C5.56445 15.8549 5.87445 14.3049 6.49445 12.8549C7.11445 11.4049 7.96444 10.1449 9.05448 9.07494C10.1345 8.00495 11.4045 7.14495 12.8445 6.51495C14.2945 5.88495 15.8445 5.56494 17.4945 5.56494C19.1445 5.56494 20.6945 5.88495 22.1445 6.51495ZM22.6145 22.6149L18.7745 12.3849H16.2145L12.3845 22.6149H14.9945L15.7945 20.0549H19.2045L20.0545 22.6149H22.6145ZM17.9245 14.9449L19.2045 18.7849H15.7945L17.0745 14.9449H17.9245Z" fill="#EBEBEB"/>
</svg>
