<svg width="37" height="37" viewBox="0 0 37 37" fill="none" xmlns="http://www.w3.org/2000/svg">
<path d="M22.8905 7.35968C24.3405 7.98968 25.6006 8.83968 26.6906 9.91968C27.7806 10.9997 28.6205 12.2497 29.2505 13.6997C29.8705 15.1497 30.1805 16.6997 30.1805 18.3497C30.1805 19.9997 29.8705 21.5597 29.2505 23.0097C28.6305 24.4697 27.7806 25.7297 26.6906 26.8097C25.6006 27.8897 24.3405 28.7297 22.8905 29.3497C21.4405 29.9697 19.8905 30.2797 18.2405 30.2797C16.5905 30.2797 15.0405 29.9697 13.5905 29.3497C12.1405 28.7297 10.8805 27.8797 9.80054 26.8097C8.72054 25.7397 7.86054 24.4697 7.24054 23.0097C6.62054 21.5497 6.31055 19.9997 6.31055 18.3497C6.31055 16.6997 6.62054 15.1497 7.24054 13.6997C7.86054 12.2497 8.71054 10.9897 9.80054 9.91968C10.8805 8.84968 12.1505 7.98968 13.5905 7.35968C15.0405 6.72968 16.5905 6.40967 18.2405 6.40967C19.8905 6.40967 21.4405 6.72968 22.8905 7.35968ZM21.4905 22.6597C21.8305 22.3797 22.0805 22.0497 22.2505 21.6697C22.4205 21.2997 22.5005 20.8897 22.5005 20.4397C22.5005 20.1197 22.4505 19.8197 22.3405 19.5497C22.2305 19.2797 22.0705 19.0297 21.8605 18.8197C21.6505 18.5897 21.3905 18.4097 21.1005 18.2697C20.8105 18.1397 20.4705 18.0497 20.1005 18.0197V17.9697C20.4005 17.8797 20.6706 17.7697 20.9106 17.6397C21.1506 17.5097 21.3705 17.3297 21.5605 17.1197C21.7505 16.9097 21.9005 16.6797 21.9905 16.4397C22.0805 16.1997 22.1205 15.9497 22.1205 15.6797C22.1205 15.2897 22.0405 14.9397 21.8705 14.6397C21.7005 14.3397 21.4706 14.0797 21.1606 13.8697C20.8406 13.6597 20.4705 13.4997 20.0405 13.3897C19.6105 13.2797 19.1105 13.2297 18.5205 13.2297H14.8205V23.4597H18.7405C19.3305 23.4597 19.8405 23.3997 20.2805 23.2697C20.7205 23.1497 21.1205 22.9397 21.4805 22.6597H21.4905ZM19.9706 19.8497C20.0406 19.9997 20.0805 20.1697 20.0805 20.3697C20.0805 20.5797 20.0405 20.7697 19.9605 20.9397C19.8805 21.1097 19.7605 21.2597 19.6005 21.3797C19.4605 21.4997 19.2805 21.5997 19.0705 21.6597C18.8605 21.7197 18.6306 21.7497 18.3806 21.7497H17.1306V19.0897H18.4106C18.6806 19.0897 18.9105 19.1197 19.1205 19.1697C19.3205 19.2197 19.5106 19.2997 19.6606 19.4097C19.8006 19.5497 19.9105 19.6997 19.9805 19.8497H19.9706ZM18.7805 17.2897C18.5905 17.3497 18.3905 17.3897 18.1805 17.4097H17.1705V14.9897H18.0205C18.5705 14.9897 18.9805 15.0797 19.2605 15.2597C19.5305 15.4397 19.6705 15.7197 19.6705 16.1097C19.6705 16.2897 19.6305 16.4597 19.5605 16.6297C19.4905 16.7997 19.3805 16.9397 19.2405 17.0397C19.1205 17.1497 18.9605 17.2297 18.7705 17.2897H18.7805Z" fill="black"/>
</svg>
