<svg width="35" height="35" viewBox="0 0 35 35" fill="none" xmlns="http://www.w3.org/2000/svg">
<path d="M22.1444 6.51495C23.5944 7.14495 24.8545 7.99495 25.9445 9.07495C27.0345 10.155 27.8744 11.405 28.5044 12.855C29.1244 14.305 29.4344 15.855 29.4344 17.505C29.4344 19.155 29.1244 20.715 28.5044 22.165C27.8844 23.625 27.0345 24.885 25.9445 25.965C24.8545 27.045 23.5944 27.885 22.1444 28.505C20.6944 29.125 19.1444 29.435 17.4944 29.435C15.8444 29.435 14.2944 29.125 12.8444 28.505C11.3944 27.885 10.1344 27.035 9.05444 25.965C7.97444 24.895 7.11444 23.625 6.49444 22.165C5.87444 20.705 5.56445 19.155 5.56445 17.505C5.56445 15.855 5.87444 14.305 6.49444 12.855C7.11444 11.405 7.96444 10.145 9.05444 9.07495C10.1344 8.00495 11.4044 7.14495 12.8444 6.51495C14.2944 5.88495 15.8444 5.56494 17.4944 5.56494C19.1444 5.56494 20.6944 5.88495 22.1444 6.51495ZM20.7444 21.815C21.0844 21.535 21.3344 21.205 21.5044 20.825C21.6744 20.455 21.7544 20.045 21.7544 19.595C21.7544 19.275 21.7044 18.975 21.5944 18.705C21.4844 18.435 21.3244 18.185 21.1144 17.975C20.9044 17.745 20.6444 17.565 20.3544 17.425C20.0644 17.295 19.7244 17.205 19.3544 17.175V17.125C19.6544 17.035 19.9245 16.925 20.1645 16.795C20.4045 16.665 20.6244 16.485 20.8144 16.275C21.0044 16.065 21.1544 15.835 21.2444 15.595C21.3344 15.355 21.3744 15.105 21.3744 14.835C21.3744 14.445 21.2944 14.095 21.1244 13.795C20.9544 13.495 20.7245 13.235 20.4145 13.025C20.0945 12.815 19.7244 12.655 19.2944 12.545C18.8644 12.435 18.3644 12.385 17.7744 12.385H14.0744V22.615H17.9944C18.5844 22.615 19.0944 22.555 19.5344 22.425C19.9744 22.305 20.3744 22.095 20.7344 21.815H20.7444ZM19.2245 19.005C19.2945 19.155 19.3344 19.325 19.3344 19.525C19.3344 19.735 19.2944 19.925 19.2144 20.095C19.1344 20.265 19.0144 20.415 18.8544 20.535C18.7144 20.655 18.5344 20.755 18.3244 20.815C18.1144 20.875 17.8845 20.905 17.6345 20.905H16.3845V18.245H17.6645C17.9345 18.245 18.1644 18.275 18.3744 18.325C18.5744 18.375 18.7645 18.455 18.9145 18.565C19.0545 18.705 19.1644 18.855 19.2344 19.005H19.2245ZM18.0344 16.445C17.8444 16.505 17.6444 16.545 17.4344 16.565H16.4244V14.145H17.2744C17.8244 14.145 18.2344 14.235 18.5144 14.415C18.7844 14.595 18.9244 14.875 18.9244 15.265C18.9244 15.445 18.8844 15.615 18.8144 15.785C18.7444 15.955 18.6344 16.095 18.4944 16.195C18.3744 16.305 18.2144 16.385 18.0244 16.445H18.0344Z" fill="#EBEBEB"/>
</svg>
