<svg width="35" height="35" viewBox="0 0 35 35" fill="none" xmlns="http://www.w3.org/2000/svg">
<path d="M6.49445 12.8549C7.11445 11.4049 7.96445 10.1449 9.05445 9.07495C10.1344 8.00495 11.4044 7.14496 12.8444 6.51496C14.2944 5.88496 15.8444 5.56494 17.4944 5.56494C19.1444 5.56494 20.6944 5.88496 22.1444 6.51496C23.5944 7.14496 24.8544 7.99495 25.9444 9.07495C27.0344 10.1549 27.8744 11.4049 28.5044 12.8549C29.1244 14.3049 29.4344 15.8549 29.4344 17.5049C29.4344 19.1549 29.1244 20.7149 28.5044 22.1649C27.8844 23.6249 27.0344 24.8849 25.9444 25.9649C24.8544 27.0449 23.5944 27.8849 22.1444 28.5049C20.6944 29.1249 19.1444 29.4349 17.4944 29.4349C15.8444 29.4349 14.2944 29.1249 12.8444 28.5049C11.3944 27.8849 10.1344 27.0349 9.05445 25.9649C7.97445 24.8949 7.11445 23.6249 6.49445 22.1649C5.87445 20.7049 5.56445 19.1549 5.56445 17.5049C5.56445 15.8549 5.87445 14.3049 6.49445 12.8549ZM21.3244 11.5349L11.9444 17.5049L21.3244 23.4749V11.5449V11.5349Z" fill="#EBEBEB"/>
</svg>
