<svg width="37" height="37" viewBox="0 0 37 37" fill="none" xmlns="http://www.w3.org/2000/svg">
<path d="M22.7997 7.55988C24.2497 8.18988 25.5097 9.03987 26.5997 10.1199C27.6897 11.1999 28.5297 12.4499 29.1597 13.8999C29.7797 15.3499 30.0897 16.8999 30.0897 18.5499C30.0897 20.1999 29.7797 21.7599 29.1597 23.2099C28.5397 24.6699 27.6897 25.9299 26.5997 27.0099C25.5097 28.0899 24.2497 28.9299 22.7997 29.5499C21.3497 30.1699 19.7997 30.4799 18.1497 30.4799C16.4997 30.4799 14.9497 30.1699 13.4997 29.5499C12.0497 28.9299 10.7897 28.0799 9.70973 27.0099C8.62973 25.9399 7.76973 24.6699 7.14973 23.2099C6.52973 21.7499 6.21973 20.1999 6.21973 18.5499C6.21973 16.8999 6.52973 15.3499 7.14973 13.8999C7.76973 12.4499 8.61973 11.1899 9.70973 10.1199C10.7897 9.04987 12.0597 8.18988 13.4997 7.55988C14.9497 6.92988 16.4997 6.60986 18.1497 6.60986C19.7997 6.60986 21.3497 6.92988 22.7997 7.55988ZM24.1197 22.3799L18.1597 12.9999L12.1897 22.3799H24.1197Z" fill="black"/>
</svg>
