<svg width="35" height="35" viewBox="0 0 35 35" fill="none" xmlns="http://www.w3.org/2000/svg">
<path d="M22.1444 6.51492C23.5944 7.14492 24.8544 7.99491 25.9444 9.07492C27.0344 10.155 27.8744 11.405 28.5044 12.855C29.1244 14.305 29.4344 15.855 29.4344 17.505C29.4344 19.155 29.1244 20.715 28.5044 22.165C27.8844 23.625 27.0344 24.885 25.9444 25.965C24.8544 27.045 23.5944 27.885 22.1444 28.505C20.6944 29.125 19.1444 29.435 17.4944 29.435C15.8444 29.435 14.2944 29.125 12.8444 28.505C11.3944 27.885 10.1344 27.035 9.05445 25.965C7.97445 24.895 7.11445 23.625 6.49445 22.165C5.87445 20.705 5.56445 19.155 5.56445 17.505C5.56445 15.855 5.87445 14.305 6.49445 12.855C7.11445 11.405 7.96445 10.145 9.05445 9.07492C10.1344 8.00491 11.4044 7.14492 12.8444 6.51492C14.2944 5.88492 15.8444 5.56494 17.4944 5.56494C19.1444 5.56494 20.6944 5.88492 22.1444 6.51492ZM13.6644 23.465L23.0444 17.495L13.6644 11.525V23.455V23.465Z" fill="#EBEBEB"/>
</svg>
