<svg width="37" height="37" viewBox="0 0 37 37" fill="none" xmlns="http://www.w3.org/2000/svg">
<path d="M7.14973 13.5102C7.76973 12.0602 8.61973 10.8002 9.70973 9.73022C10.7897 8.66022 12.0597 7.80023 13.4997 7.17023C14.9497 6.54023 16.4997 6.22021 18.1497 6.22021C19.7997 6.22021 21.3497 6.54023 22.7997 7.17023C24.2497 7.80023 25.5097 8.65022 26.5997 9.73022C27.6897 10.8102 28.5297 12.0602 29.1597 13.5102C29.7797 14.9602 30.0897 16.5102 30.0897 18.1602C30.0897 19.8102 29.7797 21.3702 29.1597 22.8202C28.5397 24.2802 27.6897 25.5402 26.5997 26.6202C25.5097 27.7002 24.2497 28.5402 22.7997 29.1602C21.3497 29.7802 19.7997 30.0902 18.1497 30.0902C16.4997 30.0902 14.9497 29.7802 13.4997 29.1602C12.0497 28.5402 10.7897 27.6902 9.70973 26.6202C8.62973 25.5502 7.76973 24.2802 7.14973 22.8202C6.52973 21.3602 6.21973 19.8102 6.21973 18.1602C6.21973 16.5102 6.52973 14.9602 7.14973 13.5102ZM21.9797 12.1902L12.5997 18.1602L21.9797 24.1302V12.2002V12.1902Z" fill="black"/>
</svg>
