<svg width="35" height="35" viewBox="0 0 35 35" fill="none" xmlns="http://www.w3.org/2000/svg">
<path d="M28.5045 22.165C27.8845 23.625 27.0345 24.885 25.9445 25.965C24.8545 27.045 23.5945 27.885 22.1445 28.505C20.6945 29.125 19.1445 29.435 17.4945 29.435C15.8445 29.435 14.2945 29.125 12.8445 28.505C11.3945 27.885 10.1345 27.035 9.05445 25.965C7.97445 24.895 7.11445 23.625 6.49445 22.165C5.87445 20.705 5.56445 19.155 5.56445 17.505C5.56445 15.855 5.87445 14.3049 6.49445 12.8549C7.11445 11.4049 7.96445 10.1449 9.05445 9.07492C10.1345 8.00492 11.4045 7.14492 12.8445 6.51492C14.2945 5.88492 15.8445 5.56494 17.4945 5.56494C19.1445 5.56494 20.6945 5.88492 22.1445 6.51492C23.5945 7.14492 24.8545 7.99492 25.9445 9.07492C27.0345 10.1549 27.8745 11.4049 28.5045 12.8549C29.1245 14.3049 29.4345 15.855 29.4345 17.505C29.4345 19.155 29.1245 20.715 28.5045 22.165ZM11.5345 13.665L17.5045 23.0449L23.4645 13.665H11.5345Z" fill="#EBEBEB"/>
</svg>
