<svg width="37" height="37" viewBox="0 0 37 37" fill="none" xmlns="http://www.w3.org/2000/svg">
<path d="M29.15 22.81C28.53 24.27 27.68 25.53 26.59 26.61C25.5 27.69 24.24 28.53 22.79 29.15C21.34 29.77 19.79 30.08 18.14 30.08C16.49 30.08 14.94 29.77 13.49 29.15C12.04 28.53 10.78 27.68 9.69996 26.61C8.61996 25.54 7.75996 24.27 7.13996 22.81C6.51996 21.35 6.20996 19.8 6.20996 18.15C6.20996 16.5 6.51996 14.9499 7.13996 13.4999C7.75996 12.0499 8.60996 10.7899 9.69996 9.71994C10.78 8.64994 12.05 7.78994 13.49 7.15994C14.94 6.52994 16.49 6.20996 18.14 6.20996C19.79 6.20996 21.34 6.52994 22.79 7.15994C24.24 7.78994 25.5 8.63994 26.59 9.71994C27.68 10.7999 28.52 12.0499 29.15 13.4999C29.77 14.9499 30.08 16.5 30.08 18.15C30.08 19.8 29.77 21.36 29.15 22.81ZM12.18 14.31L18.15 23.6899L24.11 14.31H12.18Z" fill="black"/>
</svg>
