<svg width="37" height="37" viewBox="0 0 37 37" fill="none" xmlns="http://www.w3.org/2000/svg">
<path d="M22.7997 7.13016C24.2497 7.76016 25.5097 8.61015 26.5997 9.69016C27.6897 10.7702 28.5297 12.0202 29.1597 13.4702C29.7797 14.9202 30.0897 16.4702 30.0897 18.1202C30.0897 19.7702 29.7797 21.3302 29.1597 22.7802C28.5397 24.2402 27.6897 25.5002 26.5997 26.5802C25.5097 27.6602 24.2497 28.5002 22.7997 29.1202C21.3497 29.7402 19.7997 30.0502 18.1497 30.0502C16.4997 30.0502 14.9497 29.7402 13.4997 29.1202C12.0497 28.5002 10.7897 27.6502 9.70973 26.5802C8.62973 25.5102 7.76973 24.2402 7.14973 22.7802C6.52973 21.3202 6.21973 19.7702 6.21973 18.1202C6.21973 16.4702 6.52973 14.9202 7.14973 13.4702C7.76973 12.0202 8.61973 10.7602 9.70973 9.69016C10.7897 8.62015 12.0597 7.76016 13.4997 7.13016C14.9497 6.50016 16.4997 6.18018 18.1497 6.18018C19.7997 6.18018 21.3497 6.50016 22.7997 7.13016ZM14.3197 24.0802L23.6997 18.1102L14.3197 12.1402V24.0702V24.0802Z" fill="black"/>
</svg>
