<svg width="37" height="37" viewBox="0 0 37 37" fill="none" xmlns="http://www.w3.org/2000/svg">
<path d="M27.0301 17.1601C26.0201 15.5701 24.1501 14.3001 21.7801 13.6201C19.3101 12.9201 16.5401 12.9201 14.0801 13.6201C11.7101 14.3101 9.84012 15.5701 8.83012 17.1601C7.79012 18.8301 7.79012 20.6901 8.83012 22.3501C9.33012 23.1301 10.0601 23.8601 10.9501 24.4701C10.9501 24.4701 10.9601 24.4801 10.9701 24.4801C14.8201 27.0701 21.0601 27.0701 24.9001 24.4701C25.8001 23.8601 26.5201 23.1301 27.0201 22.3501C28.0601 20.6901 28.0601 18.8301 27.0201 17.1601H27.0301ZM17.1301 22.8801H13.0701V16.5801H14.5901V21.5501H17.1301V22.8901V22.8801ZM23.4501 22.4001C23.0201 22.8001 22.3101 23.0701 21.2201 23.0701C20.2501 23.0701 19.5501 22.8601 19.1101 22.5201C18.8801 22.3601 18.7201 22.1601 18.6201 21.9601C18.5101 21.7401 18.4501 21.4901 18.4501 21.2501V21.1601H19.9501C19.9601 21.2601 19.9901 21.3601 20.0201 21.4401C20.0601 21.5401 20.1201 21.6201 20.2001 21.7001C20.3801 21.8801 20.6801 21.9701 21.1001 21.9701C21.3301 21.9701 21.5301 21.9501 21.6901 21.8701C21.8101 21.8201 21.9101 21.7601 22.0001 21.6701C22.1801 21.4701 22.2601 21.2201 22.2601 20.9301C22.2601 20.7801 22.2401 20.6501 22.1901 20.5401C22.1501 20.4401 22.0901 20.3701 22.0301 20.2901C21.8701 20.1401 21.6601 20.0801 21.4401 20.0801H20.8501V19.1201H21.2801C21.5001 19.1201 21.7101 19.0601 21.8701 18.9101C21.9301 18.8401 21.9901 18.7601 22.0301 18.6601C22.0801 18.5501 22.1001 18.4101 22.1001 18.2701C22.1001 18.1501 22.0801 18.0401 22.0401 17.9301C21.9901 17.8201 21.9301 17.7201 21.8401 17.6501C21.6701 17.4801 21.4101 17.3701 21.1001 17.3701C20.7901 17.3701 20.5201 17.4701 20.3401 17.6301C20.2501 17.7001 20.1901 17.8001 20.1401 17.9001C20.1001 17.9701 20.0901 18.0501 20.0801 18.1201H18.6701V18.0101C18.6701 17.7801 18.7201 17.5701 18.8201 17.3701C18.9301 17.1601 19.1001 16.9701 19.3401 16.7901C19.7701 16.4701 20.4201 16.2601 21.2801 16.2601C22.1401 16.2601 22.7301 16.4701 23.1401 16.7901C23.3601 16.9501 23.5201 17.1501 23.6301 17.3501C23.7301 17.5501 23.7801 17.7701 23.7801 17.9901C23.7801 18.3201 23.6801 18.6301 23.5101 18.8701C23.3501 19.1001 23.1301 19.2701 22.8701 19.3701L22.7801 19.3901V19.6101L22.8701 19.6501C23.2101 19.7601 23.4801 19.9401 23.6701 20.2001C23.8701 20.4601 23.9801 20.8001 23.9801 21.2101C23.9601 21.6501 23.8001 22.0601 23.4601 22.3801L23.4501 22.4001ZM27.0301 17.1601C26.0201 15.5701 24.1501 14.3001 21.7801 13.6201C19.3101 12.9201 16.5401 12.9201 14.0801 13.6201C11.7101 14.3101 9.84012 15.5701 8.83012 17.1601C7.79012 18.8301 7.79012 20.6901 8.83012 22.3501C9.33012 23.1301 10.0601 23.8601 10.9501 24.4701C10.9501 24.4701 10.9601 24.4801 10.9701 24.4801C14.8201 27.0701 21.0601 27.0701 24.9001 24.4701C25.8001 23.8601 26.5201 23.1301 27.0201 22.3501C28.0601 20.6901 28.0601 18.8301 27.0201 17.1601H27.0301ZM17.1301 22.8801H13.0701V16.5801H14.5901V21.5501H17.1301V22.8901V22.8801ZM23.4501 22.4001C23.0201 22.8001 22.3101 23.0701 21.2201 23.0701C20.2501 23.0701 19.5501 22.8601 19.1101 22.5201C18.8801 22.3601 18.7201 22.1601 18.6201 21.9601C18.5101 21.7401 18.4501 21.4901 18.4501 21.2501V21.1601H19.9501C19.9601 21.2601 19.9901 21.3601 20.0201 21.4401C20.0601 21.5401 20.1201 21.6201 20.2001 21.7001C20.3801 21.8801 20.6801 21.9701 21.1001 21.9701C21.3301 21.9701 21.5301 21.9501 21.6901 21.8701C21.8101 21.8201 21.9101 21.7601 22.0001 21.6701C22.1801 21.4701 22.2601 21.2201 22.2601 20.9301C22.2601 20.7801 22.2401 20.6501 22.1901 20.5401C22.1501 20.4401 22.0901 20.3701 22.0301 20.2901C21.8701 20.1401 21.6601 20.0801 21.4401 20.0801H20.8501V19.1201H21.2801C21.5001 19.1201 21.7101 19.0601 21.8701 18.9101C21.9301 18.8401 21.9901 18.7601 22.0301 18.6601C22.0801 18.5501 22.1001 18.4101 22.1001 18.2701C22.1001 18.1501 22.0801 18.0401 22.0401 17.9301C21.9901 17.8201 21.9301 17.7201 21.8401 17.6501C21.6701 17.4801 21.4101 17.3701 21.1001 17.3701C20.7901 17.3701 20.5201 17.4701 20.3401 17.6301C20.2501 17.7001 20.1901 17.8001 20.1401 17.9001C20.1001 17.9701 20.0901 18.0501 20.0801 18.1201H18.6701V18.0101C18.6701 17.7801 18.7201 17.5701 18.8201 17.3701C18.9301 17.1601 19.1001 16.9701 19.3401 16.7901C19.7701 16.4701 20.4201 16.2601 21.2801 16.2601C22.1401 16.2601 22.7301 16.4701 23.1401 16.7901C23.3601 16.9501 23.5201 17.1501 23.6301 17.3501C23.7301 17.5501 23.7801 17.7701 23.7801 17.9901C23.7801 18.3201 23.6801 18.6301 23.5101 18.8701C23.3501 19.1001 23.1301 19.2701 22.8701 19.3701L22.7801 19.3901V19.6101L22.8701 19.6501C23.2101 19.7601 23.4801 19.9401 23.6701 20.2001C23.8701 20.4601 23.9801 20.8001 23.9801 21.2101C23.9601 21.6501 23.8001 22.0601 23.4601 22.3801L23.4501 22.4001ZM30.9401 16.1401C30.2301 14.9701 29.2101 13.9201 27.9201 13.0201C26.6301 12.1401 25.1101 11.4101 23.4301 10.9201C19.9101 9.88014 15.9401 9.88014 12.4201 10.9201C10.7401 11.4101 9.22012 12.1301 7.93012 13.0201C6.64012 13.9201 5.62012 14.9701 4.91012 16.1401C3.44012 18.5801 3.44012 21.3301 4.91012 23.7801C6.33012 26.1201 9.03012 27.9901 12.4201 28.9801C15.9401 30.0001 19.9001 30.0001 23.4201 28.9801C25.1001 28.4901 26.6201 27.7801 27.9101 26.8801C29.2001 26.0001 30.2301 24.9301 30.9401 23.7801C32.4101 21.3301 32.4101 18.5801 30.9401 16.1401ZM28.7401 20.1101C28.6901 21.0401 28.3801 21.9601 27.8201 22.8101C26.7201 24.4701 24.7701 25.8001 22.3401 26.5401C21.0901 26.9201 19.7501 27.1401 18.3901 27.1801V28.7901H17.4601V27.1801C16.1001 27.1401 14.7601 26.9201 13.5101 26.5401C11.0801 25.8001 9.13012 24.4701 8.03012 22.8101C7.47012 21.9601 7.16012 21.0401 7.11012 20.1101H4.76012V19.4701H7.11012C7.16012 18.5401 7.48012 17.6201 8.03012 16.7701C8.57012 15.9501 9.33012 15.2001 10.2701 14.5701C11.2101 13.9301 12.3101 13.4201 13.5101 13.0401C14.7501 12.6601 16.1001 12.4401 17.4601 12.4001V10.7901H18.3901V12.4001C19.7501 12.4401 21.1001 12.6601 22.3401 13.0401C23.5401 13.4201 24.6501 13.9401 25.5801 14.5701C26.5201 15.2001 27.2801 15.9401 27.8201 16.7701C28.3701 17.6201 28.6901 18.5401 28.7401 19.4701H31.0901V20.1101H28.7401ZM21.7701 13.6101C19.3001 12.9101 16.5301 12.9101 14.0701 13.6101C11.7001 14.3001 9.83012 15.5601 8.82012 17.1501C7.78012 18.8201 7.78012 20.6801 8.82012 22.3401C9.32012 23.1201 10.0501 23.8501 10.9401 24.4601C10.9401 24.4601 10.9501 24.4701 10.9601 24.4701C14.8101 27.0601 21.0501 27.0601 24.8901 24.4601C25.7901 23.8501 26.5101 23.1201 27.0101 22.3401C28.0501 20.6801 28.0501 18.8201 27.0101 17.1501C26.0001 15.5601 24.1301 14.2901 21.7601 13.6101H21.7701ZM17.1201 22.8701H13.0601V16.5701H14.5801V21.5401H17.1201V22.8801V22.8701ZM23.4401 22.3901C23.0101 22.7901 22.3001 23.0601 21.2101 23.0601C20.2401 23.0601 19.5401 22.8501 19.1001 22.5101C18.8701 22.3501 18.7101 22.1501 18.6101 21.9501C18.5001 21.7301 18.4401 21.4801 18.4401 21.2401V21.1501H19.9401C19.9501 21.2501 19.9801 21.3501 20.0101 21.4301C20.0501 21.5301 20.1101 21.6101 20.1901 21.6901C20.3701 21.8701 20.6701 21.9601 21.0901 21.9601C21.3201 21.9601 21.5201 21.9401 21.6801 21.8601C21.8001 21.8101 21.9001 21.7501 21.9901 21.6601C22.1701 21.4601 22.2501 21.2101 22.2501 20.9201C22.2501 20.7701 22.2301 20.6401 22.1801 20.5301C22.1401 20.4301 22.0801 20.3601 22.0201 20.2801C21.8601 20.1301 21.6501 20.0701 21.4301 20.0701H20.8401V19.1101H21.2701C21.4901 19.1101 21.7001 19.0501 21.8601 18.9001C21.9201 18.8301 21.9801 18.7501 22.0201 18.6501C22.0701 18.5401 22.0901 18.4001 22.0901 18.2601C22.0901 18.1401 22.0701 18.0301 22.0301 17.9201C21.9801 17.8101 21.9201 17.7101 21.8301 17.6401C21.6601 17.4701 21.4001 17.3601 21.0901 17.3601C20.7801 17.3601 20.5101 17.4601 20.3301 17.6201C20.2401 17.6901 20.1801 17.7901 20.1301 17.8901C20.0901 17.9601 20.0801 18.0401 20.0701 18.1101H18.6601V18.0001C18.6601 17.7701 18.7101 17.5601 18.8101 17.3601C18.9201 17.1501 19.0901 16.9601 19.3301 16.7801C19.7601 16.4601 20.4101 16.2501 21.2701 16.2501C22.1301 16.2501 22.7201 16.4601 23.1301 16.7801C23.3501 16.9401 23.5101 17.1401 23.6201 17.3401C23.7201 17.5401 23.7701 17.7601 23.7701 17.9801C23.7701 18.3101 23.6701 18.6201 23.5001 18.8601C23.3401 19.0901 23.1201 19.2601 22.8601 19.3601L22.7701 19.3801V19.6001L22.8601 19.6401C23.2001 19.7501 23.4701 19.9301 23.6601 20.1901C23.8601 20.4501 23.9701 20.7901 23.9701 21.2001C23.9501 21.6401 23.7901 22.0501 23.4501 22.3701L23.4401 22.3901ZM27.0201 17.1501C26.0101 15.5601 24.1401 14.2901 21.7701 13.6101C19.3001 12.9101 16.5301 12.9101 14.0701 13.6101C11.7001 14.3001 9.83012 15.5601 8.82012 17.1501C7.78012 18.8201 7.78012 20.6801 8.82012 22.3401C9.32012 23.1201 10.0501 23.8501 10.9401 24.4601C10.9401 24.4601 10.9501 24.4701 10.9601 24.4701C14.8101 27.0601 21.0501 27.0601 24.8901 24.4601C25.7901 23.8501 26.5101 23.1201 27.0101 22.3401C28.0501 20.6801 28.0501 18.8201 27.0101 17.1501H27.0201ZM17.1201 22.8701H13.0601V16.5701H14.5801V21.5401H17.1201V22.8801V22.8701ZM23.4401 22.3901C23.0101 22.7901 22.3001 23.0601 21.2101 23.0601C20.2401 23.0601 19.5401 22.8501 19.1001 22.5101C18.8701 22.3501 18.7101 22.1501 18.6101 21.9501C18.5001 21.7301 18.4401 21.4801 18.4401 21.2401V21.1501H19.9401C19.9501 21.2501 19.9801 21.3501 20.0101 21.4301C20.0501 21.5301 20.1101 21.6101 20.1901 21.6901C20.3701 21.8701 20.6701 21.9601 21.0901 21.9601C21.3201 21.9601 21.5201 21.9401 21.6801 21.8601C21.8001 21.8101 21.9001 21.7501 21.9901 21.6601C22.1701 21.4601 22.2501 21.2101 22.2501 20.9201C22.2501 20.7701 22.2301 20.6401 22.1801 20.5301C22.1401 20.4301 22.0801 20.3601 22.0201 20.2801C21.8601 20.1301 21.6501 20.0701 21.4301 20.0701H20.8401V19.1101H21.2701C21.4901 19.1101 21.7001 19.0501 21.8601 18.9001C21.9201 18.8301 21.9801 18.7501 22.0201 18.6501C22.0701 18.5401 22.0901 18.4001 22.0901 18.2601C22.0901 18.1401 22.0701 18.0301 22.0301 17.9201C21.9801 17.8101 21.9201 17.7101 21.8301 17.6401C21.6601 17.4701 21.4001 17.3601 21.0901 17.3601C20.7801 17.3601 20.5101 17.4601 20.3301 17.6201C20.2401 17.6901 20.1801 17.7901 20.1301 17.8901C20.0901 17.9601 20.0801 18.0401 20.0701 18.1101H18.6601V18.0001C18.6601 17.7701 18.7101 17.5601 18.8101 17.3601C18.9201 17.1501 19.0901 16.9601 19.3301 16.7801C19.7601 16.4601 20.4101 16.2501 21.2701 16.2501C22.1301 16.2501 22.7201 16.4601 23.1301 16.7801C23.3501 16.9401 23.5101 17.1401 23.6201 17.3401C23.7201 17.5401 23.7701 17.7601 23.7701 17.9801C23.7701 18.3101 23.6701 18.6201 23.5001 18.8601C23.3401 19.0901 23.1201 19.2601 22.8601 19.3601L22.7701 19.3801V19.6001L22.8601 19.6401C23.2001 19.7501 23.4701 19.9301 23.6601 20.1901C23.8601 20.4501 23.9701 20.7901 23.9701 21.2001C23.9501 21.6401 23.7901 22.0501 23.4501 22.3701L23.4401 22.3901ZM27.0201 17.1501C26.0101 15.5601 24.1401 14.2901 21.7701 13.6101C19.3001 12.9101 16.5301 12.9101 14.0701 13.6101C11.7001 14.3001 9.83012 15.5601 8.82012 17.1501C7.78012 18.8201 7.78012 20.6801 8.82012 22.3401C9.32012 23.1201 10.0501 23.8501 10.9401 24.4601C10.9401 24.4601 10.9501 24.4701 10.9601 24.4701C14.8101 27.0601 21.0501 27.0601 24.8901 24.4601C25.7901 23.8501 26.5101 23.1201 27.0101 22.3401C28.0501 20.6801 28.0501 18.8201 27.0101 17.1501H27.0201ZM17.1201 22.8701H13.0601V16.5701H14.5801V21.5401H17.1201V22.8801V22.8701ZM23.4401 22.3901C23.0101 22.7901 22.3001 23.0601 21.2101 23.0601C20.2401 23.0601 19.5401 22.8501 19.1001 22.5101C18.8701 22.3501 18.7101 22.1501 18.6101 21.9501C18.5001 21.7301 18.4401 21.4801 18.4401 21.2401V21.1501H19.9401C19.9501 21.2501 19.9801 21.3501 20.0101 21.4301C20.0501 21.5301 20.1101 21.6101 20.1901 21.6901C20.3701 21.8701 20.6701 21.9601 21.0901 21.9601C21.3201 21.9601 21.5201 21.9401 21.6801 21.8601C21.8001 21.8101 21.9001 21.7501 21.9901 21.6601C22.1701 21.4601 22.2501 21.2101 22.2501 20.9201C22.2501 20.7701 22.2301 20.6401 22.1801 20.5301C22.1401 20.4301 22.0801 20.3601 22.0201 20.2801C21.8601 20.1301 21.6501 20.0701 21.4301 20.0701H20.8401V19.1101H21.2701C21.4901 19.1101 21.7001 19.0501 21.8601 18.9001C21.9201 18.8301 21.9801 18.7501 22.0201 18.6501C22.0701 18.5401 22.0901 18.4001 22.0901 18.2601C22.0901 18.1401 22.0701 18.0301 22.0301 17.9201C21.9801 17.8101 21.9201 17.7101 21.8301 17.6401C21.6601 17.4701 21.4001 17.3601 21.0901 17.3601C20.7801 17.3601 20.5101 17.4601 20.3301 17.6201C20.2401 17.6901 20.1801 17.7901 20.1301 17.8901C20.0901 17.9601 20.0801 18.0401 20.0701 18.1101H18.6601V18.0001C18.6601 17.7701 18.7101 17.5601 18.8101 17.3601C18.9201 17.1501 19.0901 16.9601 19.3301 16.7801C19.7601 16.4601 20.4101 16.2501 21.2701 16.2501C22.1301 16.2501 22.7201 16.4601 23.1301 16.7801C23.3501 16.9401 23.5101 17.1401 23.6201 17.3401C23.7201 17.5401 23.7701 17.7601 23.7701 17.9801C23.7701 18.3101 23.6701 18.6201 23.5001 18.8601C23.3401 19.0901 23.1201 19.2601 22.8601 19.3601L22.7701 19.3801V19.6001L22.8601 19.6401C23.2001 19.7501 23.4701 19.9301 23.6601 20.1901C23.8601 20.4501 23.9701 20.7901 23.9701 21.2001C23.9501 21.6401 23.7901 22.0501 23.4501 22.3701L23.4401 22.3901Z" fill="black"/>
<path d="M13.3203 6.22998H22.5403L17.9303 13.11L13.3203 6.22998Z" fill="white"/>
<path d="M21.5999 6.72998L17.9299 12.21L14.2599 6.72998H21.5999ZM23.4699 5.72998H12.3799L13.4199 7.28998L17.0899 12.77L17.9199 14.01L18.7499 12.77L22.4199 7.28998L23.4599 5.72998H23.4699Z" fill="black"/>
</svg>
