<svg width="37" height="37" viewBox="0 0 37 37" fill="none" xmlns="http://www.w3.org/2000/svg">
<path d="M26.3897 6.28002C27.1597 6.62002 27.8397 7.08002 28.4097 7.67002C28.9897 8.26002 29.4497 8.93002 29.7797 9.71002C30.1097 10.49 30.2897 11.3 30.2897 12.17V24.95C30.2897 25.54 30.0897 26.04 29.6797 26.45C29.2697 26.86 28.7597 27.08 28.1597 27.08H8.55969C7.98969 27.08 7.49969 26.88 7.06969 26.47C6.63969 26.06 6.42969 25.56 6.42969 24.95V12.17C6.42969 11.3 6.59969 10.48 6.93969 9.71002C7.27969 8.94002 7.73969 8.26002 8.32969 7.67002C8.91969 7.08002 9.58969 6.62002 10.3697 6.28002C11.1397 5.94002 11.9597 5.77002 12.8297 5.77002H23.9097C24.7997 5.77002 25.6297 5.94002 26.3997 6.28002H26.3897ZM18.0897 21.11V19.41H13.3197L18.0097 12.72V11.42H11.0297V13.13H15.5797L10.8897 19.81V21.11H18.1297H18.0797H18.0897ZM25.6797 19.41H21.7097V11.42H19.6897V21.11H25.6797V19.41Z" fill="black"/>
</svg>
