<svg width="37" height="37" viewBox="0 0 37 37" fill="none" xmlns="http://www.w3.org/2000/svg">
<path d="M29.7897 12.5198C30.1297 12.8598 30.2997 13.2598 30.2997 13.7198V20.5398C30.2997 21.9598 29.7997 23.1698 28.7997 24.1598C27.7997 25.1598 26.5897 25.6498 25.1897 25.6498H11.5497C10.1497 25.6498 8.93969 25.1498 7.93969 24.1598C6.93969 23.1698 6.42969 21.9598 6.42969 20.5398V13.7198C6.42969 13.2598 6.59969 12.8598 6.93969 12.5198C7.27969 12.1798 7.67969 12.0098 8.13969 12.0098H28.5997C29.0597 12.0098 29.4597 12.1798 29.7997 12.5198H29.7897ZM21.7197 21.8098H17.7797V13.8198H15.7297V23.5098H21.7197V21.8098Z" fill="black"/>
</svg>
