<svg width="37" height="37" viewBox="0 0 37 37" fill="none" xmlns="http://www.w3.org/2000/svg">
<path d="M23.3603 1.69023C24.8803 2.34023 26.2503 3.27024 27.4203 4.43024C28.5803 5.60024 29.5103 6.97024 30.1503 8.49024C31.4803 11.6802 31.4803 15.2602 30.1503 18.4502C29.5103 19.9702 28.5803 21.3502 27.4103 22.5102C26.2403 23.6702 24.8603 24.6002 23.3503 25.2402C20.1603 26.5702 16.5703 26.5702 13.3803 25.2402C10.3203 23.9502 7.88027 21.5102 6.59027 18.4502C5.26027 15.2602 5.26027 11.6802 6.59027 8.49024C7.23027 6.97024 8.16027 5.60024 9.32027 4.43024C10.4903 3.27024 11.8703 2.34023 13.3803 1.69023C16.5703 0.340234 20.1703 0.340234 23.3703 1.69023H23.3603ZM30.3003 13.8902V13.0402H28.1703C28.1203 11.8102 27.8403 10.6002 27.3303 9.47023C26.8403 8.38023 26.1603 7.38024 25.3103 6.54024C24.4603 5.70024 23.4603 5.01024 22.3703 4.52024C21.2503 4.00024 20.0403 3.71023 18.8003 3.67023V1.54024H17.9503V3.67023C16.7203 3.72023 15.5003 4.01024 14.3803 4.52024C13.2903 5.02024 12.2903 5.70024 11.4403 6.54024C10.5903 7.38024 9.90027 8.38023 9.41027 9.47023C8.90027 10.5902 8.62027 11.8102 8.57027 13.0402H6.44027V13.8902H8.57027C8.61027 15.1302 8.90027 16.3402 9.41027 17.4702C10.4003 19.6702 12.1703 21.4402 14.3803 22.4202C15.5003 22.9302 16.7203 23.2102 17.9503 23.2602V25.3902H18.8003V23.2602C20.0303 23.2102 21.2403 22.9302 22.3703 22.4202C24.5803 21.4302 26.3403 19.6702 27.3403 17.4702C27.8503 16.3402 28.1403 15.1302 28.1803 13.8902H30.3103H30.3003ZM21.8603 5.22023C24.0003 6.13023 25.7103 7.84024 26.6103 9.99024C27.5503 12.2202 27.5503 14.7302 26.6103 16.9502C26.1503 18.0102 25.5003 18.9802 24.6903 19.8002C21.2103 23.2902 15.5503 23.3002 12.0603 19.8202C12.0603 19.8202 12.0503 19.8102 12.0403 19.8002C11.2303 18.9802 10.5803 18.0102 10.1203 16.9502C9.18027 14.7202 9.18027 12.2102 10.1203 9.99024C11.0303 7.84024 12.7303 6.14023 14.8703 5.22023C17.1003 4.28023 19.6203 4.28023 21.8503 5.22023H21.8603ZM21.7303 16.4402H17.7903V8.45023H15.7303V18.1402H21.7303V16.4402Z" fill="black"/>
</svg>
