<svg width="35" height="35" viewBox="0 0 35 35" fill="none" xmlns="http://www.w3.org/2000/svg">
<path d="M22.4902 5.73271C24.0102 6.38271 25.3802 7.31272 26.5502 8.47272C27.7102 9.64272 28.6402 11.0127 29.2802 12.5327C30.6102 15.7227 30.6102 19.3027 29.2802 22.4927C28.6402 24.0127 27.7102 25.3927 26.5402 26.5527C25.3702 27.7127 23.9902 28.6427 22.4802 29.2827C19.2902 30.6127 15.7002 30.6127 12.5102 29.2827C9.45019 27.9927 7.01016 25.5527 5.72016 22.4927C4.39016 19.3027 4.39016 15.7227 5.72016 12.5327C6.36016 11.0127 7.29016 9.64272 8.45016 8.47272C9.62019 7.31272 11.0002 6.38271 12.5102 5.73271C15.7002 4.38272 19.3002 4.38272 22.5002 5.73271H22.4902ZM29.4302 17.9327V17.0827H27.3002C27.2502 15.8527 26.9702 14.6427 26.4602 13.5127C25.9702 12.4227 25.2902 11.4227 24.4402 10.5827C23.5902 9.74272 22.5902 9.05272 21.5002 8.56272C20.3802 8.04272 19.1702 7.75271 17.9302 7.71271V5.58272H17.0802V7.71271C15.8502 7.76271 14.6302 8.05272 13.5102 8.56272C12.4202 9.06272 11.4202 9.74272 10.5702 10.5827C9.72019 11.4227 9.03016 12.4227 8.54016 13.5127C8.03016 14.6327 7.75016 15.8527 7.70016 17.0827H5.57016V17.9327H7.70016C7.74016 19.1727 8.03016 20.3827 8.54016 21.5127C9.53019 23.7127 11.3002 25.4827 13.5102 26.4627C14.6302 26.9727 15.8502 27.2527 17.0802 27.3027V29.4327H17.9302V27.3027C19.1602 27.2527 20.3702 26.9727 21.5002 26.4627C23.7102 25.4727 25.4702 23.7127 26.4702 21.5127C26.9802 20.3827 27.2702 19.1727 27.3102 17.9327H29.4402H29.4302ZM20.9902 9.26271C23.1302 10.1727 24.8402 11.8827 25.7402 14.0327C26.6802 16.2627 26.6802 18.7727 25.7402 20.9927C25.2802 22.0527 24.6302 23.0227 23.8202 23.8427C20.3402 27.3327 14.6802 27.3427 11.1902 23.8627C11.1902 23.8627 11.1802 23.8527 11.1702 23.8427C10.3602 23.0227 9.71019 22.0527 9.25019 20.9927C8.31016 18.7627 8.31016 16.2527 9.25019 14.0327C10.1602 11.8827 11.8602 10.1827 14.0002 9.26271C16.2302 8.32271 18.7502 8.32271 20.9802 9.26271H20.9902ZM20.8602 20.4827H16.9202V12.4927H14.8602V22.1827H20.8602V20.4827Z" fill="#EBEBEB"/>
</svg>
