<svg width="35" height="35" viewBox="0 0 35 35" fill="none" xmlns="http://www.w3.org/2000/svg">
<path d="M25.5303 7.35522C26.3003 7.69522 26.9803 8.15521 27.5503 8.74521C28.1303 9.33521 28.5903 10.0052 28.9203 10.7852C29.2503 11.5652 29.4303 12.3752 29.4303 13.2452V26.0252C29.4303 26.6152 29.2303 27.1152 28.8203 27.5252C28.4103 27.9352 27.9003 28.1552 27.3003 28.1552H7.70031C7.13031 28.1552 6.64031 27.9552 6.21031 27.5452C5.78031 27.1352 5.57031 26.6352 5.57031 26.0252V13.2452C5.57031 12.3752 5.74031 11.5552 6.08031 10.7852C6.42031 10.0152 6.88031 9.33521 7.47031 8.74521C8.06031 8.15521 8.73031 7.69522 9.51032 7.35522C10.2803 7.01522 11.1003 6.84521 11.9703 6.84521H23.0503C23.9403 6.84521 24.7703 7.01522 25.5403 7.35522H25.5303ZM17.2303 22.1852V20.4852H12.4603L17.1503 13.7952V12.4952H10.1703V14.2052H14.7203L10.0303 20.8852V22.1852H17.2703H17.2203H17.2303ZM24.8203 20.4852H20.8503V12.4952H18.8303V22.1852H24.8203V20.4852Z" fill="#EBEBEB"/>
</svg>
