<svg width="35" height="35" viewBox="0 0 35 35" fill="none" xmlns="http://www.w3.org/2000/svg">
<path d="M28.9245 11.1902C29.2645 11.5302 29.4345 11.9302 29.4345 12.3902V19.2102C29.4345 20.6302 28.9345 21.8402 27.9345 22.8302C26.9345 23.8302 25.7245 24.3202 24.3245 24.3202H10.6845C9.28446 24.3202 8.07445 23.8202 7.07445 22.8302C6.07445 21.8402 5.56445 20.6302 5.56445 19.2102V12.3902C5.56445 11.9302 5.73445 11.5302 6.07445 11.1902C6.41445 10.8502 6.81445 10.6802 7.27445 10.6802H27.7345C28.1945 10.6802 28.5945 10.8502 28.9345 11.1902H28.9245ZM20.8545 20.4802H16.9145V12.4902H14.8645V22.1802H20.8545V20.4802Z" fill="#EBEBEB"/>
</svg>
