<svg width="35" height="35" viewBox="0 0 35 35" fill="none" xmlns="http://www.w3.org/2000/svg">
<path d="M26.6053 16.9228C25.5953 15.3328 23.7253 14.0628 21.3553 13.3828C18.8853 12.6828 16.1153 12.6828 13.6553 13.3828C11.2853 14.0728 9.41531 15.3328 8.40531 16.9228C7.36531 18.5928 7.36531 20.4528 8.40531 22.1128C8.90531 22.8928 9.63529 23.6228 10.5253 24.2328C10.5253 24.2328 10.5353 24.2428 10.5453 24.2428C14.3953 26.8328 20.6353 26.8328 24.4753 24.2328C25.3753 23.6228 26.0953 22.8928 26.5953 22.1128C27.6353 20.4528 27.6353 18.5928 26.5953 16.9228H26.6053ZM16.7053 22.6428H12.6453V16.3428H14.1653V21.3128H16.7053V22.6528V22.6428ZM23.0253 22.1628C22.5953 22.5628 21.8853 22.8328 20.7953 22.8328C19.8253 22.8328 19.1253 22.6228 18.6853 22.2828C18.4553 22.1228 18.2953 21.9228 18.1953 21.7228C18.0853 21.5028 18.0253 21.2528 18.0253 21.0128V20.9228H19.5253C19.5353 21.0228 19.5653 21.1228 19.5953 21.2028C19.6353 21.3028 19.6953 21.3828 19.7753 21.4628C19.9553 21.6428 20.2553 21.7328 20.6753 21.7328C20.9053 21.7328 21.1053 21.7128 21.2653 21.6328C21.3853 21.5828 21.4853 21.5228 21.5753 21.4328C21.7553 21.2328 21.8353 20.9828 21.8353 20.6928C21.8353 20.5428 21.8153 20.4128 21.7653 20.3028C21.7253 20.2028 21.6653 20.1328 21.6053 20.0528C21.4453 19.9028 21.2353 19.8428 21.0153 19.8428H20.4253V18.8828H20.8553C21.0753 18.8828 21.2853 18.8228 21.4453 18.6728C21.5053 18.6028 21.5653 18.5228 21.6053 18.4228C21.6553 18.3128 21.6753 18.1728 21.6753 18.0328C21.6753 17.9128 21.6553 17.8028 21.6153 17.6928C21.5653 17.5828 21.5053 17.4828 21.4153 17.4128C21.2453 17.2428 20.9853 17.1328 20.6753 17.1328C20.3653 17.1328 20.0953 17.2328 19.9153 17.3928C19.8253 17.4628 19.7653 17.5628 19.7153 17.6628C19.6753 17.7328 19.6653 17.8128 19.6553 17.8828H18.2453V17.7728C18.2453 17.5428 18.2953 17.3328 18.3953 17.1328C18.5053 16.9228 18.6753 16.7328 18.9153 16.5528C19.3453 16.2328 19.9953 16.0228 20.8553 16.0228C21.7153 16.0228 22.3053 16.2328 22.7153 16.5528C22.9353 16.7128 23.0953 16.9128 23.2053 17.1128C23.3053 17.3128 23.3553 17.5328 23.3553 17.7528C23.3553 18.0828 23.2553 18.3928 23.0853 18.6328C22.9253 18.8628 22.7053 19.0328 22.4453 19.1328L22.3553 19.1528V19.3728L22.4453 19.4128C22.7853 19.5228 23.0553 19.7028 23.2453 19.9628C23.4453 20.2228 23.5553 20.5628 23.5553 20.9728C23.5353 21.4128 23.3753 21.8228 23.0353 22.1428L23.0253 22.1628ZM26.6053 16.9228C25.5953 15.3328 23.7253 14.0628 21.3553 13.3828C18.8853 12.6828 16.1153 12.6828 13.6553 13.3828C11.2853 14.0728 9.41531 15.3328 8.40531 16.9228C7.36531 18.5928 7.36531 20.4528 8.40531 22.1128C8.90531 22.8928 9.63529 23.6228 10.5253 24.2328C10.5253 24.2328 10.5353 24.2428 10.5453 24.2428C14.3953 26.8328 20.6353 26.8328 24.4753 24.2328C25.3753 23.6228 26.0953 22.8928 26.5953 22.1128C27.6353 20.4528 27.6353 18.5928 26.5953 16.9228H26.6053ZM16.7053 22.6428H12.6453V16.3428H14.1653V21.3128H16.7053V22.6528V22.6428ZM23.0253 22.1628C22.5953 22.5628 21.8853 22.8328 20.7953 22.8328C19.8253 22.8328 19.1253 22.6228 18.6853 22.2828C18.4553 22.1228 18.2953 21.9228 18.1953 21.7228C18.0853 21.5028 18.0253 21.2528 18.0253 21.0128V20.9228H19.5253C19.5353 21.0228 19.5653 21.1228 19.5953 21.2028C19.6353 21.3028 19.6953 21.3828 19.7753 21.4628C19.9553 21.6428 20.2553 21.7328 20.6753 21.7328C20.9053 21.7328 21.1053 21.7128 21.2653 21.6328C21.3853 21.5828 21.4853 21.5228 21.5753 21.4328C21.7553 21.2328 21.8353 20.9828 21.8353 20.6928C21.8353 20.5428 21.8153 20.4128 21.7653 20.3028C21.7253 20.2028 21.6653 20.1328 21.6053 20.0528C21.4453 19.9028 21.2353 19.8428 21.0153 19.8428H20.4253V18.8828H20.8553C21.0753 18.8828 21.2853 18.8228 21.4453 18.6728C21.5053 18.6028 21.5653 18.5228 21.6053 18.4228C21.6553 18.3128 21.6753 18.1728 21.6753 18.0328C21.6753 17.9128 21.6553 17.8028 21.6153 17.6928C21.5653 17.5828 21.5053 17.4828 21.4153 17.4128C21.2453 17.2428 20.9853 17.1328 20.6753 17.1328C20.3653 17.1328 20.0953 17.2328 19.9153 17.3928C19.8253 17.4628 19.7653 17.5628 19.7153 17.6628C19.6753 17.7328 19.6653 17.8128 19.6553 17.8828H18.2453V17.7728C18.2453 17.5428 18.2953 17.3328 18.3953 17.1328C18.5053 16.9228 18.6753 16.7328 18.9153 16.5528C19.3453 16.2328 19.9953 16.0228 20.8553 16.0228C21.7153 16.0228 22.3053 16.2328 22.7153 16.5528C22.9353 16.7128 23.0953 16.9128 23.2053 17.1128C23.3053 17.3128 23.3553 17.5328 23.3553 17.7528C23.3553 18.0828 23.2553 18.3928 23.0853 18.6328C22.9253 18.8628 22.7053 19.0328 22.4453 19.1328L22.3553 19.1528V19.3728L22.4453 19.4128C22.7853 19.5228 23.0553 19.7028 23.2453 19.9628C23.4453 20.2228 23.5553 20.5628 23.5553 20.9728C23.5353 21.4128 23.3753 21.8228 23.0353 22.1428L23.0253 22.1628ZM30.5153 15.9028C29.8053 14.7328 28.7853 13.6828 27.4953 12.7828C26.2053 11.9028 24.6853 11.1728 23.0053 10.6828C19.4853 9.64284 15.5153 9.64284 11.9953 10.6828C10.3153 11.1728 8.79531 11.8928 7.50531 12.7828C6.21531 13.6828 5.19531 14.7328 4.48531 15.9028C3.01531 18.3428 3.01531 21.0928 4.48531 23.5428C5.90531 25.8828 8.60531 27.7528 11.9953 28.7428C15.5153 29.7628 19.4753 29.7628 22.9953 28.7428C24.6753 28.2528 26.1953 27.5428 27.4853 26.6428C28.7753 25.7628 29.8053 24.6928 30.5153 23.5428C31.9853 21.0928 31.9853 18.3428 30.5153 15.9028ZM28.3153 19.8728C28.2653 20.8028 27.9553 21.7228 27.3953 22.5728C26.2953 24.2328 24.3453 25.5628 21.9153 26.3028C20.6653 26.6828 19.3253 26.9028 17.9653 26.9428V28.5528H17.0353V26.9428C15.6753 26.9028 14.3353 26.6828 13.0853 26.3028C10.6553 25.5628 8.70531 24.2328 7.60531 22.5728C7.04531 21.7228 6.73531 20.8028 6.68531 19.8728H4.33531V19.2328H6.68531C6.73531 18.3028 7.05531 17.3828 7.60531 16.5328C8.14531 15.7128 8.90531 14.9628 9.84529 14.3328C10.7853 13.6928 11.8853 13.1828 13.0853 12.8028C14.3253 12.4228 15.6753 12.2028 17.0353 12.1628V10.5528H17.9653V12.1628C19.3253 12.2028 20.6753 12.4228 21.9153 12.8028C23.1153 13.1828 24.2253 13.7028 25.1553 14.3328C26.0953 14.9628 26.8553 15.7028 27.3953 16.5328C27.9453 17.3828 28.2653 18.3028 28.3153 19.2328H30.6653V19.8728H28.3153ZM21.3453 13.3728C18.8753 12.6728 16.1053 12.6728 13.6453 13.3728C11.2753 14.0628 9.40531 15.3228 8.39531 16.9128C7.35531 18.5828 7.35531 20.4428 8.39531 22.1028C8.89531 22.8828 9.62529 23.6128 10.5153 24.2228C10.5153 24.2228 10.5253 24.2328 10.5353 24.2328C14.3853 26.8228 20.6253 26.8228 24.4653 24.2228C25.3653 23.6128 26.0853 22.8828 26.5853 22.1028C27.6253 20.4428 27.6253 18.5828 26.5853 16.9128C25.5753 15.3228 23.7053 14.0528 21.3353 13.3728H21.3453ZM16.6953 22.6328H12.6353V16.3328H14.1553V21.3028H16.6953V22.6428V22.6328ZM23.0153 22.1528C22.5853 22.5528 21.8753 22.8228 20.7853 22.8228C19.8153 22.8228 19.1153 22.6128 18.6753 22.2728C18.4453 22.1128 18.2853 21.9128 18.1853 21.7128C18.0753 21.4928 18.0153 21.2428 18.0153 21.0028V20.9128H19.5153C19.5253 21.0128 19.5553 21.1128 19.5853 21.1928C19.6253 21.2928 19.6853 21.3728 19.7653 21.4528C19.9453 21.6328 20.2453 21.7228 20.6653 21.7228C20.8953 21.7228 21.0953 21.7028 21.2553 21.6228C21.3753 21.5728 21.4753 21.5128 21.5653 21.4228C21.7453 21.2228 21.8253 20.9728 21.8253 20.6828C21.8253 20.5328 21.8053 20.4028 21.7553 20.2928C21.7153 20.1928 21.6553 20.1228 21.5953 20.0428C21.4353 19.8928 21.2253 19.8328 21.0053 19.8328H20.4153V18.8728H20.8453C21.0653 18.8728 21.2753 18.8128 21.4353 18.6628C21.4953 18.5928 21.5553 18.5128 21.5953 18.4128C21.6453 18.3028 21.6653 18.1628 21.6653 18.0228C21.6653 17.9028 21.6453 17.7928 21.6053 17.6828C21.5553 17.5728 21.4953 17.4728 21.4053 17.4028C21.2353 17.2328 20.9753 17.1228 20.6653 17.1228C20.3553 17.1228 20.0853 17.2228 19.9053 17.3828C19.8153 17.4528 19.7553 17.5528 19.7053 17.6528C19.6653 17.7228 19.6553 17.8028 19.6453 17.8728H18.2353V17.7628C18.2353 17.5328 18.2853 17.3228 18.3853 17.1228C18.4953 16.9128 18.6653 16.7228 18.9053 16.5428C19.3353 16.2228 19.9853 16.0128 20.8453 16.0128C21.7053 16.0128 22.2953 16.2228 22.7053 16.5428C22.9253 16.7028 23.0853 16.9028 23.1953 17.1028C23.2953 17.3028 23.3453 17.5228 23.3453 17.7428C23.3453 18.0728 23.2453 18.3828 23.0753 18.6228C22.9153 18.8528 22.6953 19.0228 22.4353 19.1228L22.3453 19.1428V19.3628L22.4353 19.4028C22.7753 19.5128 23.0453 19.6928 23.2353 19.9528C23.4353 20.2128 23.5453 20.5528 23.5453 20.9628C23.5253 21.4028 23.3653 21.8128 23.0253 22.1328L23.0153 22.1528ZM26.5953 16.9128C25.5853 15.3228 23.7153 14.0528 21.3453 13.3728C18.8753 12.6728 16.1053 12.6728 13.6453 13.3728C11.2753 14.0628 9.40531 15.3228 8.39531 16.9128C7.35531 18.5828 7.35531 20.4428 8.39531 22.1028C8.89531 22.8828 9.62529 23.6128 10.5153 24.2228C10.5153 24.2228 10.5253 24.2328 10.5353 24.2328C14.3853 26.8228 20.6253 26.8228 24.4653 24.2228C25.3653 23.6128 26.0853 22.8828 26.5853 22.1028C27.6253 20.4428 27.6253 18.5828 26.5853 16.9128H26.5953ZM16.6953 22.6328H12.6353V16.3328H14.1553V21.3028H16.6953V22.6428V22.6328ZM23.0153 22.1528C22.5853 22.5528 21.8753 22.8228 20.7853 22.8228C19.8153 22.8228 19.1153 22.6128 18.6753 22.2728C18.4453 22.1128 18.2853 21.9128 18.1853 21.7128C18.0753 21.4928 18.0153 21.2428 18.0153 21.0028V20.9128H19.5153C19.5253 21.0128 19.5553 21.1128 19.5853 21.1928C19.6253 21.2928 19.6853 21.3728 19.7653 21.4528C19.9453 21.6328 20.2453 21.7228 20.6653 21.7228C20.8953 21.7228 21.0953 21.7028 21.2553 21.6228C21.3753 21.5728 21.4753 21.5128 21.5653 21.4228C21.7453 21.2228 21.8253 20.9728 21.8253 20.6828C21.8253 20.5328 21.8053 20.4028 21.7553 20.2928C21.7153 20.1928 21.6553 20.1228 21.5953 20.0428C21.4353 19.8928 21.2253 19.8328 21.0053 19.8328H20.4153V18.8728H20.8453C21.0653 18.8728 21.2753 18.8128 21.4353 18.6628C21.4953 18.5928 21.5553 18.5128 21.5953 18.4128C21.6453 18.3028 21.6653 18.1628 21.6653 18.0228C21.6653 17.9028 21.6453 17.7928 21.6053 17.6828C21.5553 17.5728 21.4953 17.4728 21.4053 17.4028C21.2353 17.2328 20.9753 17.1228 20.6653 17.1228C20.3553 17.1228 20.0853 17.2228 19.9053 17.3828C19.8153 17.4528 19.7553 17.5528 19.7053 17.6528C19.6653 17.7228 19.6553 17.8028 19.6453 17.8728H18.2353V17.7628C18.2353 17.5328 18.2853 17.3228 18.3853 17.1228C18.4953 16.9128 18.6653 16.7228 18.9053 16.5428C19.3353 16.2228 19.9853 16.0128 20.8453 16.0128C21.7053 16.0128 22.2953 16.2228 22.7053 16.5428C22.9253 16.7028 23.0853 16.9028 23.1953 17.1028C23.2953 17.3028 23.3453 17.5228 23.3453 17.7428C23.3453 18.0728 23.2453 18.3828 23.0753 18.6228C22.9153 18.8528 22.6953 19.0228 22.4353 19.1228L22.3453 19.1428V19.3628L22.4353 19.4028C22.7753 19.5128 23.0453 19.6928 23.2353 19.9528C23.4353 20.2128 23.5453 20.5528 23.5453 20.9628C23.5253 21.4028 23.3653 21.8128 23.0253 22.1328L23.0153 22.1528ZM26.5953 16.9128C25.5853 15.3228 23.7153 14.0528 21.3453 13.3728C18.8753 12.6728 16.1053 12.6728 13.6453 13.3728C11.2753 14.0628 9.40531 15.3228 8.39531 16.9128C7.35531 18.5828 7.35531 20.4428 8.39531 22.1028C8.89531 22.8828 9.62529 23.6128 10.5153 24.2228C10.5153 24.2228 10.5253 24.2328 10.5353 24.2328C14.3853 26.8228 20.6253 26.8228 24.4653 24.2228C25.3653 23.6128 26.0853 22.8828 26.5853 22.1028C27.6253 20.4428 27.6253 18.5828 26.5853 16.9128H26.5953ZM16.6953 22.6328H12.6353V16.3328H14.1553V21.3028H16.6953V22.6428V22.6328ZM23.0153 22.1528C22.5853 22.5528 21.8753 22.8228 20.7853 22.8228C19.8153 22.8228 19.1153 22.6128 18.6753 22.2728C18.4453 22.1128 18.2853 21.9128 18.1853 21.7128C18.0753 21.4928 18.0153 21.2428 18.0153 21.0028V20.9128H19.5153C19.5253 21.0128 19.5553 21.1128 19.5853 21.1928C19.6253 21.2928 19.6853 21.3728 19.7653 21.4528C19.9453 21.6328 20.2453 21.7228 20.6653 21.7228C20.8953 21.7228 21.0953 21.7028 21.2553 21.6228C21.3753 21.5728 21.4753 21.5128 21.5653 21.4228C21.7453 21.2228 21.8253 20.9728 21.8253 20.6828C21.8253 20.5328 21.8053 20.4028 21.7553 20.2928C21.7153 20.1928 21.6553 20.1228 21.5953 20.0428C21.4353 19.8928 21.2253 19.8328 21.0053 19.8328H20.4153V18.8728H20.8453C21.0653 18.8728 21.2753 18.8128 21.4353 18.6628C21.4953 18.5928 21.5553 18.5128 21.5953 18.4128C21.6453 18.3028 21.6653 18.1628 21.6653 18.0228C21.6653 17.9028 21.6453 17.7928 21.6053 17.6828C21.5553 17.5728 21.4953 17.4728 21.4053 17.4028C21.2353 17.2328 20.9753 17.1228 20.6653 17.1228C20.3553 17.1228 20.0853 17.2228 19.9053 17.3828C19.8153 17.4528 19.7553 17.5528 19.7053 17.6528C19.6653 17.7228 19.6553 17.8028 19.6453 17.8728H18.2353V17.7628C18.2353 17.5328 18.2853 17.3228 18.3853 17.1228C18.4953 16.9128 18.6653 16.7228 18.9053 16.5428C19.3353 16.2228 19.9853 16.0128 20.8453 16.0128C21.7053 16.0128 22.2953 16.2228 22.7053 16.5428C22.9253 16.7028 23.0853 16.9028 23.1953 17.1028C23.2953 17.3028 23.3453 17.5228 23.3453 17.7428C23.3453 18.0728 23.2453 18.3828 23.0753 18.6228C22.9153 18.8528 22.6953 19.0228 22.4353 19.1228L22.3453 19.1428V19.3628L22.4353 19.4028C22.7753 19.5128 23.0453 19.6928 23.2353 19.9528C23.4353 20.2128 23.5453 20.5528 23.5453 20.9628C23.5253 21.4028 23.3653 21.8128 23.0253 22.1328L23.0153 22.1528Z" fill="#EBEBEB"/>
<path d="M12.8945 5.99268H22.1145L17.5045 12.8727L12.8945 5.99268Z" fill="#0B0B0B"/>
<path d="M21.1751 6.49268L17.5051 11.9727L13.8351 6.49268H21.1751ZM23.0451 5.49268H11.9551L12.9951 7.05268L16.6651 12.5327L17.4951 13.7727L18.3251 12.5327L21.9951 7.05268L23.0351 5.49268H23.0451Z" fill="#EBEBEB"/>
</svg>
