<svg width="35" height="35" viewBox="0 0 35 35" fill="none" xmlns="http://www.w3.org/2000/svg">
<path d="M25.5203 7.35522C26.2903 7.69522 26.9703 8.15521 27.5503 8.74521C28.1303 9.33519 28.5803 10.0052 28.9203 10.7852C29.2603 11.5552 29.4303 12.3752 29.4303 13.2452V26.0252C29.4303 26.6152 29.2303 27.1152 28.8203 27.5252C28.4103 27.9452 27.9003 28.1552 27.3003 28.1552H7.70031C7.13031 28.1552 6.63032 27.9552 6.21032 27.5452C5.78032 27.1352 5.57031 26.6352 5.57031 26.0252V13.2452C5.57031 12.3752 5.74032 11.5552 6.08032 10.7852C6.42032 10.0152 6.88032 9.33519 7.46032 8.74521C8.04032 8.15521 8.73033 7.69522 9.50034 7.35522C10.2703 7.01522 11.0903 6.84521 11.9603 6.84521H23.0403C23.9303 6.84521 24.7603 7.01522 25.5303 7.35522H25.5203ZM16.5803 22.1852V20.4852H11.8103L16.4703 13.7952V12.4952H9.46034V14.2052H14.0103L9.32031 20.8852V22.1852H16.5603H16.5803ZM23.6603 22.2352H25.9503C25.7403 21.9152 25.3903 21.3952 24.9103 20.6752C24.4303 19.9552 23.8303 19.0552 23.1003 17.9752C23.3803 17.8552 23.6403 17.7052 23.8603 17.5252C24.0803 17.3452 24.2703 17.1452 24.4303 16.9152C24.5703 16.6852 24.6803 16.4452 24.7603 16.1852C24.8403 15.9252 24.8803 15.6552 24.8803 15.3752C24.8803 14.8952 24.8003 14.4752 24.6503 14.1052C24.5003 13.7452 24.2603 13.4452 23.9403 13.2152C23.6203 12.9852 23.2203 12.8052 22.7303 12.6852C22.2403 12.5652 21.6703 12.4952 21.0103 12.4952H18.1603V22.1852H20.1803V18.4852H21.3003L23.6403 22.1852V22.2352H23.6603ZM22.6903 14.8452C22.7703 15.0152 22.8103 15.2052 22.8103 15.4152C22.8103 15.6452 22.7703 15.8452 22.6903 16.0152C22.6103 16.1852 22.4903 16.3252 22.3303 16.4252C22.1903 16.5352 21.9903 16.6152 21.7403 16.6752C21.4903 16.7352 21.2103 16.7652 20.8903 16.7652H20.2003V14.1252H20.8403C21.2003 14.1252 21.5003 14.1452 21.7503 14.1952C22.0003 14.2352 22.1903 14.3152 22.3403 14.4252C22.5003 14.5352 22.6203 14.6652 22.7003 14.8352L22.6903 14.8452Z" fill="#EBEBEB"/>
</svg>
