<svg width="37" height="35" viewBox="0 0 37 35" fill="none" xmlns="http://www.w3.org/2000/svg">
<path d="M22.6001 1.65057C24.1501 2.32057 25.5101 3.24063 26.6601 4.39062C27.8101 5.54062 28.7201 6.90062 29.3901 8.45062C30.0601 10.0006 30.3901 11.6606 30.3901 13.4206C30.3901 15.1806 30.0601 16.8606 29.3901 18.4106C28.7201 19.9606 27.8101 21.3206 26.6501 22.4706C25.4901 23.6206 24.1301 24.5306 22.5901 25.2006C21.0501 25.8706 19.3801 26.2006 17.6101 26.2006C15.8401 26.2006 14.1701 25.8706 12.6201 25.2006C11.0701 24.5306 9.71006 23.6206 8.56006 22.4706C7.41006 21.3206 6.50008 19.9606 5.83008 18.4106C5.16008 16.8606 4.83008 15.1906 4.83008 13.4206C4.83008 11.6506 5.16008 10.0106 5.83008 8.45062C6.50008 6.89062 7.41006 5.54062 8.56006 4.39062C9.71006 3.24063 11.0701 2.32057 12.6201 1.65057C14.1701 0.980574 15.8401 0.640625 17.6101 0.640625C19.3801 0.640625 21.0501 0.980574 22.6001 1.65057ZM29.5401 13.8506V13.0006H27.4101C27.3601 11.7406 27.0801 10.5506 26.5701 9.4306C26.0601 8.3106 25.3901 7.34061 24.5501 6.50061C23.7101 5.67061 22.7301 4.99059 21.6101 4.48059C20.4901 3.97059 19.3001 3.68062 18.0401 3.63062V1.50061H17.1901V3.63062C15.9301 3.68062 14.7401 3.97059 13.6201 4.48059C12.5001 4.99059 11.5201 5.67061 10.6801 6.50061C9.84005 7.33061 9.16006 8.3106 8.66006 9.4306C8.15006 10.5506 7.87007 11.7406 7.82007 13.0006H5.69006V13.8506H7.82007C7.87007 15.1306 8.15006 16.3206 8.66006 17.4306C9.17006 18.5406 9.84005 19.5206 10.6801 20.3606C11.5201 21.2006 12.5001 21.8806 13.6201 22.3806C14.7401 22.8906 15.9301 23.1706 17.1901 23.2206V25.3506H18.0401V23.2206C19.3001 23.1706 20.4901 22.8906 21.6101 22.3806C22.7301 21.8706 23.7101 21.2006 24.5501 20.3606C25.3901 19.5206 26.0701 18.5406 26.5701 17.4306C27.0801 16.3206 27.3601 15.1306 27.4101 13.8506H29.5401ZM21.1001 5.1806C22.1801 5.6506 23.1301 6.29059 23.9401 7.10059C24.7501 7.91059 25.3901 8.86062 25.8601 9.95062C26.3301 11.0406 26.5701 12.2006 26.5701 13.4306C26.5701 14.6606 26.3301 15.8406 25.8601 16.9206C25.3901 18.0006 24.7501 18.9506 23.9401 19.7706C23.1301 20.5906 22.1901 21.2306 21.1001 21.6906C20.0101 22.1506 18.8501 22.3806 17.6101 22.3806C16.3701 22.3806 15.2001 22.1506 14.1201 21.6906C13.0401 21.2306 12.0901 20.5906 11.2801 19.7706C10.4701 18.9506 9.83008 18.0006 9.36008 16.9206C8.89008 15.8406 8.65005 14.6706 8.65005 13.4306C8.65005 12.1906 8.89008 11.0506 9.36008 9.95062C9.83008 8.86062 10.4701 7.91059 11.2801 7.10059C12.0901 6.29059 13.0301 5.6506 14.1201 5.1806C15.2001 4.7106 16.3701 4.47058 17.6101 4.47058C18.8501 4.47058 20.0201 4.7106 21.1001 5.1806ZM19.8201 18.1606H22.1401C21.9301 17.8406 21.5801 17.3206 21.0901 16.6006C20.6001 15.8806 19.9901 14.9806 19.2601 13.9006C19.5401 13.7806 19.8001 13.6306 20.0301 13.4506C20.2601 13.2706 20.4501 13.0706 20.5901 12.8406C20.7301 12.6106 20.8501 12.3706 20.9401 12.1106C21.0301 11.8506 21.0701 11.5806 21.0701 11.3006C21.0701 10.8206 20.9901 10.4006 20.8301 10.0306C20.6701 9.67058 20.4301 9.37063 20.1101 9.14062C19.7901 8.91062 19.3901 8.7306 18.9001 8.6106C18.4101 8.4906 17.8401 8.42059 17.1801 8.42059H14.3301V18.1106H16.3801V14.3806H17.4701L19.8101 18.1106V18.1606H19.8201ZM18.8501 10.7706C18.9301 10.9406 18.9701 11.1306 18.9701 11.3406C18.9701 11.5706 18.9301 11.7706 18.8501 11.9406C18.7701 12.1106 18.6601 12.2506 18.5201 12.3506C18.3601 12.4606 18.1601 12.5406 17.9101 12.6006C17.6601 12.6606 17.3801 12.6906 17.0601 12.6906H16.3901V10.0506H17.0301C17.3701 10.0506 17.6601 10.0706 17.9101 10.1206C18.1601 10.1606 18.3601 10.2406 18.5201 10.3506C18.6601 10.4606 18.7701 10.5906 18.8501 10.7606V10.7706Z" fill="black"/>
</svg>
