<svg width="35" height="35" viewBox="0 0 35 35" fill="none" xmlns="http://www.w3.org/2000/svg">
<path d="M28.9203 11.1902C29.2603 11.5302 29.4303 11.9302 29.4303 12.3902V19.2102C29.4303 20.6302 28.9303 21.8402 27.9303 22.8302C26.9303 23.8302 25.7203 24.3202 24.3203 24.3202H10.6803C9.28029 24.3202 8.07031 23.8202 7.07031 22.8302C6.07031 21.8402 5.57031 20.6302 5.57031 19.2102V12.3902C5.57031 11.9302 5.74029 11.5302 6.08029 11.1902C6.42029 10.8502 6.8203 10.6802 7.2803 10.6802H27.7303C28.1903 10.6802 28.5903 10.8502 28.9303 11.1902H28.9203ZM19.7103 22.2402H22.0303C21.8203 21.9202 21.4703 21.4002 20.9803 20.6802C20.4903 19.9602 19.8803 19.0602 19.1503 17.9802C19.4403 17.8602 19.6903 17.7102 19.9203 17.5302C20.1503 17.3502 20.3403 17.1502 20.4803 16.9202C20.6203 16.6902 20.7403 16.4502 20.8303 16.1902C20.9203 15.9302 20.9603 15.6602 20.9603 15.3802C20.9603 14.9002 20.8803 14.4802 20.7203 14.1102C20.5603 13.7502 20.3203 13.4502 20.0003 13.2202C19.6803 12.9902 19.2803 12.8102 18.7903 12.6902C18.3003 12.5702 17.7303 12.5002 17.0703 12.5002H14.2203V22.1902H16.2703V18.4602H17.3603L19.7003 22.1902V22.2402H19.7103ZM18.7403 14.8502C18.8203 15.0202 18.8603 15.2102 18.8603 15.4202C18.8603 15.6502 18.8203 15.8502 18.7403 16.0202C18.6603 16.1902 18.5503 16.3302 18.4103 16.4302C18.2503 16.5402 18.0503 16.6202 17.8003 16.6802C17.5503 16.7402 17.2703 16.7702 16.9503 16.7702H16.2803V14.1302H16.9203C17.2603 14.1302 17.5503 14.1502 17.8003 14.2002C18.0503 14.2402 18.2503 14.3202 18.4103 14.4302C18.5503 14.5402 18.6603 14.6702 18.7403 14.8402V14.8502Z" fill="#EBEBEB"/>
</svg>
