<svg width="35" height="35" viewBox="0 0 35 35" fill="none" xmlns="http://www.w3.org/2000/svg">
<path d="M24.4947 14.8155C23.5947 14.2155 22.5547 13.7355 21.3547 13.3855C20.1647 13.0455 18.8747 12.8555 17.5147 12.8555C16.1547 12.8555 14.8547 13.0355 13.6547 13.3855C12.4647 13.7455 11.4247 14.2155 10.5247 14.8155C9.62475 15.4155 8.93477 16.1155 8.41477 16.9355C7.88477 17.7455 7.63477 18.6055 7.63477 19.5255C7.63477 20.4455 7.89477 21.3155 8.41477 22.1255C8.93477 22.9255 9.62475 23.6355 10.5247 24.2455C11.4247 24.8455 12.4647 25.3255 13.6547 25.6655C14.8547 26.0055 16.1447 26.1855 17.5147 26.1855C18.8847 26.1855 20.1647 26.0155 21.3547 25.6655C22.5547 25.3255 23.5947 24.8455 24.4947 24.2455C25.3747 23.6355 26.0847 22.9255 26.6047 22.1255C27.1347 21.3155 27.3847 20.4455 27.3847 19.5255C27.3847 18.6055 27.1247 17.7455 26.6047 16.9355C26.0847 16.1155 25.3747 15.4155 24.4947 14.8155ZM15.4047 22.6555C15.1447 22.1855 14.0347 20.2355 14.0347 20.2355H13.3647V22.6255H11.8547V16.3255H13.8647C14.7647 16.3255 15.4147 16.4855 15.8147 16.7955C15.9947 16.9255 16.1347 17.1055 16.2347 17.2855C16.3547 17.5355 16.4147 17.8255 16.4147 18.1655C16.4147 18.5355 16.3447 18.8355 16.1647 19.0955C15.9947 19.3655 15.7347 19.5955 15.3847 19.7955L15.2647 19.8555L17.1247 22.6555H15.4047ZM23.1347 22.1655C22.7047 22.5655 21.9947 22.8355 20.9047 22.8355C19.9247 22.8355 19.2347 22.6255 18.7847 22.2855C18.5647 22.1255 18.4047 21.9255 18.2947 21.7255C18.1947 21.5055 18.1347 21.2555 18.1347 21.0155V20.9255H19.6347L19.7047 21.2055L19.8747 21.4655C20.0747 21.6455 20.3647 21.7355 20.7847 21.7355C21.0147 21.7355 21.2147 21.7155 21.3747 21.6355C21.4947 21.5855 21.5947 21.5255 21.6647 21.4355C21.8647 21.2355 21.9347 20.9855 21.9347 20.6955C21.9347 20.5455 21.9147 20.4155 21.8647 20.3055L21.6947 20.0555C21.5447 19.9055 21.3347 19.8455 21.1147 19.8455H20.5247V18.8855H20.9547C21.1747 18.8855 21.3847 18.8255 21.5347 18.6755L21.7047 18.4255C21.7547 18.3155 21.7747 18.1755 21.7747 18.0355C21.7747 17.9155 21.7547 17.8055 21.7147 17.6955L21.5147 17.4155C21.3447 17.2455 21.0847 17.1355 20.7747 17.1355C20.4447 17.1355 20.1847 17.2355 20.0147 17.3955L19.8147 17.6655L19.7547 17.8855H18.7747C18.7747 17.7655 18.7347 17.6555 18.6847 17.5455C18.6347 17.4255 18.5547 17.3255 18.4547 17.2555C18.4547 17.2155 18.4747 17.1855 18.4947 17.1455C18.6047 16.9355 18.7747 16.7455 18.9947 16.5655C19.4347 16.2455 20.0847 16.0355 20.9347 16.0355C21.7847 16.0355 22.3947 16.2455 22.8147 16.5655C23.0347 16.7255 23.1947 16.9255 23.3047 17.1255C23.4047 17.3255 23.4547 17.5455 23.4547 17.7655C23.4547 18.0955 23.3447 18.4055 23.1747 18.6455C23.0147 18.8755 22.8047 19.0455 22.5447 19.1455L22.4547 19.1655V19.3855L22.5447 19.4255C22.8847 19.5355 23.1547 19.7155 23.3447 19.9755C23.5447 20.2355 23.6547 20.5755 23.6547 20.9855C23.6347 21.4255 23.4747 21.8355 23.1347 22.1555V22.1655Z" fill="#EBEBEB"/>
<path d="M14.5935 17.5853C14.4135 17.4653 14.1535 17.4053 13.8335 17.4053H13.3535V19.1453H13.8335C14.1535 19.1453 14.4235 19.0853 14.6035 18.9353L14.7835 18.6753C14.8435 18.5453 14.8735 18.3953 14.8735 18.2253C14.8735 18.0653 14.8535 17.9353 14.7835 17.8053L14.5835 17.5853H14.5935Z" fill="#EBEBEB"/>
<path d="M30.5146 15.9049C29.7746 14.7149 28.7746 13.675 27.4946 12.785C26.2346 11.905 24.7346 11.2049 23.0146 10.6849C21.2946 10.1649 19.4546 9.91504 17.5046 9.91504C15.5546 9.91504 13.7046 10.1749 11.9846 10.6849C10.2646 11.2049 8.77453 11.895 7.49453 12.785C6.23453 13.665 5.22453 14.7149 4.49453 15.9049C3.75453 17.0949 3.39453 18.3749 3.39453 19.7049C3.39453 21.0349 3.76453 22.345 4.49453 23.545C5.23453 24.735 6.23453 25.7649 7.49453 26.6449C8.77453 27.5249 10.2646 28.225 11.9846 28.745C13.7046 29.265 15.5446 29.5049 17.5046 29.5049C19.4646 29.5049 21.2946 29.255 22.9946 28.745C24.6946 28.225 26.1946 27.5349 27.4746 26.6449C28.7646 25.7649 29.7646 24.735 30.5046 23.545C31.2446 22.345 31.6046 21.0649 31.6046 19.7049C31.6046 18.3449 31.2346 17.0949 30.5046 15.9049H30.5146ZM28.3346 19.8749C28.2746 20.8349 27.9646 21.735 27.4046 22.575C26.8546 23.405 26.1046 24.145 25.1746 24.785C24.2446 25.425 23.1646 25.9249 21.9246 26.3049C20.6846 26.6849 19.3746 26.8949 17.9846 26.9449V28.555H17.0446V26.9449C15.6546 26.8949 14.3446 26.6849 13.1046 26.3049C11.8646 25.9249 10.7846 25.425 9.85455 24.785C8.92455 24.145 8.17454 23.415 7.62454 22.575C7.06454 21.745 6.75455 20.8349 6.69455 19.8749H4.35455V19.2349H6.69455C6.75455 18.2749 7.06454 17.385 7.62454 16.535C8.17454 15.705 8.92455 14.965 9.85455 14.325C10.7846 13.695 11.8646 13.1949 13.1046 12.8049C14.3446 12.4249 15.6546 12.205 17.0446 12.165V10.5549H17.9846V12.165C19.3746 12.205 20.6846 12.4249 21.9246 12.8049C23.1646 13.1949 24.2446 13.705 25.1746 14.325C26.1046 14.965 26.8546 15.695 27.4046 16.535C27.9646 17.385 28.2746 18.2749 28.3346 19.2349H30.6746V19.8749H28.3346Z" fill="#EBEBEB"/>
<path d="M12.9844 5.99512H22.2044L17.5944 12.8751L12.9844 5.99512Z" fill="#0B0B0B"/>
<path d="M21.2649 6.49512L17.5949 11.9751L13.9249 6.49512H21.2649ZM23.1349 5.49512H12.0449L13.0849 7.05512L16.7549 12.5351L17.5849 13.7751L18.4149 12.5351L22.0849 7.05512L23.1249 5.49512H23.1349Z" fill="#EBEBEB"/>
</svg>
