<svg width="37" height="37" viewBox="0 0 37 37" fill="none" xmlns="http://www.w3.org/2000/svg">
<path d="M26.1805 8.13012C26.9505 8.47012 27.6305 8.93012 28.2105 9.52012C28.7905 10.1101 29.2405 10.7801 29.5805 11.5601C29.9205 12.3301 30.0905 13.1501 30.0905 14.0201V26.8001C30.0905 27.3901 29.8905 27.8901 29.4805 28.3001C29.0705 28.7201 28.5605 28.9301 27.9605 28.9301H8.36047C7.79047 28.9301 7.29048 28.7301 6.87048 28.3201C6.44048 27.9101 6.23047 27.4101 6.23047 26.8001V14.0201C6.23047 13.1501 6.40048 12.3301 6.74048 11.5601C7.08048 10.7901 7.54048 10.1101 8.12048 9.52012C8.70048 8.93012 9.39049 8.47012 10.1605 8.13012C10.9305 7.79012 11.7505 7.62012 12.6205 7.62012H23.7005C24.5905 7.62012 25.4205 7.79012 26.1905 8.13012H26.1805ZM17.2405 22.9601V21.2601H12.4705L17.1305 14.5701V13.2701H10.1205V14.9801H14.6705L9.98047 21.6601V22.9601H17.2205H17.2405ZM24.3205 23.0101H26.6105C26.4005 22.6901 26.0505 22.1701 25.5705 21.4501C25.0905 20.7301 24.4905 19.8301 23.7605 18.7501C24.0405 18.6301 24.3005 18.4801 24.5205 18.3001C24.7405 18.1201 24.9305 17.9201 25.0905 17.6901C25.2305 17.4601 25.3405 17.2201 25.4205 16.9601C25.5005 16.7001 25.5405 16.4301 25.5405 16.1501C25.5405 15.6701 25.4605 15.2501 25.3105 14.8801C25.1605 14.5201 24.9205 14.2201 24.6005 13.9901C24.2805 13.7601 23.8805 13.5801 23.3905 13.4601C22.9005 13.3401 22.3305 13.2701 21.6705 13.2701H18.8205V22.9601H20.8405V19.2601H21.9605L24.3005 22.9601V23.0101H24.3205ZM23.3505 15.6201C23.4305 15.7901 23.4705 15.9801 23.4705 16.1901C23.4705 16.4201 23.4305 16.6201 23.3505 16.7901C23.2705 16.9601 23.1505 17.1001 22.9905 17.2001C22.8505 17.3101 22.6505 17.3901 22.4005 17.4501C22.1505 17.5101 21.8705 17.5401 21.5505 17.5401H20.8605V14.9001H21.5005C21.8605 14.9001 22.1605 14.9201 22.4105 14.9701C22.6605 15.0101 22.8505 15.0901 23.0005 15.2001C23.1605 15.3101 23.2805 15.4401 23.3605 15.6101L23.3505 15.6201Z" fill="black"/>
</svg>
