<svg width="35" height="35" viewBox="0 0 35 35" fill="none" xmlns="http://www.w3.org/2000/svg">
<path d="M22.4907 5.73016C24.0407 6.40016 25.4007 7.32022 26.5507 8.47021C27.7007 9.62021 28.6107 10.9802 29.2807 12.5302C29.9507 14.0802 30.2807 15.7402 30.2807 17.5002C30.2807 19.2602 29.9507 20.9402 29.2807 22.4902C28.6107 24.0402 27.7007 25.4002 26.5407 26.5502C25.3807 27.7002 24.0207 28.6102 22.4807 29.2802C20.9407 29.9502 19.2707 30.2802 17.5007 30.2802C15.7307 30.2802 14.0607 29.9502 12.5107 29.2802C10.9607 28.6102 9.60068 27.7002 8.45068 26.5502C7.30068 25.4002 6.3907 24.0402 5.7207 22.4902C5.0507 20.9402 4.7207 19.2702 4.7207 17.5002C4.7207 15.7302 5.0507 14.0902 5.7207 12.5302C6.3907 10.9702 7.30068 9.62021 8.45068 8.47021C9.60068 7.32022 10.9607 6.40016 12.5107 5.73016C14.0607 5.06016 15.7307 4.72021 17.5007 4.72021C19.2707 4.72021 20.9407 5.06016 22.4907 5.73016ZM29.4307 17.9302V17.0802H27.3007C27.2507 15.8202 26.9707 14.6302 26.4607 13.5102C25.9507 12.3902 25.2807 11.4202 24.4407 10.5802C23.6007 9.7502 22.6207 9.07018 21.5007 8.56018C20.3807 8.05018 19.1907 7.76021 17.9307 7.71021V5.5802H17.0807V7.71021C15.8207 7.76021 14.6307 8.05018 13.5107 8.56018C12.3907 9.07018 11.4107 9.7502 10.5707 10.5802C9.73067 11.4102 9.05068 12.3902 8.55068 13.5102C8.04068 14.6302 7.76069 15.8202 7.71069 17.0802H5.58068V17.9302H7.71069C7.76069 19.2102 8.04068 20.4002 8.55068 21.5102C9.06068 22.6202 9.73067 23.6002 10.5707 24.4402C11.4107 25.2802 12.3907 25.9602 13.5107 26.4602C14.6307 26.9702 15.8207 27.2502 17.0807 27.3002V29.4302H17.9307V27.3002C19.1907 27.2502 20.3807 26.9702 21.5007 26.4602C22.6207 25.9502 23.6007 25.2802 24.4407 24.4402C25.2807 23.6002 25.9607 22.6202 26.4607 21.5102C26.9707 20.4002 27.2507 19.2102 27.3007 17.9302H29.4307ZM20.9907 9.26019C22.0707 9.73019 23.0207 10.3702 23.8307 11.1802C24.6407 11.9902 25.2807 12.9402 25.7507 14.0302C26.2207 15.1202 26.4607 16.2802 26.4607 17.5102C26.4607 18.7402 26.2207 19.9202 25.7507 21.0002C25.2807 22.0802 24.6407 23.0302 23.8307 23.8502C23.0207 24.6702 22.0807 25.3102 20.9907 25.7702C19.9007 26.2302 18.7407 26.4602 17.5007 26.4602C16.2607 26.4602 15.0907 26.2302 14.0107 25.7702C12.9307 25.3102 11.9807 24.6702 11.1707 23.8502C10.3607 23.0302 9.7207 22.0802 9.2507 21.0002C8.7807 19.9202 8.54067 18.7502 8.54067 17.5102C8.54067 16.2702 8.7807 15.1302 9.2507 14.0302C9.7207 12.9402 10.3607 11.9902 11.1707 11.1802C11.9807 10.3702 12.9207 9.73019 14.0107 9.26019C15.0907 8.79019 16.2607 8.55017 17.5007 8.55017C18.7407 8.55017 19.9107 8.79019 20.9907 9.26019ZM19.7107 22.2402H22.0307C21.8207 21.9202 21.4707 21.4002 20.9807 20.6802C20.4907 19.9602 19.8807 19.0602 19.1507 17.9802C19.4307 17.8602 19.6907 17.7102 19.9207 17.5302C20.1507 17.3502 20.3407 17.1502 20.4807 16.9202C20.6207 16.6902 20.7407 16.4502 20.8307 16.1902C20.9207 15.9302 20.9607 15.6602 20.9607 15.3802C20.9607 14.9002 20.8807 14.4802 20.7207 14.1102C20.5607 13.7502 20.3207 13.4502 20.0007 13.2202C19.6807 12.9902 19.2807 12.8102 18.7907 12.6902C18.3007 12.5702 17.7307 12.5002 17.0707 12.5002H14.2207V22.1902H16.2707V18.4602H17.3607L19.7007 22.1902V22.2402H19.7107ZM18.7407 14.8502C18.8207 15.0202 18.8607 15.2102 18.8607 15.4202C18.8607 15.6502 18.8207 15.8502 18.7407 16.0202C18.6607 16.1902 18.5507 16.3302 18.4107 16.4302C18.2507 16.5402 18.0507 16.6202 17.8007 16.6802C17.5507 16.7402 17.2707 16.7702 16.9507 16.7702H16.2807V14.1302H16.9207C17.2607 14.1302 17.5507 14.1502 17.8007 14.2002C18.0507 14.2402 18.2507 14.3202 18.4107 14.4302C18.5507 14.5402 18.6607 14.6702 18.7407 14.8402V14.8502Z" fill="#EBEBEB"/>
</svg>
