<svg width="37" height="37" viewBox="0 0 37 37" fill="none" xmlns="http://www.w3.org/2000/svg">
<path d="M24.5797 16.5606C23.6797 15.9606 22.6397 15.4806 21.4397 15.1306C20.2497 14.7906 18.9597 14.6006 17.5997 14.6006C16.2397 14.6006 14.9397 14.7806 13.7397 15.1306C12.5497 15.4906 11.5097 15.9606 10.6097 16.5606C9.70971 17.1606 9.01973 17.8606 8.49973 18.6806C7.96973 19.4906 7.71973 20.3506 7.71973 21.2706C7.71973 22.1906 7.97973 23.0606 8.49973 23.8706C9.01973 24.6706 9.70971 25.3806 10.6097 25.9906C11.5097 26.5906 12.5497 27.0706 13.7397 27.4106C14.9397 27.7506 16.2297 27.9306 17.5997 27.9306C18.9697 27.9306 20.2497 27.7606 21.4397 27.4106C22.6397 27.0706 23.6797 26.5906 24.5797 25.9906C25.4597 25.3806 26.1697 24.6706 26.6897 23.8706C27.2197 23.0606 27.4697 22.1906 27.4697 21.2706C27.4697 20.3506 27.2097 19.4906 26.6897 18.6806C26.1697 17.8606 25.4597 17.1606 24.5797 16.5606ZM15.4897 24.4006C15.2297 23.9306 14.1197 21.9806 14.1197 21.9806H13.4497V24.3706H11.9397V18.0706H13.9497C14.8497 18.0706 15.4997 18.2306 15.8997 18.5406C16.0797 18.6706 16.2197 18.8506 16.3197 19.0306C16.4397 19.2806 16.4997 19.5706 16.4997 19.9106C16.4997 20.2806 16.4297 20.5806 16.2497 20.8406C16.0797 21.1106 15.8197 21.3406 15.4697 21.5406L15.3497 21.6006L17.2097 24.4006H15.4897ZM23.2197 23.9106C22.7897 24.3106 22.0797 24.5806 20.9897 24.5806C20.0097 24.5806 19.3197 24.3706 18.8697 24.0306C18.6497 23.8706 18.4897 23.6706 18.3797 23.4706C18.2797 23.2506 18.2197 23.0006 18.2197 22.7606V22.6706H19.7197L19.7897 22.9506L19.9597 23.2106C20.1597 23.3906 20.4497 23.4806 20.8697 23.4806C21.0997 23.4806 21.2997 23.4606 21.4597 23.3806C21.5797 23.3306 21.6797 23.2706 21.7497 23.1806C21.9497 22.9806 22.0197 22.7306 22.0197 22.4406C22.0197 22.2906 21.9997 22.1606 21.9497 22.0506L21.7797 21.8006C21.6297 21.6506 21.4197 21.5906 21.1997 21.5906H20.6097V20.6306H21.0397C21.2597 20.6306 21.4697 20.5706 21.6197 20.4206L21.7897 20.1706C21.8397 20.0606 21.8597 19.9206 21.8597 19.7806C21.8597 19.6606 21.8397 19.5506 21.7997 19.4406L21.5997 19.1606C21.4297 18.9906 21.1697 18.8806 20.8597 18.8806C20.5297 18.8806 20.2697 18.9806 20.0997 19.1406L19.8997 19.4106L19.8397 19.6306H18.8597C18.8597 19.5106 18.8197 19.4006 18.7697 19.2906C18.7197 19.1706 18.6397 19.0706 18.5397 19.0006C18.5397 18.9606 18.5597 18.9306 18.5797 18.8906C18.6897 18.6806 18.8597 18.4906 19.0797 18.3106C19.5197 17.9906 20.1697 17.7806 21.0197 17.7806C21.8697 17.7806 22.4797 17.9906 22.8997 18.3106C23.1197 18.4706 23.2797 18.6706 23.3897 18.8706C23.4897 19.0706 23.5397 19.2906 23.5397 19.5106C23.5397 19.8406 23.4297 20.1506 23.2597 20.3906C23.0997 20.6206 22.8897 20.7906 22.6297 20.8906L22.5397 20.9106V21.1306L22.6297 21.1706C22.9697 21.2806 23.2397 21.4606 23.4297 21.7206C23.6297 21.9806 23.7397 22.3206 23.7397 22.7306C23.7197 23.1706 23.5597 23.5806 23.2197 23.9006V23.9106Z" fill="black"/>
<path d="M14.6804 19.3304C14.5004 19.2104 14.2404 19.1504 13.9204 19.1504H13.4404V20.8904H13.9204C14.2404 20.8904 14.5104 20.8304 14.6904 20.6804L14.8704 20.4204C14.9304 20.2904 14.9604 20.1404 14.9604 19.9704C14.9604 19.8104 14.9404 19.6804 14.8704 19.5504L14.6704 19.3304H14.6804Z" fill="black"/>
<path d="M30.6005 17.6501C29.8605 16.4601 28.8605 15.4202 27.5805 14.5302C26.3205 13.6502 24.8205 12.9501 23.1005 12.4301C21.3805 11.9101 19.5405 11.6602 17.5905 11.6602C15.6405 11.6602 13.7905 11.9201 12.0705 12.4301C10.3505 12.9501 8.86047 13.6402 7.58047 14.5302C6.32047 15.4102 5.31047 16.4601 4.58047 17.6501C3.84047 18.8401 3.48047 20.1201 3.48047 21.4501C3.48047 22.7801 3.85047 24.0902 4.58047 25.2902C5.32047 26.4802 6.32047 27.5101 7.58047 28.3901C8.86047 29.2701 10.3505 29.9702 12.0705 30.4902C13.7905 31.0102 15.6305 31.2501 17.5905 31.2501C19.5505 31.2501 21.3805 31.0002 23.0805 30.4902C24.7805 29.9702 26.2805 29.2801 27.5605 28.3901C28.8505 27.5101 29.8505 26.4802 30.5905 25.2902C31.3305 24.0902 31.6905 22.8101 31.6905 21.4501C31.6905 20.0901 31.3205 18.8401 30.5905 17.6501H30.6005ZM28.4205 21.6201C28.3605 22.5801 28.0505 23.4802 27.4905 24.3202C26.9405 25.1502 26.1905 25.8902 25.2605 26.5302C24.3305 27.1702 23.2505 27.6701 22.0105 28.0501C20.7705 28.4301 19.4605 28.6401 18.0705 28.6901V30.3002H17.1305V28.6901C15.7405 28.6401 14.4305 28.4301 13.1905 28.0501C11.9505 27.6701 10.8705 27.1702 9.94049 26.5302C9.01049 25.8902 8.26048 25.1602 7.71048 24.3202C7.15048 23.4902 6.84049 22.5801 6.78049 21.6201H4.44049V20.9801H6.78049C6.84049 20.0201 7.15048 19.1302 7.71048 18.2802C8.26048 17.4502 9.01049 16.7102 9.94049 16.0702C10.8705 15.4402 11.9505 14.9401 13.1905 14.5501C14.4305 14.1701 15.7405 13.9502 17.1305 13.9102V12.3001H18.0705V13.9102C19.4605 13.9502 20.7705 14.1701 22.0105 14.5501C23.2505 14.9401 24.3305 15.4502 25.2605 16.0702C26.1905 16.7102 26.9405 17.4402 27.4905 18.2802C28.0505 19.1302 28.3605 20.0201 28.4205 20.9801H30.7605V21.6201H28.4205Z" fill="black"/>
<path d="M13.0703 7.74023H22.2903L17.6803 14.6202L13.0703 7.74023Z" fill="white"/>
<path d="M21.3499 8.24023L17.6799 13.7202L14.0099 8.24023H21.3499ZM23.2199 7.24023H12.1299L13.1699 8.80023L16.8399 14.2802L17.6699 15.5202L18.4999 14.2802L22.1699 8.80023L23.2099 7.24023H23.2199Z" fill="black"/>
</svg>
