<svg width="37" height="37" viewBox="0 0 37 37" fill="none" xmlns="http://www.w3.org/2000/svg">
<path d="M29.5697 12.7698C29.9097 13.1098 30.0797 13.5098 30.0797 13.9698V20.7898C30.0797 22.2098 29.5797 23.4198 28.5797 24.4098C27.5797 25.4098 26.3697 25.8998 24.9697 25.8998H11.3297C9.92971 25.8998 8.71973 25.3998 7.71973 24.4098C6.71973 23.4198 6.21973 22.2098 6.21973 20.7898V13.9698C6.21973 13.5098 6.38971 13.1098 6.72971 12.7698C7.06971 12.4298 7.46972 12.2598 7.92972 12.2598H28.3797C28.8397 12.2598 29.2397 12.4298 29.5797 12.7698H29.5697ZM20.3597 23.8198H22.6797C22.4697 23.4998 22.1197 22.9798 21.6297 22.2598C21.1397 21.5398 20.5297 20.6398 19.7997 19.5598C20.0897 19.4398 20.3397 19.2898 20.5697 19.1098C20.7997 18.9298 20.9897 18.7298 21.1297 18.4998C21.2697 18.2698 21.3897 18.0298 21.4797 17.7698C21.5697 17.5098 21.6097 17.2398 21.6097 16.9598C21.6097 16.4798 21.5297 16.0598 21.3697 15.6898C21.2097 15.3298 20.9697 15.0298 20.6497 14.7998C20.3297 14.5698 19.9297 14.3898 19.4397 14.2698C18.9497 14.1498 18.3797 14.0798 17.7197 14.0798H14.8697V23.7698H16.9197V20.0398H18.0097L20.3497 23.7698V23.8198H20.3597ZM19.3897 16.4298C19.4697 16.5998 19.5097 16.7898 19.5097 16.9998C19.5097 17.2298 19.4697 17.4298 19.3897 17.5998C19.3097 17.7698 19.1997 17.9098 19.0597 18.0098C18.8997 18.1198 18.6997 18.1998 18.4497 18.2598C18.1997 18.3198 17.9197 18.3498 17.5997 18.3498H16.9297V15.7098H17.5697C17.9097 15.7098 18.1997 15.7298 18.4497 15.7798C18.6997 15.8198 18.8997 15.8998 19.0597 16.0098C19.1997 16.1198 19.3097 16.2498 19.3897 16.4198V16.4298Z" fill="black"/>
</svg>
