<svg width="35" height="35" viewBox="0 0 35 35" fill="none" xmlns="http://www.w3.org/2000/svg">
<path d="M22.1444 6.51494C23.5944 7.14494 24.8545 7.99494 25.9445 9.07498C27.0345 10.155 27.8744 11.405 28.5044 12.855C29.1244 14.305 29.4344 15.855 29.4344 17.505C29.4344 19.155 29.1244 20.715 28.5044 22.165C27.8844 23.625 27.0345 24.885 25.9445 25.965C24.8545 27.045 23.5944 27.885 22.1444 28.505C20.6944 29.125 19.1444 29.435 17.4944 29.435C15.8444 29.435 14.2944 29.125 12.8444 28.505C11.3944 27.885 10.1344 27.035 9.05444 25.965C7.97444 24.895 7.11444 23.625 6.49444 22.165C5.87444 20.705 5.56445 19.155 5.56445 17.505C5.56445 15.855 5.87444 14.305 6.49444 12.855C7.11444 11.405 7.96444 10.145 9.05444 9.07498C10.1344 8.00494 11.4044 7.14494 12.8444 6.51494C14.2944 5.88494 15.8444 5.56494 17.4944 5.56494C19.1444 5.56494 20.6944 5.88494 22.1444 6.51494ZM18.4044 18.7849L21.6244 12.2849H19.2044L17.5544 16.065C17.5044 16.175 17.4544 16.295 17.4244 16.425C17.3844 16.555 17.3644 16.705 17.3444 16.865H17.2944C17.2244 16.635 17.1744 16.455 17.1444 16.315C17.1144 16.185 17.0944 16.095 17.0744 16.065L15.4544 12.2849H12.8744L16.0944 18.835V22.405H18.4145V18.7849H18.4044Z" fill="#EBEBEB"/>
</svg>
