<svg width="37" height="37" viewBox="0 0 37 37" fill="none" xmlns="http://www.w3.org/2000/svg">
<path d="M22.8905 7.55986C24.3405 8.18986 25.6006 9.03986 26.6906 10.1199C27.7806 11.1999 28.6205 12.4499 29.2505 13.8999C29.8705 15.3499 30.1805 16.8999 30.1805 18.5499C30.1805 20.1999 29.8705 21.7599 29.2505 23.2099C28.6305 24.6699 27.7806 25.9299 26.6906 27.0099C25.6006 28.0899 24.3405 28.9299 22.8905 29.5499C21.4405 30.1699 19.8905 30.4799 18.2405 30.4799C16.5905 30.4799 15.0405 30.1699 13.5905 29.5499C12.1405 28.9299 10.8805 28.0799 9.80054 27.0099C8.72054 25.9399 7.86054 24.6699 7.24054 23.2099C6.62054 21.7499 6.31055 20.1999 6.31055 18.5499C6.31055 16.8999 6.62054 15.3499 7.24054 13.8999C7.86054 12.4499 8.71054 11.1899 9.80054 10.1199C10.8805 9.04986 12.1505 8.18986 13.5905 7.55986C15.0405 6.92986 16.5905 6.60986 18.2405 6.60986C19.8905 6.60986 21.4405 6.92986 22.8905 7.55986ZM19.1505 19.8298L22.3705 13.3298H19.9505L18.3005 17.1099C18.2505 17.2199 18.2005 17.3399 18.1705 17.4699C18.1305 17.5999 18.1105 17.7499 18.0905 17.9099H18.0405C17.9705 17.6799 17.9205 17.4999 17.8905 17.3599C17.8605 17.2299 17.8405 17.1399 17.8205 17.1099L16.2005 13.3298H13.6205L16.8405 19.8799V23.4499H19.1606V19.8298H19.1505Z" fill="black"/>
</svg>
