<svg width="35" height="35" viewBox="0 0 35 35" fill="none" xmlns="http://www.w3.org/2000/svg">
<path d="M22.1444 6.51494C23.5944 7.14494 24.8545 7.99494 25.9445 9.07494C27.0345 10.1549 27.8745 11.4049 28.5045 12.8549C29.1245 14.3049 29.4344 15.8549 29.4344 17.5049C29.4344 19.1549 29.1245 20.7149 28.5045 22.1649C27.8845 23.6249 27.0345 24.8849 25.9445 25.9649C24.8545 27.0449 23.5944 27.8849 22.1444 28.5049C20.6944 29.1249 19.1444 29.4349 17.4944 29.4349C15.8444 29.4349 14.2945 29.1249 12.8445 28.5049C11.3945 27.8849 10.1344 27.0349 9.05444 25.9649C7.97444 24.8949 7.11444 23.6249 6.49444 22.1649C5.87444 20.7049 5.56445 19.1549 5.56445 17.5049C5.56445 15.8549 5.87444 14.3049 6.49444 12.8549C7.11444 11.4049 7.96444 10.1449 9.05444 9.07494C10.1344 8.00494 11.4045 7.14494 12.8445 6.51494C14.2945 5.88494 15.8444 5.56494 17.4944 5.56494C19.1444 5.56494 20.6944 5.88494 22.1444 6.51494ZM19.2044 17.5049L22.1844 12.3949H19.2044L17.5045 16.2249L15.7944 12.3949H12.8145L15.7944 17.5049L12.8145 22.6149H15.7944L17.5045 18.7849L19.2044 22.6149H22.1844L19.2044 17.5049Z" fill="#EBEBEB"/>
</svg>
