<svg width="37" height="37" viewBox="0 0 37 37" fill="none" xmlns="http://www.w3.org/2000/svg">
<path d="M22.6903 6.8499C24.1403 7.4799 25.4004 8.3299 26.4904 9.4099C27.5804 10.4899 28.4204 11.7399 29.0504 13.1899C29.6704 14.6399 29.9803 16.1899 29.9803 17.8399C29.9803 19.4899 29.6704 21.0499 29.0504 22.4999C28.4304 23.9599 27.5804 25.2199 26.4904 26.2999C25.4004 27.3799 24.1403 28.2199 22.6903 28.8399C21.2403 29.4599 19.6903 29.7699 18.0403 29.7699C16.3903 29.7699 14.8404 29.4599 13.3904 28.8399C11.9404 28.2199 10.6803 27.3699 9.60034 26.2999C8.52034 25.2299 7.66034 23.9599 7.04034 22.4999C6.42034 21.0399 6.11035 19.4899 6.11035 17.8399C6.11035 16.1899 6.42034 14.6399 7.04034 13.1899C7.66034 11.7399 8.51034 10.4799 9.60034 9.4099C10.6803 8.3399 11.9504 7.4799 13.3904 6.8499C14.8404 6.2199 16.3903 5.8999 18.0403 5.8999C19.6903 5.8999 21.2403 6.2199 22.6903 6.8499ZM19.7503 17.8399L22.7303 12.7299H19.7503L18.0504 16.5599L16.3403 12.7299H13.3604L16.3403 17.8399L13.3604 22.9499H16.3403L18.0504 19.1199L19.7503 22.9499H22.7303L19.7503 17.8399Z" fill="black"/>
</svg>
