<svg width="37" height="37" viewBox="0 0 37 37" fill="none" xmlns="http://www.w3.org/2000/svg">
<path d="M22.8501 7.87C24.2001 8.45 25.3801 9.24998 26.3901 10.26C27.4001 11.27 28.2001 12.45 28.7801 13.8C29.3601 15.15 29.6501 16.6 29.6501 18.14C29.6501 19.68 29.3601 21.13 28.7801 22.48C28.2001 23.83 27.4001 25.01 26.3901 26.02C25.3801 27.03 24.2001 27.83 22.8501 28.41C21.5001 28.99 20.0501 29.28 18.5101 29.28C16.9701 29.28 15.5201 28.99 14.1701 28.41C12.8201 27.83 11.6401 27.03 10.6301 26.02C9.62013 25.01 8.82011 23.83 8.24011 22.48C7.66011 21.13 7.37012 19.68 7.37012 18.14C7.37012 16.6 7.66011 15.15 8.24011 13.8C8.82011 12.45 9.62013 11.27 10.6301 10.26C11.6401 9.24998 12.8201 8.45 14.1701 7.87C15.5201 7.29 16.9701 7 18.5101 7C20.0501 7 21.5001 7.29 22.8501 7.87ZM24.6301 23.17L19.6301 18.15L24.6301 13.13L23.5401 12.04L18.5201 17.04L13.4901 12.04L12.4001 13.13L17.4001 18.15L12.4001 23.17L13.4901 24.26L18.5201 19.26L23.5401 24.26L24.6301 23.17Z" fill="black"/>
</svg>
