<svg width="37" height="37" viewBox="0 0 37 37" fill="none" xmlns="http://www.w3.org/2000/svg">
<path d="M28.3297 10.4797H7.96971C6.23971 10.4797 4.98971 12.1397 5.46971 13.7997L8.40971 23.9297C8.72971 25.0397 9.74971 25.7997 10.9097 25.7997H25.5197C26.6897 25.7997 27.7097 25.0197 28.0297 23.8897L30.8397 13.7597C31.2997 12.0997 30.0497 10.4697 28.3297 10.4697V10.4797ZM11.0897 23.5497C10.6897 23.5497 10.3597 23.2197 10.3597 22.8197C10.3597 22.4197 10.6897 22.0898 11.0897 22.0898C11.4897 22.0898 11.8197 22.4197 11.8197 22.8197C11.8197 23.2197 11.4897 23.5497 11.0897 23.5497ZM11.0897 20.3398C10.6897 20.3398 10.3597 20.0097 10.3597 19.6097C10.3597 19.2097 10.6897 18.8797 11.0897 18.8797C11.4897 18.8797 11.8197 19.2097 11.8197 19.6097C11.8197 20.0097 11.4897 20.3398 11.0897 20.3398ZM11.0897 17.1297C10.6897 17.1297 10.3597 16.7997 10.3597 16.3997C10.3597 15.9997 10.6897 15.6697 11.0897 15.6697C11.4897 15.6697 11.8197 15.9997 11.8197 16.3997C11.8197 16.7997 11.4897 17.1297 11.0897 17.1297ZM14.6197 23.5397C14.2197 23.5397 13.8897 23.2098 13.8897 22.8098C13.8897 22.4098 14.2197 22.0797 14.6197 22.0797C15.0197 22.0797 15.3497 22.4098 15.3497 22.8098C15.3497 23.2098 15.0197 23.5397 14.6197 23.5397ZM14.6197 20.3297C14.2197 20.3297 13.8897 19.9997 13.8897 19.5997C13.8897 19.1997 14.2197 18.8698 14.6197 18.8698C15.0197 18.8698 15.3497 19.1997 15.3497 19.5997C15.3497 19.9997 15.0197 20.3297 14.6197 20.3297ZM14.6197 17.1198C14.2197 17.1198 13.8897 16.7897 13.8897 16.3897C13.8897 15.9897 14.2197 15.6597 14.6197 15.6597C15.0197 15.6597 15.3497 15.9897 15.3497 16.3897C15.3497 16.7897 15.0197 17.1198 14.6197 17.1198ZM18.1497 23.5298C17.7497 23.5298 17.4197 23.1997 17.4197 22.7997C17.4197 22.3997 17.7497 22.0697 18.1497 22.0697C18.5497 22.0697 18.8797 22.3997 18.8797 22.7997C18.8797 23.1997 18.5497 23.5298 18.1497 23.5298ZM18.1497 20.3197C17.7497 20.3197 17.4197 19.9898 17.4197 19.5898C17.4197 19.1898 17.7497 18.8597 18.1497 18.8597C18.5497 18.8597 18.8797 19.1898 18.8797 19.5898C18.8797 19.9898 18.5497 20.3197 18.1497 20.3197ZM18.1497 17.1097C17.7497 17.1097 17.4197 16.7797 17.4197 16.3797C17.4197 15.9797 17.7497 15.6497 18.1497 15.6497C18.5497 15.6497 18.8797 15.9797 18.8797 16.3797C18.8797 16.7797 18.5497 17.1097 18.1497 17.1097ZM21.6797 23.5197C21.2797 23.5197 20.9497 23.1897 20.9497 22.7897C20.9497 22.3897 21.2797 22.0598 21.6797 22.0598C22.0797 22.0598 22.4097 22.3897 22.4097 22.7897C22.4097 23.1897 22.0797 23.5197 21.6797 23.5197ZM21.6797 20.3098C21.2797 20.3098 20.9497 19.9797 20.9497 19.5797C20.9497 19.1797 21.2797 18.8497 21.6797 18.8497C22.0797 18.8497 22.4097 19.1797 22.4097 19.5797C22.4097 19.9797 22.0797 20.3098 21.6797 20.3098ZM21.6797 17.0997C21.2797 17.0997 20.9497 16.7698 20.9497 16.3698C20.9497 15.9698 21.2797 15.6397 21.6797 15.6397C22.0797 15.6397 22.4097 15.9698 22.4097 16.3698C22.4097 16.7698 22.0797 17.0997 21.6797 17.0997ZM25.2097 23.5097C24.8097 23.5097 24.4797 23.1798 24.4797 22.7798C24.4797 22.3798 24.8097 22.0497 25.2097 22.0497C25.6097 22.0497 25.9397 22.3798 25.9397 22.7798C25.9397 23.1798 25.6097 23.5097 25.2097 23.5097ZM25.2097 20.2997C24.8097 20.2997 24.4797 19.9697 24.4797 19.5697C24.4797 19.1697 24.8097 18.8398 25.2097 18.8398C25.6097 18.8398 25.9397 19.1697 25.9397 19.5697C25.9397 19.9697 25.6097 20.2997 25.2097 20.2997ZM25.2097 17.0898C24.8097 17.0898 24.4797 16.7597 24.4797 16.3597C24.4797 15.9597 24.8097 15.6297 25.2097 15.6297C25.6097 15.6297 25.9397 15.9597 25.9397 16.3597C25.9397 16.7597 25.6097 17.0898 25.2097 17.0898Z" fill="black"/>
</svg>
