<svg width="35" height="35" viewBox="0 0 35 35" fill="none" xmlns="http://www.w3.org/2000/svg">
<path d="M27.6783 9.84496H7.31834C5.58834 9.84496 4.33834 11.505 4.81834 13.165L7.75834 23.295C8.07834 24.405 9.09835 25.165 10.2583 25.165H24.8683C26.0383 25.165 27.0583 24.385 27.3783 23.255L30.1883 13.125C30.6483 11.465 29.3983 9.83496 27.6783 9.83496V9.84496ZM10.4383 22.915C10.0383 22.915 9.70834 22.585 9.70834 22.185C9.70834 21.785 10.0383 21.4551 10.4383 21.4551C10.8383 21.4551 11.1683 21.785 11.1683 22.185C11.1683 22.585 10.8383 22.915 10.4383 22.915ZM10.4383 19.7051C10.0383 19.7051 9.70834 19.375 9.70834 18.975C9.70834 18.575 10.0383 18.245 10.4383 18.245C10.8383 18.245 11.1683 18.575 11.1683 18.975C11.1683 19.375 10.8383 19.7051 10.4383 19.7051ZM10.4383 16.495C10.0383 16.495 9.70834 16.165 9.70834 15.765C9.70834 15.365 10.0383 15.035 10.4383 15.035C10.8383 15.035 11.1683 15.365 11.1683 15.765C11.1683 16.165 10.8383 16.495 10.4383 16.495ZM13.9683 22.905C13.5683 22.905 13.2383 22.5751 13.2383 22.1751C13.2383 21.7751 13.5683 21.445 13.9683 21.445C14.3683 21.445 14.6983 21.7751 14.6983 22.1751C14.6983 22.5751 14.3683 22.905 13.9683 22.905ZM13.9683 19.695C13.5683 19.695 13.2383 19.365 13.2383 18.965C13.2383 18.565 13.5683 18.2351 13.9683 18.2351C14.3683 18.2351 14.6983 18.565 14.6983 18.965C14.6983 19.365 14.3683 19.695 13.9683 19.695ZM13.9683 16.4851C13.5683 16.4851 13.2383 16.155 13.2383 15.755C13.2383 15.355 13.5683 15.025 13.9683 15.025C14.3683 15.025 14.6983 15.355 14.6983 15.755C14.6983 16.155 14.3683 16.4851 13.9683 16.4851ZM17.4983 22.8951C17.0983 22.8951 16.7683 22.565 16.7683 22.165C16.7683 21.765 17.0983 21.435 17.4983 21.435C17.8983 21.435 18.2283 21.765 18.2283 22.165C18.2283 22.565 17.8983 22.8951 17.4983 22.8951ZM17.4983 19.685C17.0983 19.685 16.7683 19.3551 16.7683 18.9551C16.7683 18.5551 17.0983 18.225 17.4983 18.225C17.8983 18.225 18.2283 18.5551 18.2283 18.9551C18.2283 19.3551 17.8983 19.685 17.4983 19.685ZM17.4983 16.475C17.0983 16.475 16.7683 16.145 16.7683 15.745C16.7683 15.345 17.0983 15.015 17.4983 15.015C17.8983 15.015 18.2283 15.345 18.2283 15.745C18.2283 16.145 17.8983 16.475 17.4983 16.475ZM21.0283 22.885C20.6283 22.885 20.2983 22.555 20.2983 22.155C20.2983 21.755 20.6283 21.4251 21.0283 21.4251C21.4283 21.4251 21.7583 21.755 21.7583 22.155C21.7583 22.555 21.4283 22.885 21.0283 22.885ZM21.0283 19.6751C20.6283 19.6751 20.2983 19.345 20.2983 18.945C20.2983 18.545 20.6283 18.215 21.0283 18.215C21.4283 18.215 21.7583 18.545 21.7583 18.945C21.7583 19.345 21.4283 19.6751 21.0283 19.6751ZM21.0283 16.465C20.6283 16.465 20.2983 16.1351 20.2983 15.7351C20.2983 15.3351 20.6283 15.005 21.0283 15.005C21.4283 15.005 21.7583 15.3351 21.7583 15.7351C21.7583 16.1351 21.4283 16.465 21.0283 16.465ZM24.5583 22.875C24.1583 22.875 23.8283 22.5451 23.8283 22.1451C23.8283 21.7451 24.1583 21.415 24.5583 21.415C24.9583 21.415 25.2883 21.7451 25.2883 22.1451C25.2883 22.5451 24.9583 22.875 24.5583 22.875ZM24.5583 19.665C24.1583 19.665 23.8283 19.335 23.8283 18.935C23.8283 18.535 24.1583 18.2051 24.5583 18.2051C24.9583 18.2051 25.2883 18.535 25.2883 18.935C25.2883 19.335 24.9583 19.665 24.5583 19.665ZM24.5583 16.4551C24.1583 16.4551 23.8283 16.125 23.8283 15.725C23.8283 15.325 24.1583 14.995 24.5583 14.995C24.9583 14.995 25.2883 15.325 25.2883 15.725C25.2883 16.125 24.9583 16.4551 24.5583 16.4551Z" fill="#EBEBEB"/>
</svg>
