<svg width="37" height="37" viewBox="0 0 37 37" fill="none" xmlns="http://www.w3.org/2000/svg">
<path d="M22.8501 7.88025C24.2001 8.46025 25.3801 9.26026 26.3901 10.2703C27.4001 11.2803 28.2001 12.4603 28.7801 13.8103C29.3601 15.1603 29.6501 16.6103 29.6501 18.1503C29.6501 19.6903 29.3601 21.1402 28.7801 22.4902C28.2001 23.8402 27.4001 25.0203 26.3901 26.0303C25.3801 27.0403 24.2001 27.8403 22.8501 28.4203C21.5001 29.0003 20.0501 29.2903 18.5101 29.2903C16.9701 29.2903 15.5201 29.0003 14.1701 28.4203C12.8201 27.8403 11.6401 27.0403 10.6301 26.0303C9.62013 25.0203 8.82011 23.8402 8.24011 22.4902C7.66011 21.1402 7.37012 19.6903 7.37012 18.1503C7.37012 16.6103 7.66011 15.1603 8.24011 13.8103C8.82011 12.4603 9.62013 11.2803 10.6301 10.2703C11.6401 9.26026 12.8201 8.46025 14.1701 7.88025C15.5201 7.30025 16.9701 7.01025 18.5101 7.01025C20.0501 7.01025 21.5001 7.30025 22.8501 7.88025ZM18.5101 25.8403C19.5701 25.8403 20.5701 25.6403 21.4901 25.2303C22.4201 24.8203 23.2301 24.2703 23.9301 23.5803C24.6301 22.8803 25.1801 22.0703 25.5801 21.1403C25.9901 20.2103 26.1901 19.2203 26.1901 18.1603C26.1901 17.1003 25.9901 16.1003 25.5801 15.1803C25.1701 14.2503 24.6201 13.4403 23.9301 12.7503C23.2301 12.0603 22.4201 11.5203 21.4901 11.1203C20.5601 10.7203 19.5701 10.5203 18.5101 10.5203C17.4501 10.5203 16.4501 10.7203 15.5301 11.1203C14.6001 11.5203 13.7901 12.0603 13.0901 12.7503C12.3901 13.4403 11.8401 14.2503 11.4401 15.1803C11.0301 16.1103 10.8301 17.1003 10.8301 18.1603C10.8301 19.2203 11.0301 20.2203 11.4401 21.1603C11.8501 22.1003 12.4001 22.9103 13.0901 23.6003C13.7901 24.2903 14.6001 24.8402 15.5301 25.2402C16.4601 25.6502 17.4501 25.8503 18.5101 25.8503V25.8403ZM23.6501 15.9902C23.3601 15.3102 22.9601 14.7203 22.4601 14.2103C21.9501 13.7003 21.3601 13.3103 20.6801 13.0203C20.0001 12.7303 19.2801 12.5803 18.5201 12.5803C17.7601 12.5803 17.0401 12.7303 16.3601 13.0203C15.6801 13.3103 15.0901 13.7103 14.5801 14.2103C14.0701 14.7203 13.6801 15.3102 13.3901 15.9902C13.1001 16.6702 12.9501 17.3903 12.9501 18.1503C12.9501 18.9103 13.1001 19.6303 13.3901 20.3103C13.6801 20.9903 14.0801 21.5803 14.5801 22.0903C15.0901 22.6003 15.6801 22.9903 16.3601 23.2803C17.0401 23.5703 17.7601 23.7203 18.5201 23.7203C19.2801 23.7203 20.0001 23.5703 20.6801 23.2803C21.3601 22.9903 21.9501 22.5903 22.4601 22.0903C22.9701 21.5803 23.3601 20.9903 23.6501 20.3103C23.9401 19.6303 24.0901 18.9103 24.0901 18.1503C24.0901 17.3903 23.9401 16.6702 23.6501 15.9902Z" fill="black"/>
</svg>
