<svg width="35" height="35" viewBox="0 0 35 35" fill="none" xmlns="http://www.w3.org/2000/svg">
<path d="M21.8394 7.22986C23.1894 7.80986 24.3694 8.60987 25.3794 9.61991C26.3894 10.6299 27.1894 11.8099 27.7694 13.1599C28.3494 14.5099 28.6394 15.9599 28.6394 17.4999C28.6394 19.0399 28.3494 20.4898 27.7694 21.8398C27.1894 23.1898 26.3894 24.3699 25.3794 25.3799C24.3694 26.3899 23.1894 27.1899 21.8394 27.7699C20.4894 28.3499 19.0394 28.6399 17.4994 28.6399C15.9594 28.6399 14.5094 28.3499 13.1594 27.7699C11.8094 27.1899 10.6294 26.3899 9.61936 25.3799C8.60939 24.3699 7.80937 23.1898 7.22937 21.8398C6.64937 20.4898 6.35938 19.0399 6.35938 17.4999C6.35938 15.9599 6.64937 14.5099 7.22937 13.1599C7.80937 11.8099 8.60939 10.6299 9.61936 9.61991C10.6294 8.60987 11.8094 7.80986 13.1594 7.22986C14.5094 6.64986 15.9594 6.35986 17.4994 6.35986C19.0394 6.35986 20.4894 6.64986 21.8394 7.22986ZM17.4994 25.1899C18.5594 25.1899 19.5594 24.9899 20.4794 24.5799C21.4094 24.1699 22.2194 23.6199 22.9194 22.9299C23.6194 22.2299 24.1694 21.4199 24.5694 20.4899C24.9794 19.5599 25.1794 18.5699 25.1794 17.5099C25.1794 16.4499 24.9794 15.4499 24.5694 14.5299C24.1594 13.5999 23.6094 12.7899 22.9194 12.0999C22.2194 11.4099 21.4094 10.8699 20.4794 10.4699C19.5494 10.0699 18.5594 9.86991 17.4994 9.86991C16.4394 9.86991 15.4394 10.0699 14.5194 10.4699C13.5894 10.8699 12.7794 11.4099 12.0794 12.0999C11.3794 12.7899 10.8294 13.5999 10.4294 14.5299C10.0194 15.4599 9.81936 16.4499 9.81936 17.5099C9.81936 18.5699 10.0194 19.5699 10.4294 20.5099C10.8394 21.4499 11.3894 22.2599 12.0794 22.9499C12.7794 23.6399 13.5894 24.1898 14.5194 24.5898C15.4494 24.9998 16.4394 25.1999 17.4994 25.1999V25.1899ZM22.6394 15.3398C22.3494 14.6598 21.9494 14.0699 21.4494 13.5599C20.9394 13.0499 20.3494 12.6599 19.6694 12.3699C18.9894 12.0799 18.2694 11.9299 17.5094 11.9299C16.7494 11.9299 16.0294 12.0799 15.3494 12.3699C14.6694 12.6599 14.0794 13.0599 13.5694 13.5599C13.0594 14.0699 12.6694 14.6598 12.3794 15.3398C12.0894 16.0198 11.9394 16.7399 11.9394 17.4999C11.9394 18.2599 12.0894 18.9799 12.3794 19.6599C12.6694 20.3399 13.0694 20.9299 13.5694 21.4399C14.0794 21.9499 14.6694 22.3399 15.3494 22.6299C16.0294 22.9199 16.7494 23.0699 17.5094 23.0699C18.2694 23.0699 18.9894 22.9199 19.6694 22.6299C20.3494 22.3399 20.9394 21.9399 21.4494 21.4399C21.9594 20.9299 22.3494 20.3399 22.6394 19.6599C22.9294 18.9799 23.0794 18.2599 23.0794 17.4999C23.0794 16.7399 22.9294 16.0198 22.6394 15.3398Z" fill="#EBEBEB"/>
</svg>
