<svg width="35" height="35" viewBox="0 0 35 35" fill="none" xmlns="http://www.w3.org/2000/svg">
<path d="M21.8394 7.22986C23.1894 7.80986 24.3694 8.60984 25.3794 9.61986C26.3894 10.6299 27.1894 11.8099 27.7694 13.1599C28.3494 14.5099 28.6394 15.9599 28.6394 17.4999C28.6394 19.0399 28.3494 20.4899 27.7694 21.8399C27.1894 23.1899 26.3894 24.3699 25.3794 25.3799C24.3694 26.3899 23.1894 27.1899 21.8394 27.7699C20.4894 28.3499 19.0394 28.6399 17.4994 28.6399C15.9594 28.6399 14.5094 28.3499 13.1594 27.7699C11.8094 27.1899 10.6294 26.3899 9.61936 25.3799C8.60939 24.3699 7.80937 23.1899 7.22937 21.8399C6.64937 20.4899 6.35938 19.0399 6.35938 17.4999C6.35938 15.9599 6.64937 14.5099 7.22937 13.1599C7.80937 11.8099 8.60939 10.6299 9.61936 9.61986C10.6294 8.60984 11.8094 7.80986 13.1594 7.22986C14.5094 6.64986 15.9594 6.35986 17.4994 6.35986C19.0394 6.35986 20.4894 6.64986 21.8394 7.22986ZM23.6194 22.5299L18.6194 17.5099L23.6194 12.4899L22.5294 11.3999L17.5094 16.3999L12.4794 11.3999L11.3894 12.4899L16.3894 17.5099L11.3894 22.5299L12.4794 23.6199L17.5094 18.6199L22.5294 23.6199L23.6194 22.5299Z" fill="#EBEBEB"/>
</svg>
