<svg width="35" height="35" viewBox="0 0 35 35" fill="none" xmlns="http://www.w3.org/2000/svg">
<path d="M15.111 17.5099L12.771 21.0899H7.30094C6.94094 21.0899 6.62094 20.9599 6.36094 20.6999C6.09094 20.4399 5.96094 20.1499 5.96094 19.8199V15.24C5.96094 14.88 6.09094 14.5599 6.36094 14.3099C6.63094 14.0499 6.94094 13.9199 7.30094 13.9199H12.771L15.111 17.4999V17.5099ZM7.30094 14.7199C7.17094 14.7199 7.04094 14.7699 6.93094 14.8699C6.81094 14.9699 6.76094 15.09 6.76094 15.24V19.77C6.76094 19.92 6.82094 20.0399 6.93094 20.1399C7.05094 20.2399 7.17094 20.2899 7.30094 20.2899H12.371L14.191 17.4999L12.371 14.7099H7.30094V14.7199ZM19.761 5.95996C20.121 5.95996 20.431 6.08999 20.691 6.35999C20.951 6.62999 21.081 6.93999 21.081 7.29999V12.77L17.501 15.1099L13.921 12.77V7.29999C13.921 6.93999 14.051 6.61999 14.311 6.35999C14.571 6.09999 14.881 5.95996 15.241 5.95996H19.771H19.761ZM15.231 29.0399C14.861 29.0399 14.551 28.9099 14.301 28.6399C14.051 28.3699 13.911 28.0599 13.911 27.6999V22.2299L17.491 19.8899L21.121 22.2299V27.6999C21.121 28.0599 20.991 28.3799 20.721 28.6399C20.451 28.8999 20.151 29.0399 19.801 29.0399H15.221H15.231ZM15.231 6.74997C15.081 6.74997 14.961 6.80999 14.861 6.91999C14.761 7.02999 14.711 7.15998 14.711 7.28998V12.3099L17.501 14.1499L20.291 12.3099V7.28998C20.291 7.15998 20.241 7.02999 20.141 6.91999C20.041 6.80999 19.921 6.74997 19.771 6.74997H15.241H15.231ZM27.691 13.9099C28.051 13.9099 28.371 14.04 28.641 14.3C28.911 14.56 29.041 14.8699 29.041 15.2299V19.7599C29.041 20.1299 28.911 20.4399 28.641 20.6899C28.371 20.9499 28.061 21.0799 27.691 21.0799H22.221L19.881 17.4999L22.221 13.9199H27.691V13.9099ZM27.691 14.7599H22.661L20.821 17.55L22.661 20.3399H27.691C27.821 20.3399 27.951 20.2899 28.061 20.1799C28.181 20.0699 28.231 19.9499 28.231 19.8199V15.24C28.231 15.09 28.181 14.9699 28.071 14.8699C27.961 14.7699 27.831 14.7199 27.681 14.7199V14.77L27.691 14.7599Z" fill="#EBEBEB"/>
</svg>
