<svg width="35" height="35" viewBox="0 0 35 35" fill="none" xmlns="http://www.w3.org/2000/svg">
<path d="M15.1051 17.5099L12.7651 21.0899H7.29508C6.93508 21.0899 6.61508 20.9599 6.35508 20.6999C6.08508 20.4399 5.95508 20.1499 5.95508 19.8199V15.2399C5.95508 14.8799 6.08508 14.5599 6.35508 14.3099C6.62508 14.0499 6.93508 13.9199 7.29508 13.9199H12.7651L15.1051 17.4999V17.5099ZM7.29508 14.7199C7.16508 14.7199 7.03508 14.7699 6.92508 14.8699C6.80508 14.9699 6.75508 15.0899 6.75508 15.2399V19.7699C6.75508 19.9199 6.81508 20.0399 6.92508 20.1399C7.04508 20.2399 7.16508 20.2899 7.29508 20.2899H12.3651L14.1851 17.4999L12.3651 14.7099H7.29508V14.7199ZM19.7551 5.95996C20.1151 5.95996 20.4251 6.08995 20.6851 6.35995C20.9451 6.62995 21.0751 6.93995 21.0751 7.29995V12.7699L17.4951 15.1099L13.9151 12.7699V7.29995C13.9151 6.93995 14.0451 6.61995 14.3051 6.35995C14.5651 6.09995 14.8751 5.95996 15.2351 5.95996H19.7651H19.7551ZM17.4951 19.8899L21.1251 22.2299V27.6999C21.1251 28.0599 20.9951 28.3799 20.7251 28.6399C20.4551 28.8999 20.1551 29.0399 19.8051 29.0399H15.2251C14.8551 29.0399 14.5451 28.9099 14.2951 28.6399C14.0451 28.3699 13.9051 28.0599 13.9051 27.6999V22.2299L17.4851 19.8899H17.4951ZM15.2351 6.75996C15.0851 6.75996 14.9651 6.81996 14.8651 6.92996C14.7651 7.03996 14.7151 7.16995 14.7151 7.29995V12.3199L17.5051 14.1599L20.2951 12.3199V7.29995C20.2951 7.16995 20.2451 7.03996 20.1451 6.92996C20.0451 6.81996 19.9251 6.75996 19.7751 6.75996H15.2451H15.2351ZM14.7151 22.6799V27.6999C14.7151 27.8299 14.7651 27.9599 14.8651 28.0699C14.9651 28.1899 15.0851 28.2399 15.2351 28.2399H19.7651C19.9151 28.2399 20.0351 28.1899 20.1351 28.0799C20.2351 27.9699 20.2851 27.8399 20.2851 27.6899V22.6699L17.4951 20.8299L14.7051 22.6699L14.7151 22.6799ZM29.0451 19.7699C29.0451 20.1399 28.9151 20.4499 28.6451 20.6999C28.3751 20.9599 28.0651 21.0899 27.6951 21.0899H22.2251L19.8851 17.5099L22.2251 13.9299H27.6951C28.0551 13.9299 28.3751 14.0599 28.6451 14.3199C28.9151 14.5799 29.0451 14.8899 29.0451 15.2499V19.7799V19.7699Z" fill="#EBEBEB"/>
</svg>
