<svg width="37" height="37" viewBox="0 0 37 37" fill="none" xmlns="http://www.w3.org/2000/svg">
<path d="M15.7604 16.9602L13.4204 20.5402H7.95035C7.59035 20.5402 7.27035 20.4102 7.01035 20.1502C6.74035 19.8902 6.61035 19.6002 6.61035 19.2702V14.6902C6.61035 14.3302 6.74035 14.0102 7.01035 13.7602C7.28035 13.5002 7.59035 13.3702 7.95035 13.3702H13.4204L15.7604 16.9502V16.9602ZM7.95035 14.1702C7.82035 14.1702 7.69035 14.2202 7.58035 14.3202C7.46035 14.4202 7.41035 14.5402 7.41035 14.6902V19.2202C7.41035 19.3702 7.47035 19.4902 7.58035 19.5902C7.70035 19.6902 7.82035 19.7402 7.95035 19.7402H13.0204L14.8404 16.9502L13.0204 14.1602H7.95035V14.1702ZM21.3404 5.81017C21.6004 6.08017 21.7304 6.39017 21.7304 6.75017V12.2202L18.1504 14.5602L14.5704 12.2202V6.75017C14.5704 6.39017 14.7004 6.07017 14.9604 5.81017C15.2204 5.55017 15.5304 5.41016 15.8904 5.41016H20.4204C20.7804 5.41016 21.0904 5.54017 21.3504 5.81017H21.3404ZM18.1404 19.3402L21.7704 21.6802V27.1502C21.7704 27.5102 21.6404 27.8302 21.3704 28.0902C21.1004 28.3502 20.8004 28.4902 20.4504 28.4902H15.8704C15.5004 28.4902 15.1904 28.3602 14.9404 28.0902C14.6904 27.8202 14.5504 27.5102 14.5504 27.1502V21.6802L18.1304 19.3402H18.1404ZM15.3504 22.1302V27.1502C15.3504 27.2802 15.4004 27.4102 15.5004 27.5202C15.6004 27.6402 15.7204 27.6902 15.8704 27.6902H20.4004C20.5504 27.6902 20.6704 27.6402 20.7704 27.5302C20.8704 27.4202 20.9204 27.2902 20.9204 27.1402V22.1202L18.1304 20.2802L15.3404 22.1202L15.3504 22.1302ZM28.3304 13.3802C28.6904 13.3802 29.0104 13.5102 29.2804 13.7702C29.5504 14.0302 29.6804 14.3402 29.6804 14.7002V19.2302C29.6804 19.6002 29.5504 19.9102 29.2804 20.1602C29.0104 20.4202 28.7004 20.5502 28.3304 20.5502H22.8604L20.5204 16.9702L22.8604 13.3902H28.3304V13.3802ZM28.3304 14.2302H23.3004L21.4604 17.0202L23.3004 19.8102H28.3304C28.4604 19.8102 28.5904 19.7602 28.7004 19.6502C28.8204 19.5402 28.8704 19.4202 28.8704 19.2902V14.7102C28.8704 14.5602 28.8204 14.4402 28.7104 14.3402C28.6004 14.2402 28.4704 14.1902 28.3204 14.1902V14.2402L28.3304 14.2302Z" fill="black"/>
</svg>
