<svg width="37" height="37" viewBox="0 0 37 37" fill="none" xmlns="http://www.w3.org/2000/svg">
<path d="M15.7604 18.1198L13.4204 21.6998H7.95035C7.59035 21.6998 7.27035 21.5698 7.01035 21.3098C6.74035 21.0498 6.61035 20.7598 6.61035 20.4298V15.8499C6.61035 15.4899 6.74035 15.1698 7.01035 14.9198C7.28035 14.6598 7.59035 14.5298 7.95035 14.5298H13.4204L15.7604 18.1098V18.1198ZM7.95035 15.3298C7.82035 15.3298 7.69035 15.3798 7.58035 15.4798C7.46035 15.5798 7.41035 15.6999 7.41035 15.8499V20.3799C7.41035 20.5299 7.47035 20.6498 7.58035 20.7498C7.70035 20.8498 7.82035 20.8998 7.95035 20.8998H13.0204L14.8404 18.1098L13.0204 15.3198H7.95035V15.3298ZM20.4104 6.56982C20.7704 6.56982 21.0804 6.69985 21.3404 6.96985C21.6004 7.23985 21.7304 7.54985 21.7304 7.90985V13.3799L18.1504 15.7198L14.5704 13.3799V7.90985C14.5704 7.54985 14.7004 7.22985 14.9604 6.96985C15.2204 6.70985 15.5304 6.56982 15.8904 6.56982H20.4204H20.4104ZM15.8804 29.6498C15.5104 29.6498 15.2004 29.5198 14.9504 29.2498C14.7004 28.9798 14.5604 28.6698 14.5604 28.3098V22.8398L18.1404 20.4998L21.7704 22.8398V28.3098C21.7704 28.6698 21.6404 28.9898 21.3704 29.2498C21.1004 29.5098 20.8004 29.6498 20.4504 29.6498H15.8704H15.8804ZM15.8804 7.35983C15.7304 7.35983 15.6104 7.41985 15.5104 7.52985C15.4104 7.63985 15.3604 7.76984 15.3604 7.89984V12.9198L18.1504 14.7598L20.9404 12.9198V7.89984C20.9404 7.76984 20.8904 7.63985 20.7904 7.52985C20.6904 7.41985 20.5704 7.35983 20.4204 7.35983H15.8904H15.8804ZM28.3404 14.5198C28.7004 14.5198 29.0204 14.6499 29.2904 14.9099C29.5604 15.1699 29.6904 15.4798 29.6904 15.8398V20.3698C29.6904 20.7398 29.5604 21.0498 29.2904 21.2998C29.0204 21.5598 28.7104 21.6898 28.3404 21.6898H22.8704L20.5304 18.1098L22.8704 14.5298H28.3404V14.5198ZM28.3404 15.3698H23.3104L21.4704 18.1599L23.3104 20.9498H28.3404C28.4704 20.9498 28.6004 20.8998 28.7104 20.7898C28.8304 20.6798 28.8804 20.5598 28.8804 20.4298V15.8499C28.8804 15.6999 28.8304 15.5798 28.7204 15.4798C28.6104 15.3798 28.4804 15.3298 28.3304 15.3298V15.3799L28.3404 15.3698Z" fill="black"/>
</svg>
