<svg width="37" height="37" viewBox="0 0 37 37" fill="none" xmlns="http://www.w3.org/2000/svg">
<path d="M15.7604 17.1701L13.4204 20.7501H7.95035C7.59035 20.7501 7.27035 20.6201 7.01035 20.3601C6.74035 20.1001 6.61035 19.8101 6.61035 19.4801V14.9001C6.61035 14.5401 6.74035 14.2201 7.01035 13.9701C7.28035 13.7101 7.59035 13.5801 7.95035 13.5801H13.4204L15.7604 17.1601V17.1701ZM7.95035 14.3801C7.82035 14.3801 7.69035 14.4301 7.58035 14.5301C7.46035 14.6301 7.41035 14.7501 7.41035 14.9001V19.4301C7.41035 19.5801 7.47035 19.7001 7.58035 19.8001C7.70035 19.9001 7.82035 19.9501 7.95035 19.9501H13.0204L14.8404 17.1601L13.0204 14.3701H7.95035V14.3801ZM20.4104 5.62012C20.7704 5.62012 21.0804 5.75011 21.3404 6.02011C21.6004 6.29011 21.7304 6.60011 21.7304 6.96011V12.4301L18.1504 14.7701L14.5704 12.4301V6.96011C14.5704 6.60011 14.7004 6.28011 14.9604 6.02011C15.2204 5.76011 15.5304 5.62012 15.8904 5.62012H20.4204H20.4104ZM18.1504 19.5501L21.7804 21.8901V27.3601C21.7804 27.7201 21.6504 28.0401 21.3804 28.3001C21.1104 28.5601 20.8104 28.7001 20.4604 28.7001H15.8804C15.5104 28.7001 15.2004 28.5701 14.9504 28.3001C14.7004 28.0301 14.5604 27.7201 14.5604 27.3601V21.8901L18.1404 19.5501H18.1504ZM15.8904 6.42012C15.7404 6.42012 15.6204 6.48012 15.5204 6.59012C15.4204 6.70012 15.3704 6.83011 15.3704 6.96011V11.9801L18.1604 13.8201L20.9504 11.9801V6.96011C20.9504 6.83011 20.9004 6.70012 20.8004 6.59012C20.7004 6.48012 20.5804 6.42012 20.4304 6.42012H15.9004H15.8904ZM15.3704 22.3401V27.3601C15.3704 27.4901 15.4204 27.6201 15.5204 27.7301C15.6204 27.8501 15.7404 27.9001 15.8904 27.9001H20.4204C20.5704 27.9001 20.6904 27.8501 20.7904 27.7401C20.8904 27.6301 20.9404 27.5001 20.9404 27.3501V22.3301L18.1504 20.4901L15.3604 22.3301L15.3704 22.3401ZM29.7004 19.4301C29.7004 19.8001 29.5704 20.1101 29.3004 20.3601C29.0304 20.6201 28.7204 20.7501 28.3504 20.7501H22.8804L20.5404 17.1701L22.8804 13.5901H28.3504C28.7104 13.5901 29.0304 13.7201 29.3004 13.9801C29.5704 14.2401 29.7004 14.5501 29.7004 14.9101V19.4401V19.4301Z" fill="black"/>
</svg>
