<svg width="35" height="35" viewBox="0 0 35 35" fill="none" xmlns="http://www.w3.org/2000/svg">
<path d="M5.94922 15.24C5.94922 14.88 6.07922 14.56 6.34922 14.31C6.61922 14.05 6.92922 13.92 7.28922 13.92H12.7593L15.0993 17.5L12.7593 21.08H7.28922C6.92922 21.08 6.60922 20.95 6.34922 20.69C6.07922 20.43 5.94922 20.14 5.94922 19.81V15.23V15.24ZM19.7593 5.95996C20.1193 5.95996 20.4293 6.08997 20.6893 6.35997C20.9493 6.62997 21.0793 6.93996 21.0793 7.29996V12.77L17.4993 15.11L13.9193 12.77V7.29996C13.9193 6.93996 14.0493 6.61997 14.3093 6.35997C14.5693 6.09997 14.8793 5.95996 15.2393 5.95996H19.7693H19.7593ZM17.4993 19.89L21.1293 22.23V27.7C21.1293 28.06 20.9993 28.38 20.7293 28.64C20.4593 28.9 20.1593 29.04 19.8093 29.04H15.2293C14.8593 29.04 14.5493 28.91 14.2993 28.64C14.0493 28.37 13.9093 28.06 13.9093 27.7V22.23L17.4893 19.89H17.4993ZM15.2393 6.75997C15.0893 6.75997 14.9693 6.81996 14.8693 6.92996C14.7693 7.03996 14.7193 7.16996 14.7193 7.29996V12.32L17.5093 14.16L20.2993 12.32V7.29996C20.2993 7.16996 20.2493 7.03996 20.1493 6.92996C20.0493 6.81996 19.9293 6.75997 19.7793 6.75997H15.2493H15.2393ZM14.7193 22.68V27.7C14.7193 27.83 14.7693 27.96 14.8693 28.07C14.9693 28.19 15.0893 28.24 15.2393 28.24H19.7693C19.9193 28.24 20.0393 28.19 20.1393 28.08C20.2393 27.97 20.2893 27.84 20.2893 27.69V22.67L17.4993 20.83L14.7093 22.67L14.7193 22.68ZM27.6993 13.93C28.0593 13.93 28.3793 14.06 28.6493 14.32C28.9193 14.58 29.0493 14.89 29.0493 15.25V19.78C29.0493 20.15 28.9193 20.46 28.6493 20.71C28.3793 20.97 28.0693 21.1 27.6993 21.1H22.2293L19.8893 17.52L22.2293 13.94H27.6993V13.93ZM27.6993 14.78H22.6693L20.8293 17.57L22.6693 20.36H27.6993C27.8293 20.36 27.9593 20.31 28.0693 20.2C28.1893 20.09 28.2393 19.97 28.2393 19.84V15.26C28.2393 15.11 28.1893 14.99 28.0793 14.89C27.9693 14.79 27.8393 14.74 27.6893 14.74V14.79L27.6993 14.78Z" fill="#EBEBEB"/>
</svg>
