<svg width="37" height="37" viewBox="0 0 37 37" fill="none" xmlns="http://www.w3.org/2000/svg">
<path d="M6.61035 15.5603C6.61035 15.2003 6.74035 14.8803 7.01035 14.6303C7.28035 14.3703 7.59035 14.2403 7.95035 14.2403H13.4204L15.7604 17.8203L13.4204 21.4003H7.95035C7.59035 21.4003 7.27035 21.2703 7.01035 21.0103C6.74035 20.7503 6.61035 20.4603 6.61035 20.1303V15.5503V15.5603ZM20.4204 6.28027C20.7804 6.28027 21.0904 6.41028 21.3504 6.68028C21.6104 6.95028 21.7404 7.26027 21.7404 7.62027V13.0903L18.1604 15.4303L14.5804 13.0903V7.62027C14.5804 7.26027 14.7104 6.94028 14.9704 6.68028C15.2304 6.42028 15.5404 6.28027 15.9004 6.28027H20.4304H20.4204ZM18.1604 20.2103L21.7904 22.5503V28.0203C21.7904 28.3803 21.6604 28.7003 21.3904 28.9603C21.1204 29.2203 20.8204 29.3603 20.4704 29.3603H15.8904C15.5204 29.3603 15.2104 29.2303 14.9604 28.9603C14.7104 28.6903 14.5704 28.3803 14.5704 28.0203V22.5503L18.1504 20.2103H18.1604ZM15.9004 7.08028C15.7504 7.08028 15.6304 7.14027 15.5304 7.25027C15.4304 7.36027 15.3804 7.49027 15.3804 7.62027V12.6403L18.1704 14.4803L20.9604 12.6403V7.62027C20.9604 7.49027 20.9104 7.36027 20.8104 7.25027C20.7104 7.14027 20.5904 7.08028 20.4404 7.08028H15.9104H15.9004ZM15.3804 23.0003V28.0203C15.3804 28.1503 15.4304 28.2803 15.5304 28.3903C15.6304 28.5103 15.7504 28.5603 15.9004 28.5603H20.4304C20.5804 28.5603 20.7004 28.5103 20.8004 28.4003C20.9004 28.2903 20.9504 28.1603 20.9504 28.0103V22.9903L18.1604 21.1503L15.3704 22.9903L15.3804 23.0003ZM28.3604 14.2503C28.7204 14.2503 29.0404 14.3803 29.3104 14.6403C29.5804 14.9003 29.7104 15.2103 29.7104 15.5703V20.1003C29.7104 20.4703 29.5804 20.7803 29.3104 21.0303C29.0404 21.2903 28.7304 21.4203 28.3604 21.4203H22.8904L20.5504 17.8403L22.8904 14.2603H28.3604V14.2503ZM28.3604 15.1003H23.3304L21.4904 17.8903L23.3304 20.6803H28.3604C28.4904 20.6803 28.6204 20.6303 28.7304 20.5203C28.8504 20.4103 28.9004 20.2903 28.9004 20.1603V15.5803C28.9004 15.4303 28.8504 15.3103 28.7404 15.2103C28.6304 15.1103 28.5004 15.0603 28.3504 15.0603V15.1103L28.3604 15.1003Z" fill="black"/>
</svg>
