<svg width="35" height="35" viewBox="0 0 35 35" fill="none" xmlns="http://www.w3.org/2000/svg">
<path d="M15.1149 17.51L12.7749 21.09H7.30484C6.94484 21.09 6.62484 20.96 6.36484 20.7C6.09484 20.44 5.96484 20.15 5.96484 19.82V15.24C5.96484 14.88 6.09484 14.56 6.36484 14.31C6.63484 14.05 6.94484 13.92 7.30484 13.92H12.7749L15.1149 17.5V17.51ZM7.30484 14.72C7.17484 14.72 7.04484 14.77 6.93484 14.87C6.81484 14.97 6.76484 15.09 6.76484 15.24V19.77C6.76484 19.92 6.82484 20.04 6.93484 20.14C7.05484 20.24 7.17484 20.29 7.30484 20.29H12.3749L14.1949 17.5L12.3749 14.71H7.30484V14.72ZM20.6949 6.35997C20.9549 6.62997 21.0849 6.93997 21.0849 7.29997V12.77L17.5049 15.11L13.9249 12.77V7.29997C13.9249 6.93997 14.0549 6.61997 14.3149 6.35997C14.5749 6.09997 14.8849 5.95996 15.2449 5.95996H19.7749C20.1349 5.95996 20.4449 6.08997 20.7049 6.35997H20.6949ZM17.4949 19.89L21.1249 22.23V27.7C21.1249 28.06 20.9949 28.38 20.7249 28.64C20.4549 28.9 20.1549 29.04 19.8049 29.04H15.2249C14.8549 29.04 14.5449 28.91 14.2949 28.64C14.0449 28.37 13.9049 28.06 13.9049 27.7V22.23L17.4849 19.89H17.4949ZM14.7049 22.68V27.7C14.7049 27.83 14.7549 27.96 14.8549 28.07C14.9549 28.19 15.0749 28.24 15.2249 28.24H19.7549C19.9049 28.24 20.0249 28.19 20.1249 28.08C20.2249 27.97 20.2749 27.84 20.2749 27.69V22.67L17.4849 20.83L14.6949 22.67L14.7049 22.68ZM27.6849 13.93C28.0449 13.93 28.3649 14.06 28.6349 14.32C28.9049 14.58 29.0349 14.89 29.0349 15.25V19.78C29.0349 20.15 28.9049 20.46 28.6349 20.71C28.3649 20.97 28.0549 21.1 27.6849 21.1H22.2149L19.8749 17.52L22.2149 13.94H27.6849V13.93ZM27.6849 14.78H22.6549L20.8149 17.57L22.6549 20.36H27.6849C27.8149 20.36 27.9449 20.31 28.0549 20.2C28.1749 20.09 28.2249 19.97 28.2249 19.84V15.26C28.2249 15.11 28.1749 14.99 28.0649 14.89C27.9549 14.79 27.8249 14.74 27.6749 14.74V14.79L27.6849 14.78Z" fill="#EBEBEB"/>
</svg>
