<svg width="35" height="35" viewBox="0 0 35 35" fill="none" xmlns="http://www.w3.org/2000/svg">
<path d="M28.141 14.8651C27.531 13.9051 26.711 13.0651 25.661 12.3451C24.621 11.6251 23.391 11.0551 21.991 10.6251C20.591 10.2051 19.091 9.99512 17.501 9.99512C15.911 9.99512 14.411 10.2051 13.011 10.6151C11.611 11.0251 10.391 11.5951 9.35095 12.3151C8.30095 13.0451 7.48094 13.8851 6.87094 14.8551C6.27094 15.8251 5.96094 16.8551 5.96094 17.9551C5.96094 19.0551 6.27094 20.0751 6.87094 21.0351C7.48094 21.9951 8.30095 22.8451 9.35095 23.5651C10.391 24.2851 11.611 24.8551 13.011 25.2751C14.411 25.7051 15.911 25.9151 17.501 25.9151C19.091 25.9151 20.591 25.7051 21.991 25.2951C23.391 24.8751 24.621 24.3051 25.661 23.5851C26.711 22.8651 27.531 22.0151 28.141 21.0451C28.741 20.0751 29.041 19.0451 29.041 17.9551C29.041 16.8651 28.741 15.8351 28.141 14.8651ZM16.361 20.6851H11.881V13.8651H13.721V19.0251H16.361V20.6851ZM20.481 20.8851C18.411 20.8851 17.461 19.9651 17.461 18.8451V18.6351H19.271C19.271 19.0951 19.521 19.4751 20.341 19.4751C21.161 19.4751 21.411 19.0751 21.411 18.5251C21.411 18.0251 21.091 17.7851 20.691 17.7851H19.941V16.5251H20.531C20.931 16.5251 21.251 16.2851 21.251 15.7851C21.251 15.3651 20.931 14.9751 20.341 14.9751C19.721 14.9751 19.411 15.3351 19.411 15.7551H17.691V15.4951C17.691 14.4351 18.711 13.5651 20.521 13.5651C22.331 13.5651 23.251 14.4351 23.251 15.4851C23.251 16.1951 22.831 16.8251 22.221 17.0451V17.0851C23.011 17.3351 23.461 17.9751 23.461 18.8351C23.411 19.9651 22.511 20.8851 20.481 20.8851ZM19.551 27.1951C18.881 27.2651 18.201 27.3051 17.501 27.3051C16.801 27.3051 16.131 27.2651 15.461 27.1951C14.801 27.1151 14.151 27.0051 13.521 26.8551V27.1051C13.521 27.7651 13.911 28.3351 14.691 28.7951C15.471 29.2651 16.411 29.4951 17.501 29.4951C18.591 29.4951 19.531 29.2651 20.311 28.7951C21.091 28.3351 21.481 27.7651 21.481 27.1051V26.8551C20.871 27.0051 20.231 27.1151 19.551 27.1951Z" fill="#EBEBEB"/>
<path d="M13.5625 6.00488H22.0325L17.8025 12.3249L13.5625 6.00488Z" fill="#0B0B0B"/>
<path d="M21.1011 6.50488L17.8011 11.4249L14.5011 6.50488H21.1011ZM22.9711 5.50488H12.6211L13.6611 7.06488L16.9611 11.9849L17.7911 13.2249L18.6211 11.9849L21.9211 7.06488L22.9611 5.50488H22.9711Z" fill="#EBEBEB"/>
</svg>
