<svg width="35" height="35" viewBox="0 0 35 35" fill="none" xmlns="http://www.w3.org/2000/svg">
<path d="M26.8499 11.3451C27.7899 12.2851 28.25 13.4051 28.25 14.7151V24.2651C28.25 24.4851 28.1699 24.6651 28.0099 24.8251C27.8499 24.9851 27.6699 25.0651 27.4499 25.0651H7.54999C7.32999 25.0651 7.15 24.9851 6.99 24.8251C6.83 24.6651 6.75 24.4851 6.75 24.2651V14.7151C6.75 13.4051 7.21999 12.2851 8.15999 11.3451C9.09999 10.4051 10.2199 9.93506 11.5299 9.93506H23.4699C24.7799 9.93506 25.9 10.4051 26.84 11.3451H26.8499ZM17.0399 22.1251V20.4851H13.2099V12.7251H11.22V22.1251H17.0399ZM22.9299 22.1251V12.6751H21.2899L18.25 15.1151L19.2199 16.3051L20.2899 15.4351C20.3499 15.3851 20.4499 15.3051 20.5599 15.1951C20.6799 15.0851 20.8099 14.9551 20.9599 14.7851L20.9299 15.7751V22.1151H22.92L22.9299 22.1251Z" fill="#EBEBEB"/>
</svg>
