<svg width="37" height="37" viewBox="0 0 37 37" fill="none" xmlns="http://www.w3.org/2000/svg">
<path d="M27.9102 10.9597C28.0702 11.1197 28.1502 11.2997 28.1502 11.5197V21.0697C28.1502 22.3797 27.6802 23.4997 26.7502 24.4397C25.8102 25.3797 24.6902 25.8497 23.3802 25.8497H11.4402C10.1302 25.8497 9.01016 25.3797 8.07016 24.4397C7.13016 23.4997 6.66016 22.3797 6.66016 21.0697V11.5197C6.66016 11.2997 6.74015 11.1197 6.90015 10.9597C7.06015 10.7997 7.24016 10.7197 7.46016 10.7197H27.3602C27.5802 10.7197 27.7602 10.7997 27.9202 10.9597H27.9102ZM16.9302 22.9097V21.2697H13.1002V13.5097H11.1102V22.9097H16.9302ZM24.4402 22.9097V21.2697H20.3402V21.1997L21.5302 20.0297C21.9302 19.6697 22.2702 19.3397 22.5502 19.0597C22.8302 18.7797 23.0502 18.5397 23.2202 18.3397C23.3702 18.1397 23.5102 17.9497 23.6302 17.7597C23.7502 17.5697 23.8502 17.3697 23.9102 17.1797C23.9902 16.9797 24.0602 16.7797 24.1002 16.5797C24.1402 16.3797 24.1602 16.1697 24.1602 15.9597C24.1602 15.7097 24.1302 15.4797 24.0702 15.2597C24.0102 15.0397 23.9302 14.8397 23.8102 14.6397C23.6802 14.4397 23.5302 14.2597 23.3502 14.0997C23.1802 13.9397 22.9802 13.8097 22.7702 13.7097C22.5502 13.6097 22.3202 13.5297 22.0602 13.4697C21.8002 13.4097 21.5302 13.3797 21.2302 13.3797C21.0002 13.3797 20.7802 13.3897 20.5802 13.4197C20.3802 13.4497 20.2002 13.4697 20.0302 13.5097C19.8502 13.5397 19.6702 13.5897 19.5102 13.6597C19.3402 13.7297 19.1902 13.7897 19.0402 13.8597C18.8702 13.9397 18.7002 14.0497 18.5202 14.1997C18.3402 14.3397 18.1202 14.5097 17.8702 14.7097L18.9102 16.0297C19.0902 15.8597 19.2702 15.7197 19.4402 15.6097C19.6202 15.4897 19.7902 15.3897 19.9802 15.3097C20.1602 15.2297 20.3402 15.1597 20.5102 15.1197C20.6802 15.0797 20.8602 15.0597 21.0402 15.0597C21.2202 15.0597 21.3902 15.0797 21.5302 15.1297C21.6702 15.1797 21.7902 15.2497 21.8902 15.3497C21.9902 15.4197 22.0702 15.5197 22.1302 15.6697C22.1902 15.8197 22.2202 15.9897 22.2202 16.1697C22.2202 16.2897 22.2002 16.4097 22.1702 16.5297C22.1402 16.6497 22.1002 16.7697 22.0502 16.8897C22.0002 17.0097 21.9302 17.1297 21.8502 17.2497C21.7702 17.3697 21.6802 17.4997 21.5802 17.6397C21.4802 17.7897 21.3202 17.9797 21.0902 18.2197C20.8702 18.4597 20.5802 18.7597 20.2302 19.1297L17.8702 21.5197V22.9097H24.4402Z" fill="black"/>
</svg>
