<svg width="37" height="37" viewBox="0 0 37 37" fill="none" xmlns="http://www.w3.org/2000/svg">
<path d="M23.1894 8.98987C24.5894 9.40987 25.8094 9.9899 26.8594 10.7099C27.8994 11.4299 28.7294 12.2699 29.3294 13.2299C29.9294 14.1899 30.2394 15.2199 30.2394 16.3099C30.2394 17.3999 29.9394 18.4399 29.3294 19.4099C28.7194 20.3799 27.8994 21.2299 26.8594 21.9499C25.8194 22.6699 24.5894 23.2399 23.1894 23.6499C21.7894 24.0599 20.2894 24.2699 18.6994 24.2699C17.1094 24.2699 15.6094 24.0599 14.2094 23.6399C12.8094 23.2199 11.5894 22.6499 10.5394 21.9199C9.48941 21.1899 8.66942 20.3599 8.05942 19.3999C7.45942 18.4399 7.14941 17.4099 7.14941 16.3199C7.14941 15.2299 7.44942 14.1898 8.05942 13.2198C8.66942 12.2498 9.48941 11.3999 10.5394 10.6799C11.5794 9.95987 12.8094 9.38986 14.2094 8.97986C15.6094 8.56986 17.1094 8.35986 18.6994 8.35986C20.2894 8.35986 21.7894 8.56987 23.1894 8.98987ZM16.6594 25.5599C17.3194 25.6299 17.9994 25.6699 18.6994 25.6699C19.3994 25.6699 20.0794 25.6299 20.7494 25.5599C21.4194 25.4899 22.0594 25.3698 22.6794 25.2198V25.4698C22.6794 26.1298 22.2894 26.6999 21.5094 27.1599C20.7294 27.6199 19.7894 27.8599 18.6994 27.8599C17.6094 27.8599 16.6694 27.6299 15.8894 27.1599C15.1094 26.6999 14.7194 26.1298 14.7194 25.4698V25.2198C15.3494 25.3698 15.9994 25.4799 16.6594 25.5599ZM21.1394 17.4599H18.4994V12.1399H16.6594V18.9599H21.1394V17.4698V17.4599Z" fill="black"/>
</svg>
