<svg width="35" height="35" viewBox="0 0 35 35" fill="none" xmlns="http://www.w3.org/2000/svg">
<path d="M21.9951 8.38001C23.3951 8.80001 24.6151 9.38004 25.6651 10.1C26.7051 10.82 27.5351 11.66 28.1351 12.62C28.7351 13.58 29.0451 14.61 29.0451 15.7C29.0451 16.79 28.7451 17.83 28.1351 18.8C27.5251 19.77 26.7051 20.62 25.6651 21.34C24.6251 22.06 23.3951 22.63 21.9951 23.04C20.5951 23.45 19.0951 23.66 17.5051 23.66C15.9151 23.66 14.4151 23.45 13.0151 23.03C11.6151 22.61 10.3951 22.04 9.34507 21.31C8.29508 20.58 7.47509 19.75 6.86509 18.79C6.26509 17.83 5.95508 16.8 5.95508 15.71C5.95508 14.62 6.25509 13.5799 6.86509 12.6099C7.47509 11.6399 8.29508 10.79 9.34507 10.07C10.3851 9.35001 11.6151 8.78 13.0151 8.37C14.4151 7.96 15.9151 7.75 17.5051 7.75C19.0951 7.75 20.5951 7.96001 21.9951 8.38001ZM15.4651 24.95C16.1251 25.02 16.8051 25.06 17.5051 25.06C18.2051 25.06 18.8851 25.02 19.5551 24.95C20.2251 24.88 20.8651 24.7599 21.4851 24.6099V24.8599C21.4851 25.5199 21.0951 26.09 20.3151 26.55C19.5351 27.01 18.5951 27.25 17.5051 27.25C16.4151 27.25 15.4751 27.02 14.6951 26.55C13.9151 26.09 13.5251 25.5199 13.5251 24.8599V24.6099C14.1551 24.7599 14.8051 24.87 15.4651 24.95ZM19.9451 16.85H17.3051V11.53H15.4651V18.35H19.9451V16.8599V16.85Z" fill="#EBEBEB"/>
</svg>
