<svg width="35" height="35" viewBox="0 0 35 35" fill="none" xmlns="http://www.w3.org/2000/svg">
<path d="M28.0059 10.1751C28.1659 10.3351 28.2459 10.5151 28.2459 10.7351V20.2851C28.2459 21.5951 27.7759 22.7151 26.8459 23.6551C25.9059 24.5951 24.7859 25.0651 23.4759 25.0651H11.5359C10.2259 25.0651 9.10586 24.5951 8.16586 23.6551C7.22586 22.7151 6.75586 21.5951 6.75586 20.2851V10.7351C6.75586 10.5151 6.83585 10.3351 6.99585 10.1751C7.15585 10.0151 7.33586 9.93506 7.55586 9.93506H27.4559C27.6759 9.93506 27.8559 10.0151 28.0159 10.1751H28.0059ZM17.0259 22.1251V20.4851H13.1959V12.7251H11.2059V22.1251H17.0259ZM24.5359 22.1251V20.4851H20.4359V20.4151L21.6259 19.2451C22.0259 18.8851 22.3659 18.5551 22.6459 18.2751C22.9259 17.9951 23.1459 17.7551 23.3159 17.5551C23.4659 17.3551 23.6059 17.1651 23.7259 16.9751C23.8459 16.7851 23.9459 16.5851 24.0059 16.3951C24.0859 16.1951 24.1559 15.9951 24.1959 15.7951C24.2359 15.5951 24.2559 15.3851 24.2559 15.1751C24.2559 14.9251 24.2259 14.6951 24.1659 14.4751C24.1059 14.2551 24.0259 14.0551 23.9059 13.8551C23.7759 13.6551 23.6259 13.4751 23.4459 13.3151C23.2759 13.1551 23.0759 13.0251 22.8659 12.9251C22.6459 12.8251 22.4159 12.7451 22.1559 12.6851C21.8959 12.6251 21.6259 12.5951 21.3259 12.5951C21.0959 12.5951 20.8759 12.6051 20.6759 12.6351C20.4759 12.6651 20.2959 12.6851 20.1259 12.7251C19.9459 12.7551 19.7659 12.8051 19.6059 12.8751C19.4359 12.9451 19.2859 13.0051 19.1359 13.0751C18.9659 13.1551 18.7959 13.2651 18.6159 13.4151C18.4359 13.5551 18.2159 13.7251 17.9659 13.9251L19.0059 15.2451C19.1859 15.0751 19.3659 14.9351 19.5359 14.8251C19.7159 14.7051 19.8859 14.6051 20.0759 14.5251C20.2559 14.4451 20.4359 14.3751 20.6059 14.3351C20.7759 14.2951 20.9559 14.2751 21.1359 14.2751C21.3159 14.2751 21.4859 14.2951 21.6259 14.3451C21.7659 14.3951 21.8859 14.4651 21.9859 14.5651C22.0859 14.6351 22.1659 14.7351 22.2259 14.8851C22.2859 15.0351 22.3159 15.2051 22.3159 15.3851C22.3159 15.5051 22.2959 15.6251 22.2659 15.7451C22.2359 15.8651 22.1959 15.9851 22.1459 16.1051C22.0959 16.2251 22.0259 16.3451 21.9459 16.4651C21.8659 16.5851 21.7759 16.7151 21.6759 16.8551C21.5759 17.0051 21.4159 17.1951 21.1859 17.4351C20.9659 17.6751 20.6759 17.9751 20.3259 18.3451L17.9659 20.7351V22.1251H24.5359Z" fill="#EBEBEB"/>
</svg>
