<svg width="37" height="37" viewBox="0 0 37 37" fill="none" xmlns="http://www.w3.org/2000/svg">
<path d="M26.7396 12.0999C27.6796 13.0399 28.1396 14.1599 28.1396 15.4699V25.0199C28.1396 25.2399 28.0596 25.4199 27.8996 25.5799C27.7396 25.7399 27.5596 25.8199 27.3396 25.8199H7.43964C7.21964 25.8199 7.03965 25.7399 6.87965 25.5799C6.71965 25.4199 6.63965 25.2399 6.63965 25.0199V15.4699C6.63965 14.1599 7.10964 13.0399 8.04964 12.0999C8.98964 11.1599 10.1096 10.6899 11.4196 10.6899H23.3596C24.6696 10.6899 25.7896 11.1599 26.7296 12.0999H26.7396ZM16.9296 22.8799V21.2399H13.0996V13.4799H11.1096V22.8799H16.9296ZM22.8196 22.8799V13.4299H21.1796L18.1396 15.8699L19.1096 17.0599L20.1796 16.1899C20.2396 16.1399 20.3396 16.0599 20.4496 15.9499C20.5696 15.8399 20.6996 15.7099 20.8496 15.5399L20.8196 16.5299V22.8699H22.8096L22.8196 22.8799Z" fill="black"/>
</svg>
