<svg width="37" height="37" viewBox="0 0 37 37" fill="none" xmlns="http://www.w3.org/2000/svg">
<path d="M28.7894 14.7401C28.1794 13.7801 27.3594 12.9401 26.3094 12.2201C25.2694 11.5001 24.0394 10.9301 22.6394 10.5001C21.2394 10.0801 19.7394 9.87012 18.1494 9.87012C16.5594 9.87012 15.0594 10.0801 13.6594 10.4901C12.2594 10.9001 11.0394 11.4701 9.99939 12.1901C8.94939 12.9201 8.12938 13.7601 7.51938 14.7301C6.91938 15.7001 6.60938 16.7301 6.60938 17.8301C6.60938 18.9301 6.91938 19.9501 7.51938 20.9101C8.12938 21.8701 8.94939 22.7201 9.99939 23.4401C11.0394 24.1601 12.2594 24.7301 13.6594 25.1501C15.0594 25.5801 16.5594 25.7901 18.1494 25.7901C19.7394 25.7901 21.2394 25.5801 22.6394 25.1701C24.0394 24.7501 25.2694 24.1801 26.3094 23.4601C27.3594 22.7401 28.1794 21.8901 28.7894 20.9201C29.3894 19.9501 29.6894 18.9201 29.6894 17.8301C29.6894 16.7401 29.3894 15.7101 28.7894 14.7401ZM17.0094 20.5601H12.5294V13.7401H14.3694V18.9001H17.0094V20.5601ZM21.1294 20.7601C19.0594 20.7601 18.1094 19.8401 18.1094 18.7201V18.5101H19.9194C19.9194 18.9701 20.1694 19.3501 20.9894 19.3501C21.8094 19.3501 22.0594 18.9501 22.0594 18.4001C22.0594 17.9001 21.7394 17.6601 21.3394 17.6601H20.5894V16.4001H21.1794C21.5794 16.4001 21.8994 16.1601 21.8994 15.6601C21.8994 15.2401 21.5794 14.8501 20.9894 14.8501C20.3694 14.8501 20.0594 15.2101 20.0594 15.6301H18.3394V15.3701C18.3394 14.3101 19.3594 13.4401 21.1694 13.4401C22.9794 13.4401 23.8994 14.3101 23.8994 15.3601C23.8994 16.0701 23.4794 16.7001 22.8694 16.9201V16.9601C23.6594 17.2101 24.1094 17.8501 24.1094 18.7101C24.0594 19.8401 23.1594 20.7601 21.1294 20.7601ZM20.1994 27.0701C19.5294 27.1401 18.8494 27.1801 18.1494 27.1801C17.4494 27.1801 16.7794 27.1401 16.1094 27.0701C15.4494 26.9901 14.7994 26.8801 14.1694 26.7301V26.9801C14.1694 27.6401 14.5594 28.2101 15.3394 28.6701C16.1194 29.1401 17.0594 29.3701 18.1494 29.3701C19.2394 29.3701 20.1794 29.1401 20.9594 28.6701C21.7394 28.2101 22.1294 27.6401 22.1294 26.9801V26.7301C21.5194 26.8801 20.8794 26.9901 20.1994 27.0701Z" fill="black"/>
<path d="M14.21 5.87988H22.68L18.45 12.1999L14.21 5.87988Z" fill="white"/>
<path d="M21.7495 6.37988L18.4495 11.2999L15.1495 6.37988H21.7495ZM23.6195 5.37988H13.2695L14.3095 6.93988L17.6095 11.8599L18.4395 13.0999L19.2695 11.8599L22.5695 6.93988L23.6095 5.37988H23.6195Z" fill="black"/>
</svg>
