<svg width="35" height="35" viewBox="0 0 35 35" fill="none" xmlns="http://www.w3.org/2000/svg">
<path d="M28.1309 14.9701C27.5209 14.0101 26.7009 13.1701 25.6609 12.4501C24.6109 11.7301 23.3909 11.1601 21.9909 10.7301C20.5909 10.3101 19.0909 10.1001 17.5009 10.1001C15.9109 10.1001 14.4109 10.3101 13.0109 10.7201C11.6109 11.1301 10.3909 11.7001 9.34094 12.4201C8.30094 13.1501 7.47096 13.9901 6.86096 14.9601C6.26096 15.9301 5.96094 16.96 5.96094 18.06C5.96094 19.16 6.26096 20.1801 6.86096 21.1401C7.47096 22.1001 8.30094 22.9501 9.34094 23.6701C10.3909 24.3901 11.6109 24.9601 13.0109 25.3801C14.4109 25.8101 15.9109 26.0201 17.5009 26.0201C19.0909 26.0201 20.5909 25.8101 21.9909 25.4001C23.3909 24.9801 24.6109 24.41 25.6609 23.69C26.7009 22.97 27.5209 22.1201 28.1309 21.1501C28.7309 20.1801 29.0409 19.15 29.0409 18.06C29.0409 16.97 28.7309 15.9401 28.1309 14.9701ZM15.1509 20.8V20.7701L13.7309 18.2901H13.2309V20.7701H11.4109V13.9601H13.6309C14.5709 13.9601 15.2709 14.1301 15.7309 14.4701C16.1909 14.8101 16.4109 15.32 16.4109 16C16.4109 16.4 16.3209 16.7501 16.1309 17.0401C15.9409 17.3401 15.651 17.6 15.271 17.81L17.2609 20.8H15.1509ZM20.9409 20.99C18.8809 20.99 17.9309 20.0701 17.9309 18.9501V18.74H19.7409C19.7409 19.2 19.9909 19.5801 20.8109 19.5801C21.6309 19.5801 21.8809 19.1801 21.8809 18.6301C21.8809 18.1301 21.5609 17.8901 21.1609 17.8901H20.4109V16.6301H20.9909C21.4009 16.6301 21.7109 16.3901 21.7109 15.8901C21.7109 15.4701 21.4009 15.0801 20.8109 15.0801C20.1909 15.0801 19.8709 15.4401 19.8709 15.8601H18.1609V15.6001C18.1609 14.5401 19.1709 13.6701 20.9809 13.6701C22.7909 13.6701 23.7209 14.5401 23.7209 15.5901C23.7209 16.3001 23.3009 16.9301 22.6909 17.1501V17.19C23.4709 17.44 23.9309 18.08 23.9309 18.94C23.8709 20.07 22.9809 20.99 20.9409 20.99ZM13.6009 15.3501H13.2309V16.8901H13.6009C13.9209 16.8901 14.1609 16.8301 14.3109 16.7001C14.4709 16.5601 14.5509 16.3601 14.5509 16.0701C14.5509 15.8101 14.4709 15.6201 14.3109 15.5101C14.1609 15.4101 13.9209 15.3501 13.6009 15.3501Z" fill="#EBEBEB"/>
<path d="M17.4995 27.4101C16.7995 27.4101 16.1195 27.37 15.4595 27.3C14.7995 27.23 14.1495 27.11 13.5195 26.96V27.21C13.5195 27.87 13.9095 28.44 14.6895 28.9C15.4695 29.36 16.4095 29.6001 17.4995 29.6001C18.5895 29.6001 19.5295 29.37 20.3095 28.9C21.0895 28.44 21.4795 27.87 21.4795 27.21V26.96C20.8695 27.11 20.2195 27.22 19.5495 27.3C18.8795 27.37 18.1995 27.4101 17.4995 27.4101Z" fill="#EBEBEB"/>
<path d="M13.6914 5.8999H22.1713L17.9314 12.2199L13.6914 5.8999Z" fill="#0B0B0B"/>
<path d="M21.23 6.3999L17.93 11.3199L14.63 6.3999H21.23ZM23.1 5.3999H12.75L13.79 6.9599L17.09 11.8799L17.92 13.1199L18.75 11.8799L22.05 6.9599L23.09 5.3999H23.1Z" fill="#EBEBEB"/>
</svg>
