<svg width="37" height="37" viewBox="0 0 37 37" fill="none" xmlns="http://www.w3.org/2000/svg">
<path d="M21.9706 9.90979C23.3706 10.3298 24.5906 10.9098 25.6406 11.6298C26.6806 12.3498 27.5107 13.1898 28.1107 14.1498C28.7107 15.1098 29.0206 16.1398 29.0206 17.2298C29.0206 18.3198 28.7207 19.3598 28.1107 20.3298C27.5007 21.2998 26.6806 22.1498 25.6406 22.8698C24.6006 23.5898 23.3706 24.1598 21.9706 24.5698C20.5706 24.9798 19.0707 25.1898 17.4807 25.1898C15.8907 25.1898 14.3907 24.9798 12.9907 24.5598C11.5907 24.1398 10.3707 23.5698 9.32068 22.8398C8.27068 22.1098 7.45064 21.2798 6.84064 20.3198C6.24064 19.3598 5.93066 18.3298 5.93066 17.2398C5.93066 16.1498 6.23064 15.1098 6.84064 14.1398C7.45064 13.1698 8.27068 12.3198 9.32068 11.5998C10.3607 10.8798 11.5907 10.3098 12.9907 9.89978C14.3907 9.48978 15.8907 9.27979 17.4807 9.27979C19.0707 9.27979 20.5706 9.48979 21.9706 9.90979ZM15.4407 26.4798C16.1007 26.5498 16.7807 26.5898 17.4807 26.5898C18.1807 26.5898 18.8606 26.5498 19.5306 26.4798C20.2006 26.4098 20.8406 26.2898 21.4606 26.1398V26.3898C21.4606 27.0498 21.0706 27.6198 20.2906 28.0798C19.5106 28.5398 18.5707 28.7798 17.4807 28.7798C16.3907 28.7798 15.4507 28.5498 14.6707 28.0798C13.8907 27.6198 13.5007 27.0498 13.5007 26.3898V26.1398C14.1307 26.2898 14.7807 26.3998 15.4407 26.4798ZM18.7507 19.8998H20.8707L18.8807 16.9198C19.2607 16.6998 19.5507 16.4498 19.7407 16.1498C19.9307 15.8498 20.0306 15.4998 20.0306 15.1098C20.0306 14.4298 19.8006 13.9198 19.3506 13.5798C18.8906 13.2398 18.1907 13.0698 17.2507 13.0698H15.0406V19.8898H16.8607V17.3998H17.3607L18.7806 19.8898V19.9098L18.7507 19.8998ZM17.2106 14.4498C17.5306 14.4498 17.7607 14.4998 17.9207 14.6098C18.0807 14.7198 18.1606 14.8998 18.1606 15.1698C18.1606 15.4498 18.0807 15.6598 17.9207 15.7898C17.7607 15.9198 17.5306 15.9898 17.2106 15.9898H16.8406V14.4498H17.2106Z" fill="black"/>
</svg>
