<svg width="35" height="35" viewBox="0 0 35 35" fill="none" xmlns="http://www.w3.org/2000/svg">
<path d="M21.995 8.38C23.395 8.80001 24.615 9.38001 25.665 10.1C26.705 10.82 27.5351 11.66 28.1351 12.62C28.7351 13.58 29.045 14.61 29.045 15.7C29.045 16.79 28.7451 17.83 28.1351 18.8C27.5251 19.77 26.705 20.62 25.665 21.34C24.625 22.06 23.395 22.63 21.995 23.04C20.595 23.45 19.0951 23.66 17.5051 23.66C15.9151 23.66 14.4151 23.45 13.0151 23.03C11.6151 22.61 10.3951 22.04 9.3451 21.31C8.2951 20.58 7.47506 19.75 6.86506 18.79C6.26506 17.83 5.95508 16.8 5.95508 15.71C5.95508 14.62 6.25506 13.58 6.86506 12.61C7.47506 11.64 8.2951 10.79 9.3451 10.07C10.3851 9.35001 11.6151 8.78001 13.0151 8.36999C14.4151 7.95999 15.9151 7.75 17.5051 7.75C19.0951 7.75 20.595 7.96 21.995 8.38ZM15.4651 24.95C16.1251 25.02 16.8051 25.06 17.5051 25.06C18.2051 25.06 18.885 25.02 19.555 24.95C20.225 24.88 20.865 24.76 21.485 24.61V24.86C21.485 25.52 21.095 26.09 20.315 26.55C19.535 27.01 18.5951 27.25 17.5051 27.25C16.4151 27.25 15.4751 27.02 14.6951 26.55C13.9151 26.09 13.5251 25.52 13.5251 24.86V24.61C14.1551 24.76 14.8051 24.87 15.4651 24.95ZM18.7751 18.37H20.8951L18.9051 15.39C19.2851 15.17 19.5751 14.92 19.7651 14.62C19.9551 14.32 20.055 13.97 20.055 13.58C20.055 12.9 19.825 12.39 19.375 12.05C18.915 11.71 18.2151 11.54 17.2751 11.54H15.065V18.36H16.8851V15.87H17.3851L18.805 18.36V18.38L18.7751 18.37ZM17.235 12.92C17.555 12.92 17.7851 12.97 17.9451 13.08C18.1051 13.19 18.185 13.37 18.185 13.64C18.185 13.92 18.1051 14.13 17.9451 14.26C17.7851 14.39 17.555 14.46 17.235 14.46H16.865V12.92H17.235Z" fill="#EBEBEB"/>
</svg>
