<svg width="35" height="35" viewBox="0 0 35 35" fill="none" xmlns="http://www.w3.org/2000/svg">
<path d="M28.0059 10.1751C28.1659 10.3351 28.2459 10.5151 28.2459 10.7351V20.2851C28.2459 21.5951 27.7758 22.7151 26.8458 23.6551C25.9058 24.5951 24.7858 25.0651 23.4758 25.0651H11.5358C10.2258 25.0651 9.10583 24.5951 8.16583 23.6551C7.22583 22.7151 6.75586 21.5951 6.75586 20.2851V10.7351C6.75586 10.5151 6.83585 10.3351 6.99585 10.1751C7.15585 10.0151 7.33585 9.93506 7.55585 9.93506H27.4559C27.6759 9.93506 27.8559 10.0151 28.0159 10.1751H28.0059ZM15.8558 22.1251H18.0958C17.8958 21.7951 17.5659 21.2851 17.1159 20.6051C16.6559 19.9251 16.0759 19.0651 15.3659 18.0151C15.6359 17.8951 15.8659 17.7551 16.0759 17.5951C16.2859 17.4251 16.4659 17.2351 16.6359 17.0251C16.7659 16.8051 16.8759 16.5751 16.9459 16.3251C17.0159 16.0751 17.0559 15.8151 17.0559 15.5551C17.0559 15.0751 16.9858 14.6551 16.8358 14.3151C16.6858 13.9651 16.4658 13.6751 16.1658 13.4451C15.8658 13.1951 15.4759 13.0151 14.9959 12.8951C14.5159 12.7751 13.9559 12.7251 13.3259 12.7251H10.5858V22.1251H12.5759V18.4951H13.6459L15.8558 22.1251ZM14.9459 14.9951C15.0159 15.1551 15.0458 15.3451 15.0358 15.5751C15.0358 15.7951 15.0059 15.9851 14.9359 16.1551C14.8659 16.3251 14.7558 16.4651 14.5858 16.5651C14.4558 16.6651 14.2658 16.7451 14.0258 16.8051C13.7858 16.8651 13.5059 16.8951 13.1959 16.8951H12.5759V14.3551H13.1759C13.4859 14.3551 13.7659 14.3751 14.0059 14.4151C14.2459 14.4551 14.4358 14.5251 14.5858 14.6251C14.7558 14.7051 14.8759 14.8251 14.9459 14.9851V14.9951ZM25.1359 22.1251V20.4851H21.0258V20.4151L22.2158 19.2451C22.6158 18.8851 22.9559 18.5551 23.2359 18.2751C23.5159 17.9951 23.7358 17.7551 23.9058 17.5551C24.0558 17.3551 24.1959 17.1651 24.3159 16.9751C24.4359 16.7851 24.5358 16.5851 24.6058 16.3951C24.6858 16.1951 24.7458 15.9951 24.7958 15.7951C24.8358 15.5951 24.8558 15.3851 24.8558 15.1751C24.8558 14.9251 24.8259 14.6951 24.7659 14.4751C24.7059 14.2551 24.6159 14.0551 24.5059 13.8551C24.3759 13.6551 24.2158 13.4751 24.0458 13.3151C23.8658 13.1551 23.6758 13.0251 23.4658 12.9251C23.2458 12.8251 23.0159 12.7451 22.7559 12.6851C22.4959 12.6251 22.2259 12.5951 21.9259 12.5951C21.6959 12.5951 21.4758 12.6051 21.2758 12.6351C21.0758 12.6651 20.8958 12.6851 20.7258 12.7251C20.5458 12.7551 20.3659 12.8051 20.2059 12.8751C20.0359 12.9451 19.8859 13.0051 19.7359 13.0751C19.5659 13.1551 19.3958 13.2651 19.2158 13.4151C19.0358 13.5551 18.8159 13.7251 18.5659 13.9251L19.6359 15.2451C19.8159 15.0751 19.9959 14.9351 20.1859 14.8251C20.3659 14.7051 20.5459 14.6051 20.7359 14.5251C20.9059 14.4451 21.0759 14.3751 21.2559 14.3351C21.4359 14.2951 21.6159 14.2751 21.8059 14.2751C21.9959 14.2751 22.1458 14.2951 22.2758 14.3451C22.4058 14.3951 22.5259 14.4651 22.6259 14.5651C22.7259 14.6351 22.8059 14.7351 22.8659 14.8851C22.9259 15.0351 22.9559 15.2051 22.9559 15.3851C22.9559 15.5051 22.9358 15.6251 22.9058 15.7451C22.8758 15.8651 22.8359 15.9851 22.8059 16.1051C22.7359 16.2251 22.6658 16.3451 22.5958 16.4651C22.5258 16.5851 22.4358 16.7151 22.3358 16.8551C22.2358 17.0051 22.0758 17.1951 21.8458 17.4351C21.6258 17.6751 21.3258 17.9751 20.9658 18.3451L18.6259 20.7351V22.1251H25.1959H25.1459H25.1359Z" fill="#EBEBEB"/>
</svg>
