<svg width="37" height="37" viewBox="0 0 37 37" fill="none" xmlns="http://www.w3.org/2000/svg">
<path d="M26.14 11.68C27.08 12.62 27.54 13.74 27.54 15.05V24.6C27.54 24.82 27.46 25 27.3 25.16C27.14 25.32 26.9601 25.4 26.7401 25.4H6.84003C6.62003 25.4 6.44003 25.32 6.28003 25.16C6.12003 25 6.04004 24.82 6.04004 24.6V15.05C6.04004 13.74 6.51007 12.62 7.45007 11.68C8.39007 10.74 9.51007 10.27 10.8201 10.27H22.7601C24.0701 10.27 25.1901 10.74 26.1301 11.68H26.14ZM15.16 22.46H17.4C17.2 22.13 16.87 21.62 16.42 20.94C15.96 20.26 15.38 19.4 14.67 18.35C14.94 18.23 15.1701 18.09 15.3801 17.93C15.5901 17.76 15.7701 17.57 15.9401 17.36C16.0701 17.14 16.1801 16.91 16.2501 16.66C16.3201 16.41 16.36 16.15 16.36 15.89C16.36 15.41 16.29 14.99 16.14 14.65C15.99 14.3 15.77 14.01 15.47 13.78C15.17 13.53 14.78 13.35 14.3 13.23C13.82 13.11 13.2601 13.06 12.6301 13.06H9.89001V22.46H11.8801V18.83H12.9501L15.16 22.46ZM14.2501 15.33C14.3201 15.49 14.35 15.68 14.34 15.91C14.34 16.13 14.3101 16.32 14.2401 16.49C14.1701 16.66 14.06 16.8 13.89 16.9C13.76 17 13.57 17.08 13.33 17.14C13.09 17.2 12.8101 17.23 12.5001 17.23H11.8801V14.69H12.48C12.79 14.69 13.0701 14.71 13.3101 14.75C13.5501 14.79 13.74 14.86 13.89 14.96C14.06 15.04 14.1801 15.16 14.2501 15.32V15.33ZM22.8201 22.46V13.06H21.1801L18.15 15.45L19.1201 16.64L20.2401 15.77C20.2901 15.72 20.3701 15.64 20.4901 15.53C20.6101 15.42 20.75 15.29 20.91 15.12L20.86 16.11V22.45H22.85H22.8201V22.46Z" fill="black"/>
</svg>
