<svg width="37" height="37" viewBox="0 0 37 37" fill="none" xmlns="http://www.w3.org/2000/svg">
<path d="M28.1202 14.2499C27.5102 13.2899 26.6902 12.4499 25.6502 11.7299C24.6002 11.0099 23.3802 10.4399 21.9802 10.0099C20.5802 9.58989 19.0802 9.37988 17.4902 9.37988C15.9002 9.37988 14.4002 9.58988 13.0002 9.99988C11.6002 10.4099 10.3802 10.9799 9.3302 11.6999C8.2902 12.4299 7.46022 13.2699 6.85022 14.2399C6.25022 15.2099 5.9502 16.2398 5.9502 17.3398C5.9502 18.4398 6.25022 19.4599 6.85022 20.4199C7.46022 21.3799 8.2902 22.2299 9.3302 22.9499C10.3802 23.6699 11.6002 24.2399 13.0002 24.6599C14.4002 25.0899 15.9002 25.2999 17.4902 25.2999C19.0802 25.2999 20.5802 25.0899 21.9802 24.6799C23.3802 24.2599 24.6002 23.6898 25.6502 22.9698C26.6902 22.2498 27.5102 21.3999 28.1202 20.4299C28.7202 19.4599 29.0302 18.4298 29.0302 17.3398C29.0302 16.2498 28.7202 15.2199 28.1202 14.2499ZM15.1402 20.0798V20.0499L13.7202 17.5699H13.2202V20.0499H11.4002V13.2399H13.6202C14.5602 13.2399 15.2602 13.4099 15.7202 13.7499C16.1802 14.0899 16.4002 14.5998 16.4002 15.2798C16.4002 15.6798 16.3102 16.0299 16.1202 16.3199C15.9302 16.6199 15.6403 16.8798 15.2603 17.0898L17.2502 20.0798H15.1402ZM20.9302 20.2698C18.8702 20.2698 17.9202 19.3499 17.9202 18.2299V18.0198H19.7302C19.7302 18.4798 19.9802 18.8599 20.8002 18.8599C21.6202 18.8599 21.8702 18.4599 21.8702 17.9099C21.8702 17.4099 21.5502 17.1699 21.1502 17.1699H20.4002V15.9099H20.9802C21.3902 15.9099 21.7002 15.6699 21.7002 15.1699C21.7002 14.7499 21.3902 14.3599 20.8002 14.3599C20.1802 14.3599 19.8602 14.7199 19.8602 15.1399H18.1502V14.8799C18.1502 13.8199 19.1602 12.9499 20.9702 12.9499C22.7802 12.9499 23.7102 13.8199 23.7102 14.8699C23.7102 15.5799 23.2902 16.2099 22.6802 16.4299V16.4698C23.4602 16.7198 23.9202 17.3598 23.9202 18.2198C23.8602 19.3498 22.9702 20.2698 20.9302 20.2698ZM13.5902 14.6299H13.2202V16.1699H13.5902C13.9102 16.1699 14.1502 16.1099 14.3002 15.9799C14.4602 15.8399 14.5402 15.6399 14.5402 15.3499C14.5402 15.0899 14.4602 14.8999 14.3002 14.7899C14.1502 14.6899 13.9102 14.6299 13.5902 14.6299Z" fill="black"/>
<path d="M17.4907 26.6898C16.7907 26.6898 16.1107 26.6497 15.4507 26.5797C14.7907 26.5097 14.1407 26.3897 13.5107 26.2397V26.4897C13.5107 27.1497 13.9007 27.7197 14.6807 28.1797C15.4607 28.6397 16.4007 28.8798 17.4907 28.8798C18.5807 28.8798 19.5207 28.6497 20.3007 28.1797C21.0807 27.7197 21.4707 27.1497 21.4707 26.4897V26.2397C20.8607 26.3897 20.2107 26.4997 19.5407 26.5797C18.8707 26.6497 18.1907 26.6898 17.4907 26.6898Z" fill="black"/>
<path d="M13.6807 5.17969H22.1606L17.9207 11.4997L13.6807 5.17969Z" fill="white"/>
<path d="M21.2202 5.67969L17.9202 10.5997L14.6202 5.67969H21.2202ZM23.0902 4.67969H12.7402L13.7802 6.23969L17.0802 11.1597L17.9102 12.3997L18.7402 11.1597L22.0402 6.23969L23.0802 4.67969H23.0902Z" fill="black"/>
</svg>
