<svg width="35" height="35" viewBox="0 0 35 35" fill="none" xmlns="http://www.w3.org/2000/svg">
<path d="M26.85 11.3451C27.79 12.2851 28.25 13.4051 28.25 14.7151V24.2651C28.25 24.4851 28.17 24.6651 28.01 24.8251C27.85 24.9851 27.6701 25.0651 27.4501 25.0651H7.54999C7.32999 25.0651 7.14999 24.9851 6.98999 24.8251C6.82999 24.6651 6.75 24.4851 6.75 24.2651V14.7151C6.75 13.4051 7.22003 12.2851 8.16003 11.3451C9.10003 10.4051 10.22 9.93506 11.5301 9.93506H23.4701C24.7801 9.93506 25.9001 10.4051 26.8401 11.3451H26.85ZM15.87 22.1251H18.11C17.91 21.7951 17.58 21.2851 17.13 20.6051C16.67 19.9251 16.09 19.0651 15.38 18.0151C15.65 17.8951 15.8801 17.7551 16.0901 17.5951C16.3001 17.4251 16.4801 17.2351 16.6501 17.0251C16.7801 16.8051 16.8901 16.5751 16.9601 16.3251C17.0301 16.0751 17.07 15.8151 17.07 15.5551C17.07 15.0751 17 14.6551 16.85 14.3151C16.7 13.9651 16.48 13.6751 16.18 13.4451C15.88 13.1951 15.49 13.0151 15.01 12.8951C14.53 12.7751 13.9701 12.7251 13.3401 12.7251H10.6V22.1251H12.5901V18.4951H13.6601L15.87 22.1251ZM14.9601 14.9951C15.0301 15.1551 15.06 15.3451 15.05 15.5751C15.05 15.7951 15.0201 15.9851 14.9501 16.1551C14.8801 16.3251 14.77 16.4651 14.6 16.5651C14.47 16.6651 14.28 16.7451 14.04 16.8051C13.8 16.8651 13.5201 16.8951 13.2101 16.8951H12.5901V14.3551H13.19C13.5 14.3551 13.7801 14.3751 14.0201 14.4151C14.2601 14.4551 14.45 14.5251 14.6 14.6251C14.77 14.7051 14.8901 14.8251 14.9601 14.9851V14.9951ZM23.5301 22.1251V12.7251H21.8901L18.86 15.1151L19.8301 16.3051L20.9501 15.4351C21.0001 15.3851 21.0801 15.3051 21.2001 15.1951C21.3201 15.0851 21.46 14.9551 21.62 14.7851L21.57 15.7751V22.1151H23.56H23.5301V22.1251Z" fill="#EBEBEB"/>
</svg>
