<svg width="37" height="37" viewBox="0 0 37 37" fill="none" xmlns="http://www.w3.org/2000/svg">
<path d="M27.3096 12.1399C27.4696 12.2999 27.5496 12.4799 27.5496 12.6999V22.2499C27.5496 23.5599 27.0795 24.6799 26.1495 25.6199C25.2095 26.5599 24.0895 27.0299 22.7795 27.0299H10.8395C9.52954 27.0299 8.40954 26.5599 7.46954 25.6199C6.52954 24.6799 6.05957 23.5599 6.05957 22.2499V12.6999C6.05957 12.4799 6.13956 12.2999 6.29956 12.1399C6.45956 11.9799 6.63956 11.8999 6.85956 11.8999H26.7596C26.9796 11.8999 27.1596 11.9799 27.3196 12.1399H27.3096ZM15.1595 24.0899H17.3995C17.1995 23.7599 16.8696 23.2499 16.4196 22.5699C15.9596 21.8899 15.3796 21.0299 14.6696 19.9799C14.9396 19.8599 15.1696 19.7199 15.3796 19.5599C15.5896 19.3899 15.7696 19.1999 15.9396 18.9899C16.0696 18.7699 16.1796 18.5399 16.2496 18.2899C16.3196 18.0399 16.3596 17.7799 16.3596 17.5199C16.3596 17.0399 16.2895 16.6199 16.1395 16.2799C15.9895 15.9299 15.7695 15.6399 15.4695 15.4099C15.1695 15.1599 14.7796 14.9799 14.2996 14.8599C13.8196 14.7399 13.2596 14.6899 12.6296 14.6899H9.88953V24.0899H11.8796V20.4599H12.9496L15.1595 24.0899ZM14.2496 16.9599C14.3196 17.1199 14.3495 17.3099 14.3395 17.5399C14.3395 17.7599 14.3096 17.9499 14.2396 18.1199C14.1696 18.2899 14.0595 18.4299 13.8895 18.5299C13.7595 18.6299 13.5695 18.7099 13.3295 18.7699C13.0895 18.8299 12.8096 18.8599 12.4996 18.8599H11.8796V16.3199H12.4796C12.7896 16.3199 13.0696 16.3399 13.3096 16.3799C13.5496 16.4199 13.7395 16.4899 13.8895 16.5899C14.0595 16.6699 14.1796 16.7899 14.2496 16.9499V16.9599ZM24.4396 24.0899V22.4499H20.3295V22.3799L21.5195 21.2099C21.9195 20.8499 22.2596 20.5199 22.5396 20.2399C22.8196 19.9599 23.0395 19.7199 23.2095 19.5199C23.3595 19.3199 23.4996 19.1299 23.6196 18.9399C23.7396 18.7499 23.8395 18.5499 23.9095 18.3599C23.9895 18.1599 24.0495 17.9599 24.0995 17.7599C24.1395 17.5599 24.1595 17.3499 24.1595 17.1399C24.1595 16.8899 24.1296 16.6599 24.0696 16.4399C24.0096 16.2199 23.9196 16.0199 23.8096 15.8199C23.6796 15.6199 23.5195 15.4399 23.3495 15.2799C23.1695 15.1199 22.9795 14.9899 22.7695 14.8899C22.5495 14.7899 22.3196 14.7099 22.0596 14.6499C21.7996 14.5899 21.5296 14.5599 21.2296 14.5599C20.9996 14.5599 20.7795 14.5699 20.5795 14.5999C20.3795 14.6299 20.1995 14.6499 20.0295 14.6899C19.8495 14.7199 19.6696 14.7699 19.5096 14.8399C19.3396 14.9099 19.1896 14.9699 19.0396 15.0399C18.8696 15.1199 18.6995 15.2299 18.5195 15.3799C18.3395 15.5199 18.1196 15.6899 17.8696 15.8899L18.9396 17.2099C19.1196 17.0399 19.2996 16.8999 19.4896 16.7899C19.6696 16.6699 19.8496 16.5699 20.0396 16.4899C20.2096 16.4099 20.3796 16.3399 20.5596 16.2999C20.7396 16.2599 20.9196 16.2399 21.1096 16.2399C21.2996 16.2399 21.4495 16.2599 21.5795 16.3099C21.7095 16.3599 21.8296 16.4299 21.9296 16.5299C22.0296 16.5999 22.1096 16.6999 22.1696 16.8499C22.2296 16.9999 22.2596 17.1699 22.2596 17.3499C22.2596 17.4699 22.2395 17.5899 22.2095 17.7099C22.1795 17.8299 22.1396 17.9499 22.1096 18.0699C22.0396 18.1899 21.9695 18.3099 21.8995 18.4299C21.8295 18.5499 21.7395 18.6799 21.6395 18.8199C21.5395 18.9699 21.3795 19.1599 21.1495 19.3999C20.9295 19.6399 20.6295 19.9399 20.2695 20.3099L17.9296 22.6999V24.0899H24.4996H24.4496H24.4396Z" fill="black"/>
</svg>
