<svg width="35" height="35" viewBox="0 0 35 35" fill="none" xmlns="http://www.w3.org/2000/svg">
<path d="M21.8394 7.22987C23.1894 7.80987 24.3694 8.60987 25.3794 9.61984C26.3894 10.6298 27.1894 11.8098 27.7694 13.1598C28.3494 14.5098 28.6394 15.9598 28.6394 17.4998C28.6394 19.0398 28.3494 20.4898 27.7694 21.8398C27.1894 23.1898 26.3894 24.3698 25.3794 25.3798C24.3694 26.3898 23.1894 27.1898 21.8394 27.7698C20.4894 28.3498 19.0394 28.6398 17.4994 28.6398C15.9594 28.6398 14.5094 28.3498 13.1594 27.7698C11.8094 27.1898 10.6294 26.3898 9.61936 25.3798C8.60939 24.3698 7.80937 23.1898 7.22937 21.8398C6.64937 20.4898 6.35938 19.0398 6.35938 17.4998C6.35938 15.9598 6.64937 14.5098 7.22937 13.1598C7.80937 11.8098 8.60939 10.6298 9.61936 9.61984C10.6294 8.60987 11.8094 7.80987 13.1594 7.22987C14.5094 6.64987 15.9594 6.35986 17.4994 6.35986C19.0394 6.35986 20.4894 6.64987 21.8394 7.22987ZM23.4694 11.5298H11.5294V23.4698H23.4694V11.5298ZM13.1194 21.8798H21.8694V13.1298H13.1194V21.8798Z" fill="#EBEBEB"/>
</svg>
