<svg width="35" height="35" viewBox="0 0 35 35" fill="none" xmlns="http://www.w3.org/2000/svg">
<path d="M8.35556 25.147C7.16556 24.337 6.43555 23.227 6.16555 21.817C5.89555 20.407 6.16555 19.117 6.98555 17.917L11.5355 11.227C12.3355 10.057 13.4355 9.32704 14.8555 9.04704C16.2755 8.76704 17.5655 9.04703 18.7655 9.84703C19.9655 10.647 20.6655 11.747 20.9455 13.167C21.2255 14.587 20.9455 15.877 20.1455 17.077L15.5955 23.767C14.7855 24.957 13.6755 25.687 12.2655 25.957C10.8555 26.227 9.56551 25.957 8.36555 25.137L8.35556 25.147Z" fill="#EBEBEB"/>
<path d="M22.0645 14.5566H28.9345" stroke="#EBEBEB" stroke-miterlimit="10"/>
<path d="M22.0645 18.1768H28.9345" stroke="#EBEBEB" stroke-miterlimit="10"/>
<path d="M22.0645 21.9468H28.9345" stroke="#EBEBEB" stroke-miterlimit="10"/>
</svg>
