<svg width="37" height="37" viewBox="0 0 37 37" fill="none" xmlns="http://www.w3.org/2000/svg">
<path d="M9.00985 25.7901C7.81985 24.9801 7.08984 23.8701 6.81984 22.4601C6.54984 21.0501 6.81984 19.7601 7.63984 18.5601L12.1898 11.8701C12.9898 10.7001 14.0898 9.97011 15.5098 9.69011C16.9298 9.41011 18.2198 9.6901 19.4198 10.4901C20.6198 11.2901 21.3198 12.3901 21.5998 13.8101C21.8798 15.2301 21.5998 16.5201 20.7998 17.7201L16.2498 24.4101C15.4398 25.6001 14.3298 26.3301 12.9198 26.6001C11.5098 26.8701 10.2198 26.6001 9.01984 25.7801L9.00985 25.7901Z" fill="black"/>
<path d="M22.7197 15.1997H29.5897" stroke="black" stroke-miterlimit="10"/>
<path d="M22.7197 18.8198H29.5897" stroke="black" stroke-miterlimit="10"/>
<path d="M22.7197 22.5898H29.5897" stroke="black" stroke-miterlimit="10"/>
</svg>
