<svg width="37" height="37" viewBox="0 0 37 37" fill="none" xmlns="http://www.w3.org/2000/svg">
<path d="M22.8501 7.99013C24.2001 8.57013 25.3801 9.37013 26.3901 10.3801C27.4001 11.3901 28.2001 12.5701 28.7801 13.9201C29.3601 15.2701 29.6501 16.7201 29.6501 18.2601C29.6501 19.8001 29.3601 21.2501 28.7801 22.6001C28.2001 23.9501 27.4001 25.1301 26.3901 26.1401C25.3801 27.1501 24.2001 27.9501 22.8501 28.5301C21.5001 29.1101 20.0501 29.4001 18.5101 29.4001C16.9701 29.4001 15.5201 29.1101 14.1701 28.5301C12.8201 27.9501 11.6401 27.1501 10.6301 26.1401C9.62013 25.1301 8.82011 23.9501 8.24011 22.6001C7.66011 21.2501 7.37012 19.8001 7.37012 18.2601C7.37012 16.7201 7.66011 15.2701 8.24011 13.9201C8.82011 12.5701 9.62013 11.3901 10.6301 10.3801C11.6401 9.37013 12.8201 8.57013 14.1701 7.99013C15.5201 7.41013 16.9701 7.12012 18.5101 7.12012C20.0501 7.12012 21.5001 7.41013 22.8501 7.99013ZM24.4801 12.2901H12.5401V24.2301H24.4801V12.2901ZM14.1301 22.6401H22.8801V13.8901H14.1301V22.6401Z" fill="black"/>
</svg>
