<svg width="37" height="37" viewBox="0 0 37 37" fill="none" xmlns="http://www.w3.org/2000/svg">
<path d="M22.8501 8.22011C24.2001 8.80011 25.3801 9.60011 26.3901 10.6101C27.4001 11.6201 28.2001 12.8001 28.7801 14.1501C29.3601 15.5001 29.6501 16.9501 29.6501 18.4901C29.6501 20.0301 29.3601 21.4801 28.7801 22.8301C28.2001 24.1801 27.4001 25.3601 26.3901 26.3701C25.3801 27.3801 24.2001 28.1801 22.8501 28.7601C21.5001 29.3401 20.0501 29.6301 18.5101 29.6301C16.9701 29.6301 15.5201 29.3401 14.1701 28.7601C12.8201 28.1801 11.6401 27.3801 10.6301 26.3701C9.62013 25.3601 8.82011 24.1801 8.24011 22.8301C7.66011 21.4801 7.37012 20.0301 7.37012 18.4901C7.37012 16.9501 7.66011 15.5001 8.24011 14.1501C8.82011 12.8001 9.62013 11.6201 10.6301 10.6101C11.6401 9.60011 12.8201 8.80011 14.1701 8.22011C15.5201 7.64011 16.9701 7.3501 18.5101 7.3501C20.0501 7.3501 21.5001 7.64011 22.8501 8.22011ZM25.4701 23.3901L18.5101 11.5301L11.5401 23.3901H25.4701ZM18.5101 14.3101L22.6901 22.0001H14.3301L18.5101 14.3101Z" fill="black"/>
</svg>
