<svg width="37" height="37" viewBox="0 0 37 37" fill="none" xmlns="http://www.w3.org/2000/svg">
<path d="M22.9301 7.13979C25.7601 8.33979 28.02 10.5898 29.22 13.4298C30.45 16.3698 30.45 19.6898 29.22 22.6298C28.02 25.4598 25.7701 27.7198 22.9301 28.9198C19.9901 30.1498 16.6701 30.1498 13.7301 28.9198C10.8901 27.7198 8.64008 25.4698 7.44008 22.6298C6.21008 19.6898 6.21008 16.3698 7.44008 13.4298C8.64008 10.5998 10.8901 8.33979 13.7301 7.13979C16.6701 5.90979 19.9901 5.90979 22.9301 7.13979ZM23.3901 23.0898L19.59 12.9698H17.0601L13.2601 23.0898H15.84L16.6301 20.5598H20.0101L20.8501 23.0898H23.3901ZM18.7501 15.4898L20.02 19.2898H16.6401L17.91 15.4898H18.7501Z" fill="black"/>
</svg>
