<svg width="35" height="35" viewBox="0 0 35 35" fill="none" xmlns="http://www.w3.org/2000/svg">
<path d="M22.1 6.61C24.93 7.81 27.1899 10.06 28.3899 12.9C29.6199 15.84 29.6199 19.16 28.3899 22.1C27.1899 24.93 24.94 27.19 22.1 28.39C19.16 29.62 15.84 29.62 12.9 28.39C10.06 27.19 7.81 24.94 6.61 22.1C5.38 19.16 5.38 15.84 6.61 12.9C7.81 10.07 10.06 7.81 12.9 6.61C15.84 5.38 19.16 5.38 22.1 6.61ZM22.56 22.56L18.7599 12.44H16.23L12.43 22.56H15.0099L15.8 20.03H19.18L20.02 22.56H22.56ZM17.92 14.96L19.1899 18.76H15.81L17.0799 14.96H17.92Z" fill="#EBEBEB"/>
</svg>
