<svg width="37" height="37" viewBox="0 0 37 37" fill="none" xmlns="http://www.w3.org/2000/svg">
<path d="M22.9301 7.19984C25.7601 8.39984 28.02 10.6499 29.22 13.4899C30.45 16.4299 30.45 19.7498 29.22 22.6898C28.02 25.5198 25.7701 27.7798 22.9301 28.9798C19.9901 30.2098 16.6701 30.2098 13.7301 28.9798C10.9001 27.7798 8.64008 25.5198 7.44008 22.6898C6.21008 19.7498 6.21008 16.4299 7.44008 13.4899C8.64008 10.6599 10.8901 8.39984 13.7301 7.19984C16.6701 5.96984 19.9901 5.96984 22.9301 7.19984ZM21.5501 22.3598C21.8701 22.0998 22.1301 21.7599 22.3001 21.3799C22.4701 20.9899 22.5601 20.5698 22.5501 20.1398C22.5501 19.8398 22.5001 19.5499 22.3901 19.2699C22.2801 18.9999 22.1201 18.7598 21.9201 18.5598C21.7201 18.3198 21.4601 18.1298 21.1701 18.0098C20.8501 17.8798 20.5201 17.7898 20.1801 17.7498V17.7198C20.4601 17.6398 20.7301 17.5298 20.9801 17.3898C21.2201 17.2598 21.4401 17.0799 21.6301 16.8799C21.8101 16.6799 21.9601 16.4599 22.0501 16.2099C22.1401 15.9599 22.1801 15.6999 22.1801 15.4299C22.1801 15.0799 22.1001 14.7399 21.9301 14.4299C21.7601 14.1299 21.5201 13.8598 21.2301 13.6698C20.8901 13.4498 20.5201 13.2898 20.1201 13.1898C19.6301 13.0798 19.1201 13.0198 18.6201 13.0298H14.96V23.1499H18.84C19.36 23.1499 19.8701 23.0898 20.3701 22.9498C20.8001 22.8198 21.2001 22.6198 21.5601 22.3598M20.0601 19.5498C20.1301 19.7098 20.16 19.8898 20.16 20.0598C20.16 20.2598 20.1201 20.4499 20.0401 20.6299C19.9501 20.8099 19.8301 20.9598 19.6901 21.0898C19.5401 21.2198 19.36 21.3098 19.16 21.3698C18.94 21.4298 18.7101 21.4599 18.4801 21.4599H17.2401V18.7998H18.5101C18.7501 18.7998 18.98 18.8298 19.21 18.8898C19.4 18.9498 19.5801 19.0298 19.7501 19.1398C19.8801 19.2498 19.9901 19.3898 20.0701 19.5498M18.9 17.0298C18.71 17.0998 18.5101 17.1499 18.3101 17.1599H17.3101V14.7598H18.15C18.58 14.7298 19.0001 14.8199 19.3801 15.0199C19.6501 15.1999 19.8101 15.5098 19.7901 15.8398C19.7901 16.0198 19.7601 16.1998 19.6801 16.3698C19.6101 16.5298 19.5001 16.6699 19.3601 16.7699C19.2201 16.8799 19.07 16.9698 18.9 17.0298Z" fill="black"/>
</svg>
