<svg width="35" height="35" viewBox="0 0 35 35" fill="none" xmlns="http://www.w3.org/2000/svg">
<path d="M22.1 6.61C24.93 7.81 27.1899 10.0601 28.3899 12.9001C29.6199 15.8401 29.6199 19.16 28.3899 22.1C27.1899 24.93 24.94 27.19 22.1 28.39C19.16 29.62 15.84 29.62 12.9 28.39C10.07 27.19 7.81 24.93 6.61 22.1C5.38 19.16 5.38 15.8401 6.61 12.9001C7.81 10.0701 10.06 7.81 12.9 6.61C15.84 5.38 19.16 5.38 22.1 6.61ZM20.72 21.77C21.04 21.51 21.3 21.1701 21.47 20.7901C21.64 20.4001 21.73 19.98 21.72 19.55C21.72 19.25 21.67 18.9601 21.56 18.6801C21.45 18.4101 21.29 18.17 21.09 17.97C20.89 17.73 20.63 17.54 20.34 17.42C20.02 17.29 19.69 17.2 19.35 17.16V17.13C19.63 17.05 19.9 16.94 20.15 16.8C20.39 16.67 20.61 16.4901 20.8 16.2901C20.98 16.0901 21.13 15.8701 21.22 15.6201C21.31 15.3701 21.35 15.1101 21.35 14.8401C21.35 14.4901 21.27 14.1501 21.1 13.8401C20.93 13.5401 20.69 13.27 20.4 13.08C20.06 12.86 19.69 12.7 19.29 12.6C18.8 12.49 18.29 12.43 17.79 12.44H14.1299V22.5601H18.0099C18.5299 22.5601 19.04 22.5 19.54 22.36C19.97 22.23 20.37 22.03 20.73 21.77M19.23 18.96C19.3 19.12 19.3299 19.3 19.3299 19.47C19.3299 19.67 19.29 19.8601 19.21 20.0401C19.12 20.2201 19 20.37 18.86 20.5C18.71 20.63 18.5299 20.72 18.3299 20.78C18.1099 20.84 17.88 20.8701 17.65 20.8701H16.41V18.21H17.68C17.92 18.21 18.1499 18.24 18.3799 18.3C18.5699 18.36 18.75 18.44 18.92 18.55C19.05 18.66 19.16 18.8 19.24 18.96M18.0699 16.44C17.8799 16.51 17.68 16.5601 17.48 16.5701H16.48V14.17H17.3199C17.7499 14.14 18.17 14.2301 18.55 14.4301C18.82 14.6101 18.98 14.92 18.96 15.25C18.96 15.43 18.93 15.61 18.85 15.78C18.78 15.94 18.67 16.0801 18.53 16.1801C18.39 16.2901 18.2399 16.38 18.0699 16.44Z" fill="#EBEBEB"/>
</svg>
