<svg width="37" height="37" viewBox="0 0 37 37" fill="none" xmlns="http://www.w3.org/2000/svg">
<path d="M26.0896 18.1501C26.2096 18.2701 26.2796 18.4301 26.2696 18.6001V22.4001C26.2696 22.7501 25.9896 23.0301 25.6396 23.0301H21.2096V27.4601C21.2096 27.8101 20.9296 28.0901 20.5796 28.0901H16.7796C16.4296 28.0901 16.1496 27.8101 16.1496 27.4701V23.0401H11.7296C11.3796 23.0401 11.0996 22.7601 11.0996 22.4101V18.6101C11.0996 18.2601 11.3796 17.9801 11.7296 17.9801H16.1596V13.5501C16.1596 13.2001 16.4396 12.9201 16.7796 12.9201H20.5796C20.9296 12.9201 21.2096 13.2001 21.2096 13.5501V17.9801H25.6396C25.8096 17.9801 25.9696 18.0401 26.0896 18.1601M21.2096 11.6501H16.1396L18.6696 7.8501L21.2096 11.6501Z" fill="black"/>
</svg>
