<svg width="35" height="35" viewBox="0 0 35 35" fill="none" xmlns="http://www.w3.org/2000/svg">
<path d="M22.3491 15.1502C22.4691 15.2702 22.5391 15.4302 22.5291 15.6002V19.4002C22.5291 19.7502 22.2491 20.0302 21.9091 20.0302H17.4791V24.4602C17.4791 24.8102 17.1991 25.0902 16.8491 25.0902H13.0491C12.6991 25.0902 12.4191 24.8102 12.4191 24.4602V20.0302H7.99914C7.64914 20.0302 7.36914 19.7502 7.36914 19.4102V15.6102C7.36914 15.2602 7.64914 14.9802 7.99914 14.9802H12.4391V10.5402C12.4391 10.1902 12.7191 9.91016 13.0691 9.91016H16.8691C17.2191 9.91016 17.4991 10.1902 17.4991 10.5402V14.9702H21.9291C22.0991 14.9702 22.2591 15.0302 22.3791 15.1502M23.8291 14.9702V20.0402L27.6291 17.5102L23.8291 14.9702Z" fill="#EBEBEB"/>
</svg>
