<svg width="37" height="37" viewBox="0 0 37 37" fill="none" xmlns="http://www.w3.org/2000/svg">
<path d="M26.0896 13.3801C26.2096 13.5001 26.2796 13.6601 26.2696 13.8301V17.6301C26.2696 17.9801 25.9896 18.2601 25.6396 18.2601H21.2096V22.6901C21.2096 23.0401 20.9296 23.3201 20.5796 23.3201H16.7796C16.4296 23.3201 16.1496 23.0401 16.1496 22.7001V18.2701H11.7296C11.3796 18.2701 11.0996 17.9901 11.0996 17.6401V13.8401C11.0996 13.4901 11.3796 13.2101 11.7296 13.2001H16.1596V8.77014C16.1596 8.42014 16.4396 8.14014 16.7796 8.14014H20.5796C20.9296 8.14014 21.2096 8.42014 21.2096 8.77014V13.2001H25.6396C25.8096 13.2001 25.9696 13.2601 26.0896 13.3801ZM21.2096 24.6001H16.1496L18.6796 28.4001L21.2096 24.6001Z" fill="black"/>
</svg>
