<svg width="35" height="35" viewBox="0 0 35 35" fill="none" xmlns="http://www.w3.org/2000/svg">
<path d="M24.9041 17.6799C25.0241 17.7999 25.0941 17.9599 25.0841 18.1299V21.9299C25.0841 22.2799 24.8041 22.5599 24.4541 22.5599H20.0241V26.9899C20.0241 27.3399 19.7441 27.6199 19.3941 27.6199H15.5941C15.2441 27.6199 14.9641 27.3399 14.9641 26.9999V22.5699H10.5441C10.1941 22.5699 9.91406 22.2899 9.91406 21.9399V18.1399C9.91406 17.7899 10.1941 17.5099 10.5441 17.5099H14.9741V13.0799C14.9741 12.7299 15.2541 12.4499 15.5941 12.4499H19.3941C19.7441 12.4499 20.0241 12.7299 20.0241 13.0799V17.5099H24.4541C24.6241 17.5099 24.7841 17.5699 24.9041 17.6899M20.0241 11.1799H14.9541L17.4841 7.37988L20.0241 11.1799Z" fill="#EBEBEB"/>
</svg>
