<svg width="37" height="37" viewBox="0 0 37 37" fill="none" xmlns="http://www.w3.org/2000/svg">
<path d="M9.81953 15.1599V20.2199L6.01953 17.6899L9.81953 15.1599ZM26.0895 15.3399C26.2095 15.4599 26.2795 15.6199 26.2695 15.7899V19.5899C26.2695 19.9399 25.9895 20.2199 25.6395 20.2199H21.2095V24.6499C21.2095 24.9999 20.9295 25.2799 20.5895 25.2799H16.7895C16.4395 25.2799 16.1595 24.9999 16.1595 24.6599V20.2299H11.7295C11.3795 20.2299 11.0995 19.9499 11.0995 19.5999V15.7999C11.0995 15.4499 11.3795 15.1699 11.7295 15.1699H16.1595V10.7399C16.1595 10.3899 16.4395 10.1099 16.7895 10.1099H20.5995C20.9495 10.1099 21.2295 10.3899 21.2295 10.7399V15.1699H25.6595C25.8295 15.1699 25.9895 15.2299 26.1095 15.3499" fill="black"/>
</svg>
