<svg width="35" height="35" viewBox="0 0 35 35" fill="none" xmlns="http://www.w3.org/2000/svg">
<path d="M11.175 14.965V20.025L7.375 17.495L11.175 14.965ZM27.445 15.145C27.565 15.265 27.635 15.425 27.625 15.595V19.395C27.625 19.745 27.345 20.025 26.995 20.025H22.565V24.455C22.565 24.805 22.285 25.085 21.945 25.085H18.145C17.795 25.085 17.515 24.805 17.515 24.465V20.035H13.085C12.735 20.035 12.455 19.755 12.455 19.405V15.605C12.455 15.255 12.735 14.975 13.085 14.975H17.515V10.545C17.515 10.195 17.795 9.91504 18.145 9.91504H21.955C22.305 9.91504 22.585 10.195 22.585 10.545V14.975H27.015C27.185 14.975 27.345 15.035 27.465 15.155" fill="#EBEBEB"/>
</svg>
