<svg width="35" height="35" viewBox="0 0 35 35" fill="none" xmlns="http://www.w3.org/2000/svg">
<path d="M24.9041 12.6101C25.0241 12.7301 25.0941 12.8901 25.0841 13.0601V16.8601C25.0841 17.2101 24.8041 17.4901 24.4541 17.4901H20.0241V21.9201C20.0241 22.2701 19.7441 22.5501 19.3941 22.5501H15.5941C15.2441 22.5501 14.9641 22.2701 14.9641 21.9301V17.5001H10.5441C10.1941 17.5001 9.91406 17.2201 9.91406 16.8701V13.0701C9.91406 12.7201 10.1941 12.4401 10.5441 12.4301H14.9741V8.00012C14.9741 7.65012 15.2541 7.37012 15.5941 7.37012H19.3941C19.7441 7.37012 20.0241 7.65012 20.0241 8.00012V12.4301H24.4541C24.6241 12.4301 24.7841 12.4901 24.9041 12.6101ZM20.0241 23.8301H14.9641L17.4941 27.6301L20.0241 23.8301Z" fill="#EBEBEB"/>
</svg>
