<svg width="37" height="37" viewBox="0 0 37 37" fill="none" xmlns="http://www.w3.org/2000/svg">
<path d="M26.0894 15.8001C26.2094 15.9201 26.2794 16.0801 26.2694 16.2501V20.0501C26.2694 20.4001 25.9894 20.6801 25.6494 20.6801H21.2194V25.1101C21.2194 25.4601 20.9394 25.7401 20.5894 25.7401H16.7894C16.4394 25.7401 16.1594 25.4601 16.1594 25.1101V20.6801H11.7394C11.3894 20.6801 11.1094 20.4001 11.1094 20.0601V16.2601C11.1094 15.9101 11.3894 15.6301 11.7394 15.6301H16.1794V11.1901C16.1794 10.8401 16.4594 10.5601 16.8094 10.5601H20.6094C20.9594 10.5601 21.2394 10.8401 21.2394 11.1901V15.6201H25.6694C25.8394 15.6201 25.9994 15.6801 26.1194 15.8001M27.5694 15.6201V20.6901L31.3694 18.1601L27.5694 15.6201Z" fill="black"/>
</svg>
