<svg width="37" height="37" viewBox="0 0 37 37" fill="none" xmlns="http://www.w3.org/2000/svg">
<path d="M31.1398 13.9301C31.2298 14.0401 31.2998 14.1601 31.3498 14.2901C31.4098 14.4501 31.4498 14.6101 31.4798 14.7801C31.4798 14.8901 31.4698 14.9901 31.4398 15.1001L31.3498 15.4701C31.2898 15.6101 31.2398 15.7601 31.2098 15.9001C31.1698 16.0701 31.1198 16.2401 31.0698 16.4101C30.9298 16.8001 30.7898 17.2201 30.6498 17.6801C30.5098 18.1401 30.3498 18.6201 30.1798 19.1301C29.8498 20.1201 29.4998 21.1201 29.1398 22.1401C28.7798 23.1601 28.4798 23.9901 28.2298 24.6401C28.0898 25.1001 27.7898 25.4901 27.3998 25.7601C27.0198 26.0301 26.5598 26.1701 26.0898 26.1701H7.54982C6.27982 26.1601 5.24982 25.1101 5.26982 23.8401C5.26982 23.7801 5.26982 23.7101 5.26982 23.6501L5.97982 16.0601C5.98982 15.7801 6.06982 15.5001 6.18982 15.2401C6.30982 14.9901 6.47982 14.7701 6.68982 14.5801C7.27982 14.0501 7.89982 13.5701 8.55982 13.1301C9.64982 12.4201 10.8098 11.8301 12.0298 11.3901C13.7598 10.7501 15.5398 10.2701 17.3498 9.94006C19.7898 9.51006 22.2798 9.31006 24.7598 9.36006C25.0598 9.36006 25.3598 9.42006 25.6298 9.54006C25.8998 9.66006 26.1998 9.82006 26.5298 10.0101C26.8998 10.2101 27.2498 10.4401 27.5798 10.7001L28.6398 11.4901C28.9898 11.7601 29.3298 12.0401 29.6498 12.3501C29.9598 12.6401 30.2398 12.9201 30.5098 13.1801C30.6298 13.3001 30.7498 13.4301 30.8498 13.5601C30.9598 13.6901 31.0498 13.8201 31.1398 13.9401M17.2398 22.7501V21.1901H14.1798V14.4401H12.3098V22.7501H17.2398ZM24.6198 22.0901C24.8798 21.8701 25.0798 21.6001 25.2298 21.3001C25.3798 20.9801 25.4498 20.6301 25.4398 20.2701C25.4398 20.0301 25.3898 19.7901 25.2998 19.5701C25.1998 19.3401 25.0598 19.1301 24.8898 18.9501C24.7098 18.7901 24.4998 18.6601 24.2798 18.5601C24.0298 18.4501 23.7598 18.3701 23.4898 18.3201V18.2901C23.7098 18.2101 23.9198 18.1101 24.1198 17.9901C24.3098 17.8801 24.4798 17.7401 24.6198 17.5801C24.7698 17.4201 24.8898 17.2301 24.9798 17.0301C25.0598 16.8301 25.0998 16.6101 25.0998 16.4001C25.0998 16.1101 25.0398 15.8301 24.9198 15.5701C24.7798 15.3201 24.5798 15.1001 24.3398 14.9501C24.0698 14.7801 23.7798 14.6501 23.4698 14.5801C23.0598 14.4901 22.6498 14.4401 22.2298 14.4501H19.2498V22.7601H22.4098C22.8398 22.7601 23.2598 22.7101 23.6798 22.6001C24.0298 22.5001 24.3498 22.3301 24.6298 22.1001M22.8398 17.5301C22.6998 17.6201 22.5598 17.6801 22.4098 17.7301C22.2398 17.7801 22.0698 17.8001 21.8998 17.8001H21.1098V15.8501H21.8198C22.1698 15.8301 22.5198 15.9101 22.8198 16.0901C23.0498 16.2401 23.1798 16.5001 23.1598 16.7801C23.1598 16.9301 23.1298 17.0801 23.0798 17.2101C23.0298 17.3401 22.9498 17.4501 22.8398 17.5401M23.3898 19.8101C23.4498 19.9601 23.4798 20.1201 23.4998 20.2801C23.4998 20.4301 23.4698 20.5901 23.4098 20.7301C23.3398 20.8601 23.2498 20.9801 23.1298 21.0701C22.9998 21.1801 22.8498 21.2601 22.6798 21.3101C22.4898 21.3601 22.2998 21.3901 22.0998 21.3901H21.0998V19.1801H22.0998C22.2998 19.1801 22.4898 19.2101 22.6798 19.2701C22.8398 19.3201 22.9898 19.4001 23.1298 19.4901C23.2498 19.5601 23.3498 19.6701 23.3898 19.8101Z" fill="black"/>
</svg>
