<svg width="35" height="35" viewBox="0 0 35 35" fill="none" xmlns="http://www.w3.org/2000/svg">
<path d="M30.2648 13.6689C30.3548 13.7789 30.4248 13.8989 30.4748 14.0289C30.5348 14.1889 30.5748 14.3489 30.6048 14.5189C30.6048 14.6289 30.5948 14.7289 30.5648 14.8389L30.4748 15.2089C30.4148 15.3489 30.3648 15.4989 30.3348 15.6389C30.2948 15.8089 30.2448 15.9789 30.1948 16.1489C30.0548 16.5389 29.9148 16.9589 29.7748 17.4189C29.6348 17.8789 29.4748 18.3589 29.3048 18.8689C28.9748 19.8589 28.6248 20.8589 28.2648 21.8789C27.9048 22.8989 27.6048 23.7289 27.3548 24.3789C27.2148 24.8389 26.9148 25.2289 26.5248 25.4989C26.1448 25.7689 25.6848 25.9089 25.2148 25.9089H6.67482C5.40482 25.8989 4.37482 24.8489 4.39482 23.5789C4.39482 23.5189 4.39482 23.4489 4.39482 23.3889L5.10482 15.7989C5.11482 15.5189 5.19482 15.2389 5.31482 14.9789C5.43482 14.7289 5.60482 14.5089 5.81482 14.3189C6.40482 13.7889 7.02482 13.3089 7.68482 12.8689C8.77482 12.1589 9.9348 11.5689 11.1548 11.1289C12.8848 10.4889 14.6648 10.0089 16.4748 9.67883C18.9148 9.24883 21.4048 9.04883 23.8848 9.09883C24.1848 9.09883 24.4848 9.15883 24.7548 9.27883C25.0248 9.39883 25.3248 9.55883 25.6548 9.74887C26.0248 9.94887 26.3748 10.1789 26.7048 10.4389L27.7648 11.2289C28.1148 11.4989 28.4548 11.7789 28.7748 12.0889C29.0848 12.3789 29.3648 12.6589 29.6348 12.9189C29.7548 13.0389 29.8748 13.1689 29.9748 13.2989C30.0848 13.4289 30.1748 13.5589 30.2648 13.6789M16.3648 22.4889V20.9289H13.3048V14.1789H11.4348V22.4889H16.3648ZM23.7448 21.8289C24.0048 21.6089 24.2048 21.3389 24.3548 21.0389C24.5048 20.7189 24.5748 20.3689 24.5648 20.0089C24.5648 19.7689 24.5148 19.5289 24.4248 19.3089C24.3248 19.0789 24.1848 18.8689 24.0148 18.6889C23.8348 18.5289 23.6248 18.3989 23.4048 18.2989C23.1548 18.1889 22.8848 18.1089 22.6148 18.0589V18.0289C22.8348 17.9489 23.0448 17.8489 23.2448 17.7289C23.4348 17.6189 23.6048 17.4789 23.7448 17.3189C23.8948 17.1589 24.0148 16.9689 24.1048 16.7689C24.1848 16.5689 24.2248 16.3489 24.2248 16.1389C24.2248 15.8489 24.1648 15.5689 24.0448 15.3089C23.9048 15.0589 23.7048 14.8389 23.4648 14.6889C23.1948 14.5189 22.9048 14.3889 22.5948 14.3189C22.1848 14.2289 21.7748 14.1789 21.3548 14.1889H18.3748V22.4989H21.5348C21.9648 22.4989 22.3848 22.4489 22.8048 22.3389C23.1548 22.2389 23.4748 22.0689 23.7548 21.8389M21.9648 17.2689C21.8248 17.3589 21.6848 17.4189 21.5348 17.4689C21.3648 17.5189 21.1948 17.5389 21.0248 17.5389H20.2348V15.5889H20.9448C21.2948 15.5689 21.6448 15.6489 21.9448 15.8289C22.1748 15.9789 22.3048 16.2389 22.2848 16.5189C22.2848 16.6689 22.2548 16.8189 22.2048 16.9489C22.1548 17.0789 22.0748 17.1889 21.9648 17.2789M22.5148 19.5489C22.5748 19.6989 22.6048 19.8589 22.6248 20.0189C22.6248 20.1689 22.5948 20.3289 22.5348 20.4689C22.4648 20.5989 22.3748 20.7189 22.2548 20.8089C22.1248 20.9189 21.9748 20.9989 21.8048 21.0489C21.6148 21.0989 21.4248 21.1289 21.2248 21.1289H20.2248V18.9189H21.2248C21.4248 18.9189 21.6148 18.9489 21.8048 19.0089C21.9648 19.0589 22.1148 19.1389 22.2548 19.2289C22.3748 19.2989 22.4748 19.4089 22.5148 19.5489Z" fill="#EBEBEB"/>
</svg>
