<svg width="35" height="35" viewBox="0 0 35 35" fill="none" xmlns="http://www.w3.org/2000/svg">
<path d="M17.4952 4.53516C19.2952 4.53516 20.9852 4.87515 22.5652 5.54515C24.1452 6.21515 25.5152 7.14515 26.6852 8.32515C27.8552 9.50518 28.7751 10.8752 29.4551 12.4452C30.1351 14.0152 30.4652 15.6952 30.4652 17.4952C30.4652 19.2952 30.1251 20.9852 29.4551 22.5652C28.7851 24.1452 27.8552 25.5152 26.6752 26.6852C25.4952 27.8552 24.1251 28.7752 22.5551 29.4552C20.9851 30.1352 19.3052 30.4652 17.5052 30.4652C15.7052 30.4652 14.0152 30.1252 12.4352 29.4552C10.8552 28.7852 9.48521 27.8552 8.31516 26.6752C7.14516 25.4952 6.22516 24.1252 5.54516 22.5552C4.86516 20.9852 4.53516 19.3052 4.53516 17.5052C4.53516 15.7052 4.87516 14.0152 5.54516 12.4352C6.21516 10.8552 7.14516 9.48518 8.31516 8.31515C9.48521 7.14515 10.8552 6.22515 12.4352 5.54515C14.0152 4.86515 15.6952 4.53516 17.5052 4.53516H17.4952ZM13.4652 7.95515C12.2052 8.50515 11.1051 9.24515 10.1651 10.1852C9.22511 11.1252 8.48516 12.2252 7.93516 13.4852C7.38516 14.7452 7.11516 16.0852 7.11516 17.5152C7.11516 18.9452 7.38516 20.2752 7.93516 21.5452C8.48516 22.8152 9.22511 23.9052 10.1651 24.8452C11.1051 25.7852 12.2052 26.5252 13.4652 27.0752C14.7252 27.6252 16.0652 27.8952 17.4952 27.8952C18.9252 27.8952 20.2551 27.6252 21.5251 27.0752C22.7951 26.5252 23.8852 25.7852 24.8252 24.8452C25.7652 23.9052 26.5051 22.8052 27.0551 21.5452C27.6051 20.2852 27.8751 18.9452 27.8751 17.5152C27.8751 16.0852 27.6051 14.7552 27.0551 13.4852C26.5051 12.2152 25.7652 11.1252 24.8252 10.1852C23.8852 9.24515 22.7851 8.50515 21.5251 7.95515C20.2651 7.40515 18.9252 7.13516 17.4952 7.13516C16.0652 7.13516 14.7352 7.40515 13.4652 7.95515ZM21.0251 9.14516C22.1251 9.62518 23.0852 10.2752 23.9052 11.0952C24.7252 11.9152 25.3752 12.8752 25.8552 13.9752C26.3352 15.0752 26.5752 16.2552 26.5752 17.5152C26.5752 18.7752 26.3352 19.9552 25.8552 21.0552C25.3752 22.1552 24.7252 23.1152 23.9052 23.9352C23.0852 24.7552 22.1251 25.4052 21.0251 25.8852C19.9251 26.3652 18.7451 26.6052 17.4851 26.6052C16.2251 26.6052 15.0451 26.3652 13.9451 25.8852C12.8451 25.4052 11.8852 24.7552 11.0652 23.9352C10.2452 23.1152 9.59521 22.1552 9.11521 21.0552C8.63516 19.9552 8.39516 18.7752 8.39516 17.5152C8.39516 16.2552 8.63516 15.0752 9.11521 13.9752C9.59521 12.8752 10.2452 11.9152 11.0652 11.0952C11.8852 10.2752 12.8451 9.62518 13.9451 9.14516C15.0451 8.66516 16.2251 8.42516 17.4851 8.42516C18.7451 8.42516 19.9251 8.66516 21.0251 9.14516ZM20.5151 22.6352V20.7952H16.7051V12.3652H14.3852V22.6352H20.5151Z" fill="#EBEBEB"/>
</svg>
