<svg width="37" height="37" viewBox="0 0 37 37" fill="none" xmlns="http://www.w3.org/2000/svg">
<path d="M28.7495 9.49984C29.0695 10.7598 29.2595 12.0498 29.3195 13.3498C29.3695 14.4098 29.3395 15.4698 29.2495 16.5298C29.1495 17.5298 28.9895 18.5198 28.7795 19.4998C28.4295 20.7898 27.8995 22.0298 27.2095 23.1798C26.6195 24.0998 26.2294 24.6998 26.0394 24.9598C25.7894 25.2798 25.4495 25.6798 25.0095 26.1898C24.4995 26.7598 23.9195 27.2598 23.2995 27.7098C22.3695 28.4098 21.3395 28.9698 20.2395 29.3398C19.4495 29.6098 18.6395 29.8198 17.8095 29.9698H8.28945C8.11945 29.7798 7.95945 29.5698 7.82945 29.3498C7.60945 28.9998 7.47945 28.6098 7.44945 28.1998C7.33945 27.5498 7.44945 26.8798 7.77945 26.2998C7.93945 26.0098 8.11946 25.7298 8.31946 25.4498C8.69946 24.5698 9.02945 23.6698 9.30945 22.7598C9.67945 21.5598 9.92945 20.3198 10.0595 19.0698C10.1495 18.2198 10.1695 17.3598 10.1395 16.4998C10.1095 15.7398 10.0395 14.9798 9.92946 14.2298C9.81946 13.5398 9.69945 12.9098 9.55945 12.3498C9.41945 11.7898 9.28945 11.2998 9.16945 10.8998C8.80945 10.3198 8.61945 9.65985 8.61945 8.97985C8.59945 8.35985 8.79945 7.75984 9.16945 7.26984C9.41945 6.92984 9.76945 6.67984 10.1695 6.53984C10.4095 6.45984 10.6595 6.38984 10.9095 6.33984H24.7595C25.2395 6.37984 25.7095 6.47984 26.1695 6.61984C26.8095 6.80984 27.3795 7.17984 27.8195 7.68984C28.0995 7.96984 28.3194 8.29984 28.4694 8.66984C28.5994 8.99984 28.6995 9.27984 28.7695 9.50984M18.1695 20.6398V19.1398H15.0895V12.3898H13.2395V20.6398H18.1695ZM25.1295 12.3898H18.5394V13.8898H20.9095V20.6398H22.7594V13.8898H25.1295V12.3898Z" fill="black"/>
</svg>
