<svg width="37" height="37" viewBox="0 0 37 37" fill="none" xmlns="http://www.w3.org/2000/svg">
<path d="M18.5704 5.18018C20.3704 5.18018 22.0604 5.52017 23.6404 6.19017C25.2204 6.86017 26.5904 7.79017 27.7604 8.97017C28.9304 10.1502 29.8503 11.5202 30.5303 13.0902C31.2103 14.6602 31.5404 16.3402 31.5404 18.1402C31.5404 19.9402 31.2003 21.6302 30.5303 23.2102C29.8603 24.7902 28.9304 26.1602 27.7504 27.3302C26.5704 28.5002 25.2003 29.4202 23.6303 30.1002C22.0603 30.7802 20.3804 31.1102 18.5804 31.1102C16.7804 31.1102 15.0904 30.7702 13.5104 30.1002C11.9304 29.4302 10.5604 28.5002 9.39035 27.3202C8.22035 26.1402 7.30035 24.7702 6.62035 23.2002C5.94035 21.6302 5.61035 19.9502 5.61035 18.1502C5.61035 16.3502 5.95035 14.6602 6.62035 13.0802C7.29035 11.5002 8.22035 10.1302 9.39035 8.96017C10.5604 7.79017 11.9304 6.87017 13.5104 6.19017C15.0904 5.51017 16.7704 5.18018 18.5804 5.18018H18.5704ZM14.5404 8.60017C13.2804 9.15017 12.1803 9.89017 11.2403 10.8302C10.3003 11.7702 9.56035 12.8702 9.01035 14.1302C8.46035 15.3902 8.19035 16.7302 8.19035 18.1602C8.19035 19.5902 8.46035 20.9202 9.01035 22.1902C9.56035 23.4602 10.3003 24.5502 11.2403 25.4902C12.1803 26.4302 13.2804 27.1702 14.5404 27.7202C15.8004 28.2702 17.1404 28.5402 18.5704 28.5402C20.0004 28.5402 21.3303 28.2702 22.6003 27.7202C23.8703 27.1702 24.9604 26.4302 25.9004 25.4902C26.8404 24.5502 27.5803 23.4502 28.1303 22.1902C28.6803 20.9302 28.9503 19.5902 28.9503 18.1602C28.9503 16.7302 28.6803 15.4002 28.1303 14.1302C27.5803 12.8602 26.8404 11.7702 25.9004 10.8302C24.9604 9.89017 23.8603 9.15017 22.6003 8.60017C21.3403 8.05017 20.0004 7.78018 18.5704 7.78018C17.1404 7.78018 15.8104 8.05017 14.5404 8.60017ZM22.1003 9.79018C23.2003 10.2702 24.1604 10.9202 24.9804 11.7402C25.8004 12.5602 26.4504 13.5202 26.9304 14.6202C27.4104 15.7202 27.6504 16.9002 27.6504 18.1602C27.6504 19.4202 27.4104 20.6002 26.9304 21.7002C26.4504 22.8002 25.8004 23.7602 24.9804 24.5802C24.1604 25.4002 23.2003 26.0502 22.1003 26.5302C21.0003 27.0102 19.8203 27.2502 18.5603 27.2502C17.3003 27.2502 16.1203 27.0102 15.0203 26.5302C13.9203 26.0502 12.9604 25.4002 12.1404 24.5802C11.3204 23.7602 10.6704 22.8002 10.1904 21.7002C9.71035 20.6002 9.47035 19.4202 9.47035 18.1602C9.47035 16.9002 9.71035 15.7202 10.1904 14.6202C10.6704 13.5202 11.3204 12.5602 12.1404 11.7402C12.9604 10.9202 13.9203 10.2702 15.0203 9.79018C16.1203 9.31018 17.3003 9.07018 18.5603 9.07018C19.8203 9.07018 21.0003 9.31018 22.1003 9.79018ZM21.5903 23.2802V21.4402H17.7803V13.0102H15.4604V23.2802H21.5903Z" fill="black"/>
</svg>
