<svg width="35" height="35" viewBox="0 0 35 35" fill="none" xmlns="http://www.w3.org/2000/svg">
<path d="M27.8745 8.84506C28.1945 10.105 28.3845 11.395 28.4445 12.695C28.4945 13.755 28.4645 14.815 28.3745 15.875C28.2745 16.875 28.1145 17.865 27.9045 18.845C27.5545 20.135 27.0245 21.375 26.3345 22.525C25.7445 23.445 25.3544 24.045 25.1644 24.305C24.9144 24.625 24.5745 25.025 24.1345 25.535C23.6245 26.105 23.0445 26.605 22.4245 27.055C21.4945 27.755 20.4645 28.315 19.3645 28.685C18.5745 28.955 17.7645 29.165 16.9345 29.315H7.41445C7.24445 29.125 7.08445 28.915 6.95445 28.695C6.73445 28.345 6.60445 27.955 6.57445 27.545C6.46445 26.895 6.57445 26.225 6.90445 25.645C7.06445 25.355 7.24446 25.075 7.44446 24.795C7.82446 23.915 8.15445 23.015 8.43445 22.105C8.80445 20.905 9.05445 19.665 9.1845 18.415C9.2745 17.565 9.2945 16.705 9.2645 15.845C9.2345 15.085 9.1645 14.325 9.05446 13.575C8.94446 12.885 8.82445 12.255 8.68445 11.695C8.54445 11.135 8.41445 10.645 8.29445 10.245C7.93445 9.66502 7.74445 9.00507 7.74445 8.32507C7.72445 7.70507 7.92445 7.10506 8.29445 6.61506C8.54445 6.27506 8.89445 6.02506 9.2945 5.88506C9.5345 5.80506 9.7845 5.73506 10.0345 5.68506H23.8845C24.3645 5.72506 24.8345 5.82506 25.2945 5.96506C25.9345 6.15506 26.5045 6.52506 26.9445 7.03506C27.2245 7.31506 27.4444 7.64506 27.5944 8.01506C27.7244 8.34506 27.8245 8.62506 27.8945 8.85506M17.2945 19.985V18.485H14.2145V11.735H12.3645V19.985H17.2945ZM24.2545 11.735H17.6644V13.235H20.0345V19.985H21.8844V13.235H24.2545V11.735Z" fill="#EBEBEB"/>
</svg>
