<svg width="35" height="35" viewBox="0 0 35 35" fill="none" xmlns="http://www.w3.org/2000/svg">
<path d="M17.4952 4.53516C19.2952 4.53516 20.9852 4.87517 22.5652 5.54517C24.1452 6.21517 25.5152 7.14517 26.6852 8.32517C27.8552 9.50516 28.7752 10.8752 29.4552 12.4452C30.1352 14.0152 30.4652 15.6952 30.4652 17.4952C30.4652 19.2952 30.1252 20.9852 29.4552 22.5652C28.7752 24.1452 27.8552 25.5152 26.6752 26.6852C25.4952 27.8552 24.1252 28.7752 22.5552 29.4552C20.9852 30.1352 19.3052 30.4652 17.5052 30.4652C15.7052 30.4652 14.0152 30.1252 12.4352 29.4552C10.8552 28.7852 9.48516 27.8552 8.31513 26.6752C7.14513 25.4952 6.22511 24.1252 5.54511 22.5552C4.86511 20.9852 4.53516 19.3052 4.53516 17.5052C4.53516 15.7052 4.87511 14.0152 5.54511 12.4352C6.22511 10.8552 7.14513 9.48516 8.31513 8.31516C9.48516 7.14516 10.8552 6.22517 12.4352 5.54517C14.0152 4.86517 15.6952 4.53516 17.5052 4.53516H17.4952ZM13.4652 7.95518C12.2052 8.50518 11.1051 9.24519 10.1651 10.1852C9.22506 11.1252 8.48513 12.2252 7.93513 13.4852C7.38513 14.7452 7.11512 16.0852 7.11512 17.5152C7.11512 18.9452 7.38513 20.2752 7.93513 21.5452C8.48513 22.8052 9.22506 23.9052 10.1651 24.8452C11.1051 25.7852 12.2052 26.5252 13.4652 27.0752C14.7252 27.6252 16.0652 27.8952 17.4952 27.8952C18.9252 27.8952 20.2552 27.6252 21.5252 27.0752C22.7952 26.5252 23.8852 25.7852 24.8252 24.8452C25.7652 23.9052 26.5052 22.8052 27.0552 21.5452C27.6052 20.2852 27.8752 18.9452 27.8752 17.5152C27.8752 16.0852 27.6052 14.7552 27.0552 13.4852C26.5052 12.2252 25.7652 11.1252 24.8252 10.1852C23.8852 9.24519 22.7852 8.50518 21.5252 7.95518C20.2652 7.40518 18.9252 7.13517 17.4952 7.13517C16.0652 7.13517 14.7352 7.40518 13.4652 7.95518ZM21.0252 9.14515C22.1252 9.62516 23.0852 10.2752 23.9052 11.0952C24.7252 11.9152 25.3751 12.8752 25.8551 13.9752C26.3351 15.0752 26.5752 16.2552 26.5752 17.5152C26.5752 18.7752 26.3351 19.9552 25.8551 21.0552C25.3751 22.1552 24.7252 23.1152 23.9052 23.9352C23.0852 24.7552 22.1252 25.4052 21.0252 25.8852C19.9252 26.3652 18.7452 26.6052 17.4852 26.6052C16.2252 26.6052 15.0452 26.3652 13.9452 25.8852C12.8452 25.4052 11.8852 24.7552 11.0652 23.9352C10.2452 23.1152 9.59516 22.1552 9.11516 21.0552C8.63512 19.9552 8.39515 18.7752 8.39515 17.5152C8.39515 16.2552 8.63512 15.0752 9.11516 13.9752C9.59516 12.8752 10.2452 11.9152 11.0652 11.0952C11.8852 10.2752 12.8452 9.62516 13.9452 9.14515C15.0452 8.66515 16.2252 8.42518 17.4852 8.42518C18.7452 8.42518 19.9252 8.66515 21.0252 9.14515ZM19.2952 22.6952H21.9652L20.0152 19.6652C19.9652 19.5952 19.9051 19.5152 19.8551 19.4352C19.8051 19.3552 19.7452 19.2652 19.6952 19.1752C19.6252 19.1052 19.5552 19.0252 19.4952 18.9352C19.4352 18.8452 19.3652 18.7752 19.2952 18.7152C19.2452 18.6252 19.1752 18.5452 19.0952 18.4852C19.0152 18.4252 18.9352 18.3652 18.8652 18.3052C18.8152 18.2652 18.7452 18.2352 18.6752 18.1952C18.6052 18.1552 18.5252 18.1252 18.4352 18.0852V18.0552C18.6152 17.9852 18.7852 17.9152 18.9352 17.8552C19.0852 17.7952 19.2352 17.7152 19.3852 17.6252C19.5452 17.5352 19.6852 17.4352 19.8052 17.3252C19.9252 17.2152 20.0352 17.0952 20.1452 16.9752C20.2552 16.8552 20.3451 16.7152 20.4151 16.5852C20.4851 16.4552 20.5551 16.3052 20.6051 16.1352C20.6751 15.9952 20.7252 15.8352 20.7552 15.6652C20.7852 15.4952 20.7952 15.3252 20.7952 15.1652C20.7952 14.2252 20.4752 13.5252 19.8452 13.0552C19.2152 12.5852 18.2652 12.3552 17.0052 12.3552H13.3352V22.6752H15.6852V18.7352H16.2752C16.3452 18.7352 16.4151 18.7352 16.4751 18.7652C16.5351 18.7952 16.6052 18.8152 16.6752 18.8452C16.7252 18.8652 16.7852 18.8952 16.8352 18.9352C16.8852 18.9752 16.9452 19.0252 16.9952 19.0852C17.0652 19.1352 17.1352 19.1952 17.1852 19.2652C17.2352 19.3352 17.2952 19.4052 17.3452 19.4952C17.4152 19.5452 17.4752 19.6252 17.5252 19.7152C17.5752 19.8052 17.6252 19.9052 17.7052 20.0152L19.2952 22.6352V22.6852V22.6952ZM17.9151 14.4252C18.1851 14.6452 18.3252 14.9752 18.3452 15.4252C18.3452 15.6452 18.3051 15.8352 18.2251 16.0152C18.1451 16.1952 18.0252 16.3552 17.8652 16.5052C17.7252 16.6652 17.5451 16.7752 17.3551 16.8452C17.1651 16.9152 16.9352 16.9352 16.6752 16.9352H15.6752V14.0952H16.7052C17.2452 14.0952 17.6552 14.2052 17.9252 14.4152L17.9151 14.4252Z" fill="#EBEBEB"/>
</svg>
