<svg width="37" height="37" viewBox="0 0 37 37" fill="none" xmlns="http://www.w3.org/2000/svg">
<path d="M28.6701 16.0302C29.6601 17.0202 29.6601 18.6202 28.6701 19.6102C28.1901 20.0902 27.5501 20.3602 26.8701 20.3502H23.4901V28.7902H9.99011V20.3502H6.61011C5.21011 20.3502 4.08008 19.2202 4.08008 17.8202C4.08008 16.4202 5.21011 15.2902 6.61011 15.2902H26.8601C27.5301 15.2802 28.1801 15.5502 28.6501 16.0302M12.5101 7.7002H20.9501L16.7301 13.6102L12.5101 7.7002ZM18.9701 26.6102H20.6801L19.1201 24.1002C19.0701 24.0002 19.0201 23.9102 18.9601 23.8202C18.9101 23.7402 18.8401 23.6602 18.7801 23.6002C18.7301 23.5502 18.6701 23.4902 18.6101 23.4202C18.5601 23.3602 18.5101 23.3002 18.4701 23.2402C18.4201 23.1702 18.3601 23.1002 18.3001 23.0402C18.2501 22.9902 18.1901 22.9401 18.1301 22.8901C18.0601 22.8501 17.9901 22.8002 17.9301 22.7402C17.8701 22.6802 17.7901 22.6301 17.7101 22.5901V22.5402C17.8401 22.5102 17.9701 22.4601 18.0901 22.3901C18.2001 22.3301 18.3301 22.2602 18.4701 22.1902C18.5901 22.1402 18.7101 22.0702 18.8101 21.9802C18.9101 21.8902 19.0101 21.7902 19.1001 21.6902C19.1701 21.5802 19.2401 21.4702 19.3101 21.3502C19.3801 21.2302 19.4301 21.1102 19.4701 20.9802C19.5001 20.8602 19.5401 20.7202 19.5601 20.5702C19.5901 20.4302 19.6001 20.2801 19.6001 20.1401C19.6001 19.9401 19.5801 19.7502 19.5301 19.5602C19.4901 19.4002 19.4401 19.2401 19.3901 19.0901C19.3201 18.9501 19.2301 18.8102 19.1401 18.6802C18.9301 18.4202 18.6601 18.2102 18.3601 18.0602C18.2001 17.9902 18.0301 17.9302 17.8601 17.8802C17.6901 17.8102 17.5101 17.7602 17.3301 17.7302C17.1301 17.7002 16.9301 17.6902 16.7201 17.6902H13.8201V26.5502H15.3001V22.9601H15.8801C15.9701 22.9601 16.0601 22.9602 16.1401 22.9902C16.2101 23.0102 16.2901 23.0202 16.3801 23.0402C16.4701 23.0702 16.5501 23.1101 16.6201 23.1401C16.6801 23.1701 16.7501 23.2002 16.8001 23.2402C16.8701 23.2902 16.9401 23.3502 17.0001 23.4102C17.0601 23.4702 17.1301 23.5502 17.2001 23.6302C17.2701 23.7002 17.3201 23.7802 17.3701 23.8702C17.4301 23.9802 17.5001 24.0802 17.5701 24.1902L18.9601 26.6002L18.9701 26.6102ZM18.1301 20.2802C18.1301 20.4002 18.1301 20.5301 18.1201 20.6501C18.1201 20.7501 18.1001 20.8502 18.0501 20.9402C18.0001 21.0302 17.9501 21.1102 17.9001 21.1902C17.8501 21.2802 17.7801 21.3502 17.7001 21.4102C17.6101 21.4802 17.5301 21.5401 17.4601 21.5901C17.3801 21.6501 17.2901 21.6802 17.2001 21.7002L16.8801 21.7502C16.7801 21.7702 16.6701 21.7802 16.5601 21.7802H15.3201V18.9302H16.5601C16.7701 18.9302 16.9901 18.9502 17.1901 19.0002C17.3701 19.0502 17.5401 19.1302 17.6901 19.2502C17.8201 19.3802 17.9301 19.5401 18.0101 19.7101C18.0801 19.8901 18.1201 20.0802 18.1101 20.2802" fill="black"/>
</svg>
