<svg width="35" height="35" viewBox="0 0 35 35" fill="none" xmlns="http://www.w3.org/2000/svg">
<path d="M30.5702 23.4343C30.6502 24.0843 30.4302 24.7243 29.9902 25.2043C29.5802 25.6943 28.9602 25.9543 28.3302 25.9143H9.8202C9.3502 25.9143 8.88019 25.7743 8.50019 25.4943C8.12019 25.2243 7.83016 24.8443 7.66016 24.4143C7.43016 23.7643 7.14016 22.9343 6.78016 21.9243C6.42016 20.9143 6.07018 19.8943 5.74018 18.8843L5.24018 17.4343C5.08018 16.9743 4.95016 16.5643 4.84016 16.1943C4.77016 16.0043 4.71017 15.8243 4.67017 15.6543C4.63017 15.4843 4.59018 15.3443 4.55018 15.2243C4.50018 15.1143 4.46019 14.9943 4.44019 14.8643C4.42019 14.7543 4.41016 14.6443 4.41016 14.5343C4.41016 14.3843 4.43017 14.2343 4.48017 14.0943C4.53017 13.9543 4.60018 13.8143 4.68018 13.6843C4.76018 13.5543 4.84019 13.4343 4.94019 13.3143C5.05019 13.1843 5.18019 13.0543 5.31019 12.9443C5.58019 12.6443 5.86015 12.3543 6.15015 12.0843C6.47015 11.7943 6.80015 11.5143 7.15015 11.2543C7.50015 10.9743 7.86016 10.7043 8.22016 10.4343C8.55016 10.1843 8.9002 9.96435 9.2602 9.77436C9.5902 9.58436 9.90017 9.41436 10.1702 9.28436C10.4402 9.15436 10.7302 9.08436 11.0302 9.08436C13.5302 9.05436 16.0202 9.26436 18.4802 9.70436C20.2902 10.0343 22.0802 10.5243 23.8102 11.1643C25.0302 11.6143 26.2002 12.1943 27.2902 12.8943C27.9502 13.3243 28.5802 13.7943 29.1802 14.3043C29.3802 14.5043 29.5502 14.7443 29.6802 15.0043C29.8002 15.2443 29.8702 15.5143 29.8902 15.7843L30.5902 23.4343H30.5702ZM15.4302 22.5143H17.4902L15.9302 20.0643C15.8802 20.0043 15.8402 19.9343 15.8002 19.8643C15.7602 19.8043 15.7202 19.7443 15.6702 19.6943C15.6302 19.6243 15.6002 19.5543 15.5502 19.4943C15.5002 19.4243 15.4402 19.3543 15.3802 19.2943C15.3202 19.2443 15.2502 19.1943 15.2002 19.1343C15.1502 19.0843 15.1002 19.0443 15.0402 19.0043C15.0002 18.9643 14.9502 18.9343 14.8902 18.9143C14.8302 18.8843 14.7602 18.8643 14.6902 18.8443V18.7943C14.8402 18.7643 14.9802 18.7143 15.1102 18.6443C15.2302 18.5843 15.3402 18.5143 15.4502 18.4443C15.5702 18.3943 15.6802 18.3243 15.7802 18.2343C15.8802 18.1443 15.9702 18.0443 16.0602 17.9443C16.1302 17.8443 16.2002 17.7343 16.2702 17.6243C16.3402 17.5143 16.4002 17.3843 16.4302 17.2543C16.4602 17.1343 16.5002 17.0043 16.5202 16.8743C16.5502 16.7443 16.5602 16.6043 16.5602 16.4643C16.6002 15.8143 16.3302 15.1943 15.8202 14.7843C15.1402 14.3543 14.3502 14.1543 13.5502 14.2143H10.6002V22.4943H12.4702V19.3443H12.9702C13.0302 19.3443 13.0902 19.3443 13.1402 19.3743C13.2002 19.3943 13.2602 19.4143 13.3102 19.4243C13.3602 19.4443 13.4102 19.4743 13.4502 19.5143C13.4902 19.5543 13.5402 19.5943 13.6002 19.6343C13.6402 19.6843 13.6802 19.7443 13.7002 19.8043C13.7302 19.8743 13.7802 19.9443 13.8302 20.0043C13.8902 20.0643 13.9502 20.1343 14.0002 20.2143C14.0402 20.2843 14.0902 20.3543 14.1502 20.4243L15.4202 22.5343V22.5043L15.4302 22.5143ZM13.3502 15.6843C13.6902 15.6643 14.0302 15.7443 14.3102 15.9343C14.5402 16.1343 14.6802 16.4243 14.6702 16.7343C14.6702 16.8943 14.6402 17.0543 14.5802 17.2043C14.5102 17.3543 14.4102 17.4943 14.2802 17.5943C14.1502 17.7043 14.0002 17.7843 13.8402 17.8443C13.6802 17.9043 13.5002 17.9343 13.3302 17.9343H12.5102V15.6743H13.3502V15.6843ZM24.5802 21.8843C24.8302 21.6643 25.0402 21.3943 25.1902 21.0943C25.3302 20.7743 25.4002 20.4143 25.3702 20.0643C25.3702 19.8243 25.3202 19.5843 25.2202 19.3643C25.1202 19.1343 24.9802 18.9243 24.8102 18.7443C24.6402 18.5743 24.4402 18.4443 24.2202 18.3543C23.9702 18.2443 23.7102 18.1643 23.4402 18.1143V18.0843C23.6602 18.0043 23.8602 17.9043 24.0602 17.7843C24.2502 17.6643 24.4202 17.5343 24.5802 17.3743C24.7202 17.2043 24.8302 17.0243 24.9102 16.8243C24.9902 16.6243 25.0302 16.4043 25.0302 16.1943C25.0302 15.9043 24.9702 15.6243 24.8502 15.3643C24.7202 15.1143 24.5302 14.9043 24.3002 14.7443C24.0202 14.5743 23.7202 14.4443 23.4002 14.3743C23.0002 14.2843 22.6002 14.2343 22.1902 14.2443H19.1802V22.5543H22.3402C22.7702 22.5543 23.2002 22.5043 23.6202 22.3943C23.9702 22.2943 24.3002 22.1243 24.5802 21.8943M22.8102 17.3243C22.6702 17.4143 22.5302 17.4743 22.3702 17.5243C22.2002 17.5743 22.0302 17.5943 21.8602 17.5943H21.0702V15.6343H21.7802C22.1302 15.6143 22.4802 15.6943 22.7802 15.8743C23.0102 16.0243 23.1302 16.2843 23.1202 16.5643C23.1202 16.7143 23.1002 16.8643 23.0402 16.9943C22.9902 17.1243 22.9102 17.2343 22.8002 17.3243M23.3402 19.5943C23.4002 19.7443 23.4402 19.9043 23.4602 20.0643C23.4602 20.2143 23.4302 20.3743 23.3702 20.5143C23.3002 20.6443 23.2102 20.7643 23.0902 20.8543C22.9602 20.9643 22.8102 21.0443 22.6402 21.0943C22.4502 21.1443 22.2602 21.1743 22.0602 21.1743H21.0602V18.9643H22.0602C22.2602 18.9643 22.4502 18.9943 22.6402 19.0543C22.8002 19.1043 22.9502 19.1843 23.0902 19.2743C23.2002 19.3543 23.2902 19.4643 23.3402 19.5943Z" fill="#EBEBEB"/>
</svg>
