<svg width="35" height="35" viewBox="0 0 35 35" fill="none" xmlns="http://www.w3.org/2000/svg">
<path d="M28.1038 25.6201C28.4338 26.2001 28.5638 26.8801 28.4838 27.5401C28.4138 27.9601 28.2638 28.3601 28.0538 28.7301C27.9238 28.9501 27.7638 29.1701 27.5938 29.3601H18.0538C17.2338 29.2001 16.4138 28.9801 15.6238 28.7001C14.5338 28.3101 13.5038 27.7601 12.5638 27.0701C11.9438 26.6201 11.3738 26.1101 10.8638 25.5401C10.4338 25.0501 10.0838 24.6401 9.82377 24.3301C9.65377 24.0801 9.26381 23.4901 8.67381 22.5401C7.99381 21.3701 7.45379 20.1201 7.08378 18.8201C6.85378 17.8401 6.68379 16.8401 6.58379 15.8401C6.49379 14.7801 6.47378 13.7101 6.51378 12.6501C6.57378 11.3501 6.76379 10.0601 7.08378 8.80014C7.15378 8.57014 7.25377 8.30014 7.38377 7.97014C7.53377 7.61014 7.7538 7.29014 8.0338 7.01014C8.4538 6.49014 9.02382 6.11014 9.67382 5.93014C10.1438 5.80014 10.6138 5.70014 11.0938 5.64014H24.9938L25.7338 5.85014C26.1338 5.98014 26.4738 6.24014 26.7038 6.59014C27.0938 7.06014 27.3038 7.66014 27.2838 8.28014C27.2838 8.96014 27.0738 9.6301 26.7038 10.2001C26.5838 10.6201 26.4438 11.1101 26.2938 11.6801C26.1338 12.3001 26.0138 12.9301 25.9238 13.5701C25.8238 14.2601 25.7638 15.0201 25.7238 15.8201C25.6938 16.6801 25.7238 17.5501 25.8238 18.4001C25.9338 19.6501 26.1838 20.8901 26.5438 22.1001C26.8238 23.0001 27.1538 23.8901 27.5338 24.7501C27.6038 24.8401 27.7938 25.1301 28.1038 25.6201ZM14.7138 19.9801H16.7738L15.2238 17.5501C15.1838 17.4801 15.1438 17.4101 15.1038 17.3501C15.0638 17.2901 15.0238 17.2201 14.9838 17.1501C14.9238 17.0901 14.8838 17.0301 14.8338 16.9701C14.7838 16.9001 14.7338 16.8401 14.6638 16.7901C14.6138 16.7301 14.5538 16.6701 14.4938 16.6201C14.4438 16.5801 14.3938 16.5401 14.3538 16.5001C14.3038 16.4501 14.2438 16.4101 14.1838 16.3801C14.1238 16.3501 14.0638 16.3301 14.0138 16.3101V16.2801C14.1538 16.2301 14.2938 16.1701 14.4238 16.1101C14.5538 16.0501 14.6738 15.9901 14.7838 15.9401C14.8938 15.8801 15.0038 15.8001 15.1038 15.7201C15.1938 15.6301 15.2838 15.5401 15.3638 15.4401C15.4538 15.3401 15.5238 15.2301 15.5838 15.1101C15.6438 15.0001 15.6938 14.8801 15.7338 14.7501C15.7838 14.6301 15.8138 14.5001 15.8338 14.3701C15.8538 14.2301 15.8638 14.1001 15.8638 13.9601C15.9038 13.3101 15.6338 12.6901 15.1238 12.2901C14.4538 11.8601 13.6738 11.6701 12.8838 11.7201H9.93376V19.9801H11.7838V16.8201H12.2838C12.3538 16.8201 12.4138 16.8201 12.4838 16.8501C12.5338 16.8601 12.5838 16.8901 12.6338 16.9301C12.6938 16.9401 12.7538 16.9701 12.8038 17.0101C12.8538 17.0501 12.8938 17.0901 12.9238 17.1401C12.9738 17.1801 13.0238 17.2301 13.0538 17.2901C13.0938 17.3501 13.1338 17.4101 13.1838 17.4601L13.3438 17.6701C13.3938 17.7401 13.4338 17.8101 13.4738 17.8801L14.7438 19.9901L14.7138 19.9801ZM12.6538 13.1201C12.9938 13.1001 13.3338 13.1801 13.6138 13.3701C13.8438 13.5701 13.9738 13.8701 13.9438 14.1801C13.9438 14.3401 13.9138 14.5001 13.8538 14.6501C13.7838 14.8001 13.6938 14.9401 13.5738 15.0501C13.4438 15.1601 13.2938 15.2401 13.1338 15.3001C12.9638 15.3601 12.7738 15.3901 12.5938 15.3901H11.8038V13.1201H12.6438H12.6538ZM24.0738 11.7201H17.5138V13.2201H19.8638V19.9701H21.7338V13.2301H24.0838V11.7201H24.0738Z" fill="#EBEBEB"/>
</svg>
