<svg width="37" height="37" viewBox="0 0 37 37" fill="none" xmlns="http://www.w3.org/2000/svg">
<path d="M29.5399 23.6404C29.6199 24.2904 29.3999 24.9304 28.9599 25.4104C28.5499 25.9004 27.9299 26.1604 27.2999 26.1204H8.78992C8.31992 26.1204 7.84991 25.9804 7.46991 25.7004C7.08991 25.4304 6.79988 25.0504 6.62988 24.6204C6.39988 23.9704 6.10988 23.1404 5.74988 22.1304C5.38988 21.1204 5.0399 20.1004 4.7099 19.0904L4.2099 17.6404C4.0499 17.1804 3.91988 16.7704 3.80988 16.4004C3.73988 16.2104 3.67989 16.0304 3.63989 15.8604C3.59989 15.6904 3.5599 15.5504 3.5199 15.4304C3.4699 15.3204 3.42991 15.2004 3.40991 15.0704C3.38991 14.9604 3.37988 14.8504 3.37988 14.7404C3.37988 14.5904 3.39989 14.4404 3.44989 14.3004C3.49989 14.1604 3.5699 14.0204 3.6499 13.8904C3.7299 13.7604 3.80991 13.6404 3.90991 13.5204C4.01991 13.3904 4.14991 13.2604 4.27991 13.1504C4.54991 12.8504 4.82987 12.5604 5.11987 12.2904C5.43987 12.0004 5.76987 11.7204 6.11987 11.4604C6.46987 11.1804 6.82988 10.9104 7.18988 10.6404C7.51988 10.3904 7.86992 10.1704 8.22992 9.98041C8.55992 9.79041 8.86989 9.62041 9.13989 9.49041C9.40989 9.36041 9.69988 9.29041 9.99988 9.29041C12.4999 9.26041 14.9899 9.47041 17.4499 9.91041C19.2599 10.2404 21.0499 10.7304 22.7799 11.3704C23.9999 11.8204 25.1699 12.4004 26.2599 13.1004C26.9199 13.5304 27.5499 14.0004 28.1499 14.5104C28.3499 14.7104 28.5199 14.9504 28.6499 15.2104C28.7699 15.4504 28.8399 15.7204 28.8599 15.9904L29.5599 23.6404H29.5399ZM14.3999 22.7204H16.4599L14.8999 20.2704C14.8499 20.2104 14.8099 20.1404 14.7699 20.0704C14.7299 20.0104 14.6899 19.9504 14.6399 19.9004C14.5999 19.8304 14.5699 19.7604 14.5199 19.7004C14.4699 19.6304 14.4099 19.5604 14.3499 19.5004C14.2899 19.4504 14.2199 19.4004 14.1699 19.3404C14.1199 19.2904 14.0699 19.2504 14.0099 19.2104C13.9699 19.1704 13.9199 19.1404 13.8599 19.1204C13.7999 19.0904 13.7299 19.0704 13.6599 19.0504V19.0004C13.8099 18.9704 13.9499 18.9204 14.0799 18.8504C14.1999 18.7904 14.3099 18.7204 14.4199 18.6504C14.5399 18.6004 14.6499 18.5304 14.7499 18.4404C14.8499 18.3504 14.9399 18.2504 15.0299 18.1504C15.0999 18.0504 15.1699 17.9404 15.2399 17.8304C15.3099 17.7204 15.3699 17.5904 15.3999 17.4604C15.4299 17.3404 15.4699 17.2104 15.4899 17.0804C15.5199 16.9504 15.5299 16.8104 15.5299 16.6704C15.5699 16.0204 15.2999 15.4004 14.7899 14.9904C14.1099 14.5604 13.3199 14.3604 12.5199 14.4204H9.56989V22.7004H11.4399V19.5504H11.9399C11.9999 19.5504 12.0599 19.5504 12.1099 19.5804C12.1699 19.6004 12.2299 19.6204 12.2799 19.6304C12.3299 19.6504 12.3799 19.6804 12.4199 19.7204C12.4599 19.7604 12.5099 19.8004 12.5699 19.8404C12.6099 19.8904 12.6499 19.9504 12.6699 20.0104C12.6999 20.0804 12.7499 20.1504 12.7999 20.2104C12.8599 20.2704 12.9199 20.3404 12.9699 20.4204C13.0099 20.4904 13.0599 20.5604 13.1199 20.6304L14.3899 22.7404V22.7104L14.3999 22.7204ZM12.3199 15.8904C12.6599 15.8704 12.9999 15.9504 13.2799 16.1404C13.5099 16.3404 13.6499 16.6304 13.6399 16.9404C13.6399 17.1004 13.6099 17.2604 13.5499 17.4104C13.4799 17.5604 13.3799 17.7004 13.2499 17.8004C13.1199 17.9104 12.9699 17.9904 12.8099 18.0504C12.6499 18.1104 12.4699 18.1404 12.2999 18.1404H11.4799V15.8804H12.3199V15.8904ZM23.5499 22.0904C23.7999 21.8704 24.0099 21.6004 24.1599 21.3004C24.2999 20.9804 24.3699 20.6204 24.3399 20.2704C24.3399 20.0304 24.2899 19.7904 24.1899 19.5704C24.0899 19.3404 23.9499 19.1304 23.7799 18.9504C23.6099 18.7804 23.4099 18.6504 23.1899 18.5604C22.9399 18.4504 22.6799 18.3704 22.4099 18.3204V18.2904C22.6299 18.2104 22.8299 18.1104 23.0299 17.9904C23.2199 17.8704 23.3899 17.7404 23.5499 17.5804C23.6899 17.4104 23.7999 17.2304 23.8799 17.0304C23.9599 16.8304 23.9999 16.6104 23.9999 16.4004C23.9999 16.1104 23.9399 15.8304 23.8199 15.5704C23.6899 15.3204 23.4999 15.1104 23.2699 14.9504C22.9899 14.7804 22.6899 14.6504 22.3699 14.5804C21.9699 14.4904 21.5699 14.4404 21.1599 14.4504H18.1499V22.7604H21.3099C21.7399 22.7604 22.1699 22.7104 22.5899 22.6004C22.9399 22.5004 23.2699 22.3304 23.5499 22.1004M21.7799 17.5304C21.6399 17.6204 21.4999 17.6804 21.3399 17.7304C21.1699 17.7804 20.9999 17.8004 20.8299 17.8004H20.0399V15.8404H20.7499C21.0999 15.8204 21.4499 15.9004 21.7499 16.0804C21.9799 16.2304 22.0999 16.4904 22.0899 16.7704C22.0899 16.9204 22.0699 17.0704 22.0099 17.2004C21.9599 17.3304 21.8799 17.4404 21.7699 17.5304M22.3099 19.8004C22.3699 19.9504 22.4099 20.1104 22.4299 20.2704C22.4299 20.4204 22.3999 20.5804 22.3399 20.7204C22.2699 20.8504 22.1799 20.9704 22.0599 21.0604C21.9299 21.1704 21.7799 21.2504 21.6099 21.3004C21.4199 21.3504 21.2299 21.3804 21.0299 21.3804H20.0299V19.1704H21.0299C21.2299 19.1704 21.4199 19.2004 21.6099 19.2604C21.7699 19.3104 21.9199 19.3904 22.0599 19.4804C22.1699 19.5604 22.2599 19.6704 22.3099 19.8004Z" fill="black"/>
</svg>
