<svg width="37" height="37" viewBox="0 0 37 37" fill="none" xmlns="http://www.w3.org/2000/svg">
<path d="M27.0999 26.27C27.4299 26.85 27.5599 27.53 27.4799 28.19C27.4099 28.61 27.2599 29.01 27.0499 29.38C26.9199 29.6 26.7599 29.82 26.5899 30.01H17.0499C16.2299 29.85 15.4099 29.63 14.6199 29.35C13.5299 28.96 12.4999 28.41 11.5599 27.72C10.9399 27.27 10.3699 26.76 9.85991 26.19C9.42991 25.7 9.07987 25.29 8.81987 24.98C8.64987 24.73 8.25991 24.14 7.66991 23.19C6.98991 22.02 6.44988 20.77 6.07988 19.47C5.84988 18.49 5.67988 17.49 5.57988 16.49C5.48988 15.43 5.46988 14.36 5.50988 13.3C5.56988 12 5.75988 10.71 6.07988 9.45004C6.14988 9.22004 6.24987 8.95004 6.37987 8.62004C6.52987 8.26004 6.7499 7.94004 7.0299 7.66004C7.4499 7.14004 8.01991 6.76004 8.66991 6.58004C9.13991 6.45004 9.60989 6.35004 10.0899 6.29004H23.9899L24.7299 6.50004C25.1299 6.63004 25.4699 6.89004 25.6999 7.24004C26.0899 7.71004 26.2999 8.31004 26.2799 8.93004C26.2799 9.61004 26.0699 10.28 25.6999 10.85C25.5799 11.27 25.4399 11.76 25.2899 12.33C25.1299 12.95 25.0099 13.58 24.9199 14.22C24.8199 14.91 24.7599 15.67 24.7199 16.47C24.6899 17.33 24.7199 18.2 24.8199 19.05C24.9299 20.3 25.1799 21.54 25.5399 22.75C25.8199 23.65 26.1499 24.54 26.5299 25.4C26.5999 25.49 26.7899 25.78 27.0999 26.27ZM13.7099 20.63H15.7699L14.2199 18.2C14.1799 18.13 14.1399 18.06 14.0999 18C14.0599 17.94 14.0199 17.87 13.9799 17.8C13.9199 17.74 13.8799 17.68 13.8299 17.62C13.7799 17.55 13.7299 17.49 13.6599 17.44C13.6099 17.38 13.5499 17.32 13.4899 17.27C13.4399 17.23 13.3899 17.19 13.3499 17.15C13.2999 17.1 13.2399 17.06 13.1799 17.03C13.1199 17 13.0599 16.98 13.0099 16.96V16.93C13.1499 16.88 13.2899 16.82 13.4199 16.76C13.5499 16.7 13.6699 16.64 13.7799 16.59C13.8899 16.53 13.9999 16.45 14.0999 16.37C14.1899 16.28 14.2799 16.19 14.3599 16.09C14.4499 15.99 14.5199 15.88 14.5799 15.76C14.6399 15.65 14.6899 15.53 14.7299 15.4C14.7799 15.28 14.8099 15.15 14.8299 15.02C14.8499 14.88 14.8599 14.75 14.8599 14.61C14.8999 13.96 14.6299 13.34 14.1199 12.94C13.4499 12.51 12.6699 12.32 11.8799 12.37H8.92986V20.63H10.7799V17.47H11.2799C11.3499 17.47 11.4099 17.47 11.4799 17.5C11.5299 17.51 11.5799 17.54 11.6299 17.58C11.6899 17.59 11.7499 17.62 11.7999 17.66C11.8499 17.7 11.8899 17.74 11.9199 17.79C11.9699 17.83 12.0199 17.88 12.0499 17.94C12.0899 18 12.1299 18.06 12.1799 18.11L12.3399 18.32C12.3899 18.39 12.4299 18.46 12.4699 18.53L13.7399 20.64L13.7099 20.63ZM11.6499 13.77C11.9899 13.75 12.3299 13.83 12.6099 14.02C12.8399 14.22 12.9699 14.52 12.9399 14.83C12.9399 14.99 12.9099 15.15 12.8499 15.3C12.7799 15.45 12.6899 15.59 12.5699 15.7C12.4399 15.81 12.2899 15.89 12.1299 15.95C11.9599 16.01 11.7699 16.04 11.5899 16.04H10.7999V13.77H11.6399H11.6499ZM23.0699 12.37H16.5099V13.87H18.8599V20.62H20.7299V13.88H23.0799V12.37H23.0699Z" fill="black"/>
</svg>
