<svg width="35" height="35" viewBox="0 0 35 35" fill="none" xmlns="http://www.w3.org/2000/svg">
<path d="M29.424 15.2851C30.414 16.2751 30.414 17.8751 29.424 18.8651C28.944 19.3451 28.304 19.6151 27.624 19.6051H24.244V28.0451H10.744V19.6051H7.36401C5.96401 19.6051 4.83398 18.4751 4.83398 17.0751C4.83398 15.6751 5.96401 14.5451 7.36401 14.5451H27.614C28.284 14.5351 28.934 14.8051 29.404 15.2851M13.264 6.95508H21.704L17.484 12.8651L13.264 6.95508ZM19.724 25.8651H21.434L19.874 23.3551C19.824 23.2551 19.774 23.1651 19.714 23.0751C19.664 22.9951 19.594 22.9151 19.534 22.8551C19.484 22.8051 19.424 22.7451 19.364 22.6751C19.314 22.6151 19.264 22.5551 19.224 22.4951C19.174 22.4251 19.114 22.3551 19.054 22.2951C19.004 22.2451 18.944 22.195 18.884 22.145C18.814 22.105 18.744 22.0551 18.684 21.9951C18.624 21.9351 18.544 21.885 18.464 21.845V21.7951C18.594 21.7651 18.724 21.715 18.844 21.645C18.954 21.585 19.084 21.5151 19.224 21.4451C19.344 21.3951 19.464 21.3251 19.564 21.2351C19.664 21.1451 19.764 21.0451 19.854 20.9451C19.924 20.8351 19.994 20.7251 20.064 20.6051C20.134 20.4851 20.184 20.3651 20.224 20.2351C20.254 20.1151 20.294 19.9751 20.314 19.8251C20.344 19.6851 20.354 19.535 20.354 19.395C20.354 19.195 20.334 19.0051 20.284 18.8151C20.244 18.6551 20.194 18.495 20.144 18.345C20.074 18.205 19.984 18.0651 19.894 17.9351C19.684 17.6751 19.414 17.4651 19.114 17.3151C18.954 17.2451 18.784 17.1851 18.614 17.1351C18.444 17.0651 18.264 17.0151 18.084 16.9851C17.884 16.9551 17.684 16.9451 17.474 16.9451H14.574V25.8051H16.054V22.215H16.634C16.724 22.215 16.814 22.2151 16.894 22.2451C16.964 22.2651 17.044 22.2751 17.134 22.2951C17.224 22.3251 17.304 22.365 17.374 22.395C17.434 22.425 17.504 22.4551 17.554 22.4951C17.624 22.5451 17.694 22.6051 17.754 22.6651C17.814 22.7251 17.884 22.8051 17.954 22.8851C18.024 22.9551 18.074 23.0351 18.124 23.1251C18.184 23.2351 18.254 23.3351 18.324 23.4451L19.714 25.8551L19.724 25.8651ZM18.884 19.5351C18.884 19.6551 18.884 19.785 18.874 19.905C18.874 20.005 18.854 20.1051 18.804 20.1951C18.754 20.2851 18.704 20.3651 18.654 20.4451C18.604 20.5351 18.534 20.6051 18.454 20.6651C18.364 20.7351 18.284 20.795 18.214 20.845C18.134 20.905 18.044 20.9351 17.954 20.9551L17.634 21.0051C17.534 21.0251 17.424 21.0351 17.314 21.0351H16.074V18.1851H17.314C17.524 18.1851 17.744 18.2051 17.944 18.2551C18.124 18.3051 18.294 18.3851 18.444 18.5051C18.574 18.6351 18.684 18.795 18.764 18.965C18.834 19.145 18.874 19.3351 18.864 19.5351" fill="#EBEBEB"/>
</svg>
