<svg width="37" height="37" viewBox="0 0 37 37" fill="none" xmlns="http://www.w3.org/2000/svg">
<path d="M18.6807 5.1499C20.4807 5.1499 22.1707 5.48991 23.7507 6.15991C25.3307 6.82991 26.7007 7.75991 27.8707 8.93991C29.0407 10.1199 29.9607 11.4899 30.6407 13.0599C31.3207 14.6299 31.6507 16.3099 31.6507 18.1099C31.6507 19.9099 31.3107 21.5999 30.6407 23.1799C29.9607 24.7599 29.0407 26.1299 27.8607 27.2999C26.6807 28.4699 25.3107 29.3899 23.7407 30.0699C22.1707 30.7499 20.4907 31.0799 18.6907 31.0799C16.8907 31.0799 15.2007 30.7399 13.6207 30.0699C12.0407 29.3999 10.6707 28.4699 9.50067 27.2899C8.33067 26.1099 7.41065 24.7399 6.73065 23.1699C6.05065 21.5999 5.7207 19.9199 5.7207 18.1199C5.7207 16.3199 6.06065 14.6299 6.73065 13.0499C7.41065 11.4699 8.33067 10.0999 9.50067 8.9299C10.6707 7.7599 12.0407 6.83991 13.6207 6.15991C15.2007 5.47991 16.8807 5.1499 18.6907 5.1499H18.6807ZM14.6507 8.56992C13.3907 9.11992 12.2906 9.85993 11.3506 10.7999C10.4106 11.7399 9.67067 12.8399 9.12067 14.0999C8.57067 15.3599 8.30066 16.6999 8.30066 18.1299C8.30066 19.5599 8.57067 20.8899 9.12067 22.1599C9.67067 23.4199 10.4106 24.5199 11.3506 25.4599C12.2906 26.3999 13.3907 27.1399 14.6507 27.6899C15.9107 28.2399 17.2507 28.5099 18.6807 28.5099C20.1107 28.5099 21.4407 28.2399 22.7107 27.6899C23.9807 27.1399 25.0707 26.3999 26.0107 25.4599C26.9507 24.5199 27.6907 23.4199 28.2407 22.1599C28.7907 20.8999 29.0607 19.5599 29.0607 18.1299C29.0607 16.6999 28.7907 15.3699 28.2407 14.0999C27.6907 12.8399 26.9507 11.7399 26.0107 10.7999C25.0707 9.85993 23.9707 9.11992 22.7107 8.56992C21.4507 8.01992 20.1107 7.74991 18.6807 7.74991C17.2507 7.74991 15.9207 8.01992 14.6507 8.56992ZM22.2107 9.75989C23.3107 10.2399 24.2707 10.8899 25.0907 11.7099C25.9107 12.5299 26.5606 13.4899 27.0406 14.5899C27.5206 15.6899 27.7607 16.8699 27.7607 18.1299C27.7607 19.3899 27.5206 20.5699 27.0406 21.6699C26.5606 22.7699 25.9107 23.7299 25.0907 24.5499C24.2707 25.3699 23.3107 26.0199 22.2107 26.4999C21.1107 26.9799 19.9307 27.2199 18.6707 27.2199C17.4107 27.2199 16.2307 26.9799 15.1307 26.4999C14.0307 26.0199 13.0707 25.3699 12.2507 24.5499C11.4307 23.7299 10.7807 22.7699 10.3007 21.6699C9.82066 20.5699 9.58069 19.3899 9.58069 18.1299C9.58069 16.8699 9.82066 15.6899 10.3007 14.5899C10.7807 13.4899 11.4307 12.5299 12.2507 11.7099C13.0707 10.8899 14.0307 10.2399 15.1307 9.75989C16.2307 9.27989 17.4107 9.03992 18.6707 9.03992C19.9307 9.03992 21.1107 9.27989 22.2107 9.75989ZM20.4807 23.3099H23.1507L21.2007 20.2799C21.1507 20.2099 21.0906 20.1299 21.0406 20.0499C20.9906 19.9699 20.9307 19.8799 20.8807 19.7899C20.8107 19.7199 20.7407 19.6399 20.6807 19.5499C20.6207 19.4599 20.5507 19.3899 20.4807 19.3299C20.4307 19.2399 20.3607 19.1599 20.2807 19.0999C20.2007 19.0399 20.1207 18.9799 20.0507 18.9199C20.0007 18.8799 19.9307 18.8499 19.8607 18.8099C19.7907 18.7699 19.7107 18.7399 19.6207 18.6999V18.6699C19.8007 18.5999 19.9707 18.5299 20.1207 18.4699C20.2707 18.4099 20.4207 18.3299 20.5707 18.2399C20.7307 18.1499 20.8707 18.0499 20.9907 17.9399C21.1107 17.8299 21.2207 17.7099 21.3307 17.5899C21.4407 17.4699 21.5306 17.3299 21.6006 17.1999C21.6706 17.0699 21.7406 16.9199 21.7906 16.7499C21.8606 16.6099 21.9107 16.4499 21.9407 16.2799C21.9707 16.1099 21.9807 15.9399 21.9807 15.7799C21.9807 14.8399 21.6607 14.1399 21.0307 13.6699C20.4007 13.1999 19.4507 12.9699 18.1907 12.9699H14.5207V23.2899H16.8707V19.3499H17.4607C17.5307 19.3499 17.6006 19.3499 17.6606 19.3799C17.7206 19.4099 17.7907 19.4299 17.8607 19.4599C17.9107 19.4799 17.9707 19.5099 18.0207 19.5499C18.0707 19.5899 18.1307 19.6399 18.1807 19.6999C18.2507 19.7499 18.3207 19.8099 18.3707 19.8799C18.4207 19.9499 18.4807 20.0199 18.5307 20.1099C18.6007 20.1599 18.6607 20.2399 18.7107 20.3299C18.7607 20.4199 18.8107 20.5199 18.8907 20.6299L20.4807 23.2499V23.2999V23.3099ZM19.1006 15.0399C19.3706 15.2599 19.5107 15.5899 19.5307 16.0399C19.5307 16.2599 19.4906 16.4499 19.4106 16.6299C19.3306 16.8099 19.2107 16.9699 19.0507 17.1199C18.9107 17.2799 18.7306 17.3899 18.5406 17.4599C18.3506 17.5299 18.1207 17.5499 17.8607 17.5499H16.8607V14.7099H17.8907C18.4307 14.7099 18.8407 14.8199 19.1107 15.0299L19.1006 15.0399Z" fill="black"/>
</svg>
