<svg width="35" height="35" viewBox="0 0 35 35" fill="none" xmlns="http://www.w3.org/2000/svg">
<path d="M22.1 6.61C24.93 7.81 27.1899 10.06 28.3899 12.9C29.6199 15.84 29.6199 19.16 28.3899 22.1C27.1899 24.93 24.94 27.19 22.1 28.39C19.16 29.62 15.84 29.62 12.9 28.39C10.07 27.19 7.81 24.93 6.61 22.1C5.38 19.16 5.38 15.84 6.61 12.9C7.81 10.07 10.06 7.81 12.9 6.61C15.84 5.38 19.16 5.38 22.1 6.61ZM19.1899 17.5L22.1399 12.44H19.1899L17.4999 16.24L15.81 12.44H12.86L15.81 17.5L12.86 22.56H15.81L17.4999 18.76L19.1899 22.56H22.1399L19.1899 17.5Z" fill="#EBEBEB"/>
</svg>
