<svg width="37" height="37" viewBox="0 0 37 37" fill="none" xmlns="http://www.w3.org/2000/svg">
<path d="M22.9301 7.2599C25.7601 8.4599 28.02 10.7099 29.22 13.5499C30.45 16.4899 30.45 19.8099 29.22 22.7499C28.02 25.5799 25.7701 27.8399 22.9301 29.0399C19.9901 30.2699 16.6701 30.2699 13.7301 29.0399C10.9001 27.8399 8.64008 25.5799 7.44008 22.7499C6.21008 19.8099 6.21008 16.4899 7.44008 13.5499C8.64008 10.7199 10.8901 8.4599 13.7301 7.2599C16.6701 6.0299 19.9901 6.0299 22.9301 7.2599ZM20.02 18.1499L22.97 13.0899H20.02L18.33 16.8899L16.6401 13.0899H13.6901L16.6401 18.1499L13.6901 23.2099H16.6401L18.33 19.4099L20.02 23.2099H22.97L20.02 18.1499Z" fill="black"/>
</svg>
