<svg width="35" height="35" viewBox="0 0 35 35" fill="none" xmlns="http://www.w3.org/2000/svg">
<path d="M22.1 6.61C24.93 7.81 27.1899 10.06 28.3899 12.9C29.6199 15.84 29.6199 19.16 28.3899 22.1C27.1899 24.93 24.94 27.19 22.1 28.39C19.16 29.62 15.84 29.62 12.9 28.39C10.07 27.19 7.81 24.94 6.61 22.1C5.38 19.16 5.38 15.84 6.61 12.9C7.81 10.07 10.06 7.81 12.9 6.61C15.84 5.38 19.16 5.38 22.1 6.61ZM18.4 18.76L21.59 12.3H19.1899L17.55 16.07C17.5 16.18 17.45 16.29 17.42 16.41C17.38 16.56 17.35 16.71 17.34 16.86H17.29C17.22 16.63 17.1699 16.45 17.1399 16.32C17.1299 16.23 17.0999 16.15 17.0699 16.07L15.46 12.3H12.9L16.09 18.81V22.34H18.3799V18.75L18.4 18.76Z" fill="#EBEBEB"/>
</svg>
