<svg width="37" height="37" viewBox="0 0 37 37" fill="none" xmlns="http://www.w3.org/2000/svg">
<path d="M22.9301 7.42982C25.7601 8.62982 28.02 10.8798 29.22 13.7198C30.45 16.6598 30.45 19.9798 29.22 22.9198C28.02 25.7498 25.7701 28.0098 22.9301 29.2098C19.9901 30.4398 16.6701 30.4398 13.7301 29.2098C10.9001 28.0098 8.64008 25.7598 7.44008 22.9198C6.21008 19.9798 6.21008 16.6598 7.44008 13.7198C8.64008 10.8898 10.8901 8.62982 13.7301 7.42982C16.6701 6.19982 19.9901 6.19982 22.9301 7.42982ZM19.2301 19.5798L22.4201 13.1198H20.02L18.3801 16.8898C18.3301 16.9998 18.2801 17.1098 18.2501 17.2298C18.2101 17.3798 18.1801 17.5298 18.1701 17.6798H18.1201C18.0501 17.4498 18 17.2698 17.97 17.1398C17.96 17.0498 17.93 16.9698 17.9 16.8898L16.2901 13.1198H13.7301L16.9201 19.6298V23.1598H19.21V19.5698L19.2301 19.5798Z" fill="black"/>
</svg>
