<svg width="341" height="432" viewBox="0 0 341 432" fill="none" xmlns="http://www.w3.org/2000/svg">
<path d="M191 88H150V218H191V88Z" fill="#EBEBEB"/>
<path d="M88 146.143C88 113.932 113.84 88 145.937 88H164V123.113C160.339 125.893 157.979 130.33 157.979 135.312V165.751C157.979 170.734 160.339 175.17 164 177.95V201L88 204V146.143Z" fill="#0B0B0B"/>
<path d="M253 146.143C253 113.932 227.16 88 195.063 88H177V123.113C180.661 125.893 183.021 130.33 183.021 135.312V165.751C183.021 170.734 180.661 175.17 177 177.95V201L253 204V146.143Z" fill="#0B0B0B"/>
<path d="M88.0001 264.325V261.585L88 204L164 201C164 206.076 165.423 209.5 170.5 209.5C175.577 209.5 177 206.076 177 201L253 204V261.585V264.325C253 269.074 252.351 273.609 251.287 278.023C251.276 278.08 251.298 278.193 251.287 278.251C243.596 315.825 210.303 344 170.443 344C130.173 344 96.722 315.26 89.4845 277.109C88.571 273.001 88.0001 268.716 88.0001 264.325Z" fill="#0B0B0B"/>
<path d="M146 38H195L170.5 10L146 38Z" fill="#EBEBEB"/>
<path d="M195 394L146 394L170.5 422L195 394Z" fill="#EBEBEB"/>
</svg>
