<svg width="185" height="276" viewBox="0 0 185 276" fill="none" xmlns="http://www.w3.org/2000/svg">
<rect x="72" y="10" width="41" height="130" fill="#EBEBEB"/>
<path d="M10 68.1425C10 35.9317 35.8401 10 67.9373 10H86V45.1135C82.3394 47.8932 79.9791 52.3298 79.9791 57.312V87.7514C79.9791 92.7336 82.3394 97.1702 86 99.9499V123L10 126V68.1425Z" fill="#0B0B0B"/>
<path d="M175 68.1425C175 35.9317 149.16 10 117.063 10H99V45.1135C102.661 47.8932 105.021 52.3298 105.021 57.312V87.7514C105.021 92.7336 102.661 97.1702 99 99.9499V123L175 126V68.1425Z" fill="#0B0B0B"/>
<path d="M10.0001 186.325V183.585L10 126L86 123C86 128.076 87.4227 131.5 92.5 131.5C97.5773 131.5 99 128.076 99 123L175 126V183.585V186.325C175 191.074 174.351 195.609 173.287 200.023C173.276 200.08 173.298 200.193 173.287 200.251C165.596 237.825 132.303 266 92.443 266C52.1732 266 18.722 237.26 11.4845 199.109C10.571 195.001 10.0001 190.716 10.0001 186.325Z" fill="#0B0B0B"/>
<path d="M103 87H82L92.5 99L103 87Z" fill="#0B0B0B"/>
</svg>
