<svg width="56" height="56" viewBox="0 0 56 56" fill="none" xmlns="http://www.w3.org/2000/svg">
<path d="M39 10H17C13.134 10 10 13.134 10 17V39C10 42.866 13.134 46 17 46H39C42.866 46 46 42.866 46 39V17C46 13.134 42.866 10 39 10Z" fill="#EBEBEB"/>
<path d="M32.8594 37L31.6172 32.9219H25.3711L24.1289 37H20.2148L26.2617 19.7969H30.7031L36.7734 37H32.8594ZM30.75 29.875L29.5078 25.8906C29.4297 25.625 29.3242 25.2852 29.1914 24.8711C29.0664 24.4492 28.9375 24.0234 28.8047 23.5938C28.6797 23.1562 28.5781 22.7773 28.5 22.457C28.4219 22.7773 28.3125 23.1758 28.1719 23.6523C28.0391 24.1211 27.9102 24.5664 27.7852 24.9883C27.6602 25.4102 27.5703 25.7109 27.5156 25.8906L26.2852 29.875H30.75Z" fill="#0B0B0B"/>
</svg>
