<svg width="86" height="56" viewBox="0 0 86 56" fill="none" xmlns="http://www.w3.org/2000/svg">
<path d="M69 10H17C13.134 10 10 13.134 10 17V39C10 42.866 13.134 46 17 46H69C72.866 46 76 42.866 76 39V17C76 13.134 72.866 10 69 10Z" fill="#EBEBEB"/>
<path d="M40.4844 34L39.6562 31.2812H35.4922L34.6641 34H32.0547L36.0859 22.5312H39.0469L43.0938 34H40.4844ZM39.0781 29.25L38.25 26.5938C38.1979 26.4167 38.1276 26.1901 38.0391 25.9141C37.9557 25.6328 37.8698 25.349 37.7812 25.0625C37.6979 24.7708 37.6302 24.5182 37.5781 24.3047C37.526 24.5182 37.4531 24.7839 37.3594 25.1016C37.2708 25.4141 37.1849 25.7109 37.1016 25.9922C37.0182 26.2734 36.9583 26.474 36.9219 26.5938L36.1016 29.25H39.0781ZM46.7344 34H44.3516V21.8438H46.7344V34ZM52.9219 32.2578C53.1823 32.2578 53.4349 32.2318 53.6797 32.1797C53.9297 32.1276 54.1771 32.0625 54.4219 31.9844V33.7578C54.1667 33.8724 53.849 33.9661 53.4688 34.0391C53.0938 34.1172 52.6823 34.1562 52.2344 34.1562C51.7135 34.1562 51.2448 34.0729 50.8281 33.9062C50.4167 33.7344 50.0911 33.4401 49.8516 33.0234C49.6172 32.6016 49.5 32.0156 49.5 31.2656V27.0547H48.3594V26.0469L49.6719 25.25L50.3594 23.4062H51.8828V25.2656H54.3281V27.0547H51.8828V31.2656C51.8828 31.599 51.9766 31.849 52.1641 32.0156C52.3568 32.1771 52.6094 32.2578 52.9219 32.2578Z" fill="#0B0B0B"/>
</svg>
