<svg width="56" height="56" viewBox="0 0 56 56" fill="none" xmlns="http://www.w3.org/2000/svg">
<path d="M39 10H17C13.134 10 10 13.134 10 17V39C10 42.866 13.134 46 17 46H39C42.866 46 46 42.866 46 39V17C46 13.134 42.866 10 39 10Z" fill="#EBEBEB"/>
<path d="M22.5938 19.8672H27.9258C30.207 19.8672 31.9336 20.1875 33.1055 20.8281C34.2773 21.4688 34.8633 22.5938 34.8633 24.2031C34.8633 24.8516 34.7578 25.4375 34.5469 25.9609C34.3438 26.4844 34.0469 26.9141 33.6562 27.25C33.2656 27.5859 32.7891 27.8047 32.2266 27.9062V28.0234C32.7969 28.1406 33.3125 28.3438 33.7734 28.6328C34.2344 28.9141 34.6016 29.3281 34.875 29.875C35.1562 30.4141 35.2969 31.1328 35.2969 32.0312C35.2969 33.0703 35.043 33.9609 34.5352 34.7031C34.0273 35.4453 33.3008 36.0156 32.3555 36.4141C31.418 36.8047 30.3008 37 29.0039 37H22.5938V19.8672ZM26.2266 26.6523H28.3359C29.3906 26.6523 30.1211 26.4883 30.5273 26.1602C30.9336 25.8242 31.1367 25.332 31.1367 24.6836C31.1367 24.0273 30.8945 23.5586 30.4102 23.2773C29.9336 22.9883 29.1758 22.8438 28.1367 22.8438H26.2266V26.6523ZM26.2266 29.5352V34H28.5938C29.6875 34 30.4492 33.7891 30.8789 33.3672C31.3086 32.9453 31.5234 32.3789 31.5234 31.668C31.5234 31.2461 31.4297 30.875 31.2422 30.5547C31.0547 30.2344 30.7383 29.9844 30.293 29.8047C29.8555 29.625 29.25 29.5352 28.4766 29.5352H26.2266Z" fill="#0B0B0B"/>
</svg>
