<svg width="56" height="56" viewBox="0 0 56 56" fill="none" xmlns="http://www.w3.org/2000/svg">
<path d="M39 10H17C13.134 10 10 13.134 10 17V39C10 42.866 13.134 46 17 46H39C42.866 46 46 42.866 46 39V17C46 13.134 42.866 10 39 10Z" fill="#EBEBEB"/>
<path d="M29.7812 22.6445C29.0859 22.6445 28.4688 22.7812 27.9297 23.0547C27.3984 23.3203 26.9492 23.707 26.582 24.2148C26.2227 24.7227 25.9492 25.3359 25.7617 26.0547C25.5742 26.7734 25.4805 27.582 25.4805 28.4805C25.4805 29.6914 25.6289 30.7266 25.9258 31.5859C26.2305 32.4375 26.6992 33.0898 27.332 33.543C27.9648 33.9883 28.7812 34.2109 29.7812 34.2109C30.4766 34.2109 31.1719 34.1328 31.8672 33.9766C32.5703 33.8203 33.332 33.5977 34.1523 33.3086V36.3555C33.3945 36.668 32.6484 36.8906 31.9141 37.0234C31.1797 37.1641 30.3555 37.2344 29.4414 37.2344C27.6758 37.2344 26.2227 36.8711 25.082 36.1445C23.9492 35.4102 23.1094 34.3867 22.5625 33.0742C22.0156 31.7539 21.7422 30.2148 21.7422 28.457C21.7422 27.1602 21.918 25.9727 22.2695 24.8945C22.6211 23.8164 23.1367 22.8828 23.8164 22.0938C24.4961 21.3047 25.3359 20.6953 26.3359 20.2656C27.3359 19.8359 28.4844 19.6211 29.7812 19.6211C30.6328 19.6211 31.4844 19.7305 32.3359 19.9492C33.1953 20.1602 34.0156 20.4531 34.7969 20.8281L33.625 23.7812C32.9844 23.4766 32.3398 23.2109 31.6914 22.9844C31.043 22.7578 30.4062 22.6445 29.7812 22.6445Z" fill="#0B0B0B"/>
</svg>
