<svg width="86" height="56" viewBox="0 0 86 56" fill="none" xmlns="http://www.w3.org/2000/svg">
<path d="M69 10H17C13.134 10 10 13.134 10 17V39C10 42.866 13.134 46 17 46H69C72.866 46 76 42.866 76 39V17C76 13.134 72.866 10 69 10Z" fill="#EBEBEB"/>
<path d="M30.3125 24.4297C29.849 24.4297 29.4375 24.5208 29.0781 24.7031C28.724 24.8802 28.4245 25.138 28.1797 25.4766C27.9401 25.8151 27.7578 26.224 27.6328 26.7031C27.5078 27.1823 27.4453 27.7214 27.4453 28.3203C27.4453 29.1276 27.5443 29.8177 27.7422 30.3906C27.9453 30.9583 28.2578 31.3932 28.6797 31.6953C29.1016 31.9922 29.6458 32.1406 30.3125 32.1406C30.776 32.1406 31.2396 32.0885 31.7031 31.9844C32.1719 31.8802 32.6797 31.7318 33.2266 31.5391V33.5703C32.7214 33.7786 32.224 33.9271 31.7344 34.0156C31.2448 34.1094 30.6953 34.1562 30.0859 34.1562C28.9089 34.1562 27.9401 33.9141 27.1797 33.4297C26.4245 32.9401 25.8646 32.2578 25.5 31.3828C25.1354 30.5026 24.9531 29.4766 24.9531 28.3047C24.9531 27.4401 25.0703 26.6484 25.3047 25.9297C25.5391 25.2109 25.8828 24.5885 26.3359 24.0625C26.7891 23.5365 27.349 23.1302 28.0156 22.8438C28.6823 22.5573 29.4479 22.4141 30.3125 22.4141C30.8802 22.4141 31.4479 22.487 32.0156 22.6328C32.5885 22.7734 33.1354 22.9688 33.6562 23.2188L32.875 25.1875C32.4479 24.9844 32.0182 24.8073 31.5859 24.6562C31.1536 24.5052 30.7292 24.4297 30.3125 24.4297ZM39.0547 25.0859C40.2266 25.0859 41.125 25.3411 41.75 25.8516C42.375 26.362 42.6875 27.138 42.6875 28.1797V34H41.0234L40.5625 32.8125H40.5C40.25 33.125 39.9948 33.3802 39.7344 33.5781C39.474 33.776 39.1745 33.9219 38.8359 34.0156C38.4974 34.1094 38.0859 34.1562 37.6016 34.1562C37.0859 34.1562 36.6224 34.0573 36.2109 33.8594C35.8047 33.6615 35.4844 33.3594 35.25 32.9531C35.0156 32.5417 34.8984 32.0208 34.8984 31.3906C34.8984 30.4635 35.224 29.7812 35.875 29.3438C36.526 28.901 37.5026 28.6562 38.8047 28.6094L40.3203 28.5625V28.1797C40.3203 27.7214 40.2005 27.3854 39.9609 27.1719C39.7214 26.9583 39.388 26.8516 38.9609 26.8516C38.5391 26.8516 38.125 26.9115 37.7188 27.0312C37.3125 27.151 36.9062 27.3021 36.5 27.4844L35.7109 25.875C36.1745 25.6302 36.6927 25.4375 37.2656 25.2969C37.8438 25.1562 38.4401 25.0859 39.0547 25.0859ZM40.3203 29.9531L39.3984 29.9844C38.6276 30.0052 38.0911 30.1432 37.7891 30.3984C37.4922 30.6536 37.3438 30.9896 37.3438 31.4062C37.3438 31.7708 37.4505 32.0312 37.6641 32.1875C37.8776 32.3385 38.1562 32.4141 38.5 32.4141C39.0104 32.4141 39.4401 32.263 39.7891 31.9609C40.1432 31.6589 40.3203 31.2292 40.3203 30.6719V29.9531ZM50.0078 25.1016C50.9922 25.1016 51.7865 25.4844 52.3906 26.25C53 27.0156 53.3047 28.138 53.3047 29.6172C53.3047 30.6068 53.1615 31.4401 52.875 32.1172C52.5885 32.7891 52.1927 33.2969 51.6875 33.6406C51.1823 33.9844 50.6016 34.1562 49.9453 34.1562C49.5234 34.1562 49.1615 34.1042 48.8594 34C48.5573 33.8906 48.2995 33.7526 48.0859 33.5859C47.8724 33.4141 47.6875 33.2318 47.5312 33.0391H47.4062C47.4479 33.2474 47.4792 33.4609 47.5 33.6797C47.5208 33.8984 47.5312 34.112 47.5312 34.3203V37.8438H45.1484V25.2656H47.0859L47.4219 26.3984H47.5312C47.6875 26.1641 47.8776 25.9479 48.1016 25.75C48.3255 25.5521 48.5938 25.3958 48.9062 25.2812C49.224 25.1615 49.5911 25.1016 50.0078 25.1016ZM49.2422 27.0078C48.8255 27.0078 48.4948 27.0938 48.25 27.2656C48.0052 27.4375 47.8255 27.6953 47.7109 28.0391C47.6016 28.3828 47.5417 28.8177 47.5312 29.3438V29.6016C47.5312 30.1641 47.5833 30.6406 47.6875 31.0312C47.7969 31.4219 47.9766 31.7188 48.2266 31.9219C48.4818 32.125 48.8307 32.2266 49.2734 32.2266C49.638 32.2266 49.9375 32.125 50.1719 31.9219C50.4062 31.7188 50.5807 31.4219 50.6953 31.0312C50.8151 30.6354 50.875 30.1536 50.875 29.5859C50.875 28.7318 50.7422 28.0885 50.4766 27.6562C50.2109 27.224 49.7995 27.0078 49.2422 27.0078ZM61.3672 31.4062C61.3672 32 61.2266 32.5026 60.9453 32.9141C60.6693 33.3203 60.2552 33.6302 59.7031 33.8438C59.151 34.0521 58.4635 34.1562 57.6406 34.1562C57.0312 34.1562 56.5078 34.1172 56.0703 34.0391C55.638 33.9609 55.2005 33.8307 54.7578 33.6484V31.6797C55.2318 31.8932 55.7396 32.0703 56.2812 32.2109C56.8281 32.3464 57.3073 32.4141 57.7188 32.4141C58.1823 32.4141 58.513 32.3464 58.7109 32.2109C58.9141 32.0703 59.0156 31.888 59.0156 31.6641C59.0156 31.5182 58.974 31.388 58.8906 31.2734C58.8125 31.1536 58.6406 31.0208 58.375 30.875C58.1094 30.724 57.6927 30.5286 57.125 30.2891C56.5781 30.0599 56.1276 29.8281 55.7734 29.5938C55.4245 29.3594 55.1641 29.0833 54.9922 28.7656C54.8255 28.4427 54.7422 28.0339 54.7422 27.5391C54.7422 26.7318 55.0547 26.125 55.6797 25.7188C56.3099 25.3073 57.151 25.1016 58.2031 25.1016C58.7448 25.1016 59.2604 25.1562 59.75 25.2656C60.2448 25.375 60.7526 25.5495 61.2734 25.7891L60.5547 27.5078C60.1224 27.3203 59.7135 27.1667 59.3281 27.0469C58.9479 26.9271 58.5599 26.8672 58.1641 26.8672C57.8151 26.8672 57.5521 26.9141 57.375 27.0078C57.1979 27.1016 57.1094 27.2448 57.1094 27.4375C57.1094 27.5781 57.1536 27.7031 57.2422 27.8125C57.3359 27.9219 57.513 28.0443 57.7734 28.1797C58.0391 28.3099 58.4271 28.4792 58.9375 28.6875C59.4323 28.8906 59.862 29.1042 60.2266 29.3281C60.5911 29.5469 60.8724 29.8203 61.0703 30.1484C61.2682 30.4714 61.3672 30.8906 61.3672 31.4062Z" fill="#0B0B0B"/>
</svg>
