<svg width="56" height="56" viewBox="0 0 56 56" fill="none" xmlns="http://www.w3.org/2000/svg">
<path d="M39 10H17C13.134 10 10 13.134 10 17V39C10 42.866 13.134 46 17 46H39C42.866 46 46 42.866 46 39V17C46 13.134 42.866 10 39 10Z" fill="#EBEBEB"/>
<path d="M35.4883 28.2695C35.4883 30.1992 35.1172 31.8125 34.375 33.1094C33.6406 34.3984 32.5742 35.3711 31.1758 36.0273C29.7773 36.6758 28.0938 37 26.125 37H21.2734V19.8672H26.6523C28.4492 19.8672 30.0078 20.1875 31.3281 20.8281C32.6484 21.4609 33.6719 22.4023 34.3984 23.6523C35.125 24.8945 35.4883 26.4336 35.4883 28.2695ZM31.7148 28.3633C31.7148 27.0977 31.5273 26.0586 31.1523 25.2461C30.7852 24.4258 30.2383 23.8203 29.5117 23.4297C28.793 23.0391 27.9023 22.8438 26.8398 22.8438H24.9062V34H26.4648C28.2383 34 29.5547 33.5273 30.4141 32.582C31.2812 31.6367 31.7148 30.2305 31.7148 28.3633Z" fill="#0B0B0B"/>
</svg>
