<svg width="56" height="56" viewBox="0 0 56 56" fill="none" xmlns="http://www.w3.org/2000/svg">
<path d="M39 10H17C13.134 10 10 13.134 10 17V39C10 42.866 13.134 46 17 46H39C42.866 46 46 42.866 46 39V17C46 13.134 42.866 10 39 10Z" fill="#EBEBEB"/>
<path d="M23.4375 33H16.8594V21.5781H23.4375V23.5625H19.2812V26.0703H23.1484V28.0547H19.2812V31H23.4375V33ZM31.7344 30.4062C31.7344 31 31.5938 31.5026 31.3125 31.9141C31.0365 32.3203 30.6224 32.6302 30.0703 32.8438C29.5182 33.0521 28.8307 33.1562 28.0078 33.1562C27.3984 33.1562 26.875 33.1172 26.4375 33.0391C26.0052 32.9609 25.5677 32.8307 25.125 32.6484V30.6797C25.599 30.8932 26.1068 31.0703 26.6484 31.2109C27.1953 31.3464 27.6745 31.4141 28.0859 31.4141C28.5495 31.4141 28.8802 31.3464 29.0781 31.2109C29.2812 31.0703 29.3828 30.888 29.3828 30.6641C29.3828 30.5182 29.3411 30.388 29.2578 30.2734C29.1797 30.1536 29.0078 30.0208 28.7422 29.875C28.4766 29.724 28.0599 29.5286 27.4922 29.2891C26.9453 29.0599 26.4948 28.8281 26.1406 28.5938C25.7917 28.3594 25.5312 28.0833 25.3594 27.7656C25.1927 27.4427 25.1094 27.0339 25.1094 26.5391C25.1094 25.7318 25.4219 25.125 26.0469 24.7188C26.6771 24.3073 27.5182 24.1016 28.5703 24.1016C29.112 24.1016 29.6276 24.1562 30.1172 24.2656C30.612 24.375 31.1198 24.5495 31.6406 24.7891L30.9219 26.5078C30.4896 26.3203 30.0807 26.1667 29.6953 26.0469C29.3151 25.9271 28.9271 25.8672 28.5312 25.8672C28.1823 25.8672 27.9193 25.9141 27.7422 26.0078C27.5651 26.1016 27.4766 26.2448 27.4766 26.4375C27.4766 26.5781 27.5208 26.7031 27.6094 26.8125C27.7031 26.9219 27.8802 27.0443 28.1406 27.1797C28.4062 27.3099 28.7943 27.4792 29.3047 27.6875C29.7995 27.8906 30.2292 28.1042 30.5938 28.3281C30.9583 28.5469 31.2396 28.8203 31.4375 29.1484C31.6354 29.4714 31.7344 29.8906 31.7344 30.4062ZM37.1406 33.1562C36.276 33.1562 35.5391 33 34.9297 32.6875C34.3203 32.3698 33.8568 31.8802 33.5391 31.2188C33.2214 30.5573 33.0625 29.7109 33.0625 28.6797C33.0625 27.612 33.2422 26.7422 33.6016 26.0703C33.9661 25.3932 34.4688 24.8958 35.1094 24.5781C35.7552 24.2604 36.5026 24.1016 37.3516 24.1016C37.9557 24.1016 38.4766 24.1615 38.9141 24.2812C39.3568 24.3958 39.7422 24.5339 40.0703 24.6953L39.3672 26.5391C38.9922 26.388 38.6432 26.2656 38.3203 26.1719C37.9974 26.0729 37.6745 26.0234 37.3516 26.0234C36.9349 26.0234 36.5885 26.1224 36.3125 26.3203C36.0365 26.513 35.8307 26.8047 35.6953 27.1953C35.5599 27.5859 35.4922 28.0755 35.4922 28.6641C35.4922 29.2422 35.5651 29.7214 35.7109 30.1016C35.8568 30.4818 36.0677 30.7656 36.3438 30.9531C36.6198 31.1354 36.9557 31.2266 37.3516 31.2266C37.8464 31.2266 38.2865 31.1615 38.6719 31.0312C39.0573 30.8958 39.4323 30.7083 39.7969 30.4688V32.5078C39.4323 32.737 39.0495 32.901 38.6484 33C38.2526 33.1042 37.75 33.1562 37.1406 33.1562Z" fill="#0B0B0B"/>
</svg>
