<svg width="56" height="56" viewBox="0 0 56 56" fill="none" xmlns="http://www.w3.org/2000/svg">
<path d="M39 10H17C13.134 10 10 13.134 10 17V39C10 42.866 13.134 46 17 46H39C42.866 46 46 42.866 46 39V17C46 13.134 42.866 10 39 10Z" fill="#EBEBEB"/>
<path d="M27.9648 27.3789H34.7617V36.2617C33.8633 36.5586 32.9297 36.7969 31.9609 36.9766C30.9922 37.1484 29.8945 37.2344 28.668 37.2344C26.9648 37.2344 25.5195 36.8984 24.332 36.2266C23.1445 35.5547 22.2422 34.5625 21.625 33.25C21.0078 31.9375 20.6992 30.3242 20.6992 28.4102C20.6992 26.6133 21.043 25.0586 21.7305 23.7461C22.4258 22.4336 23.4375 21.418 24.7656 20.6992C26.1016 19.9805 27.7305 19.6211 29.6523 19.6211C30.5586 19.6211 31.4531 19.7188 32.3359 19.9141C33.2188 20.1094 34.0195 20.3633 34.7383 20.6758L33.5312 23.582C33.0078 23.3164 32.4102 23.0938 31.7383 22.9141C31.0664 22.7344 30.3633 22.6445 29.6289 22.6445C28.5742 22.6445 27.6562 22.8867 26.875 23.3711C26.1016 23.8555 25.5 24.5352 25.0703 25.4102C24.6484 26.2773 24.4375 27.3008 24.4375 28.4805C24.4375 29.5977 24.5898 30.5898 24.8945 31.457C25.1992 32.3164 25.6797 32.9922 26.3359 33.4844C26.9922 33.9688 27.8477 34.2109 28.9023 34.2109C29.418 34.2109 29.8516 34.1875 30.2031 34.1406C30.5625 34.0859 30.8984 34.0312 31.2109 33.9766V30.4023H27.9648V27.3789Z" fill="#0B0B0B"/>
</svg>
