<svg width="56" height="56" viewBox="0 0 56 56" fill="none" xmlns="http://www.w3.org/2000/svg">
<path d="M39 10H17C13.134 10 10 13.134 10 17V39C10 42.866 13.134 46 17 46H39C42.866 46 46 42.866 46 39V17C46 13.134 42.866 10 39 10Z" fill="#EBEBEB"/>
<path d="M24.3906 42.0391C23.9219 42.0391 23.5117 42.0117 23.1602 41.957C22.8008 41.9102 22.4961 41.8516 22.2461 41.7812V38.7578C22.4961 38.8125 22.7656 38.8633 23.0547 38.9102C23.3359 38.9648 23.6367 38.9922 23.957 38.9922C24.3789 38.9922 24.7578 38.9102 25.0938 38.7461C25.4297 38.5898 25.6953 38.2891 25.8906 37.8438C26.0859 37.3984 26.1836 36.7578 26.1836 35.9219V19.8672H29.8164V35.8984C29.8164 37.3672 29.5859 38.5508 29.125 39.4492C28.6719 40.3555 28.0352 41.0117 27.2148 41.418C26.4023 41.832 25.4609 42.0391 24.3906 42.0391Z" fill="#0B0B0B"/>
</svg>
