<svg width="56" height="56" viewBox="0 0 56 56" fill="none" xmlns="http://www.w3.org/2000/svg">
<path d="M39 10H17C13.134 10 10 13.134 10 17V39C10 42.866 13.134 46 17 46H39C42.866 46 46 42.866 46 39V17C46 13.134 42.866 10 39 10Z" fill="#EBEBEB"/>
<path d="M35.9688 37H31.8438L27.3555 29.7812L25.8203 30.8828V37H22.1875V19.8672H25.8203V27.707C26.0625 27.3711 26.3008 27.0352 26.5352 26.6992C26.7695 26.3633 27.0078 26.0273 27.25 25.6914L31.8906 19.8672H35.9219L29.9453 27.4492L35.9688 37Z" fill="#0B0B0B"/>
</svg>
