<svg width="56" height="56" viewBox="0 0 56 56" fill="none" xmlns="http://www.w3.org/2000/svg">
<path d="M39 10H17C13.134 10 10 13.134 10 17V39C10 42.866 13.134 46 17 46H39C42.866 46 46 42.866 46 39V17C46 13.134 42.866 10 39 10Z" fill="#EBEBEB"/>
<path d="M26.5898 37L22.4648 23.5586H22.3594C22.375 23.8789 22.3984 24.3633 22.4297 25.0117C22.4688 25.6523 22.5039 26.3359 22.5352 27.0625C22.5664 27.7891 22.582 28.4453 22.582 29.0312V37H19.3359V19.8672H24.2812L28.3359 32.9688H28.4062L32.707 19.8672H37.6523V37H34.2656V28.8906C34.2656 28.3516 34.2734 27.7305 34.2891 27.0273C34.3125 26.3242 34.3398 25.6562 34.3711 25.0234C34.4023 24.3828 34.4258 23.9023 34.4414 23.582H34.3359L29.918 37H26.5898Z" fill="#0B0B0B"/>
</svg>
