<svg width="56" height="56" viewBox="0 0 56 56" fill="none" xmlns="http://www.w3.org/2000/svg">
<path d="M39 10H17C13.134 10 10 13.134 10 17V39C10 42.866 13.134 46 17 46H39C42.866 46 46 42.866 46 39V17C46 13.134 42.866 10 39 10Z" fill="#EBEBEB"/>
<path d="M35.5938 37H30.9766L23.5234 24.0391H23.418C23.4492 24.5781 23.4766 25.1211 23.5 25.668C23.5234 26.2148 23.5469 26.7617 23.5703 27.3086C23.5938 27.8477 23.6172 28.3906 23.6406 28.9375V37H20.3945V19.8672H24.9766L32.418 32.6992H32.5C32.4844 32.168 32.4648 31.6406 32.4414 31.1172C32.418 30.5938 32.3945 30.0703 32.3711 29.5469C32.3555 29.0234 32.3398 28.5 32.3242 27.9766V19.8672H35.5938V37Z" fill="#0B0B0B"/>
</svg>
