<svg width="56" height="56" viewBox="0 0 56 56" fill="none" xmlns="http://www.w3.org/2000/svg">
<path d="M39 10H17C13.134 10 10 13.134 10 17V39C10 42.866 13.134 46 17 46H39C42.866 46 46 42.866 46 39V17C46 13.134 42.866 10 39 10Z" fill="#EBEBEB"/>
<path d="M36.1562 28.4102C36.1562 29.7305 35.9922 30.9336 35.6641 32.0195C35.3359 33.0977 34.8359 34.0273 34.1641 34.8086C33.5 35.5898 32.6562 36.1914 31.6328 36.6133C30.6094 37.0273 29.3984 37.2344 28 37.2344C26.6016 37.2344 25.3906 37.0273 24.3672 36.6133C23.3438 36.1914 22.4961 35.5898 21.8242 34.8086C21.1602 34.0273 20.6641 33.0938 20.3359 32.0078C20.0078 30.9219 19.8438 29.7148 19.8438 28.3867C19.8438 26.6133 20.1328 25.0703 20.7109 23.7578C21.2969 22.4375 22.1953 21.4141 23.4062 20.6875C24.6172 19.9609 26.1562 19.5977 28.0234 19.5977C29.8828 19.5977 31.4102 19.9609 32.6055 20.6875C33.8086 21.4141 34.6992 22.4375 35.2773 23.7578C35.8633 25.0781 36.1562 26.6289 36.1562 28.4102ZM23.6523 28.4102C23.6523 29.6055 23.8008 30.6367 24.0977 31.5039C24.4023 32.3633 24.875 33.0273 25.5156 33.4961C26.1562 33.957 26.9844 34.1875 28 34.1875C29.0312 34.1875 29.8672 33.957 30.5078 33.4961C31.1484 33.0273 31.6133 32.3633 31.9023 31.5039C32.1992 30.6367 32.3477 29.6055 32.3477 28.4102C32.3477 26.6133 32.0117 25.1992 31.3398 24.168C30.668 23.1367 29.5625 22.6211 28.0234 22.6211C27 22.6211 26.1641 22.8555 25.5156 23.3242C24.875 23.7852 24.4023 24.4492 24.0977 25.3164C23.8008 26.1758 23.6523 27.207 23.6523 28.4102Z" fill="#0B0B0B"/>
</svg>
