<svg width="56" height="56" viewBox="0 0 56 56" fill="none" xmlns="http://www.w3.org/2000/svg">
<path d="M39 10H17C13.134 10 10 13.134 10 17V39C10 42.866 13.134 46 17 46H39C42.866 46 46 42.866 46 39V17C46 13.134 42.866 10 39 10Z" fill="#EBEBEB"/>
<path d="M28.0938 19.8672C30.3047 19.8672 31.918 20.3438 32.9336 21.2969C33.9492 22.2422 34.457 23.5469 34.457 25.2109C34.457 25.9609 34.3438 26.6797 34.1172 27.3672C33.8906 28.0469 33.5195 28.6523 33.0039 29.1836C32.4961 29.7148 31.8164 30.1367 30.9648 30.4492C30.1133 30.7539 29.0625 30.9062 27.8125 30.9062H26.2539V37H22.6211V19.8672H28.0938ZM27.9062 22.8438H26.2539V27.9297H27.4492C28.1289 27.9297 28.7188 27.8398 29.2188 27.6602C29.7188 27.4805 30.1055 27.1992 30.3789 26.8164C30.6523 26.4336 30.7891 25.9414 30.7891 25.3398C30.7891 24.4961 30.5547 23.8711 30.0859 23.4648C29.6172 23.0508 28.8906 22.8438 27.9062 22.8438Z" fill="#0B0B0B"/>
</svg>
