<svg width="56" height="56" viewBox="0 0 56 56" fill="none" xmlns="http://www.w3.org/2000/svg">
<path d="M39 10H17C13.134 10 10 13.134 10 17V39C10 42.866 13.134 46 17 46H39C42.866 46 46 42.866 46 39V17C46 13.134 42.866 10 39 10Z" fill="#EBEBEB"/>
<path d="M27.2266 19.8672C28.7812 19.8672 30.0625 20.0547 31.0703 20.4297C32.0859 20.8047 32.8398 21.3711 33.332 22.1289C33.8242 22.8867 34.0703 23.8438 34.0703 25C34.0703 25.7812 33.9219 26.4648 33.625 27.0508C33.3281 27.6367 32.9375 28.1328 32.4531 28.5391C31.9688 28.9453 31.4453 29.2773 30.8828 29.5352L35.9219 37H31.8906L27.8008 30.4258H25.8672V37H22.2344V19.8672H27.2266ZM26.9688 22.8438H25.8672V27.4727H27.0391C28.2422 27.4727 29.1016 27.2734 29.6172 26.875C30.1406 26.4688 30.4023 25.875 30.4023 25.0938C30.4023 24.2812 30.1211 23.7031 29.5586 23.3594C29.0039 23.0156 28.1406 22.8438 26.9688 22.8438Z" fill="#0B0B0B"/>
</svg>
