<svg width="56" height="56" viewBox="0 0 56 56" fill="none" xmlns="http://www.w3.org/2000/svg">
<path d="M39 10H17C13.134 10 10 13.134 10 17V39C10 42.866 13.134 46 17 46H39C42.866 46 46 42.866 46 39V17C46 13.134 42.866 10 39 10Z" fill="#EBEBEB"/>
<path d="M33.6602 32.2422C33.6602 33.2578 33.4141 34.1406 32.9219 34.8906C32.4297 35.6406 31.7109 36.2188 30.7656 36.625C29.8281 37.0312 28.6875 37.2344 27.3438 37.2344C26.75 37.2344 26.168 37.1953 25.5977 37.1172C25.0352 37.0391 24.4922 36.9258 23.9688 36.7773C23.4531 36.6211 22.9609 36.4297 22.4922 36.2031V32.8281C23.3047 33.1875 24.1484 33.5117 25.0234 33.8008C25.8984 34.0898 26.7656 34.2344 27.625 34.2344C28.2188 34.2344 28.6953 34.1562 29.0547 34C29.4219 33.8438 29.6875 33.6289 29.8516 33.3555C30.0156 33.082 30.0977 32.7695 30.0977 32.418C30.0977 31.9883 29.9531 31.6211 29.6641 31.3164C29.375 31.0117 28.9766 30.7266 28.4688 30.4609C27.9688 30.1953 27.4023 29.9102 26.7695 29.6055C26.3711 29.418 25.9375 29.1914 25.4688 28.9258C25 28.6523 24.5547 28.3203 24.1328 27.9297C23.7109 27.5391 23.3633 27.0664 23.0898 26.5117C22.8242 25.9492 22.6914 25.2773 22.6914 24.4961C22.6914 23.4727 22.9258 22.5977 23.3945 21.8711C23.8633 21.1445 24.5312 20.5898 25.3984 20.207C26.2734 19.8164 27.3047 19.6211 28.4922 19.6211C29.3828 19.6211 30.2305 19.7266 31.0352 19.9375C31.8477 20.1406 32.6953 20.4375 33.5781 20.8281L32.4062 23.6523C31.6172 23.332 30.9102 23.0859 30.2852 22.9141C29.6602 22.7344 29.0234 22.6445 28.375 22.6445C27.9219 22.6445 27.5352 22.7188 27.2148 22.8672C26.8945 23.0078 26.6523 23.2109 26.4883 23.4766C26.3242 23.7344 26.2422 24.0352 26.2422 24.3789C26.2422 24.7852 26.3594 25.1289 26.5938 25.4102C26.8359 25.6836 27.1953 25.9492 27.6719 26.207C28.1562 26.4648 28.7578 26.7656 29.4766 27.1094C30.3516 27.5234 31.0977 27.957 31.7148 28.4102C32.3398 28.8555 32.8203 29.3828 33.1562 29.9922C33.4922 30.5938 33.6602 31.3438 33.6602 32.2422Z" fill="#0B0B0B"/>
</svg>
