<svg width="86" height="56" viewBox="0 0 86 56" fill="none" xmlns="http://www.w3.org/2000/svg">
<path d="M69 10H17C13.134 10 10 13.134 10 17V39C10 42.866 13.134 46 17 46H69C72.866 46 76 42.866 76 39V17C76 13.134 72.866 10 69 10Z" fill="#EBEBEB"/>
<path d="M32.4922 30.8281C32.4922 31.5052 32.3281 32.0938 32 32.5938C31.6719 33.0938 31.1927 33.4792 30.5625 33.75C29.9375 34.0208 29.1771 34.1562 28.2812 34.1562C27.8854 34.1562 27.4974 34.1302 27.1172 34.0781C26.7422 34.026 26.3802 33.9505 26.0312 33.8516C25.6875 33.7474 25.3594 33.6198 25.0469 33.4688V31.2188C25.5885 31.4583 26.151 31.6745 26.7344 31.8672C27.3177 32.0599 27.8958 32.1562 28.4688 32.1562C28.8646 32.1562 29.1823 32.1042 29.4219 32C29.6667 31.8958 29.8438 31.7526 29.9531 31.5703C30.0625 31.388 30.1172 31.1797 30.1172 30.9453C30.1172 30.6589 30.0208 30.4141 29.8281 30.2109C29.6354 30.0078 29.3698 29.8177 29.0312 29.6406C28.6979 29.4635 28.3203 29.2734 27.8984 29.0703C27.6328 28.9453 27.3438 28.7943 27.0312 28.6172C26.7188 28.4349 26.4219 28.2135 26.1406 27.9531C25.8594 27.6927 25.6276 27.3776 25.4453 27.0078C25.2682 26.6328 25.1797 26.1849 25.1797 25.6641C25.1797 24.9818 25.3359 24.3984 25.6484 23.9141C25.9609 23.4297 26.4062 23.0599 26.9844 22.8047C27.5677 22.5443 28.2552 22.4141 29.0469 22.4141C29.6406 22.4141 30.2057 22.4844 30.7422 22.625C31.2839 22.7604 31.849 22.9583 32.4375 23.2188L31.6562 25.1016C31.1302 24.888 30.6589 24.724 30.2422 24.6094C29.8255 24.4896 29.401 24.4297 28.9688 24.4297C28.6667 24.4297 28.4089 24.4792 28.1953 24.5781C27.9818 24.6719 27.8203 24.8073 27.7109 24.9844C27.6016 25.1562 27.5469 25.3568 27.5469 25.5859C27.5469 25.8568 27.625 26.0859 27.7812 26.2734C27.9427 26.4557 28.1823 26.6328 28.5 26.8047C28.8229 26.9766 29.224 27.1771 29.7031 27.4062C30.2865 27.6823 30.7839 27.9714 31.1953 28.2734C31.612 28.5703 31.9323 28.9219 32.1562 29.3281C32.3802 29.7292 32.4922 30.2292 32.4922 30.8281ZM36.7578 21.8438V24.3203C36.7578 24.7526 36.7422 25.1641 36.7109 25.5547C36.6849 25.9453 36.6641 26.2214 36.6484 26.3828H36.7734C36.9609 26.0807 37.1823 25.8359 37.4375 25.6484C37.6979 25.4609 37.9844 25.3229 38.2969 25.2344C38.6094 25.1458 38.9453 25.1016 39.3047 25.1016C39.9349 25.1016 40.4844 25.2135 40.9531 25.4375C41.4219 25.6562 41.7865 26.0026 42.0469 26.4766C42.3073 26.9453 42.4375 27.5547 42.4375 28.3047V34H40.0547V28.8984C40.0547 28.2734 39.9401 27.8021 39.7109 27.4844C39.4818 27.1667 39.1276 27.0078 38.6484 27.0078C38.1693 27.0078 37.7917 27.1198 37.5156 27.3438C37.2396 27.5625 37.0443 27.888 36.9297 28.3203C36.8151 28.7474 36.7578 29.2708 36.7578 29.8906V34H34.375V21.8438H36.7578ZM47.2734 25.2656V34H44.8906V25.2656H47.2734ZM46.0859 21.8438C46.4401 21.8438 46.7448 21.9271 47 22.0938C47.2552 22.2552 47.3828 22.5599 47.3828 23.0078C47.3828 23.4505 47.2552 23.7578 47 23.9297C46.7448 24.0964 46.4401 24.1797 46.0859 24.1797C45.7266 24.1797 45.4193 24.0964 45.1641 23.9297C44.9141 23.7578 44.7891 23.4505 44.7891 23.0078C44.7891 22.5599 44.9141 22.2552 45.1641 22.0938C45.4193 21.9271 45.7266 21.8438 46.0859 21.8438ZM54.6094 27.0547H52.5469V34H50.1641V27.0547H48.8516V25.9062L50.1641 25.2656V24.625C50.1641 23.8802 50.2891 23.3021 50.5391 22.8906C50.7943 22.474 51.151 22.1823 51.6094 22.0156C52.0729 21.8438 52.6198 21.7578 53.25 21.7578C53.7135 21.7578 54.1354 21.7969 54.5156 21.875C54.8958 21.9479 55.2057 22.0312 55.4453 22.125L54.8359 23.875C54.6536 23.8177 54.4557 23.7656 54.2422 23.7188C54.0286 23.6719 53.7839 23.6484 53.5078 23.6484C53.1745 23.6484 52.9297 23.75 52.7734 23.9531C52.6224 24.151 52.5469 24.4062 52.5469 24.7188V25.2656H54.6094V27.0547ZM59.6641 32.2578C59.9245 32.2578 60.1771 32.2318 60.4219 32.1797C60.6719 32.1276 60.9193 32.0625 61.1641 31.9844V33.7578C60.9089 33.8724 60.5911 33.9661 60.2109 34.0391C59.8359 34.1172 59.4245 34.1562 58.9766 34.1562C58.4557 34.1562 57.987 34.0729 57.5703 33.9062C57.1589 33.7344 56.8333 33.4401 56.5938 33.0234C56.3594 32.6016 56.2422 32.0156 56.2422 31.2656V27.0547H55.1016V26.0469L56.4141 25.25L57.1016 23.4062H58.625V25.2656H61.0703V27.0547H58.625V31.2656C58.625 31.599 58.7188 31.849 58.9062 32.0156C59.099 32.1771 59.3516 32.2578 59.6641 32.2578Z" fill="#0B0B0B"/>
</svg>
