<svg width="86" height="56" viewBox="0 0 86 56" fill="none" xmlns="http://www.w3.org/2000/svg">
<path d="M69 10H17C13.134 10 10 13.134 10 17V39C10 42.866 13.134 46 17 46H69C72.866 46 76 42.866 76 39V17C76 13.134 72.866 10 69 10Z" fill="#EBEBEB"/>
<path d="M28.5312 30.8281C28.5312 31.5052 28.3672 32.0938 28.0391 32.5938C27.7109 33.0938 27.2318 33.4792 26.6016 33.75C25.9766 34.0208 25.2161 34.1562 24.3203 34.1562C23.9245 34.1562 23.5365 34.1302 23.1562 34.0781C22.7812 34.026 22.4193 33.9505 22.0703 33.8516C21.7266 33.7474 21.3984 33.6198 21.0859 33.4688V31.2188C21.6276 31.4583 22.1901 31.6745 22.7734 31.8672C23.3568 32.0599 23.9349 32.1562 24.5078 32.1562C24.9036 32.1562 25.2214 32.1042 25.4609 32C25.7057 31.8958 25.8828 31.7526 25.9922 31.5703C26.1016 31.388 26.1562 31.1797 26.1562 30.9453C26.1562 30.6589 26.0599 30.4141 25.8672 30.2109C25.6745 30.0078 25.4089 29.8177 25.0703 29.6406C24.737 29.4635 24.3594 29.2734 23.9375 29.0703C23.6719 28.9453 23.3828 28.7943 23.0703 28.6172C22.7578 28.4349 22.4609 28.2135 22.1797 27.9531C21.8984 27.6927 21.6667 27.3776 21.4844 27.0078C21.3073 26.6328 21.2188 26.1849 21.2188 25.6641C21.2188 24.9818 21.375 24.3984 21.6875 23.9141C22 23.4297 22.4453 23.0599 23.0234 22.8047C23.6068 22.5443 24.2943 22.4141 25.0859 22.4141C25.6797 22.4141 26.2448 22.4844 26.7812 22.625C27.3229 22.7604 27.888 22.9583 28.4766 23.2188L27.6953 25.1016C27.1693 24.888 26.6979 24.724 26.2812 24.6094C25.8646 24.4896 25.4401 24.4297 25.0078 24.4297C24.7057 24.4297 24.4479 24.4792 24.2344 24.5781C24.0208 24.6719 23.8594 24.8073 23.75 24.9844C23.6406 25.1562 23.5859 25.3568 23.5859 25.5859C23.5859 25.8568 23.6641 26.0859 23.8203 26.2734C23.9818 26.4557 24.2214 26.6328 24.5391 26.8047C24.862 26.9766 25.263 27.1771 25.7422 27.4062C26.3255 27.6823 26.8229 27.9714 27.2344 28.2734C27.651 28.5703 27.9714 28.9219 28.1953 29.3281C28.4193 29.7292 28.5312 30.2292 28.5312 30.8281ZM35.2734 25.1016C36.2578 25.1016 37.0521 25.4844 37.6562 26.25C38.2656 27.0156 38.5703 28.138 38.5703 29.6172C38.5703 30.6068 38.4271 31.4401 38.1406 32.1172C37.8542 32.7891 37.4583 33.2969 36.9531 33.6406C36.4479 33.9844 35.8672 34.1562 35.2109 34.1562C34.7891 34.1562 34.4271 34.1042 34.125 34C33.8229 33.8906 33.5651 33.7526 33.3516 33.5859C33.138 33.4141 32.9531 33.2318 32.7969 33.0391H32.6719C32.7135 33.2474 32.7448 33.4609 32.7656 33.6797C32.7865 33.8984 32.7969 34.112 32.7969 34.3203V37.8438H30.4141V25.2656H32.3516L32.6875 26.3984H32.7969C32.9531 26.1641 33.1432 25.9479 33.3672 25.75C33.5911 25.5521 33.8594 25.3958 34.1719 25.2812C34.4896 25.1615 34.8568 25.1016 35.2734 25.1016ZM34.5078 27.0078C34.0911 27.0078 33.7604 27.0938 33.5156 27.2656C33.2708 27.4375 33.0911 27.6953 32.9766 28.0391C32.8672 28.3828 32.8073 28.8177 32.7969 29.3438V29.6016C32.7969 30.1641 32.849 30.6406 32.9531 31.0312C33.0625 31.4219 33.2422 31.7188 33.4922 31.9219C33.7474 32.125 34.0964 32.2266 34.5391 32.2266C34.9036 32.2266 35.2031 32.125 35.4375 31.9219C35.6719 31.7188 35.8464 31.4219 35.9609 31.0312C36.0807 30.6354 36.1406 30.1536 36.1406 29.5859C36.1406 28.7318 36.0078 28.0885 35.7422 27.6562C35.4766 27.224 35.0651 27.0078 34.5078 27.0078ZM44.1172 25.0859C45.2891 25.0859 46.1875 25.3411 46.8125 25.8516C47.4375 26.362 47.75 27.138 47.75 28.1797V34H46.0859L45.625 32.8125H45.5625C45.3125 33.125 45.0573 33.3802 44.7969 33.5781C44.5365 33.776 44.237 33.9219 43.8984 34.0156C43.5599 34.1094 43.1484 34.1562 42.6641 34.1562C42.1484 34.1562 41.6849 34.0573 41.2734 33.8594C40.8672 33.6615 40.5469 33.3594 40.3125 32.9531C40.0781 32.5417 39.9609 32.0208 39.9609 31.3906C39.9609 30.4635 40.2865 29.7812 40.9375 29.3438C41.5885 28.901 42.5651 28.6562 43.8672 28.6094L45.3828 28.5625V28.1797C45.3828 27.7214 45.263 27.3854 45.0234 27.1719C44.7839 26.9583 44.4505 26.8516 44.0234 26.8516C43.6016 26.8516 43.1875 26.9115 42.7812 27.0312C42.375 27.151 41.9688 27.3021 41.5625 27.4844L40.7734 25.875C41.237 25.6302 41.7552 25.4375 42.3281 25.2969C42.9062 25.1562 43.5026 25.0859 44.1172 25.0859ZM45.3828 29.9531L44.4609 29.9844C43.6901 30.0052 43.1536 30.1432 42.8516 30.3984C42.5547 30.6536 42.4062 30.9896 42.4062 31.4062C42.4062 31.7708 42.513 32.0312 42.7266 32.1875C42.9401 32.3385 43.2188 32.4141 43.5625 32.4141C44.0729 32.4141 44.5026 32.263 44.8516 31.9609C45.2057 31.6589 45.3828 31.2292 45.3828 30.6719V29.9531ZM53.7578 34.1562C52.8932 34.1562 52.1562 34 51.5469 33.6875C50.9375 33.3698 50.474 32.8802 50.1562 32.2188C49.8385 31.5573 49.6797 30.7109 49.6797 29.6797C49.6797 28.612 49.8594 27.7422 50.2188 27.0703C50.5833 26.3932 51.0859 25.8958 51.7266 25.5781C52.3724 25.2604 53.1198 25.1016 53.9688 25.1016C54.5729 25.1016 55.0938 25.1615 55.5312 25.2812C55.974 25.3958 56.3594 25.5339 56.6875 25.6953L55.9844 27.5391C55.6094 27.388 55.2604 27.2656 54.9375 27.1719C54.6146 27.0729 54.2917 27.0234 53.9688 27.0234C53.5521 27.0234 53.2057 27.1224 52.9297 27.3203C52.6536 27.513 52.4479 27.8047 52.3125 28.1953C52.1771 28.5859 52.1094 29.0755 52.1094 29.6641C52.1094 30.2422 52.1823 30.7214 52.3281 31.1016C52.474 31.4818 52.6849 31.7656 52.9609 31.9531C53.237 32.1354 53.5729 32.2266 53.9688 32.2266C54.4635 32.2266 54.9036 32.1615 55.2891 32.0312C55.6745 31.8958 56.0495 31.7083 56.4141 31.4688V33.5078C56.0495 33.737 55.6667 33.901 55.2656 34C54.8698 34.1042 54.3672 34.1562 53.7578 34.1562ZM62.0469 25.1016C62.8542 25.1016 63.5495 25.2578 64.1328 25.5703C64.7161 25.8776 65.1667 26.3255 65.4844 26.9141C65.8021 27.5026 65.9609 28.2214 65.9609 29.0703V30.2266H60.3281C60.3542 30.8984 60.5547 31.4271 60.9297 31.8125C61.3099 32.1927 61.8359 32.3828 62.5078 32.3828C63.0651 32.3828 63.5755 32.3255 64.0391 32.2109C64.5026 32.0964 64.9792 31.9245 65.4688 31.6953V33.5391C65.0365 33.7526 64.5833 33.9089 64.1094 34.0078C63.6406 34.1068 63.0703 34.1562 62.3984 34.1562C61.5234 34.1562 60.7474 33.9948 60.0703 33.6719C59.3984 33.349 58.8698 32.8568 58.4844 32.1953C58.1042 31.5339 57.9141 30.7005 57.9141 29.6953C57.9141 28.6745 58.0859 27.8255 58.4297 27.1484C58.7786 26.4661 59.263 25.9557 59.8828 25.6172C60.5026 25.2734 61.224 25.1016 62.0469 25.1016ZM62.0625 26.7969C61.599 26.7969 61.2135 26.9453 60.9062 27.2422C60.6042 27.5391 60.4297 28.0052 60.3828 28.6406H63.7266C63.7214 28.2865 63.6562 27.9714 63.5312 27.6953C63.4115 27.4193 63.2292 27.2005 62.9844 27.0391C62.7448 26.8776 62.4375 26.7969 62.0625 26.7969Z" fill="#0B0B0B"/>
</svg>
