<svg width="86" height="56" viewBox="0 0 86 56" fill="none" xmlns="http://www.w3.org/2000/svg">
<path d="M69 10H17C13.134 10 10 13.134 10 17V39C10 42.866 13.134 46 17 46H69C72.866 46 76 42.866 76 39V17C76 13.134 72.866 10 69 10Z" fill="#EBEBEB"/>
<path d="M34.3125 34H31.8906V24.5938H28.7891V22.5781H37.4141V24.5938H34.3125V34ZM42.5625 25.0859C43.7344 25.0859 44.6328 25.3411 45.2578 25.8516C45.8828 26.362 46.1953 27.138 46.1953 28.1797V34H44.5312L44.0703 32.8125H44.0078C43.7578 33.125 43.5026 33.3802 43.2422 33.5781C42.9818 33.776 42.6823 33.9219 42.3438 34.0156C42.0052 34.1094 41.5938 34.1562 41.1094 34.1562C40.5938 34.1562 40.1302 34.0573 39.7188 33.8594C39.3125 33.6615 38.9922 33.3594 38.7578 32.9531C38.5234 32.5417 38.4062 32.0208 38.4062 31.3906C38.4062 30.4635 38.7318 29.7812 39.3828 29.3438C40.0339 28.901 41.0104 28.6562 42.3125 28.6094L43.8281 28.5625V28.1797C43.8281 27.7214 43.7083 27.3854 43.4688 27.1719C43.2292 26.9583 42.8958 26.8516 42.4688 26.8516C42.0469 26.8516 41.6328 26.9115 41.2266 27.0312C40.8203 27.151 40.4141 27.3021 40.0078 27.4844L39.2188 25.875C39.6823 25.6302 40.2005 25.4375 40.7734 25.2969C41.3516 25.1562 41.9479 25.0859 42.5625 25.0859ZM43.8281 29.9531L42.9062 29.9844C42.1354 30.0052 41.599 30.1432 41.2969 30.3984C41 30.6536 40.8516 30.9896 40.8516 31.4062C40.8516 31.7708 40.9583 32.0312 41.1719 32.1875C41.3854 32.3385 41.6641 32.4141 42.0078 32.4141C42.5182 32.4141 42.9479 32.263 43.2969 31.9609C43.651 31.6589 43.8281 31.2292 43.8281 30.6719V29.9531ZM51.0391 21.8438V24.6719C51.0391 25 51.0286 25.3255 51.0078 25.6484C50.9922 25.9714 50.9714 26.2214 50.9453 26.3984H51.0391C51.2682 26.0391 51.5807 25.7344 51.9766 25.4844C52.3724 25.2292 52.8854 25.1016 53.5156 25.1016C54.4948 25.1016 55.2891 25.4844 55.8984 26.25C56.5078 27.0156 56.8125 28.138 56.8125 29.6172C56.8125 30.612 56.6719 31.4479 56.3906 32.125C56.1094 32.7969 55.7161 33.3047 55.2109 33.6484C54.7057 33.987 54.1198 34.1562 53.4531 34.1562C52.8125 34.1562 52.3073 34.0417 51.9375 33.8125C51.5677 33.5833 51.2682 33.3255 51.0391 33.0391H50.875L50.4766 34H48.6562V21.8438H51.0391ZM52.75 27.0078C52.3333 27.0078 52.0026 27.0938 51.7578 27.2656C51.513 27.4375 51.3333 27.6953 51.2188 28.0391C51.1094 28.3828 51.0495 28.8177 51.0391 29.3438V29.6016C51.0391 30.4505 51.1641 31.1016 51.4141 31.5547C51.6641 32.0026 52.1198 32.2266 52.7812 32.2266C53.2708 32.2266 53.6589 32 53.9453 31.5469C54.237 31.0938 54.3828 30.4401 54.3828 29.5859C54.3828 28.7318 54.237 28.0885 53.9453 27.6562C53.6536 27.224 53.2552 27.0078 52.75 27.0078Z" fill="#0B0B0B"/>
</svg>
