<svg width="56" height="56" viewBox="0 0 56 56" fill="none" xmlns="http://www.w3.org/2000/svg">
<path d="M39 10H17C13.134 10 10 13.134 10 17V39C10 42.866 13.134 46 17 46H39C42.866 46 46 42.866 46 39V17C46 13.134 42.866 10 39 10Z" fill="#EBEBEB"/>
<path d="M35.5312 19.8672V30.9531C35.5312 32.1328 35.2695 33.1992 34.7461 34.1523C34.2305 35.0977 33.4453 35.8477 32.3906 36.4023C31.3438 36.957 30.0234 37.2344 28.4297 37.2344C26.1641 37.2344 24.4375 36.6562 23.25 35.5C22.0625 34.3438 21.4688 32.8125 21.4688 30.9062V19.8672H25.0898V30.3555C25.0898 31.7695 25.3789 32.7617 25.957 33.332C26.5352 33.9023 27.3906 34.1875 28.5234 34.1875C29.3203 34.1875 29.9648 34.0508 30.457 33.7773C30.957 33.5039 31.3242 33.082 31.5586 32.5117C31.793 31.9414 31.9102 31.2148 31.9102 30.332V19.8672H35.5312Z" fill="#0B0B0B"/>
</svg>
