<svg width="56" height="56" viewBox="0 0 56 56" fill="none" xmlns="http://www.w3.org/2000/svg">
<path d="M39 10H17C13.134 10 10 13.134 10 17V39C10 42.866 13.134 46 17 46H39C42.866 46 46 42.866 46 39V17C46 13.134 42.866 10 39 10Z" fill="#EBEBEB"/>
<path d="M35.793 19.8672L29.9688 37H26.0078L20.1953 19.8672H23.8633L27.0859 30.0625C27.1406 30.2344 27.2305 30.5586 27.3555 31.0352C27.4805 31.5039 27.6055 32.0039 27.7305 32.5352C27.8633 33.0586 27.9531 33.4922 28 33.8359C28.0469 33.4922 28.1289 33.0586 28.2461 32.5352C28.3711 32.0117 28.4922 31.5156 28.6094 31.0469C28.7344 30.5703 28.8242 30.2422 28.8789 30.0625L32.125 19.8672H35.793Z" fill="#0B0B0B"/>
</svg>
