<svg width="56" height="56" viewBox="0 0 56 56" fill="none" xmlns="http://www.w3.org/2000/svg">
<path d="M39 10H17C13.134 10 10 13.134 10 17V39C10 42.866 13.134 46 17 46H39C42.866 46 46 42.866 46 39V17C46 13.134 42.866 10 39 10Z" fill="#EBEBEB"/>
<path d="M39.6016 19.8672L35.2422 37H31.1055L28.7852 28C28.7383 27.8281 28.6758 27.5664 28.5977 27.2148C28.5195 26.8633 28.4375 26.4805 28.3516 26.0664C28.2656 25.6445 28.1875 25.25 28.1172 24.8828C28.0547 24.5078 28.0117 24.2109 27.9883 23.9922C27.9648 24.2109 27.918 24.5039 27.8477 24.8711C27.7852 25.2383 27.7109 25.6289 27.625 26.043C27.5469 26.457 27.4688 26.8438 27.3906 27.2031C27.3125 27.5625 27.25 27.8359 27.2031 28.0234L24.8945 37H20.7695L16.3984 19.8672H19.9727L22.1641 29.2188C22.2266 29.5 22.2969 29.8359 22.375 30.2266C22.4609 30.6172 22.543 31.0273 22.6211 31.457C22.707 31.8789 22.7812 32.2891 22.8438 32.6875C22.9141 33.0781 22.9648 33.418 22.9961 33.707C23.0352 33.4102 23.0859 33.0664 23.1484 32.6758C23.2109 32.2773 23.2773 31.875 23.3477 31.4688C23.4258 31.0547 23.5039 30.6719 23.582 30.3203C23.6602 29.9688 23.7305 29.6836 23.793 29.4648L26.2891 19.8672H29.7227L32.2188 29.4648C32.2734 29.6758 32.3359 29.9609 32.4062 30.3203C32.4844 30.6719 32.5625 31.0547 32.6406 31.4688C32.7188 31.8828 32.7891 32.2891 32.8516 32.6875C32.9219 33.0781 32.9727 33.418 33.0039 33.707C33.0586 33.3164 33.1328 32.8438 33.2266 32.2891C33.3281 31.7266 33.4336 31.168 33.543 30.6133C33.6602 30.0586 33.7617 29.5938 33.8477 29.2188L36.0273 19.8672H39.6016Z" fill="#0B0B0B"/>
</svg>
