<svg width="656" height="256" viewBox="0 0 656 256" fill="none" xmlns="http://www.w3.org/2000/svg">
<g clip-path="url(#clip0_378_877)">
<path d="M645.6 0.5H10.5C4.97715 0.5 0.5 4.97715 0.5 10.5V245.5C0.5 251.023 4.97715 255.5 10.5 255.5H645.6C651.123 255.5 655.6 251.023 655.6 245.5V10.5C655.6 4.97715 651.123 0.5 645.6 0.5Z" fill="#242424"/>
<path d="M39 50H17C13.134 50 10 53.134 10 57V79C10 82.866 13.134 86 17 86H39C42.866 86 46 82.866 46 79V57C46 53.134 42.866 50 39 50Z" fill="white"/>
<path d="M139 90H117C113.134 90 110 93.134 110 97V119C110 122.866 113.134 126 117 126H139C142.866 126 146 122.866 146 119V97C146 93.134 142.866 90 139 90Z" fill="white"/>
<path d="M179 90H157C153.134 90 150 93.134 150 97V119C150 122.866 153.134 126 157 126H179C182.866 126 186 122.866 186 119V97C186 93.134 182.866 90 179 90Z" fill="white"/>
<path d="M219 90H197C193.134 90 190 93.134 190 97V119C190 122.866 193.134 126 197 126H219C222.866 126 226 122.866 226 119V97C226 93.134 222.866 90 219 90Z" fill="white"/>
<path d="M259 90H237C233.134 90 230 93.134 230 97V119C230 122.866 233.134 126 237 126H259C262.866 126 266 122.866 266 119V97C266 93.134 262.866 90 259 90Z" fill="white"/>
<path d="M299 90H277C273.134 90 270 93.134 270 97V119C270 122.866 273.134 126 277 126H299C302.866 126 306 122.866 306 119V97C306 93.134 302.866 90 299 90Z" fill="white"/>
<path d="M339 90H317C313.134 90 310 93.134 310 97V119C310 122.866 313.134 126 317 126H339C342.866 126 346 122.866 346 119V97C346 93.134 342.866 90 339 90Z" fill="white"/>
<path d="M379 90H357C353.134 90 350 93.134 350 97V119C350 122.866 353.134 126 357 126H379C382.866 126 386 122.866 386 119V97C386 93.134 382.866 90 379 90Z" fill="white"/>
<path d="M419 90H397C393.134 90 390 93.134 390 97V119C390 122.866 393.134 126 397 126H419C422.866 126 426 122.866 426 119V97C426 93.134 422.866 90 419 90Z" fill="white"/>
<path d="M459 90H437C433.134 90 430 93.134 430 97V119C430 122.866 433.134 126 437 126H459C462.866 126 466 122.866 466 119V97C466 93.134 462.866 90 459 90Z" fill="white"/>
<path d="M499 90H477C473.134 90 470 93.134 470 97V119C470 122.866 473.134 126 477 126H499C502.866 126 506 122.866 506 119V97C506 93.134 502.866 90 499 90Z" fill="white"/>
<path d="M539 90H517C513.134 90 510 93.134 510 97V119C510 122.866 513.134 126 517 126H539C542.866 126 546 122.866 546 119V97C546 93.134 542.866 90 539 90Z" fill="white"/>
<path d="M109 130H87C83.134 130 80 133.134 80 137V159C80 162.866 83.134 166 87 166H109C112.866 166 116 162.866 116 159V137C116 133.134 112.866 130 109 130Z" fill="white"/>
<path d="M149 130H127C123.134 130 120 133.134 120 137V159C120 162.866 123.134 166 127 166H149C152.866 166 156 162.866 156 159V137C156 133.134 152.866 130 149 130Z" fill="white"/>
<path d="M189 130H167C163.134 130 160 133.134 160 137V159C160 162.866 163.134 166 167 166H189C192.866 166 196 162.866 196 159V137C196 133.134 192.866 130 189 130Z" fill="white"/>
<path d="M229 130H207C203.134 130 200 133.134 200 137V159C200 162.866 203.134 166 207 166H229C232.866 166 236 162.866 236 159V137C236 133.134 232.866 130 229 130Z" fill="white"/>
<path d="M269 130H247C243.134 130 240 133.134 240 137V159C240 162.866 243.134 166 247 166H269C272.866 166 276 162.866 276 159V137C276 133.134 272.866 130 269 130Z" fill="white"/>
<path d="M309 130H287C283.134 130 280 133.134 280 137V159C280 162.866 283.134 166 287 166H309C312.866 166 316 162.866 316 159V137C316 133.134 312.866 130 309 130Z" fill="white"/>
<path d="M349 130H327C323.134 130 320 133.134 320 137V159C320 162.866 323.134 166 327 166H349C352.866 166 356 162.866 356 159V137C356 133.134 352.866 130 349 130Z" fill="white"/>
<path d="M389 130H367C363.134 130 360 133.134 360 137V159C360 162.866 363.134 166 367 166H389C392.866 166 396 162.866 396 159V137C396 133.134 392.866 130 389 130Z" fill="white"/>
<path d="M429 130H407C403.134 130 400 133.134 400 137V159C400 162.866 403.134 166 407 166H429C432.866 166 436 162.866 436 159V137C436 133.134 432.866 130 429 130Z" fill="white"/>
<path d="M469 130H447C443.134 130 440 133.134 440 137V159C440 162.866 443.134 166 447 166H469C472.866 166 476 162.866 476 159V137C476 133.134 472.866 130 469 130Z" fill="white"/>
<path d="M509 130H487C483.134 130 480 133.134 480 137V159C480 162.866 483.134 166 487 166H509C512.866 166 516 162.866 516 159V137C516 133.134 512.866 130 509 130Z" fill="white"/>
<path d="M129 170H107C103.134 170 100 173.134 100 177V199C100 202.866 103.134 206 107 206H129C132.866 206 136 202.866 136 199V177C136 173.134 132.866 170 129 170Z" fill="white"/>
<path d="M169 170H147C143.134 170 140 173.134 140 177V199C140 202.866 143.134 206 147 206H169C172.866 206 176 202.866 176 199V177C176 173.134 172.866 170 169 170Z" fill="white"/>
<path d="M209 170H187C183.134 170 180 173.134 180 177V199C180 202.866 183.134 206 187 206H209C212.866 206 216 202.866 216 199V177C216 173.134 212.866 170 209 170Z" fill="white"/>
<path d="M249 170H227C223.134 170 220 173.134 220 177V199C220 202.866 223.134 206 227 206H249C252.866 206 256 202.866 256 199V177C256 173.134 252.866 170 249 170Z" fill="white"/>
<path d="M289 170H267C263.134 170 260 173.134 260 177V199C260 202.866 263.134 206 267 206H289C292.866 206 296 202.866 296 199V177C296 173.134 292.866 170 289 170Z" fill="white"/>
<path d="M329 170H307C303.134 170 300 173.134 300 177V199C300 202.866 303.134 206 307 206H329C332.866 206 336 202.866 336 199V177C336 173.134 332.866 170 329 170Z" fill="white"/>
<path d="M369 170H347C343.134 170 340 173.134 340 177V199C340 202.866 343.134 206 347 206H369C372.866 206 376 202.866 376 199V177C376 173.134 372.866 170 369 170Z" fill="white"/>
<path d="M409 170H387C383.134 170 380 173.134 380 177V199C380 202.866 383.134 206 387 206H409C412.866 206 416 202.866 416 199V177C416 173.134 412.866 170 409 170Z" fill="white"/>
<path d="M449 170H427C423.134 170 420 173.134 420 177V199C420 202.866 423.134 206 427 206H449C452.866 206 456 202.866 456 199V177C456 173.134 452.866 170 449 170Z" fill="white"/>
<path d="M489 170H467C463.134 170 460 173.134 460 177V199C460 202.866 463.134 206 467 206H489C492.866 206 496 202.866 496 199V177C496 173.134 492.866 170 489 170Z" fill="white"/>
<path d="M79 50H57C53.134 50 50 53.134 50 57V79C50 82.866 53.134 86 57 86H79C82.866 86 86 82.866 86 79V57C86 53.134 82.866 50 79 50Z" fill="white"/>
<path d="M119 50H97C93.134 50 90 53.134 90 57V79C90 82.866 93.134 86 97 86H119C122.866 86 126 82.866 126 79V57C126 53.134 122.866 50 119 50Z" fill="white"/>
<path d="M159 50H137C133.134 50 130 53.134 130 57V79C130 82.866 133.134 86 137 86H159C162.866 86 166 82.866 166 79V57C166 53.134 162.866 50 159 50Z" fill="white"/>
<path d="M199 50H177C173.134 50 170 53.134 170 57V79C170 82.866 173.134 86 177 86H199C202.866 86 206 82.866 206 79V57C206 53.134 202.866 50 199 50Z" fill="white"/>
<path d="M239 50H217C213.134 50 210 53.134 210 57V79C210 82.866 213.134 86 217 86H239C242.866 86 246 82.866 246 79V57C246 53.134 242.866 50 239 50Z" fill="white"/>
<path d="M279 50H257C253.134 50 250 53.134 250 57V79C250 82.866 253.134 86 257 86H279C282.866 86 286 82.866 286 79V57C286 53.134 282.866 50 279 50Z" fill="white"/>
<path d="M319 50H297C293.134 50 290 53.134 290 57V79C290 82.866 293.134 86 297 86H319C322.866 86 326 82.866 326 79V57C326 53.134 322.866 50 319 50Z" fill="white"/>
<path d="M359 50H337C333.134 50 330 53.134 330 57V79C330 82.866 333.134 86 337 86H359C362.866 86 366 82.866 366 79V57C366 53.134 362.866 50 359 50Z" fill="white"/>
<path d="M399 50H377C373.134 50 370 53.134 370 57V79C370 82.866 373.134 86 377 86H399C402.866 86 406 82.866 406 79V57C406 53.134 402.866 50 399 50Z" fill="white"/>
<path d="M439 50H417C413.134 50 410 53.134 410 57V79C410 82.866 413.134 86 417 86H439C442.866 86 446 82.866 446 79V57C446 53.134 442.866 50 439 50Z" fill="white"/>
<path d="M479 50H457C453.134 50 450 53.134 450 57V79C450 82.866 453.134 86 457 86H479C482.866 86 486 82.866 486 79V57C486 53.134 482.866 50 479 50Z" fill="white"/>
<path d="M519 50H497C493.134 50 490 53.134 490 57V79C490 82.866 493.134 86 497 86H519C522.866 86 526 82.866 526 79V57C526 53.134 522.866 50 519 50Z" fill="white"/>
<path d="M99 90H77C73.134 90 70 93.134 70 97V119C70 122.866 73.134 126 77 126H99C102.866 126 106 122.866 106 119V97C106 93.134 102.866 90 99 90Z" fill="white"/>
<path d="M69 130H17C13.134 130 10 133.134 10 137V159C10 162.866 13.134 166 17 166H69C72.866 166 76 162.866 76 159V137C76 133.134 72.866 130 69 130Z" fill="#606A6E"/>
<path d="M59 90H17C13.134 90 10 93.134 10 97V119C10 122.866 13.134 126 17 126H59C62.866 126 66 122.866 66 119V97C66 93.134 62.866 90 59 90Z" fill="#606A6E"/>
<path d="M79 10H57C53.134 10 50 13.134 50 17V39C50 42.866 53.134 46 57 46H79C82.866 46 86 42.866 86 39V17C86 13.134 82.866 10 79 10Z" fill="white"/>
<path d="M119 10H97C93.134 10 90 13.134 90 17V39C90 42.866 93.134 46 97 46H119C122.866 46 126 42.866 126 39V17C126 13.134 122.866 10 119 10Z" fill="white"/>
<path d="M159 10H137C133.134 10 130 13.134 130 17V39C130 42.866 133.134 46 137 46H159C162.866 46 166 42.866 166 39V17C166 13.134 162.866 10 159 10Z" fill="white"/>
<path d="M199 10H177C173.134 10 170 13.134 170 17V39C170 42.866 173.134 46 177 46H199C202.866 46 206 42.866 206 39V17C206 13.134 202.866 10 199 10Z" fill="white"/>
<path d="M239 10H217C213.134 10 210 13.134 210 17V39C210 42.866 213.134 46 217 46H239C242.866 46 246 42.866 246 39V17C246 13.134 242.866 10 239 10Z" fill="#606A6E"/>
<path d="M399 10H377C373.134 10 370 13.134 370 17V39C370 42.866 373.134 46 377 46H399C402.866 46 406 42.866 406 39V17C406 13.134 402.866 10 399 10Z" fill="white"/>
<path d="M439 10H417C413.134 10 410 13.134 410 17V39C410 42.866 413.134 46 417 46H439C442.866 46 446 42.866 446 39V17C446 13.134 442.866 10 439 10Z" fill="white"/>
<path d="M519 10H497C493.134 10 490 13.134 490 17V39C490 42.866 493.134 46 497 46H519C522.866 46 526 42.866 526 39V17C526 13.134 522.866 10 519 10Z" fill="white"/>
<path d="M39 10H17C13.134 10 10 13.134 10 17V39C10 42.866 13.134 46 17 46H39C42.866 46 46 42.866 46 39V17C46 13.134 42.866 10 39 10Z" fill="#606A6E"/>
<path d="M479 10H457C453.134 10 450 13.134 450 17V39C450 42.866 453.134 46 457 46H479C482.866 46 486 42.866 486 39V17C486 13.134 482.866 10 479 10Z" fill="white"/>
<path d="M279 10H257C253.134 10 250 13.134 250 17V39C250 42.866 253.134 46 257 46H279C282.866 46 286 42.866 286 39V17C286 13.134 282.866 10 279 10Z" fill="#606A6E"/>
<path d="M319 10H297C293.134 10 290 13.134 290 17V39C290 42.866 293.134 46 297 46H319C322.866 46 326 42.866 326 39V17C326 13.134 322.866 10 319 10Z" fill="#606A6E"/>
<path d="M359 10H337C333.134 10 330 13.134 330 17V39C330 42.866 333.134 46 337 46H359C362.866 46 366 42.866 366 39V17C366 13.134 362.866 10 359 10Z" fill="#606A6E"/>
<path d="M599 90H557C553.134 90 550 93.134 550 97V119C550 122.866 553.134 126 557 126H599C602.866 126 606 122.866 606 119V97C606 93.134 602.866 90 599 90Z" fill="#606A6E"/>
<path d="M89 170H17C13.134 170 10 173.134 10 177V199C10 202.866 13.134 206 17 206H89C92.866 206 96 202.866 96 199V177C96 173.134 92.866 170 89 170Z" fill="#606A6E"/>
<path d="M599 130H527C523.134 130 520 133.134 520 137V159C520 162.866 523.134 166 527 166H599C602.866 166 606 162.866 606 159V137C606 133.134 602.866 130 599 130Z" fill="#606A6E"/>
<path d="M599 50H537C533.134 50 530 53.134 530 57V79C530 82.866 533.134 86 537 86H599C602.866 86 606 82.866 606 79V57C606 53.134 602.866 50 599 50Z" fill="#606A6E"/>
<path d="M559 170H507C503.134 170 500 173.134 500 177V199C500 202.866 503.134 206 507 206H559C562.866 206 566 202.866 566 199V177C566 173.134 562.866 170 559 170Z" fill="#606A6E"/>
<path d="M381 210H173C169.134 210 166 213.134 166 217V239C166 242.866 169.134 246 173 246H381C384.866 246 388 242.866 388 239V217C388 213.134 384.866 210 381 210Z" fill="white"/>
<path d="M89 170H17C13.134 170 10 173.134 10 177V199C10 202.866 13.134 206 17 206H89C92.866 206 96 202.866 96 199V177C96 173.134 92.866 170 89 170Z" fill="#606A6E"/>
<path d="M559 10H537C533.134 10 530 13.134 530 17V39C530 42.866 533.134 46 537 46H559C562.866 46 566 42.866 566 39V17C566 13.134 562.866 10 559 10Z" fill="#606A6E"/>
<path d="M599 10H577C573.134 10 570 13.134 570 17V39C570 42.866 573.134 46 577 46H599C602.866 46 606 42.866 606 39V17C606 13.134 602.866 10 599 10Z" fill="#606A6E"/>
<path d="M640 10H618C614.134 10 611 13.134 611 17V39C611 42.866 614.134 46 618 46H640C643.866 46 647 42.866 647 39V17C647 13.134 643.866 10 640 10Z" fill="#606A6E"/>
<path d="M640 50H618C614.134 50 611 53.134 611 57V79C611 82.866 614.134 86 618 86H640C643.866 86 647 82.866 647 79V57C647 53.134 643.866 50 640 50Z" fill="#606A6E"/>
<path d="M639 90H617C613.134 90 610 93.134 610 97V119C610 122.866 613.134 126 617 126H639C642.866 126 646 122.866 646 119V97C646 93.134 642.866 90 639 90Z" fill="#606A6E"/>
<path d="M639 130H617C613.134 130 610 133.134 610 137V159C610 162.866 613.134 166 617 166H639C642.866 166 646 162.866 646 159V137C646 133.134 642.866 130 639 130Z" fill="#606A6E"/>
<path d="M639 170H617C613.134 170 610 173.134 610 177V199C610 202.866 613.134 206 617 206H639C642.866 206 646 202.866 646 199V177C646 173.134 642.866 170 639 170Z" fill="#606A6E"/>
<path d="M559 210H537C533.134 210 530 213.134 530 217V239C530 242.866 533.134 246 537 246H559C562.866 246 566 242.866 566 239V217C566 213.134 562.866 210 559 210Z" fill="#606A6E"/>
<path d="M599 210H577C573.134 210 570 213.134 570 217V239C570 242.866 573.134 246 577 246H599C602.866 246 606 242.866 606 239V217C606 213.134 602.866 210 599 210Z" fill="#606A6E"/>
<path d="M639 210H617C613.134 210 610 213.134 610 217V239C610 242.866 613.134 246 617 246H639C642.866 246 646 242.866 646 239V217C646 213.134 642.866 210 639 210Z" fill="#606A6E"/>
<path d="M599 170H577C573.134 170 570 173.134 570 177V199C570 202.866 573.134 206 577 206H599C602.866 206 606 202.866 606 199V177C606 173.134 602.866 170 599 170Z" fill="#606A6E"/>
<path d="M480.2 210H517.8C522.3 210 526 213.1 526 217V239C526 242.9 522.3 246 517.8 246H480.2C475.7 246 472 242.9 472 239V217C472 213.1 475.7 210 480.2 210Z" fill="#606A6E"/>
<path d="M97 210H75C71.134 210 68 213.134 68 217V239C68 242.866 71.134 246 75 246H97C100.866 246 104 242.866 104 239V217C104 213.134 100.866 210 97 210Z" fill="#606A6E"/>
<path d="M421 210H399C395.134 210 392 213.134 392 217V239C392 242.866 395.134 246 399 246H421C424.866 246 428 242.866 428 239V217C428 213.134 424.866 210 421 210Z" fill="#606A6E"/>
<path d="M461 210H439C435.134 210 432 213.134 432 217V239C432 242.866 435.134 246 439 246H461C464.866 246 468 242.866 468 239V217C468 213.134 464.866 210 461 210Z" fill="#606A6E"/>
<path d="M116.2 210H153.8C158.3 210 162 213.1 162 217V239C162 242.9 158.3 246 153.8 246H116.2C111.7 246 108 242.9 108 239V217C108 213.1 111.7 210 116.2 210Z" fill="#606A6E"/>
<path d="M18.2 210H55.8C60.3 210 64 213.1 64 217V239C64 242.9 60.3 246 55.8 246H18.2C13.7 246 10 242.9 10 239V217C10 213.1 13.7 210 18.2 210Z" fill="#606A6E"/>
</g>
<defs>
<clipPath id="clip0_378_877">
<rect width="656" height="256" fill="white"/>
</clipPath>
</defs>
</svg>
