<svg width="165" height="256" viewBox="0 0 165 256" fill="none" xmlns="http://www.w3.org/2000/svg">
<g clip-path="url(#clip0_379_903)">
<path d="M0 58.1425C0 25.9317 25.8401 0 57.9373 0H76V35.1135C72.3394 37.8932 69.9791 42.3298 69.9791 47.312V77.7514C69.9791 82.7336 72.3394 87.1702 76 89.9499V113L0 116V58.1425Z" fill="#606A6E"/>
<path d="M165 58.1425C165 25.9317 139.16 0 107.063 0H89V35.1135C92.6606 37.8932 95.0209 42.3298 95.0209 47.312V77.7514C95.0209 82.7336 92.6606 87.1702 89 89.9499V113L165 116V58.1425Z" fill="#606A6E"/>
<path d="M5.05449e-05 176.325V173.585L0 116L76 113C76 118.076 77.4227 121.5 82.5 121.5C87.5773 121.5 89 118.076 89 113L165 116V173.585V176.325C165 181.074 164.351 185.609 163.287 190.023C163.276 190.08 163.298 190.193 163.287 190.251C155.596 227.825 122.303 256 82.443 256C42.1732 256 8.72203 227.26 1.48448 189.109C0.571029 185.001 5.05449e-05 180.716 5.05449e-05 176.325Z" fill="#242424"/>
<path d="M89.0205 35.1133C92.6811 37.893 95.041 42.3302 95.041 47.3125V77.751C95.041 82.7332 92.6811 87.1705 89.0205 89.9502V113C89.0205 118.076 87.5978 121.5 82.5205 121.5C77.4432 121.5 76.0205 118.076 76.0205 113V89.9502C72.3599 87.1705 70 82.7332 70 77.751V47.3125C70 42.3302 72.3599 37.893 76.0205 35.1133V0H89.0205V35.1133Z" fill="#242424"/>
</g>
<defs>
<clipPath id="clip0_379_903">
<rect width="165" height="256" fill="white"/>
</clipPath>
</defs>
</svg>
