<svg width="571" height="370" viewBox="0 0 571 370" fill="none" xmlns="http://www.w3.org/2000/svg">
<g clip-path="url(#clip0_361_132)">
<path d="M72.5898 27.8801V16.1601C72.5898 16.1601 104.11 -4.99988 145.97 1.24012L147.95 15.7001L72.5898 27.8801Z" fill="#606A6E"/>
<path d="M500.52 27.8801V16.1601C500.52 16.1601 469.01 -4.99988 427.14 1.24012L425.16 15.7001L500.52 27.8801Z" fill="#606A6E"/>
<path d="M283.71 245.74C244.65 245.74 204.44 246.6 186.34 241.94C146.15 231.58 127.27 266.29 127.27 266.29L88.29 349.83C81.09 361.39 73.72 369.97 59.96 369.97C58.68 369.97 57.41 369.9 56.14 369.76L51.82 368.43L49.69 367.78L49.31 367.66C49.31 367.66 -0.00999848 380.77 1.52048e-06 269.94C1.52048e-06 148.76 62.11 26.3601 62.11 26.3601C62.11 26.3601 96.45 19.08 149.16 13.02C149.46 12.99 149.75 12.95 150.05 12.93C150.27 12.91 150.48 12.88 150.68 12.86C151.57 12.75 152.46 12.65 153.36 12.55C196.64 7.66005 240.15 5.16005 283.71 5.05005H286.56C330.11 5.16005 373.63 7.66005 416.91 12.55C417.81 12.64 418.7 12.75 419.59 12.86C419.8 12.88 420.01 12.91 420.22 12.93C420.52 12.96 420.81 13 421.11 13.02C473.82 19.08 508.16 26.3601 508.16 26.3601C508.16 26.3601 570.27 148.76 570.27 269.94C570.28 380.77 520.95 367.66 520.95 367.66L520.57 367.78L518.44 368.43L514.12 369.76C512.85 369.9 511.58 369.96 510.3 369.97C496.54 369.97 489.17 361.38 481.97 349.83L442.99 266.29C442.99 266.29 424.11 231.58 383.92 241.94C365.82 246.6 325.6 245.74 286.55 245.74H283.7H283.71Z" fill="#242424"/>
<path d="M98.33 88.4701C100.95 91.0701 106.02 96.6101 108.22 99.0301C109.55 100.49 111.81 100.6 113.28 99.2701C113.31 99.2401 113.34 99.2101 113.37 99.1801L124.04 88.7501C125.12 87.6901 125.76 86.2601 125.81 84.7501L126.38 69.8901C126.45 68.1701 125.7 66.5101 124.38 65.4201L121.52 63.0501C119.61 61.4701 117.22 60.6101 114.75 60.6101H106.17C103.48 60.6101 100.89 61.6301 98.92 63.4701L97.09 65.1801C95.85 66.3401 95.21 67.9901 95.35 69.6801L96.61 84.7601C96.73 86.1601 97.34 87.4801 98.34 88.4701" fill="#606A6E"/>
<path d="M123.38 125.78C120.76 123.18 115.69 117.64 113.49 115.22C112.16 113.76 109.9 113.65 108.43 114.98C108.4 115.01 108.37 115.04 108.34 115.07L97.6702 125.5C96.5902 126.56 95.9502 127.99 95.9002 129.5L95.3302 144.36C95.2602 146.08 96.0102 147.74 97.3302 148.83L100.18 151.2C102.09 152.78 104.48 153.64 106.95 153.64H115.53C118.22 153.64 120.81 152.62 122.78 150.78L124.61 149.07C125.85 147.91 126.49 146.26 126.35 144.57L125.1 129.49C124.98 128.09 124.37 126.77 123.37 125.78" fill="#606A6E"/>
<path d="M92.1998 119.64C94.7998 117.02 100.34 111.95 102.76 109.75C104.22 108.42 104.33 106.16 103 104.69C102.97 104.66 102.94 104.63 102.91 104.6L92.4799 93.9302C91.4199 92.8502 89.9899 92.2102 88.4799 92.1602L73.6199 91.5902C71.8999 91.5202 70.2398 92.2702 69.1498 93.5902L66.7798 96.4502C65.1998 98.3602 64.3398 100.75 64.3398 103.22V111.8C64.3398 114.49 65.3598 117.08 67.1998 119.05L68.9099 120.88C70.0699 122.12 71.7199 122.76 73.4099 122.62L88.4898 121.36C89.8898 121.24 91.2098 120.63 92.1998 119.63" fill="#606A6E"/>
<path d="M129.51 94.6C126.91 97.22 121.37 102.29 118.95 104.49C117.49 105.82 117.38 108.08 118.71 109.55C118.74 109.58 118.77 109.61 118.8 109.64L129.23 120.31C130.29 121.39 131.72 122.03 133.23 122.08L148.09 122.65C149.81 122.72 151.47 121.97 152.56 120.65L154.93 117.79C156.51 115.88 157.37 113.49 157.37 111.02V102.44C157.37 99.7501 156.35 97.1601 154.51 95.1901L152.8 93.3601C151.64 92.1201 149.99 91.4801 148.3 91.6201L133.22 92.88C131.82 93 130.5 93.6101 129.51 94.6101" fill="#606A6E"/>
<path d="M106.54 74.2702H115.47L111 68.9902L106.53 74.2702H106.54Z" fill="white"/>
<path d="M115.47 139.88H106.54L111.01 145.16L115.48 139.88H115.47Z" fill="white"/>
<path d="M78.1999 111.54V102.61L72.9199 107.08L78.1999 111.55V111.54Z" fill="white"/>
<path d="M143.82 102.61V111.54L149.1 107.07L143.82 102.6V102.61Z" fill="white"/>
<path d="M158.66 38.2202L161 51.0602C161.52 53.8802 159.65 56.5802 156.83 57.1002L156.34 57.1902C153.52 57.7102 150.82 55.8402 150.3 53.0202L147.96 40.1702C147.44 37.3502 149.31 34.6502 152.13 34.1302L152.62 34.0402C155.44 33.5202 158.14 35.3902 158.66 38.2102" fill="#606A6E"/>
<path d="M422.42 40.38L419.68 53.14C419.08 55.94 416.32 57.73 413.52 57.13L413.03 57.02C410.23 56.42 408.44 53.66 409.04 50.86L411.78 38.1C412.38 35.3 415.14 33.51 417.94 34.11L418.43 34.22C421.23 34.82 423.02 37.58 422.42 40.38Z" fill="#606A6E"/>
<path d="M459.21 46.8601C448.84 46.8601 440.43 55.2701 440.43 65.6401C440.43 76.0101 448.84 84.4201 459.21 84.4201C469.58 84.4201 477.99 76.0101 477.99 65.6401C477.99 55.2701 469.58 46.8601 459.21 46.8601Z" fill="#606A6E"/>
<path d="M418.41 88.4602C408.04 88.4602 399.63 96.8702 399.63 107.24C399.63 117.61 408.04 126.02 418.41 126.02C428.78 126.02 437.19 117.61 437.19 107.24C437.19 96.8702 428.78 88.4602 418.41 88.4602Z" fill="#606A6E"/>
<path d="M500.52 88.4602C490.15 88.4602 481.74 96.8702 481.74 107.24C481.74 117.61 490.15 126.02 500.52 126.02C510.89 126.02 519.3 117.61 519.3 107.24C519.3 96.8702 510.89 88.4602 500.52 88.4602Z" fill="#606A6E"/>
<path d="M459.21 128.85C448.84 128.85 440.43 137.26 440.43 147.63C440.43 158 448.84 166.41 459.21 166.41C469.58 166.41 477.99 158 477.99 147.63C477.99 137.26 469.58 128.85 459.21 128.85Z" fill="#606A6E"/>
<path d="M295.46 216.97H275.08C273.48 216.97 272.18 215.67 272.18 214.07V213.79C272.18 212.19 273.48 210.89 275.08 210.89H295.46C297.06 210.89 298.36 212.19 298.36 213.79V214.07C298.36 215.67 297.06 216.97 295.46 216.97Z" fill="#606A6E"/>
<path d="M280.84 178.15V165.63C280.84 165.51 280.87 165.49 280.99 165.5C281.07 165.51 281.15 165.53 281.24 165.54C282.92 165.89 284.58 166.34 286.22 166.84C287.08 167.1 287.94 167.37 288.8 167.66C289.62 167.93 290.41 168.26 291.18 168.65C291.84 168.98 292.45 169.39 293.01 169.87C293.69 170.46 294.22 171.2 294.57 172.03C294.86 172.76 295.05 173.52 295.14 174.3C295.23 175.07 295.25 175.84 295.22 176.61C295.2 177.41 295.03 178.19 294.73 178.93C294.5 179.51 294.13 180.03 293.66 180.45C293.18 180.86 292.59 181.13 291.96 181.21C291.27 181.3 290.58 181.23 289.92 181.01C289.62 180.92 289.32 180.79 289.02 180.68C288.91 180.65 288.84 180.55 288.84 180.44C288.84 180.35 288.84 180.25 288.84 180.16V171.83C288.84 171.53 288.8 171.24 288.72 170.95C288.65 170.68 288.5 170.43 288.29 170.23C288.07 170.03 287.8 169.91 287.5 169.89C287.21 169.87 286.94 170.03 286.82 170.28C286.71 170.45 286.65 170.64 286.62 170.84C286.59 171.07 286.57 171.31 286.56 171.54V192.45C286.56 192.54 286.52 192.57 286.43 192.54C286.36 192.52 286.3 192.5 286.23 192.48C285.15 192.13 284.06 191.79 282.98 191.44C282.35 191.24 281.73 191.04 281.1 190.85C280.84 190.77 280.84 190.77 280.84 190.5V178.12" fill="white"/>
<path d="M287.67 185.05V183.52C287.67 183.36 287.69 183.33 287.83 183.29C288.21 183.17 288.6 183.04 288.98 182.94C290.01 182.66 291.06 182.46 292.13 182.34C292.58 182.29 293.02 182.27 293.47 182.25C293.62 182.24 293.77 182.22 293.93 182.23C294.7 182.23 295.47 182.27 296.24 182.36C297.08 182.45 297.92 182.6 298.74 182.81C299.24 182.94 299.73 183.09 300.22 183.27C300.61 183.4 301 183.56 301.38 183.73C301.74 183.9 302.08 184.13 302.37 184.41C302.56 184.58 302.7 184.8 302.79 185.04C302.89 185.33 302.88 185.64 302.75 185.92C302.61 186.2 302.4 186.45 302.16 186.64C301.88 186.87 301.58 187.07 301.26 187.24C300.74 187.52 300.19 187.75 299.63 187.94C298.71 188.27 297.79 188.6 296.87 188.93L294.52 189.77L291.86 190.73L289.56 191.55L287.93 192.14C287.93 192.14 287.83 192.17 287.78 192.19C287.71 192.21 287.68 192.19 287.67 192.11C287.67 192.07 287.67 192.03 287.67 191.99V189.06C287.67 188.98 287.72 188.9 287.8 188.88C287.98 188.81 288.16 188.75 288.35 188.68L292.6 187.17C293.65 186.79 294.71 186.41 295.76 186.04C296.24 185.87 296.71 185.69 297.19 185.51C297.36 185.44 297.51 185.34 297.64 185.21C297.79 185.09 297.82 184.87 297.71 184.72C297.68 184.68 297.63 184.64 297.58 184.62C297.37 184.49 297.13 184.4 296.88 184.37C296.47 184.3 296.05 184.28 295.64 184.3C295.31 184.32 294.98 184.36 294.65 184.41C294.21 184.5 293.79 184.63 293.37 184.79L291.64 185.4L288.37 186.55L287.9 186.72C287.71 186.79 287.68 186.77 287.68 186.57V185.06L287.67 185.05Z" fill="white"/>
<path d="M279.73 182.47V183.95C279.74 184.06 279.67 184.16 279.57 184.18C279.38 184.24 279.19 184.31 279 184.38L275.73 185.55C275.15 185.76 274.56 185.96 273.98 186.17C273.71 186.25 273.46 186.37 273.22 186.52C273.14 186.58 273.07 186.64 273.01 186.71C272.89 186.84 272.9 187.05 273.03 187.18C273.04 187.19 273.06 187.2 273.07 187.21C273.17 187.28 273.28 187.33 273.39 187.38C273.73 187.5 274.08 187.57 274.44 187.57C275.07 187.6 275.7 187.55 276.31 187.4C276.7 187.3 277.08 187.16 277.46 187.03C278.14 186.79 278.82 186.54 279.51 186.29C279.72 186.22 279.73 186.23 279.73 186.44V189.05C279.73 189.16 279.7 189.19 279.59 189.21C279.42 189.24 279.25 189.27 279.08 189.29C278.5 189.36 277.92 189.44 277.34 189.48C276.77 189.52 276.21 189.53 275.64 189.51C274.21 189.47 272.8 189.26 271.42 188.89C270.84 188.73 270.27 188.55 269.7 188.36C269.2 188.2 268.74 187.94 268.34 187.6C268.04 187.36 267.82 187.04 267.72 186.67C267.62 186.26 267.74 185.82 268.04 185.52C268.21 185.34 268.4 185.18 268.62 185.05C269.06 184.77 269.52 184.53 269.99 184.32C270.73 183.98 271.5 183.72 272.27 183.45C273.19 183.12 274.11 182.79 275.03 182.47L277.34 181.65L279.5 180.88C279.71 180.81 279.73 180.82 279.73 181.05V182.48" fill="white"/>
<path d="M268.22 142.62C268.22 144.39 266.79 145.82 265.02 145.82C263.25 145.82 261.82 144.39 261.82 142.62C261.82 140.85 263.25 139.42 265.02 139.42C266.79 139.42 268.22 140.85 268.22 142.62Z" fill="white"/>
<path d="M278.07 142.62C278.07 144.39 276.64 145.82 274.87 145.82C273.1 145.82 271.67 144.39 271.67 142.62C271.67 140.85 273.1 139.42 274.87 139.42C276.64 139.42 278.07 140.85 278.07 142.62Z" fill="white"/>
<path d="M288.52 142.62C288.52 144.39 287.09 145.82 285.32 145.82C283.55 145.82 282.12 144.39 282.12 142.62C282.12 140.85 283.55 139.42 285.32 139.42C287.09 139.42 288.52 140.85 288.52 142.62Z" fill="white"/>
<path d="M298.37 142.62C298.37 144.39 296.94 145.82 295.17 145.82C293.4 145.82 291.97 144.39 291.97 142.62C291.97 140.85 293.4 139.42 295.17 139.42C296.94 139.42 298.37 140.85 298.37 142.62Z" fill="white"/>
<path d="M308.42 142.62C308.42 144.39 306.99 145.82 305.22 145.82C303.45 145.82 302.02 144.39 302.02 142.62C302.02 140.85 303.45 139.42 305.22 139.42C306.99 139.42 308.42 140.85 308.42 142.62Z" fill="white"/>
<path d="M293.44 151.55C293.44 153.32 292.01 154.75 290.24 154.75C288.47 154.75 287.04 153.32 287.04 151.55C287.04 149.78 288.47 148.35 290.24 148.35C292.01 148.35 293.44 149.78 293.44 151.55Z" fill="white"/>
<path d="M303.49 151.55C303.49 153.32 302.06 154.75 300.29 154.75C298.52 154.75 297.09 153.32 297.09 151.55C297.09 149.78 298.52 148.35 300.29 148.35C302.06 148.35 303.49 149.78 303.49 151.55Z" fill="white"/>
<path d="M273.04 151.55C273.04 153.32 271.61 154.75 269.84 154.75C268.07 154.75 266.64 153.32 266.64 151.55C266.64 149.78 268.07 148.35 269.84 148.35C271.61 148.35 273.04 149.78 273.04 151.55Z" fill="white"/>
<path d="M283.09 151.55C283.09 153.32 281.66 154.75 279.89 154.75C278.12 154.75 276.69 153.32 276.69 151.55C276.69 149.78 278.12 148.35 279.89 148.35C281.66 148.35 283.09 149.78 283.09 151.55Z" fill="white"/>
<path d="M150.05 12.92C150.27 12.9 150.48 12.87 150.68 12.85C151.57 12.74 152.46 12.64 153.36 12.54C156.37 14.44 159.14 16.7 161.6 19.27C165.75 23.59 169.06 28.71 170.3 33.87C173.04 45.27 177.88 66.13 182.23 88.27C183.19 93.03 183.69 97.87 183.71 102.72C183.71 114.11 180.62 122.09 177.52 127.21C175.9 130.01 173.79 132.51 171.3 134.57C141.39 165.71 114.95 215.64 95.3704 260.04C75.7904 304.44 63.0404 343.36 60.4204 352.44C58.8404 358.37 55.9004 363.85 51.8204 368.44L49.6904 367.79C52.3404 365.21 56.1604 360.03 58.5104 351.89C61.1704 342.7 73.9304 303.77 93.5604 259.25C113.19 214.73 139.68 164.66 169.91 133.18L169.98 133.11L170.05 133.06L170.07 133.04L170.16 132.98C170.24 132.92 170.36 132.82 170.51 132.7C170.82 132.43 171.27 132.03 171.82 131.46C173.35 129.86 174.71 128.09 175.85 126.19C178.79 121.35 181.76 113.76 181.76 102.73C181.73 98 181.25 93.29 180.31 88.66C175.98 66.56 171.14 45.72 168.4 34.34C167.29 29.69 164.19 24.79 160.21 20.66C157.37 17.69 154.1 15.16 150.5 13.16" fill="#606A6E"/>
<path d="M420.22 12.92C420 12.9 419.79 12.87 419.59 12.85C418.7 12.74 417.81 12.64 416.91 12.54C413.9 14.44 411.13 16.7 408.67 19.27C404.52 23.59 401.21 28.71 399.97 33.87C397.23 45.27 392.39 66.13 388.04 88.27C387.08 93.03 386.58 97.87 386.56 102.72C386.56 114.11 389.65 122.09 392.75 127.21C394.37 130.01 396.48 132.51 398.97 134.57C428.88 165.71 455.33 215.64 474.9 260.04C494.47 304.44 507.23 343.36 509.85 352.44C511.43 358.37 514.37 363.85 518.45 368.44L520.58 367.79C517.93 365.21 514.11 360.03 511.76 351.89C509.1 342.7 496.34 303.77 476.71 259.25C457.08 214.73 430.59 164.66 400.36 133.18L400.29 133.11L400.22 133.06L400.2 133.04L400.11 132.98C400.03 132.92 399.91 132.82 399.76 132.7C399.45 132.43 399 132.03 398.45 131.46C396.92 129.86 395.56 128.09 394.42 126.19C391.48 121.35 388.51 113.76 388.51 102.73C388.54 98 389.02 93.29 389.96 88.66C394.29 66.56 399.13 45.72 401.87 34.34C402.98 29.69 406.08 24.79 410.06 20.66C412.9 17.69 416.17 15.16 419.77 13.16" fill="#606A6E"/>
<path d="M447.49 72.4201H470.94L459.22 52.5601L447.5 72.4201H447.49ZM450.99 70.4201L459.21 56.4901L467.43 70.4201H450.99Z" fill="white"/>
<path d="M467.44 138.72L459.45 146.7L451.47 138.72L450.05 140.13L458.04 148.11L450.05 156.1L451.47 157.51L459.45 149.53L467.44 157.51L468.85 156.1L460.87 148.11L468.85 140.13L467.44 138.72Z" fill="white"/>
<path d="M408.5 97.9102V116.57H428.16V96.9102H408.5V97.9102ZM426.16 114.57H410.5V98.9102H426.16V114.57Z" fill="white"/>
<path d="M505.07 96.1402C503.58 95.5202 502.04 95.2302 500.53 95.2302C495.87 95.2302 491.44 97.9902 489.55 102.57C488.93 104.05 488.64 105.6 488.64 107.11C488.64 111.77 491.4 116.2 495.98 118.09C497.46 118.7 499.01 119 500.52 119C505.18 119 509.61 116.24 511.51 111.66C512.12 110.17 512.42 108.63 512.42 107.12C512.42 102.46 509.66 98.0302 505.08 96.1402H505.07ZM509.65 110.9C508.07 114.71 504.39 117 500.51 117C499.25 117 497.97 116.76 496.73 116.24C492.92 114.66 490.63 110.98 490.62 107.1C490.62 105.84 490.86 104.56 491.38 103.32C492.96 99.5102 496.64 97.2202 500.52 97.2102C501.78 97.2102 503.06 97.4502 504.3 97.9702C508.11 99.5502 510.4 103.23 510.4 107.11C510.4 108.37 510.16 109.65 509.64 110.89L509.65 110.9Z" fill="white"/>
<path d="M374.62 143.58C396.83 143.56 414.85 161.54 414.88 183.75C414.9 205.96 396.92 223.98 374.71 224.01C352.5 224.03 334.48 206.05 334.45 183.84C334.44 173.16 338.68 162.91 346.23 155.36C353.75 147.81 363.97 143.58 374.62 143.58ZM344.64 213.72C361.2 230.28 388.04 230.28 404.59 213.72C421.15 197.16 421.15 170.32 404.59 153.77C388.03 137.21 361.19 137.21 344.64 153.77C336.69 161.72 332.22 172.5 332.22 183.75C332.21 195 336.67 205.78 344.64 213.73" fill="#606A6E"/>
<path d="M374.62 150.92C392.77 150.9 407.5 165.59 407.52 183.74C407.54 201.89 392.85 216.62 374.7 216.64C356.55 216.66 341.82 201.97 341.8 183.82C341.79 175.09 345.25 166.72 351.42 160.55C357.57 154.38 365.91 150.92 374.62 150.92ZM348.67 209.69C363 224.02 386.23 224.02 400.56 209.69C414.89 195.36 414.89 172.13 400.56 157.8C386.23 143.47 363 143.47 348.67 157.8C341.79 164.68 337.92 174.01 337.92 183.74C337.91 193.47 341.77 202.81 348.67 209.69Z" fill="#606A6E"/>
<path d="M374.62 163.61C385.74 163.61 394.76 172.62 394.76 183.74C394.76 194.86 385.75 203.88 374.63 203.88C363.51 203.88 354.49 194.87 354.49 183.75C354.5 172.63 363.51 163.62 374.63 163.61M374.63 160.68C361.89 160.68 351.56 171.01 351.56 183.74C351.56 196.47 361.89 206.81 374.62 206.81C387.36 206.81 397.69 196.48 397.69 183.75C397.69 171.01 387.36 160.68 374.63 160.68Z" fill="white"/>
<path d="M395.06 183.68C395.06 194.97 385.91 204.12 374.62 204.12C363.33 204.12 354.18 194.97 354.18 183.68C354.18 172.39 363.33 163.24 374.62 163.24C385.91 163.24 395.06 172.39 395.06 183.68Z" fill="#606A6E"/>
<path d="M196.04 143.58C218.25 143.56 236.27 161.54 236.3 183.75C236.32 205.96 218.34 223.98 196.13 224.01C173.92 224.03 155.9 206.05 155.87 183.84C155.86 173.16 160.1 162.91 167.65 155.36C175.17 147.81 185.39 143.58 196.04 143.58ZM166.06 213.72C182.62 230.28 209.46 230.28 226.01 213.72C242.57 197.16 242.57 170.32 226.01 153.77C209.45 137.21 182.61 137.21 166.06 153.77C158.11 161.72 153.64 172.5 153.64 183.75C153.63 195 158.09 205.78 166.06 213.73" fill="#606A6E"/>
<path d="M196.04 150.92C214.19 150.9 228.92 165.59 228.94 183.74C228.96 201.89 214.27 216.62 196.12 216.64C177.97 216.66 163.24 201.97 163.22 183.82C163.21 175.09 166.67 166.72 172.84 160.55C178.99 154.38 187.33 150.92 196.04 150.92ZM170.09 209.69C184.42 224.02 207.65 224.02 221.98 209.69C236.31 195.36 236.31 172.13 221.98 157.8C207.65 143.47 184.42 143.47 170.09 157.8C163.21 164.68 159.34 174.01 159.34 183.75C159.33 193.48 163.19 202.82 170.09 209.7" fill="#606A6E"/>
<path d="M196.04 163.61C207.16 163.61 216.18 172.62 216.18 183.75C216.18 194.87 207.17 203.89 196.04 203.89C184.92 203.89 175.9 194.88 175.9 183.75C175.91 172.63 184.92 163.62 196.04 163.61ZM196.04 160.68C183.3 160.68 172.97 171.01 172.97 183.74C172.97 196.48 183.3 206.81 196.03 206.81C208.77 206.81 219.1 196.48 219.1 183.75C219.1 171.01 208.77 160.68 196.04 160.68Z" fill="white"/>
<path d="M216.48 183.68C216.48 194.97 207.33 204.12 196.04 204.12C184.75 204.12 175.6 194.97 175.6 183.68C175.6 172.39 184.75 163.24 196.04 163.24C207.33 163.24 216.48 172.39 216.48 183.68Z" fill="#606A6E"/>
<path d="M285.13 5C256.67 5.12 222.77 6.4 184.32 9.96C184.32 9.96 173.37 13.94 176.36 31.66L183.13 63.11L191.49 104.14C191.49 104.14 194.87 124.83 226.13 124.83H344.13C375.39 124.83 378.78 104.14 378.78 104.14L387.14 63.11L393.91 31.66C396.9 13.94 385.95 9.96 385.95 9.96C347.49 6.39 313.59 5.11 285.14 5" fill="#606A6E"/>
</g>
<defs>
<clipPath id="clip0_361_132">
<rect width="570.28" height="369.97" fill="white"/>
</clipPath>
</defs>
</svg>
