<svg width="276" height="414" viewBox="0 0 276 414" fill="none" xmlns="http://www.w3.org/2000/svg">
<g clip-path="url(#clip0_361_196)">
<path d="M84.3198 116.56V110.04C84.3498 108.99 83.5398 108.11 82.4898 108.05C45.7498 107.53 36.2298 110.5 21.3598 122.3C7.1998 133.53 5.1598 141.65 2.6298 146.16C2.0898 147.12 2.4298 148.34 3.3998 148.87C3.5198 148.94 3.6398 148.99 3.7798 149.03L10.1598 151.04L84.3198 116.54V116.56Z" fill="#606A6E"/>
<path d="M87.2502 128.24H106.68V383.76H100.73V370.38H93.5902L87.2402 128.25L87.2502 128.24Z" fill="#606A6E"/>
<path d="M100.34 111.7H64.25C28.76 111.7 0 140.46 0 175.95V349.65C0 385.13 28.76 413.9 64.25 413.9H100.34V111.7Z" fill="#242424"/>
<path d="M191.45 116.56V110.04C191.42 108.99 192.23 108.11 193.28 108.05C230.02 107.53 239.54 110.5 254.41 122.3C268.57 133.53 270.61 141.65 273.13 146.16C273.67 147.12 273.33 148.34 272.36 148.87C272.24 148.94 272.12 148.99 271.98 149.03L265.6 151.04L191.44 116.54L191.45 116.56Z" fill="#606A6E"/>
<path d="M189.32 128.24H169.89V383.76H175.84V370.38H182.98L189.33 128.25L189.32 128.24Z" fill="#606A6E"/>
<path d="M175.44 111.7H211.53C247.01 111.7 275.78 140.46 275.78 175.95V349.65C275.78 385.13 247.02 413.9 211.53 413.9H175.44V111.7Z" fill="#242424"/>
<path d="M92.6701 139.2H77.6001V143.43H92.6701V139.2Z" fill="black"/>
<path d="M199.18 138.77H193.58V133.16H189.91V138.77H184.31V142.43H189.91V148.04H193.58V142.43H199.18V138.77Z" fill="black"/>
<path d="M66.4501 249.14C66.4501 255.51 61.2901 260.67 54.9201 260.67C48.5501 260.67 43.3901 255.51 43.3901 249.14C43.3901 242.77 48.5501 237.61 54.9201 237.61C61.2901 237.61 66.4501 242.77 66.4501 249.14Z" fill="#606A6E"/>
<path d="M50.8198 251.84H59.0298L54.9298 244.76L50.8198 251.84Z" fill="black"/>
<path d="M43.3999 294.75C43.3999 288.38 48.5599 283.23 54.9299 283.23C61.2999 283.23 66.4499 288.39 66.4499 294.76C66.4499 301.12 61.2899 306.28 54.9299 306.28C48.5599 306.28 43.3999 301.12 43.3999 294.75Z" fill="#606A6E"/>
<path d="M59.0298 292.05H50.8198L54.9198 299.13L59.0298 292.05Z" fill="black"/>
<path d="M32.1198 260.42C38.4898 260.42 43.6398 265.58 43.6398 271.95C43.6398 278.32 38.4798 283.47 32.1098 283.47C25.7498 283.47 20.5898 278.31 20.5898 271.95C20.5898 265.58 25.7498 260.42 32.1198 260.42Z" fill="#606A6E"/>
<path d="M34.8202 276.05V267.84L27.7402 271.94L34.8202 276.05Z" fill="black"/>
<path d="M77.73 283.47C71.36 283.47 66.21 278.31 66.21 271.94C66.21 265.57 71.37 260.42 77.74 260.42C84.1 260.42 89.26 265.58 89.26 271.94C89.26 278.31 84.1 283.47 77.73 283.47Z" fill="#606A6E"/>
<path d="M75.0298 267.84V276.05L82.1098 271.95L75.0298 267.84Z" fill="black"/>
<path d="M80.1801 319.9H63.0601V337.95H80.1801V319.9Z" fill="#606A6E"/>
<path d="M77.3998 328.93C77.3998 332.12 74.8099 334.71 71.6199 334.71C68.4299 334.71 65.8398 332.12 65.8398 328.93C65.8398 325.74 68.4299 323.15 71.6199 323.15C74.8099 323.15 77.3998 325.74 77.3998 328.93Z" fill="#242424"/>
<path d="M71.6199 335.21C68.1599 335.21 65.3398 332.39 65.3398 328.93C65.3398 325.47 68.1599 322.65 71.6199 322.65C75.0799 322.65 77.8998 325.47 77.8998 328.93C77.8998 332.39 75.0799 335.21 71.6199 335.21ZM71.6199 323.64C68.7099 323.64 66.3398 326.01 66.3398 328.92C66.3398 331.83 68.7099 334.2 71.6199 334.2C74.5299 334.2 76.8998 331.83 76.8998 328.92C76.8998 326.01 74.5299 323.64 71.6199 323.64Z" fill="black"/>
<path d="M78.59 187.58C78.59 200.65 68 211.24 54.93 211.24C41.86 211.24 31.27 200.65 31.27 187.58C31.27 174.51 41.86 163.92 54.93 163.92C68 163.92 78.59 174.51 78.59 187.58Z" fill="#606A6E"/>
<path d="M55.9302 165.96H53.9302V172.73H55.9302V165.96Z" fill="black"/>
<path d="M55.9302 202.95H53.9302V209.72H55.9302V202.95Z" fill="black"/>
<path d="M39.8198 186.84H33.0498V188.84H39.8198V186.84Z" fill="black"/>
<path d="M76.81 186.84H70.04V188.84H76.81V186.84Z" fill="black"/>
<path d="M71.88 187.58C71.88 196.94 64.29 204.53 54.93 204.53C45.57 204.53 37.98 196.94 37.98 187.58C37.98 178.22 45.57 170.63 54.93 170.63C64.29 170.63 71.88 178.22 71.88 187.58Z" fill="#606A6E"/>
<path d="M54.9101 205.53C51.6901 205.53 48.4301 204.67 45.4901 202.85C41.4101 200.33 38.5501 196.37 37.4501 191.7C36.3501 187.03 37.1301 182.21 39.6501 178.13C44.8601 169.7 55.9501 167.09 64.3701 172.3C72.7901 177.51 75.4101 188.6 70.2001 197.02C66.8101 202.51 60.9101 205.53 54.8901 205.53H54.9101ZM41.3601 179.18C39.1201 182.81 38.4201 187.09 39.4001 191.24C40.3801 195.39 42.9201 198.91 46.5401 201.15C54.0201 205.78 63.8801 203.45 68.5101 195.97C73.1401 188.48 70.8101 178.63 63.3201 174C55.8401 169.37 45.9801 171.7 41.3501 179.18H41.3601Z" fill="black"/>
<path d="M217.74 328.5C217.74 335.45 212.1 341.09 205.15 341.09C198.2 341.09 192.56 335.45 192.56 328.5C192.56 321.55 198.2 315.91 205.15 315.91C212.1 315.91 217.74 321.55 217.74 328.5Z" fill="#606A6E"/>
<path d="M214.24 328.5C214.24 333.52 210.17 337.59 205.15 337.59C200.13 337.59 196.06 333.52 196.06 328.5C196.06 323.48 200.13 319.41 205.15 319.41C210.17 319.41 214.24 323.48 214.24 328.5Z" fill="#242424"/>
<path d="M205.14 322.6L199.44 328.21L201.17 328.26V333.27H209.1V328.26L210.83 328.21L205.13 322.6H205.14ZM207.01 331.58H203.27V328.34H207.01V331.58Z" fill="black"/>
<path d="M233.14 164.94C233.14 171.18 228.08 176.24 221.84 176.24C215.6 176.24 210.54 171.18 210.54 164.94C210.54 158.7 215.6 153.64 221.84 153.64C228.08 153.64 233.14 158.7 233.14 164.94Z" fill="#606A6E"/>
<path d="M233.14 210.15C233.14 216.39 228.08 221.45 221.84 221.45C215.6 221.45 210.54 216.39 210.54 210.15C210.54 203.91 215.6 198.85 221.84 198.85C228.08 198.85 233.14 203.91 233.14 210.15Z" fill="#606A6E"/>
<path d="M198.17 176.24C204.41 176.24 209.47 181.3 209.47 187.54C209.47 193.78 204.41 198.84 198.17 198.84C191.93 198.84 186.87 193.78 186.87 187.54C186.87 181.3 191.93 176.24 198.17 176.24Z" fill="#606A6E"/>
<path d="M245.5 176.24C251.74 176.24 256.8 181.3 256.8 187.54C256.8 193.78 251.74 198.84 245.5 198.84C239.26 198.84 234.2 193.78 234.2 187.54C234.2 181.3 239.26 176.24 245.5 176.24Z" fill="#606A6E"/>
<path d="M245.5 271.68C245.5 284.75 234.91 295.34 221.84 295.34C208.77 295.34 198.18 284.75 198.18 271.68C198.18 258.61 208.77 248.02 221.84 248.02C234.91 248.02 245.5 258.61 245.5 271.68Z" fill="#606A6E"/>
<path d="M222.84 250.06H220.84V256.83H222.84V250.06Z" fill="black"/>
<path d="M222.84 287.05H220.84V293.82H222.84V287.05Z" fill="black"/>
<path d="M206.73 270.94H199.96V272.94H206.73V270.94Z" fill="black"/>
<path d="M243.72 270.94H236.95V272.94H243.72V270.94Z" fill="black"/>
<path d="M238.79 271.68C238.79 281.04 231.2 288.63 221.84 288.63C212.48 288.63 204.89 281.04 204.89 271.68C204.89 262.32 212.48 254.73 221.84 254.73C231.2 254.73 238.79 262.32 238.79 271.68Z" fill="#606A6E"/>
<path d="M221.85 289.63C220.9 289.63 219.93 289.55 218.96 289.4C209.19 287.81 202.53 278.57 204.11 268.8C204.88 264.07 207.44 259.91 211.33 257.11C215.22 254.31 219.97 253.19 224.7 253.95C229.43 254.72 233.58 257.28 236.39 261.17C239.19 265.06 240.31 269.81 239.55 274.54C238.12 283.34 230.48 289.62 221.84 289.62L221.85 289.63ZM206.09 269.12C204.68 277.8 210.6 286.01 219.28 287.42C227.96 288.83 236.17 282.91 237.58 274.23C238.26 270.02 237.27 265.8 234.77 262.35C232.28 258.89 228.59 256.61 224.38 255.93C220.18 255.25 215.95 256.24 212.5 258.74C209.05 261.24 206.76 264.92 206.08 269.13L206.09 269.12Z" fill="black"/>
<path d="M20.4497 60.2598V65.9398C20.4497 66.3098 20.7497 66.5998 21.1097 66.5998H39.4897C39.8597 66.5998 40.1497 66.2998 40.1497 65.9398V60.2598H20.4497Z" fill="#606A6E"/>
<path d="M68.5701 60.2598V66.7298C68.5701 67.1498 68.9101 67.4898 69.3301 67.4798H90.5401C90.9601 67.4798 91.3001 67.1498 91.3001 66.7298V60.2598H68.5601H68.5701Z" fill="#606A6E"/>
<path d="M38.4299 58.6799L46.8899 67.6699V70.5799H32.6099V76.0099C32.6099 77.5399 33.6899 78.8599 35.1899 79.1699L42.9399 80.7699C50.3799 82.4099 58.0799 82.4099 65.5199 80.7699L73.2699 79.1699C74.7699 78.8599 75.8499 77.5399 75.8499 76.0099V70.5799H61.5699V67.6699L70.0299 58.6799H38.4399H38.4299Z" fill="#606A6E"/>
<path d="M93.9499 16.71H20.3799C20.3799 16.71 1.1499 23.85 1.1499 38.32V52C1.1499 52 1.3499 61.72 13.2499 61.72H98.3199V57.95H100.5V22.26H93.9599V16.71H93.9499Z" fill="#242424"/>
<path d="M82.85 30.17V24.3C82.9 17.58 80.53 11.06 76.18 5.93999C73.44 2.76999 69.92 0.189988 65.73 0.189988H48.98C34.16 0.109988 20.76 9.00999 15.1 22.7C14.13 25.12 13.36 27.62 12.79 30.17H82.85Z" fill="#606A6E"/>
<path d="M44.1197 54.71H10.0097C10.0097 54.71 4.71973 53.52 4.71973 49.29V39.21H83.5097V49.29C83.5097 53.52 78.2197 54.71 78.2197 54.71H44.1097H44.1197Z" fill="#606A6E"/>
<path d="M255.48 60.2598V65.9398C255.48 66.3098 255.18 66.5998 254.82 66.5998H236.44C236.07 66.5998 235.78 66.2998 235.78 65.9398V60.2598H255.48Z" fill="#606A6E"/>
<path d="M207.36 60.2598V65.9398C207.33 66.3298 206.99 66.6298 206.6 66.5998H185.39C185 66.6298 184.66 66.3298 184.63 65.9398V60.2598H207.37H207.36Z" fill="#606A6E"/>
<path d="M237.5 58.6799L229.04 67.6699V70.5799H243.32V76.0099C243.32 77.5399 242.24 78.8599 240.74 79.1699L232.99 80.7699C225.55 82.4099 217.84 82.4099 210.41 80.7699L202.66 79.1699C201.16 78.8599 200.08 77.5399 200.08 76.0099V70.5799H214.36V67.6699L205.9 58.6799H237.49H237.5Z" fill="#606A6E"/>
<path d="M181.98 16.71H255.55C255.55 16.71 274.78 23.85 274.78 38.32V52C274.78 52 274.58 61.72 262.68 61.72H177.62V57.95H175.44V22.26H181.98V16.71Z" fill="#242424"/>
<path d="M193.08 30.1699V24.2999C193.03 17.5799 195.4 11.0599 199.75 5.93988C202.49 2.76988 206.01 0.189885 210.2 0.189885H226.95C241.77 0.0998845 255.17 9.00988 260.83 22.6999C261.8 25.1199 262.57 27.6199 263.14 30.1699H193.08Z" fill="#606A6E"/>
<path d="M231.81 54.71H265.92C265.92 54.71 271.21 53.52 271.21 49.29V39.21H192.42V49.29C192.42 53.52 197.71 54.71 197.71 54.71H231.82H231.81Z" fill="#606A6E"/>
<path d="M198.89 188.12V191.51H197.19V188.15L193.95 182.93H195.92L197.13 184.96C197.2 185.09 197.29 185.24 197.38 185.39C197.47 185.55 197.56 185.71 197.65 185.87C197.73 186.03 197.81 186.18 197.89 186.31C197.96 186.44 198.02 186.55 198.06 186.63C198.1 186.55 198.16 186.44 198.23 186.31C198.3 186.18 198.38 186.03 198.47 185.88C198.55 185.72 198.64 185.57 198.73 185.41C198.82 185.25 198.9 185.1 198.99 184.96L200.2 182.93H202.15L198.91 188.11L198.89 188.12Z" fill="black"/>
<path d="M224.09 169.19L223.32 167.89C223.25 167.76 223.16 167.61 223.07 167.46C222.98 167.31 222.89 167.14 222.8 166.98C222.71 166.82 222.63 166.67 222.56 166.54C222.49 166.41 222.43 166.3 222.39 166.22C222.35 166.3 222.29 166.41 222.22 166.54C222.15 166.67 222.07 166.82 221.99 166.97C221.9 167.13 221.81 167.28 221.72 167.45C221.63 167.61 221.54 167.76 221.46 167.89L220.69 169.19H218.65L221.37 164.81L218.77 160.62H220.81L221.46 161.72C221.53 161.85 221.62 162 221.71 162.15C221.8 162.3 221.89 162.47 221.98 162.63C222.07 162.79 222.15 162.94 222.22 163.07C222.29 163.2 222.35 163.31 222.39 163.39C222.43 163.31 222.49 163.2 222.56 163.07C222.63 162.94 222.71 162.79 222.8 162.64C222.89 162.49 222.97 162.33 223.06 162.17C223.15 162.01 223.23 161.86 223.32 161.72L223.97 160.62H226.01L223.4 164.81L226.13 169.19H224.09Z" fill="black"/>
<path d="M226.53 211.58C226.53 212.03 226.46 212.43 226.31 212.77C226.16 213.12 225.96 213.41 225.69 213.64C225.43 213.87 225.1 214.05 224.73 214.17C224.35 214.29 223.94 214.35 223.48 214.35H219.59V205.78H223.52C224.35 205.78 225.01 205.97 225.5 206.36C225.99 206.75 226.23 207.31 226.23 208.04C226.23 208.41 226.15 208.73 225.99 209.02C225.83 209.31 225.61 209.53 225.32 209.71C225.66 209.87 225.95 210.1 226.18 210.41C226.41 210.72 226.52 211.11 226.52 211.59L226.53 211.58ZM224.5 208.18C224.5 207.91 224.42 207.71 224.25 207.57C224.08 207.43 223.82 207.36 223.44 207.36H221.26V208.98H223.52C223.88 208.98 224.13 208.9 224.27 208.76C224.41 208.61 224.48 208.42 224.48 208.18H224.5ZM224.77 211.6C224.77 210.87 224.36 210.5 223.55 210.5H221.27V212.72H223.55C223.97 212.72 224.27 212.62 224.47 212.42C224.67 212.22 224.77 211.95 224.77 211.61V211.6Z" fill="black"/>
<path d="M247.72 191.51L247.05 189.6H243.92L243.25 191.51H241.41L244.69 182.94H246.36L249.62 191.51H247.73H247.72ZM245.91 186.42C245.82 186.17 245.74 185.92 245.66 185.68C245.58 185.44 245.52 185.24 245.48 185.08C245.44 185.24 245.38 185.44 245.3 185.68C245.22 185.92 245.14 186.16 245.05 186.42L244.5 187.97H246.46L245.91 186.42Z" fill="black"/>
</g>
<defs>
<clipPath id="clip0_361_196">
<rect width="275.77" height="413.89" fill="white"/>
</clipPath>
</defs>
</svg>
