<svg width="276" height="414" viewBox="0 0 276 414" fill="none" xmlns="http://www.w3.org/2000/svg">
<g clip-path="url(#clip0_361_196)">
<path d="M84.3193 116.56V110.04C84.3493 108.99 83.5393 108.11 82.4893 108.05C45.7493 107.53 36.2293 110.5 21.3593 122.3C7.19931 133.53 5.15931 141.65 2.62931 146.16C2.08931 147.12 2.42931 148.34 3.39931 148.87C3.51931 148.94 3.63931 148.99 3.77931 149.03L10.1593 151.04L84.3193 116.54V116.56Z" fill="#606A6E"/>
<path d="M87.2502 128.24H106.68V383.76H100.73V370.38H93.5902L87.2402 128.25L87.2502 128.24Z" fill="#606A6E"/>
<path d="M100.34 111.7H64.25C28.76 111.7 0 140.46 0 175.95V349.65C0 385.13 28.76 413.9 64.25 413.9H100.34V111.7Z" fill="#242424"/>
<path d="M191.449 116.56V110.04C191.419 108.99 192.229 108.11 193.279 108.05C230.019 107.53 239.539 110.5 254.409 122.3C268.569 133.53 270.609 141.65 273.129 146.16C273.669 147.12 273.329 148.34 272.359 148.87C272.239 148.94 272.119 148.99 271.979 149.03L265.599 151.04L191.439 116.54L191.449 116.56Z" fill="#606A6E"/>
<path d="M189.321 128.24H169.891V383.76H175.841V370.38H182.981L189.331 128.25L189.321 128.24Z" fill="#606A6E"/>
<path d="M175.439 111.7H211.529C247.009 111.7 275.779 140.46 275.779 175.95V349.65C275.779 385.13 247.019 413.9 211.529 413.9H175.439V111.7Z" fill="#242424"/>
<path d="M92.6696 139.2H77.5996V143.43H92.6696V139.2Z" fill="white"/>
<path d="M199.181 138.77H193.581V133.16H189.911V138.77H184.311V142.43H189.911V148.04H193.581V142.43H199.181V138.77Z" fill="white"/>
<path d="M66.4506 249.14C66.4506 255.51 61.2906 260.67 54.9206 260.67C48.5506 260.67 43.3906 255.51 43.3906 249.14C43.3906 242.77 48.5506 237.61 54.9206 237.61C61.2906 237.61 66.4506 242.77 66.4506 249.14Z" fill="#606A6E"/>
<path d="M50.8203 251.84H59.0303L54.9303 244.76L50.8203 251.84Z" fill="white"/>
<path d="M43.4004 294.75C43.4004 288.38 48.5604 283.23 54.9304 283.23C61.3004 283.23 66.4504 288.39 66.4504 294.76C66.4504 301.12 61.2904 306.28 54.9304 306.28C48.5604 306.28 43.4004 301.12 43.4004 294.75Z" fill="#606A6E"/>
<path d="M59.0303 292.05H50.8203L54.9203 299.13L59.0303 292.05Z" fill="white"/>
<path d="M32.1198 260.42C38.4898 260.42 43.6398 265.58 43.6398 271.95C43.6398 278.32 38.4798 283.47 32.1098 283.47C25.7498 283.47 20.5898 278.31 20.5898 271.95C20.5898 265.58 25.7498 260.42 32.1198 260.42Z" fill="#606A6E"/>
<path d="M34.8202 276.05V267.84L27.7402 271.94L34.8202 276.05Z" fill="white"/>
<path d="M77.7309 283.47C71.3609 283.47 66.2109 278.31 66.2109 271.94C66.2109 265.57 71.3709 260.42 77.7409 260.42C84.1009 260.42 89.2609 265.58 89.2609 271.94C89.2609 278.31 84.1009 283.47 77.7309 283.47Z" fill="#606A6E"/>
<path d="M75.0293 267.84V276.05L82.1093 271.95L75.0293 267.84Z" fill="white"/>
<path d="M80.1805 319.9H63.0605V337.95H80.1805V319.9Z" fill="#606A6E"/>
<path d="M77.3998 328.93C77.3998 332.12 74.8099 334.71 71.6199 334.71C68.4299 334.71 65.8398 332.12 65.8398 328.93C65.8398 325.74 68.4299 323.15 71.6199 323.15C74.8099 323.15 77.3998 325.74 77.3998 328.93Z" fill="#242424"/>
<path d="M71.6199 335.21C68.1599 335.21 65.3398 332.39 65.3398 328.93C65.3398 325.47 68.1599 322.65 71.6199 322.65C75.0799 322.65 77.8998 325.47 77.8998 328.93C77.8998 332.39 75.0799 335.21 71.6199 335.21ZM71.6199 323.64C68.7099 323.64 66.3398 326.01 66.3398 328.92C66.3398 331.83 68.7099 334.2 71.6199 334.2C74.5299 334.2 76.8998 331.83 76.8998 328.92C76.8998 326.01 74.5299 323.64 71.6199 323.64Z" fill="white"/>
<path d="M78.5895 187.58C78.5895 200.65 67.9995 211.24 54.9295 211.24C41.8595 211.24 31.2695 200.65 31.2695 187.58C31.2695 174.51 41.8595 163.92 54.9295 163.92C67.9995 163.92 78.5895 174.51 78.5895 187.58Z" fill="#606A6E"/>
<path d="M55.9297 165.96H53.9297V172.73H55.9297V165.96Z" fill="white"/>
<path d="M55.9297 202.95H53.9297V209.72H55.9297V202.95Z" fill="white"/>
<path d="M39.8208 186.84H33.0508V188.84H39.8208V186.84Z" fill="white"/>
<path d="M76.8091 186.84H70.0391V188.84H76.8091V186.84Z" fill="white"/>
<path d="M71.8805 187.58C71.8805 196.94 64.2905 204.53 54.9305 204.53C45.5705 204.53 37.9805 196.94 37.9805 187.58C37.9805 178.22 45.5705 170.63 54.9305 170.63C64.2905 170.63 71.8805 178.22 71.8805 187.58Z" fill="#606A6E"/>
<path d="M54.9092 205.53C51.6892 205.53 48.4292 204.67 45.4892 202.85C41.4092 200.33 38.5492 196.37 37.4492 191.7C36.3492 187.03 37.1292 182.21 39.6492 178.13C44.8592 169.7 55.9492 167.09 64.3692 172.3C72.7892 177.51 75.4092 188.6 70.1992 197.02C66.8092 202.51 60.9092 205.53 54.8892 205.53H54.9092ZM41.3592 179.18C39.1192 182.81 38.4192 187.09 39.3992 191.24C40.3792 195.39 42.9192 198.91 46.5392 201.15C54.0192 205.78 63.8792 203.45 68.5092 195.97C73.1392 188.48 70.8092 178.63 63.3192 174C55.8392 169.37 45.9792 171.7 41.3492 179.18H41.3592Z" fill="white"/>
<path d="M217.741 328.5C217.741 335.45 212.101 341.09 205.151 341.09C198.201 341.09 192.561 335.45 192.561 328.5C192.561 321.55 198.201 315.91 205.151 315.91C212.101 315.91 217.741 321.55 217.741 328.5Z" fill="#606A6E"/>
<path d="M214.241 328.5C214.241 333.52 210.171 337.59 205.151 337.59C200.131 337.59 196.061 333.52 196.061 328.5C196.061 323.48 200.131 319.41 205.151 319.41C210.171 319.41 214.241 323.48 214.241 328.5Z" fill="#242424"/>
<path d="M205.139 322.6L199.439 328.21L201.169 328.26V333.27H209.099V328.26L210.829 328.21L205.129 322.6H205.139ZM207.009 331.58H203.269V328.34H207.009V331.58Z" fill="white"/>
<path d="M233.139 164.94C233.139 171.18 228.079 176.24 221.839 176.24C215.599 176.24 210.539 171.18 210.539 164.94C210.539 158.7 215.599 153.64 221.839 153.64C228.079 153.64 233.139 158.7 233.139 164.94Z" fill="#606A6E"/>
<path d="M233.139 210.15C233.139 216.39 228.079 221.45 221.839 221.45C215.599 221.45 210.539 216.39 210.539 210.15C210.539 203.91 215.599 198.85 221.839 198.85C228.079 198.85 233.139 203.91 233.139 210.15Z" fill="#606A6E"/>
<path d="M198.169 176.24C204.409 176.24 209.469 181.3 209.469 187.54C209.469 193.78 204.409 198.84 198.169 198.84C191.929 198.84 186.869 193.78 186.869 187.54C186.869 181.3 191.929 176.24 198.169 176.24Z" fill="#606A6E"/>
<path d="M245.499 176.24C251.739 176.24 256.799 181.3 256.799 187.54C256.799 193.78 251.739 198.84 245.499 198.84C239.259 198.84 234.199 193.78 234.199 187.54C234.199 181.3 239.259 176.24 245.499 176.24Z" fill="#606A6E"/>
<path d="M245.5 271.68C245.5 284.75 234.91 295.34 221.84 295.34C208.77 295.34 198.18 284.75 198.18 271.68C198.18 258.61 208.77 248.02 221.84 248.02C234.91 248.02 245.5 258.61 245.5 271.68Z" fill="#606A6E"/>
<path d="M222.84 250.06H220.84V256.83H222.84V250.06Z" fill="white"/>
<path d="M222.84 287.05H220.84V293.82H222.84V287.05Z" fill="white"/>
<path d="M206.731 270.94H199.961V272.94H206.731V270.94Z" fill="white"/>
<path d="M243.721 270.94H236.951V272.94H243.721V270.94Z" fill="white"/>
<path d="M238.791 271.68C238.791 281.04 231.201 288.63 221.841 288.63C212.481 288.63 204.891 281.04 204.891 271.68C204.891 262.32 212.481 254.73 221.841 254.73C231.201 254.73 238.791 262.32 238.791 271.68Z" fill="#606A6E"/>
<path d="M221.851 289.63C220.901 289.63 219.931 289.55 218.961 289.4C209.191 287.81 202.531 278.57 204.111 268.8C204.881 264.07 207.441 259.91 211.331 257.11C215.221 254.31 219.971 253.19 224.701 253.95C229.431 254.72 233.581 257.28 236.391 261.17C239.191 265.06 240.311 269.81 239.551 274.54C238.121 283.34 230.481 289.62 221.841 289.62L221.851 289.63ZM206.091 269.12C204.681 277.8 210.601 286.01 219.281 287.42C227.961 288.83 236.171 282.91 237.581 274.23C238.261 270.02 237.271 265.8 234.771 262.35C232.281 258.89 228.591 256.61 224.381 255.93C220.181 255.25 215.951 256.24 212.501 258.74C209.051 261.24 206.761 264.92 206.081 269.13L206.091 269.12Z" fill="white"/>
<path d="M20.4512 60.2603V65.9403C20.4512 66.3103 20.7512 66.6003 21.1112 66.6003H39.4912C39.8612 66.6003 40.1512 66.3003 40.1512 65.9403V60.2603H20.4512Z" fill="#606A6E"/>
<path d="M68.5705 60.2603V66.7303C68.5705 67.1503 68.9106 67.4903 69.3306 67.4803H90.5406C90.9606 67.4803 91.3006 67.1503 91.3006 66.7303V60.2603H68.5605H68.5705Z" fill="#606A6E"/>
<path d="M38.4313 58.6802L46.8913 67.6702V70.5802H32.6113V76.0102C32.6113 77.5402 33.6913 78.8602 35.1913 79.1702L42.9413 80.7702C50.3813 82.4102 58.0813 82.4102 65.5213 80.7702L73.2713 79.1702C74.7713 78.8602 75.8513 77.5402 75.8513 76.0102V70.5802H61.5713V67.6702L70.0313 58.6802H38.4413H38.4313Z" fill="#606A6E"/>
<path d="M93.9504 16.71H20.3804C20.3804 16.71 1.15039 23.85 1.15039 38.32V52C1.15039 52 1.35039 61.72 13.2504 61.72H98.3204V57.95H100.5V22.26H93.9604V16.71H93.9504Z" fill="#242424"/>
<path d="M82.851 30.17V24.3C82.901 17.58 80.531 11.06 76.181 5.93999C73.441 2.76999 69.921 0.189988 65.731 0.189988H48.981C34.161 0.109988 20.761 9.00999 15.101 22.7C14.131 25.12 13.361 27.62 12.791 30.17H82.851Z" fill="#606A6E"/>
<path d="M44.1207 54.71H10.0107C10.0107 54.71 4.7207 53.52 4.7207 49.29V39.21H83.5107V49.29C83.5107 53.52 78.2207 54.71 78.2207 54.71H44.1107H44.1207Z" fill="#606A6E"/>
<path d="M255.481 60.2603V65.9403C255.481 66.3103 255.181 66.6003 254.821 66.6003H236.441C236.071 66.6003 235.781 66.3003 235.781 65.9403V60.2603H255.481Z" fill="#606A6E"/>
<path d="M207.361 60.2603V65.9403C207.331 66.3303 206.991 66.6303 206.601 66.6003H185.391C185.001 66.6303 184.661 66.3303 184.631 65.9403V60.2603H207.371H207.361Z" fill="#606A6E"/>
<path d="M237.5 58.6802L229.04 67.6702V70.5802H243.32V76.0102C243.32 77.5402 242.24 78.8602 240.74 79.1702L232.99 80.7702C225.55 82.4102 217.84 82.4102 210.41 80.7702L202.66 79.1702C201.16 78.8602 200.08 77.5402 200.08 76.0102V70.5802H214.36V67.6702L205.9 58.6802H237.49H237.5Z" fill="#606A6E"/>
<path d="M181.979 16.71H255.549C255.549 16.71 274.779 23.85 274.779 38.32V52C274.779 52 274.579 61.72 262.679 61.72H177.619V57.95H175.439V22.26H181.979V16.71Z" fill="#242424"/>
<path d="M193.081 30.1701V24.3001C193.031 17.5801 195.401 11.0601 199.751 5.94013C202.491 2.77013 206.011 0.190129 210.201 0.190129H226.951C241.771 0.100129 255.171 9.01013 260.831 22.7001C261.801 25.1201 262.571 27.6201 263.141 30.1701H193.081Z" fill="#606A6E"/>
<path d="M231.81 54.71H265.92C265.92 54.71 271.21 53.52 271.21 49.29V39.21H192.42V49.29C192.42 53.52 197.71 54.71 197.71 54.71H231.82H231.81Z" fill="#606A6E"/>
<path d="M198.889 188.12V191.51H197.189V188.15L193.949 182.93H195.919L197.129 184.96C197.199 185.09 197.289 185.24 197.379 185.39C197.469 185.55 197.559 185.71 197.649 185.87C197.729 186.03 197.809 186.18 197.889 186.31C197.959 186.44 198.019 186.55 198.059 186.63C198.099 186.55 198.159 186.44 198.229 186.31C198.299 186.18 198.379 186.03 198.469 185.88C198.549 185.72 198.639 185.57 198.729 185.41C198.819 185.25 198.899 185.1 198.989 184.96L200.199 182.93H202.149L198.909 188.11L198.889 188.12Z" fill="white"/>
<path d="M224.09 169.19L223.32 167.89C223.25 167.76 223.16 167.61 223.07 167.46C222.98 167.31 222.89 167.14 222.8 166.98C222.71 166.82 222.63 166.67 222.56 166.54C222.49 166.41 222.43 166.3 222.39 166.22C222.35 166.3 222.29 166.41 222.22 166.54C222.15 166.67 222.07 166.82 221.99 166.97C221.9 167.13 221.81 167.28 221.72 167.45C221.63 167.61 221.54 167.76 221.46 167.89L220.69 169.19H218.65L221.37 164.81L218.77 160.62H220.81L221.46 161.72C221.53 161.85 221.62 162 221.71 162.15C221.8 162.3 221.89 162.47 221.98 162.63C222.07 162.79 222.15 162.94 222.22 163.07C222.29 163.2 222.35 163.31 222.39 163.39C222.43 163.31 222.49 163.2 222.56 163.07C222.63 162.94 222.71 162.79 222.8 162.64C222.89 162.49 222.97 162.33 223.06 162.17C223.15 162.01 223.23 161.86 223.32 161.72L223.97 160.62H226.01L223.4 164.81L226.13 169.19H224.09Z" fill="white"/>
<path d="M226.53 211.58C226.53 212.03 226.46 212.43 226.31 212.77C226.16 213.12 225.96 213.41 225.69 213.64C225.43 213.87 225.1 214.05 224.73 214.17C224.35 214.29 223.94 214.35 223.48 214.35H219.59V205.78H223.52C224.35 205.78 225.01 205.97 225.5 206.36C225.99 206.75 226.23 207.31 226.23 208.04C226.23 208.41 226.15 208.73 225.99 209.02C225.83 209.31 225.61 209.53 225.32 209.71C225.66 209.87 225.95 210.1 226.18 210.41C226.41 210.72 226.52 211.11 226.52 211.59L226.53 211.58ZM224.5 208.18C224.5 207.91 224.42 207.71 224.25 207.57C224.08 207.43 223.82 207.36 223.44 207.36H221.26V208.98H223.52C223.88 208.98 224.13 208.9 224.27 208.76C224.41 208.61 224.48 208.42 224.48 208.18H224.5ZM224.77 211.6C224.77 210.87 224.36 210.5 223.55 210.5H221.27V212.72H223.55C223.97 212.72 224.27 212.62 224.47 212.42C224.67 212.22 224.77 211.95 224.77 211.61V211.6Z" fill="white"/>
<path d="M247.72 191.51L247.05 189.6H243.92L243.25 191.51H241.41L244.69 182.94H246.36L249.62 191.51H247.73H247.72ZM245.91 186.42C245.82 186.17 245.74 185.92 245.66 185.68C245.58 185.44 245.52 185.24 245.48 185.08C245.44 185.24 245.38 185.44 245.3 185.68C245.22 185.92 245.14 186.16 245.05 186.42L244.5 187.97H246.46L245.91 186.42Z" fill="white"/>
</g>
<defs>
<clipPath id="clip0_361_196">
<rect width="275.77" height="413.89" fill="white"/>
</clipPath>
</defs>
</svg>
