<svg width="521" height="366" viewBox="0 0 521 366" fill="none" xmlns="http://www.w3.org/2000/svg">
<g clip-path="url(#clip0_361_66)">
<path d="M89.1006 27.63C89.1006 27.63 92.1806 14.71 98.9406 4.77C106.071 1.91 113.631 0.29 121.301 0C121.301 0 128.951 2.78 136.211 13.82L89.1006 27.64V27.63Z" fill="#242424"/>
<path d="M431.171 27.63C431.171 27.63 428.091 14.71 421.331 4.77C414.201 1.91 406.641 0.29 398.971 0C398.971 0 391.321 2.78 384.061 13.82L431.171 27.64V27.63Z" fill="#242424"/>
<path d="M79.75 40.3499L83.13 29.0199C83.13 29.0199 108.02 6.69993 157.44 0.849928C161.47 0.379928 165.55 1.10993 169.17 2.94993C178.6 7.74993 197.9 17.2599 205 18.2899L79.76 40.3499H79.75Z" fill="#606A6E"/>
<path d="M440.52 40.3499L437.14 29.0199C437.14 29.0199 412.25 6.69993 362.83 0.849928C358.8 0.379928 354.72 1.10993 351.11 2.94993C341.68 7.74993 322.38 17.2599 315.28 18.2899L440.52 40.3499Z" fill="#606A6E"/>
<path d="M260.141 15.51H158.58C158.58 15.51 75.3805 16.11 57.4905 63.52C39.6005 110.92 -7.90952 235.37 1.13048 305.94C1.13048 305.94 4.01048 349.42 46.8705 364.67C51.9005 366.45 57.4805 365.72 61.9005 362.73C70.3005 357.05 85.6205 343.41 109.85 310.66C114.53 304.33 120.82 295.7 126.2 289.96C141.18 273.99 147.27 264.48 187.2 264.48H333.06C372.98 264.48 379.08 273.99 394.06 289.96C399.44 295.7 405.73 304.33 410.41 310.66C434.64 343.4 449.95 357.05 458.36 362.73C462.78 365.73 468.361 366.45 473.391 364.67C516.251 349.42 519.13 305.94 519.13 305.94C528.17 235.37 480.66 110.92 462.77 63.51C444.88 16.1 361.68 15.5 361.68 15.5H260.12L260.141 15.51Z" fill="#242424"/>
<path d="M329.371 142.49C350.401 142.49 367.451 159.54 367.451 180.57C367.451 201.6 350.401 218.65 329.371 218.65C308.341 218.65 291.291 201.6 291.291 180.57C291.311 159.55 308.351 142.51 329.371 142.49ZM329.371 138.96C306.391 138.96 287.761 157.59 287.761 180.57C287.761 203.55 306.391 222.18 329.371 222.18C352.351 222.18 370.981 203.55 370.981 180.57C370.981 157.59 352.351 138.95 329.371 138.95" fill="#606A6E"/>
<path d="M329.37 152.43C344.91 152.43 357.51 165.03 357.51 180.57C357.51 196.11 344.91 208.71 329.37 208.71C313.83 208.71 301.23 196.11 301.23 180.57C301.25 165.04 313.84 152.45 329.37 152.43ZM329.37 146.78C310.7 146.78 295.57 161.91 295.57 180.58C295.57 199.25 310.7 214.38 329.37 214.38C348.04 214.38 363.17 199.25 363.17 180.58C363.17 161.92 348.04 146.78 329.38 146.78" fill="#606A6E"/>
<path d="M329.37 161.13C340.11 161.13 348.81 169.83 348.81 180.57C348.81 191.31 340.11 200.01 329.37 200.01C318.63 200.01 309.93 191.31 309.93 180.57C309.94 169.84 318.64 161.14 329.37 161.13ZM329.37 158.3C317.07 158.3 307.11 168.27 307.11 180.57C307.11 192.87 317.08 202.83 329.38 202.83C341.68 202.83 351.64 192.86 351.64 180.57C351.64 168.27 341.67 158.31 329.38 158.3" fill="white"/>
<path d="M125.01 62.9699C146.04 62.9699 163.09 80.0199 163.09 101.05C163.09 122.08 146.04 139.13 125.01 139.13C103.98 139.13 86.9304 122.08 86.9304 101.05C86.9504 80.0299 103.99 62.9899 125.01 62.9699ZM125.01 59.4399C102.03 59.4399 83.4004 78.0699 83.4004 101.05C83.4004 124.03 102.03 142.66 125.01 142.66C147.99 142.66 166.62 124.03 166.62 101.05C166.62 78.0699 147.99 59.4399 125.01 59.4399Z" fill="#606A6E"/>
<path d="M125.011 72.91C140.551 72.91 153.151 85.51 153.151 101.05C153.151 116.59 140.551 129.19 125.011 129.19C109.471 129.19 96.8707 116.59 96.8707 101.05C96.8907 85.52 109.481 72.93 125.011 72.91ZM125.011 67.26C106.351 67.26 91.2207 82.4 91.2207 101.06C91.2207 119.72 106.361 134.85 125.021 134.85C143.681 134.85 158.811 119.72 158.811 101.06C158.811 82.4 143.681 67.27 125.011 67.27" fill="#606A6E"/>
<path d="M125.01 81.62C135.75 81.62 144.45 90.32 144.45 101.06C144.45 111.8 135.75 120.5 125.01 120.5C114.27 120.5 105.57 111.8 105.57 101.06C105.58 90.33 114.28 81.63 125.01 81.62ZM125.01 78.79C112.71 78.79 102.75 88.76 102.75 101.06C102.75 113.36 112.72 123.32 125.02 123.32C137.32 123.32 147.28 113.35 147.28 101.06C147.28 88.77 137.31 78.8 125.02 78.8" fill="white"/>
<path d="M267.78 120.47H252.61C247.5 120.47 243.37 124.61 243.37 129.71C243.37 134.81 247.51 138.95 252.61 138.95H267.78C272.89 138.95 277.02 134.81 277.02 129.71C277.02 124.61 272.88 120.47 267.78 120.47Z" fill="#606A6E"/>
<path d="M299.32 86.74C291.98 86.74 286.03 92.69 286.03 100.03C286.03 107.37 291.98 113.32 299.32 113.32C306.66 113.32 312.61 107.37 312.61 100.03C312.61 92.69 306.66 86.74 299.32 86.74Z" fill="#606A6E"/>
<path d="M260.7 26.5701C249.1 26.5701 239.69 35.9701 239.69 47.5801C239.69 59.1901 249.09 68.5901 260.7 68.5901C272.3 68.5901 281.71 59.1901 281.71 47.5801C281.71 35.9701 272.31 26.5701 260.7 26.5701Z" fill="#606A6E"/>
<path d="M221.53 86.74C214.19 86.74 208.24 92.69 208.24 100.03C208.24 107.37 214.19 113.32 221.53 113.32C228.87 113.32 234.82 107.37 234.82 100.03C234.82 92.69 228.87 86.74 221.53 86.74Z" fill="#606A6E"/>
<path d="M226.911 104.51H221.441V100.2H226.911V104.51ZM228.321 98.78H220.021V105.92H228.321V98.78Z" fill="white"/>
<path d="M218.72 101.65H215.9V95.91H222.79V97.48H224.2V94.49H214.48V103.05H218.72V101.64V101.65Z" fill="white"/>
<path d="M294.421 97.43H304.491V96.02H294.421" fill="white"/>
<path d="M294.421 100.75H304.491V99.3401H294.421" fill="white"/>
<path d="M294.421 104.06H304.491V102.65H294.421" fill="white"/>
<path d="M252.931 128V133.6H267.471V128H266.061V132.19H254.351V128H252.941H252.931Z" fill="white"/>
<path d="M258.81 128.53L260.24 126.89L261.82 128.55L262.84 127.58L260.19 124.79L257.74 127.6L258.8 128.53H258.81Z" fill="white"/>
<path d="M260.931 130.97V125.88H259.521V130.97" fill="white"/>
<path d="M190.83 149.04C212.52 149.04 230.1 166.62 230.1 188.31C230.1 210 212.52 227.58 190.83 227.58C169.14 227.58 151.56 210 151.56 188.31C151.58 166.63 169.15 149.07 190.83 149.04ZM190.83 146.21C167.58 146.21 148.74 165.06 148.74 188.3C148.74 211.54 167.59 230.39 190.83 230.39C214.07 230.39 232.92 211.54 232.92 188.3C232.92 165.05 214.07 146.21 190.83 146.21Z" fill="#606A6E"/>
<path d="M190.681 152.58C186.251 152.64 181.881 153.5 177.761 155.12V174.28H157.151C153.781 183.24 153.781 193.11 157.151 202.07H177.761V221.23C186.041 224.62 195.321 224.62 203.601 221.23V202.07H224.211C227.581 193.11 227.581 183.24 224.211 174.28H203.601V155.12C199.481 153.49 195.111 152.63 190.681 152.58Z" fill="#606A6E"/>
<path d="M395.831 46.99C385.031 46.99 376.271 55.75 376.271 66.55C376.271 77.35 385.031 86.11 395.831 86.11C406.631 86.11 415.391 77.35 415.391 66.55C415.391 55.75 406.631 46.99 395.831 46.99Z" fill="#606A6E"/>
<path d="M145.061 100.99C145.061 112.06 136.081 121.04 125.011 121.04C113.941 121.04 104.961 112.06 104.961 100.99C104.961 89.9199 113.941 80.9399 125.011 80.9399C136.081 80.9399 145.061 89.9199 145.061 100.99Z" fill="#606A6E"/>
<path d="M349.71 180.34C349.71 191.41 340.73 200.39 329.66 200.39C318.59 200.39 309.61 191.41 309.61 180.34C309.61 169.27 318.59 160.29 329.66 160.29C340.73 160.29 349.71 169.27 349.71 180.34Z" fill="#606A6E"/>
<path d="M260.781 44.1101C261.211 44.4501 261.681 44.7901 262.121 45.1801C265.281 47.8501 268.101 50.9001 270.531 54.2501C271.481 55.5001 272.201 56.9001 272.671 58.4001C273.151 59.4801 272.741 60.7501 271.731 61.3601C269.361 63.3101 266.491 64.5801 263.451 65.0301C258.501 65.8501 253.441 64.4801 249.571 61.2901C248.611 60.6601 248.241 59.4201 248.701 58.3601C249.151 56.9601 249.821 55.6401 250.701 54.4701C253.371 50.7201 256.541 47.3501 260.131 44.4701C260.251 44.3801 260.371 44.3001 260.491 44.2201C260.581 44.1801 260.681 44.1501 260.771 44.1201" fill="white"/>
<path d="M274.761 58.1901C274.721 58.0701 274.691 57.9601 274.671 57.8301C274.771 55.7901 274.311 53.7601 273.341 51.9601C271.341 47.7601 268.841 43.8201 265.891 40.2201C265.761 40.0501 265.631 39.8801 265.431 39.6101C266.471 38.6901 267.431 37.7501 268.501 36.9401C269.421 36.2601 270.401 35.6601 271.431 35.1601C272.491 34.6401 272.951 34.8101 273.751 35.6801C276.121 38.2201 277.661 41.4301 278.151 44.8701C278.861 49.3001 277.831 53.8301 275.291 57.5201C275.161 57.7201 274.991 57.8901 274.761 58.1801" fill="white"/>
<path d="M246.541 58.09C246.341 57.83 246.141 57.57 245.961 57.3C243.691 53.88 242.701 49.78 243.161 45.7C243.531 41.92 245.141 38.37 247.731 35.59C248.181 34.86 249.141 34.64 249.871 35.1C249.871 35.1 249.871 35.1 249.881 35.1C250.721 35.48 251.531 35.94 252.291 36.47C253.591 37.4 254.811 38.46 255.911 39.62C255.781 39.81 255.691 39.98 255.571 40.12C252.701 43.59 250.251 47.39 248.281 51.44C247.691 52.75 247.211 54.11 246.851 55.51C246.711 56.33 246.651 57.15 246.671 57.98L246.551 58.08L246.541 58.09Z" fill="white"/>
<path d="M260.69 35.15C257.81 33.71 254.97 32.28 251.62 32.54C254 30.97 256.77 30.07 259.62 29.94C263.19 29.69 266.76 30.6 269.77 32.53C266.44 32.3 263.58 33.68 260.69 35.14" fill="white"/>
<path d="M393.11 78.41V69L385.86 55.45H391.81L394.15 60.97C394.85 62.62 395.36 63.85 395.92 65.37H395.99C396.5 63.94 397.05 62.59 397.72 60.97L400.03 55.45H405.88L398.31 68.82V78.41H393.12H393.11Z" fill="white"/>
<path d="M395.83 117.62C385.03 117.62 376.27 126.38 376.27 137.18C376.27 147.98 385.03 156.74 395.83 156.74C406.63 156.74 415.39 147.98 415.39 137.18C415.39 126.38 406.63 117.62 395.83 117.62Z" fill="#606A6E"/>
<path d="M392.23 141.73L390.61 147.62H385.24L392.25 124.66H399.04L406.19 147.62H400.6L398.83 141.73H392.23ZM398.06 137.86L396.63 132.98C396.24 131.62 395.83 129.9 395.48 128.56H395.41C395.07 129.91 394.73 131.65 394.36 132.99L392.99 137.86H398.07H398.06Z" fill="white"/>
<path d="M358.85 82.27C348.05 82.27 339.29 91.03 339.29 101.83C339.29 112.63 348.05 121.39 358.85 121.39C369.65 121.39 378.41 112.63 378.41 101.83C378.41 91.03 369.65 82.27 358.85 82.27Z" fill="#606A6E"/>
<path d="M362.74 113.7L360.67 109.55C359.84 107.94 359.27 106.75 358.64 105.42H358.57C358.09 106.75 357.53 107.95 356.78 109.54L354.88 113.71H348.97L355.6 102.09L349.2 90.76H355.17L357.18 94.94C357.85 96.34 358.35 97.47 358.89 98.76H358.98C359.53 97.3 359.96 96.28 360.55 94.96L362.48 90.77H368.41L361.94 101.97L368.75 113.73H362.75L362.74 113.7Z" fill="white"/>
<path d="M432.01 82.27C421.21 82.27 412.45 91.03 412.45 101.83C412.45 112.63 421.21 121.39 432.01 121.39C442.81 121.39 451.57 112.63 451.57 101.83C451.57 91.03 442.81 82.27 432.01 82.27Z" fill="#606A6E"/>
<path d="M423.98 91.0499C426.2 90.7099 428.44 90.5399 430.68 90.5599C433.84 90.5599 435.79 90.8699 437.47 91.8499C439.17 92.7099 440.24 94.4699 440.21 96.3799C440.16 98.6599 438.63 100.64 436.44 101.26V101.35C439.11 101.9 441.02 104.25 441.01 106.98C441.02 108.89 440.14 110.69 438.62 111.86C436.94 113.21 434.16 113.95 429.59 113.95C427.71 113.97 425.84 113.86 423.98 113.61V91.0699V91.0499ZM429.12 99.8399H430.8C433.55 99.8399 434.98 98.6999 434.98 96.9899C434.98 95.2799 433.66 94.3299 431.31 94.3299C430.57 94.3099 429.84 94.3599 429.11 94.4899V99.8399H429.12ZM429.12 110C429.78 110.08 430.45 110.11 431.11 110.09C433.47 110.09 435.54 109.18 435.54 106.76C435.54 104.34 433.48 103.54 430.89 103.54H429.12V109.99V110Z" fill="white"/>
</g>
<defs>
<clipPath id="clip0_361_66">
<rect width="520.28" height="365.63" fill="white"/>
</clipPath>
</defs>
</svg>
